<svg width="85" height="32" viewBox="0 0 85 32" fill="none" xmlns="http://www.w3.org/2000/svg">
<rect x="4" y="2" width="28" height="28" rx="14" fill="#2664F1"/>
<g clip-path="url(#clip0_60037_1161)">
<path d="M17.5419 22.3098C17.6872 22.3945 17.7599 22.4369 17.8624 22.4589C17.942 22.4759 18.058 22.4759 18.1376 22.4589C18.2401 22.4369 18.3128 22.3945 18.4581 22.3098C19.7365 21.5639 23.25 19.2212 23.25 16V12.8615C23.25 12.3369 23.25 12.0745 23.1642 11.849C23.0884 11.6498 22.9652 11.472 22.8053 11.3311C22.6243 11.1716 22.3786 11.0795 21.8874 10.8953L18.3687 9.57575C18.2322 9.52458 18.164 9.499 18.0939 9.48886C18.0316 9.47987 17.9684 9.47987 17.9061 9.48886C17.836 9.499 17.7678 9.52458 17.6313 9.57575L14.1126 10.8953C13.6214 11.0795 13.3757 11.1716 13.1947 11.3311C13.0348 11.472 12.9116 11.6498 12.8358 11.849C12.75 12.0745 12.75 12.3369 12.75 12.8615V16C12.75 19.2212 16.2635 21.5639 17.5419 22.3098Z" fill="white" stroke="white" stroke-width="1.3125" stroke-linecap="round" stroke-linejoin="round"/>
</g>
<path d="M31 24.4191C32.5317 21.9839 33.4186 19.0963 33.4186 16C33.4186 12.9037 32.5317 10.0161 31 7.58092C33.5361 4.19133 37.5659 2 42.1038 2C49.7784 2 56 8.26802 56 16C56 23.732 49.7784 30 42.1038 30C37.5659 30 33.5361 27.8087 31 24.4191Z" fill="#FFD600"/>
<path d="M47.0752 14.4893C47.0133 14.3911 46.9059 14.3325 46.789 14.3325H43.0866V9.33133C43.0852 9.14726 42.9338 8.99865 42.748 9.00001C42.6228 9.00137 42.5072 9.07091 42.4507 9.18135L38.4112 17.1835C38.3272 17.3485 38.3946 17.5489 38.5598 17.6307C38.6066 17.6539 38.6575 17.6661 38.7098 17.6661H42.4122V22.6673C42.4122 22.8214 42.5195 22.955 42.6709 22.9905C42.6957 22.9973 42.7219 23 42.748 23C42.8746 23 42.9902 22.9291 43.0481 22.8159L47.0876 14.8138C47.1413 14.7129 47.1372 14.5888 47.0752 14.4893Z" fill="black"/>
<path d="M55 24.4191C56.5317 21.9839 57.4186 19.0963 57.4186 16C57.4186 12.9037 56.5317 10.0161 55 7.58092C57.5361 4.19133 61.5659 2 66.1038 2C73.7784 2 80 8.26802 80 16C80 23.732 73.7784 30 66.1038 30C61.5659 30 57.5361 27.8087 55 24.4191Z" fill="#2A7F48"/>
<path d="M61.8684 15C61.5923 15 61.3684 15.2239 61.3684 15.5V19.1667C61.3684 19.4428 61.5923 19.6667 61.8684 19.6667H62.9211C63.1972 19.6667 63.4211 19.4428 63.4211 19.1667V15.5C63.4211 15.2239 63.1972 15 62.9211 15H61.8684ZM65.9737 15C65.6975 15 65.4737 15.2239 65.4737 15.5V19.1667C65.4737 19.4428 65.6975 19.6667 65.9737 19.6667H67.0263C67.3025 19.6667 67.5263 19.4428 67.5263 19.1667V15.5C67.5263 15.2239 67.3025 15 67.0263 15H65.9737ZM60 22.5C60 22.7761 60.2239 23 60.5 23H72.5C72.7761 23 73 22.7761 73 22.5V21.5C73 21.2239 72.7761 21 72.5 21H60.5C60.2239 21 60 21.2239 60 21.5V22.5ZM70.0789 15C69.8028 15 69.5789 15.2239 69.5789 15.5V19.1667C69.5789 19.4428 69.8028 19.6667 70.0789 19.6667H71.1316C71.4077 19.6667 71.6316 19.4428 71.6316 19.1667V15.5C71.6316 15.2239 71.4077 15 71.1316 15H70.0789ZM66.7282 9.117C66.5849 9.04355 66.4151 9.04355 66.2718 9.117L60.2718 12.1939C60.105 12.2795 60 12.4513 60 12.6388V13.1667C60 13.4428 60.2239 13.6667 60.5 13.6667H72.5C72.7761 13.6667 73 13.4428 73 13.1667V12.6388C73 12.4513 72.895 12.2795 72.7282 12.1939L66.7282 9.117Z" fill="white"/>
<defs>
<clipPath id="clip0_60037_1161">
<rect width="14" height="15.75" fill="white" transform="translate(11 8.125)"/>
</clipPath>
</defs>
</svg>
