<svg width="24" height="24" viewBox="0 0 24 24" fill="none" xmlns="http://www.w3.org/2000/svg">
<path fill-rule="evenodd" clip-rule="evenodd" d="M15.9321 16.6966L16.0647 16.5752L19.0157 19.1788C19.3505 19.4742 19.8622 19.4384 20.1526 19.0994L20.2063 19.0367C20.4907 18.7046 20.4558 18.2056 20.128 17.9164L17.1453 15.2849L17.2371 15.1406C18.0064 13.9317 18.453 12.4912 18.453 10.9441C18.453 6.66443 15.0356 3.2002 10.8261 3.2002C6.61669 3.2002 3.19922 6.66443 3.19922 10.9441C3.19922 15.2237 6.61669 18.6879 10.8261 18.6879C12.7896 18.6879 14.5798 17.9348 15.9321 16.6966ZM15.2081 15.2054L15.5933 14.7566L15.6 14.748C16.4121 13.7006 16.8963 12.3793 16.8963 10.9441C16.8963 7.54594 14.1814 4.78616 10.8261 4.78616C7.47088 4.78616 4.75594 7.54594 4.75594 10.9441C4.75594 14.3422 7.47088 17.102 10.8261 17.102C12.549 17.102 14.1039 16.3736 15.2081 15.2054Z" fill="black"/>
</svg>
