<svg width="24" height="24" viewBox="0 0 24 24" fill="none" xmlns="http://www.w3.org/2000/svg">
<path fill-rule="evenodd" clip-rule="evenodd" d="M13.7163 2.42598C14.3088 1.88738 15.2198 1.90906 15.786 2.47523L19.2241 5.91337C19.8297 6.51896 19.8062 7.50783 19.1725 8.08394L9.11209 17.2298C8.74394 17.5644 8.26427 17.7499 7.76674 17.7499H4C3.44772 17.7499 3 17.3022 3 16.7499V13.0528C3 12.4894 3.2377 11.952 3.65465 11.573L13.7163 2.42598ZM4.66366 12.6829C4.55943 12.7776 4.5 12.912 4.5 13.0528V16.2499H7.76674C7.89112 16.2499 8.01104 16.2035 8.10308 16.1199L17.7755 7.32676C17.9867 7.13473 17.9946 6.8051 17.7927 6.60324L15.0625 3.87301C14.8737 3.68428 14.5701 3.67706 14.3726 3.85659L4.66366 12.6829Z" fill="black"/>
<path d="M3 21.25C3 20.8358 3.33579 20.5 3.75 20.5H20.25C20.6642 20.5 21 20.8358 21 21.25C21 21.6642 20.6642 22 20.25 22H3.75C3.33579 22 3 21.6642 3 21.25Z" fill="black"/>
</svg>
