<svg width="24" height="24" viewBox="0 0 24 24" fill="none" xmlns="http://www.w3.org/2000/svg">
<path fill-rule="evenodd" clip-rule="evenodd" d="M5.16957 4.25H18.8304C19.3646 4.24999 19.8104 4.24998 20.1747 4.27974C20.5546 4.31078 20.9112 4.37789 21.2485 4.54974C21.7659 4.81339 22.1866 5.23408 22.4503 5.75153C22.6221 6.08879 22.6892 6.44545 22.7203 6.82533C22.75 7.18956 22.75 7.6354 22.75 8.16955V12C22.75 12.4142 22.4142 12.75 22 12.75C21.5858 12.75 21.25 12.4142 21.25 12V10.75H2.75V15.8C2.75 16.3724 2.75058 16.7566 2.77476 17.0525C2.79822 17.3396 2.8401 17.4769 2.88624 17.5675C3.00608 17.8027 3.19731 17.9939 3.43251 18.1138C3.52307 18.1599 3.66036 18.2018 3.94748 18.2252C4.24336 18.2494 4.62757 18.25 5.2 18.25H10C10.4142 18.25 10.75 18.5858 10.75 19C10.75 19.4142 10.4142 19.75 10 19.75H5.16955C4.6354 19.75 4.18956 19.75 3.82533 19.7203C3.44545 19.6892 3.08879 19.6221 2.75153 19.4503C2.23408 19.1866 1.81338 18.7659 1.54973 18.2485C1.37789 17.9112 1.31078 17.5546 1.27974 17.1747C1.24998 16.8104 1.24999 16.3646 1.25 15.8304V8.16957C1.24999 7.63541 1.24998 7.18956 1.27974 6.82533C1.31078 6.44545 1.37789 6.08879 1.54973 5.75153C1.81338 5.23408 2.23408 4.81338 2.75153 4.54973C3.08879 4.37789 3.44545 4.31078 3.82533 4.27974C4.18956 4.24998 4.63541 4.24999 5.16957 4.25ZM2.75 9.25H21.25V8.2C21.25 7.62757 21.2494 7.24336 21.2252 6.94748C21.2018 6.66036 21.1599 6.52308 21.1138 6.43251C20.9939 6.19731 20.8027 6.00609 20.5675 5.88624C20.4769 5.8401 20.3396 5.79822 20.0525 5.77476C19.7566 5.75058 19.3724 5.75 18.8 5.75H5.2C4.62757 5.75 4.24336 5.75058 3.94748 5.77476C3.66036 5.79822 3.52307 5.8401 3.43251 5.88624C3.19731 6.00608 3.00608 6.19731 2.88624 6.43251C2.8401 6.52307 2.79822 6.66036 2.77476 6.94748C2.75058 7.24336 2.75 7.62757 2.75 8.2V9.25ZM15 15.75C15 14.3693 16.1193 13.25 17.5 13.25C18.8807 13.25 20 14.3693 20 15.75V16.7585C20.0406 16.7605 20.08 16.763 20.1179 16.7661C20.331 16.7835 20.5642 16.8234 20.7945 16.9407C21.1238 17.1085 21.3915 17.3762 21.5593 17.7055C21.6766 17.9358 21.7165 18.169 21.7339 18.3821C21.75 18.5798 21.75 18.8163 21.75 19.0738V19.9262C21.75 20.1837 21.75 20.4202 21.7339 20.6179C21.7165 20.831 21.6766 21.0642 21.5593 21.2945C21.3915 21.6238 21.1238 21.8915 20.7945 22.0593C20.5642 22.1766 20.331 22.2165 20.1179 22.2339C19.9202 22.25 19.6837 22.25 19.4262 22.25H15.5738C15.3163 22.25 15.0798 22.25 14.8821 22.2339C14.669 22.2165 14.4358 22.1766 14.2055 22.0593C13.8762 21.8915 13.6085 21.6238 13.4407 21.2945C13.3234 21.0642 13.2835 20.831 13.2661 20.6179C13.25 20.4202 13.25 20.1837 13.25 19.9262V19.0738C13.25 18.8163 13.25 18.5798 13.2661 18.3821C13.2835 18.169 13.3234 17.9358 13.4407 17.7055C13.6085 17.3762 13.8762 17.1085 14.2055 16.9407C14.4358 16.8234 14.669 16.7835 14.8821 16.7661C14.92 16.763 14.9594 16.7605 15 16.7585V15.75ZM15.6 18.25C15.3076 18.25 15.1334 18.2506 15.0043 18.2611C14.9255 18.2676 14.8923 18.2761 14.8835 18.2788C14.8388 18.3023 14.8023 18.3388 14.7788 18.3835C14.7761 18.3923 14.7676 18.4255 14.7611 18.5043C14.7506 18.6334 14.75 18.8076 14.75 19.1V19.9C14.75 20.1924 14.7506 20.3666 14.7611 20.4957C14.7676 20.5745 14.7761 20.6077 14.7788 20.6165C14.8023 20.6612 14.8388 20.6977 14.8835 20.7212C14.8923 20.7239 14.9255 20.7324 15.0043 20.7389C15.1334 20.7494 15.3076 20.75 15.6 20.75H19.4C19.6924 20.75 19.8666 20.7494 19.9957 20.7389C20.0745 20.7324 20.1077 20.7239 20.1165 20.7212C20.1612 20.6977 20.1977 20.6612 20.2212 20.6165C20.2239 20.6077 20.2324 20.5745 20.2389 20.4957C20.2494 20.3666 20.25 20.1924 20.25 19.9V19.1C20.25 18.8076 20.2494 18.6334 20.2389 18.5043C20.2324 18.4255 20.2239 18.3923 20.2212 18.3835C20.1977 18.3388 20.1612 18.3023 20.1165 18.2788C20.1077 18.2761 20.0745 18.2676 19.9957 18.2611C19.8666 18.2506 19.6924 18.25 19.4 18.25H15.6ZM18.5 16.75H16.5V15.75C16.5 15.1977 16.9477 14.75 17.5 14.75C18.0523 14.75 18.5 15.1977 18.5 15.75V16.75ZM20.1191 18.2797L20.1176 18.2792L20.1191 18.2797ZM20.2203 18.3809L20.2208 18.3824L20.2203 18.3809ZM20.1191 20.7203L20.1176 20.7208L20.1191 20.7203ZM14.8809 20.7203L14.8824 20.7208L14.8809 20.7203ZM14.7797 20.6191L14.7792 20.6176L14.7797 20.6191ZM14.7792 18.3824L14.7797 18.3809L14.7792 18.3824ZM14.8824 18.2792L14.8809 18.2797L14.8824 18.2792Z" fill="black"/>
</svg>
