<svg width="32" height="32" viewBox="0 0 32 32" fill="none" xmlns="http://www.w3.org/2000/svg">
<circle cx="16" cy="16" r="16" fill="black"/>
<path d="M10.2979 18.2888L9.85808 15.3212C9.64423 13.8783 10.0123 12.4095 10.8814 11.238C11.7505 10.0664 13.0494 9.28815 14.4923 9.0743C15.9353 8.86045 17.404 9.22856 18.5756 10.0976C19.747 10.9667 20.5254 12.2656 20.7392 13.7086L21.0564 15.8488" stroke="white" stroke-width="1.5" stroke-linecap="round" stroke-linejoin="round"/>
<path d="M9.46158 18.9182C9.46158 18.9182 13.5892 18.3065 15.7191 17.9908C17.8489 17.6752 19.7789 15.9033 22.2226 15.5411" stroke="white" stroke-width="1.5" stroke-linecap="round"/>
<path d="M13.8329 18.2702L13.091 18.3802L13.201 19.1221L13.575 21.6459C13.6762 22.3287 14.3119 22.8003 14.9948 22.6991C15.6777 22.5979 16.1492 21.9622 16.048 21.2793L15.674 18.7556L15.564 18.0137L14.8221 18.1236L13.8329 18.2702Z" stroke="white" stroke-width="1.5"/>
</svg>
