<svg width="32" height="32" viewBox="0 0 32 32" fill="none" xmlns="http://www.w3.org/2000/svg">
<circle cx="16" cy="16" r="16" fill="black"/>
<path d="M16.6863 13.2346C16.3047 13.5066 15.8377 13.6667 15.3333 13.6667C14.0447 13.6667 13 12.622 13 11.3333C13 10.0447 14.0447 9 15.3333 9C16.1687 9 16.9015 9.43894 17.3137 10.0988M11.6667 21.0581H13.4069C13.6338 21.0581 13.8593 21.0851 14.0792 21.1391L15.9179 21.5859C16.3169 21.6831 16.7325 21.6926 17.1356 21.6143L19.1686 21.2187C19.7057 21.1141 20.1997 20.857 20.5869 20.4803L22.0253 19.0811C22.436 18.6822 22.436 18.035 22.0253 17.6354C21.6554 17.2756 21.0698 17.2351 20.6514 17.5402L18.9751 18.7632C18.735 18.9387 18.4429 19.0332 18.1424 19.0332H16.5237L17.554 19.0332C18.1348 19.0332 18.6052 18.5756 18.6052 18.0106V17.8061C18.6052 17.337 18.277 16.928 17.8094 16.8146L16.2191 16.4278C15.9603 16.3651 15.6952 16.3333 15.4288 16.3333C14.7856 16.3333 13.6213 16.8659 13.6213 16.8659L11.6667 17.6833M21 12C21 13.2887 19.9553 14.3333 18.6667 14.3333C17.378 14.3333 16.3333 13.2887 16.3333 12C16.3333 10.7113 17.378 9.66667 18.6667 9.66667C19.9553 9.66667 21 10.7113 21 12ZM9 17.4L9 21.2667C9 21.64 9 21.8267 9.07266 21.9693C9.13658 22.0948 9.23856 22.1968 9.36401 22.2607C9.50661 22.3333 9.6933 22.3333 10.0667 22.3333H10.6C10.9734 22.3333 11.1601 22.3333 11.3027 22.2607C11.4281 22.1968 11.5301 22.0948 11.594 21.9693C11.6667 21.8267 11.6667 21.64 11.6667 21.2667V17.4C11.6667 17.0266 11.6667 16.8399 11.594 16.6973C11.5301 16.5719 11.4281 16.4699 11.3027 16.406C11.1601 16.3333 10.9734 16.3333 10.6 16.3333L10.0667 16.3333C9.6933 16.3333 9.50661 16.3333 9.36401 16.406C9.23857 16.4699 9.13658 16.5719 9.07266 16.6973C9 16.8399 9 17.0266 9 17.4Z" stroke="white" stroke-width="1.4" stroke-linecap="round" stroke-linejoin="round"/>
</svg>
