<svg width="32" height="32" viewBox="0 0 32 32" fill="none" xmlns="http://www.w3.org/2000/svg">
<path fill-rule="evenodd" clip-rule="evenodd" d="M16 32C7.04054 32 4.62883 31.5462 2.54134 29.4587C0.440812 27.3582 0 24.9595 0 16C0 7.04054 0.453809 4.64182 2.54134 2.54134C4.62883 0.453809 7.04054 0 16 0C24.9595 0 27.3712 0.453809 29.4587 2.54134C31.5591 4.64182 32 7.04054 32 16C32 24.9595 31.5591 27.3582 29.4587 29.4587C27.3712 31.5462 24.9595 32 16 32Z" fill="url(#paint0_linear_30586_11414)"/>
<path fill-rule="evenodd" clip-rule="evenodd" d="M11.2288 18.3935V15.2959C11.2288 14.4172 10.7382 14 9.91449 14C9.22958 14 8.63722 14.3905 8.37807 14.7811C8.21147 14.2929 7.79497 14 7.13783 14C6.45292 14 5.86056 14.4083 5.67545 14.6657V14.1065H4.5V18.3935H5.67545V15.5089C5.85131 15.2692 6.19376 15.003 6.60101 15.003C7.08229 15.003 7.2674 15.287 7.2674 15.6864V18.3935H8.45211V15.5C8.61871 15.2692 8.96117 15.003 9.37767 15.003C9.85895 15.003 10.0441 15.287 10.0441 15.6864V18.3935H11.2288ZM14.459 18.5C12.9873 18.5 12.0988 17.4704 12.0988 16.2456C12.0988 15.0296 12.9873 14 14.459 14C15.9398 14 16.8284 15.0296 16.8284 16.2456C16.8284 17.4704 15.9398 18.5 14.459 18.5ZM14.459 17.497C15.1901 17.497 15.6066 16.9201 15.6066 16.2456C15.6066 15.5799 15.1901 15.003 14.459 15.003C13.7278 15.003 13.3205 15.5799 13.3205 16.2456C13.3205 16.9201 13.7278 17.497 14.459 17.497ZM21.8911 18.3935V15.3669C21.8911 14.5325 21.4191 14 20.438 14C19.7068 14 19.1608 14.3373 18.8738 14.6657V14.1065H17.6984V18.3935H18.8738V15.5089C19.0682 15.2515 19.4292 15.003 19.892 15.003C20.3917 15.003 20.7157 15.2071 20.7157 15.8018V18.3935H21.8911ZM25.1306 18.5C23.659 18.5 22.7704 17.4704 22.7704 16.2456C22.7704 15.0296 23.659 14 25.1306 14C26.6115 14 27.5 15.0296 27.5 16.2456C27.5 17.4704 26.6115 18.5 25.1306 18.5ZM25.1306 17.497C25.8618 17.497 26.2783 16.9201 26.2783 16.2456C26.2783 15.5799 25.8618 15.003 25.1306 15.003C24.3994 15.003 23.9922 15.5799 23.9922 16.2456C23.9922 16.9201 24.3994 17.497 25.1306 17.497Z" fill="white"/>
<defs>
<linearGradient id="paint0_linear_30586_11414" x1="16" y1="0" x2="16" y2="32" gradientUnits="userSpaceOnUse">
<stop stop-color="#32353E"/>
<stop offset="1" stop-color="#17181B"/>
</linearGradient>
</defs>
</svg>
