<svg width="32" height="32" viewBox="0 0 32 32" fill="none" xmlns="http://www.w3.org/2000/svg">
<path d="M32 16C32 24.8366 24.8366 32 16 32C7.16344 32 0 24.8366 0 16C0 7.16344 7.16344 0 16 0C24.8366 0 32 7.16344 32 16Z" fill="black"/>
<path fill-rule="evenodd" clip-rule="evenodd" d="M19.1192 17.5284C19.3095 17.4139 19.548 17.4139 19.7383 17.5284L23.1661 19.5909C23.45 19.7617 23.542 20.1302 23.3712 20.4141C23.2286 20.6508 22.9492 20.7513 22.6954 20.6797V23.7042C22.6954 24.2308 22.2638 24.6417 21.752 24.6417H17.1046C16.5929 24.6415 16.1622 24.2307 16.1622 23.7042V20.6797C15.9084 20.7514 15.6291 20.6508 15.4864 20.4141C15.3157 20.1303 15.4069 19.7618 15.6905 19.5909L19.1192 17.5284ZM18.6856 7.50005C19.446 7.50005 19.9733 7.4941 20.4239 7.61431C21.5815 7.92331 22.4877 8.82456 22.7989 9.98052C22.92 10.4305 22.9141 10.9567 22.9141 11.7129C22.9141 11.7183 22.9142 11.7242 22.9141 11.7295L22.8194 16.0577C22.8104 16.4717 22.4677 16.7999 22.0538 16.7911C21.6397 16.7821 21.3115 16.4395 21.3204 16.0254L21.4141 11.7129L21.4122 11.1729C21.4077 10.7246 21.3931 10.5279 21.3507 10.3702C21.1794 9.73413 20.6795 9.23504 20.0372 9.06353C19.8244 9.00677 19.5421 9.00005 18.6856 9.00005H11.7286C10.8721 9.00005 10.5898 9.00682 10.377 9.06353C9.73453 9.23493 9.23489 9.73405 9.06355 10.3702C9.00695 10.5805 9.00007 10.8598 9.00007 11.7129V19.6778C9.00007 20.4173 9.00085 20.9271 9.03327 21.3223C9.06497 21.7085 9.12341 21.9192 9.20222 22.0733C9.37997 22.4206 9.66371 22.7043 10.0137 22.8819C10.1697 22.961 10.3828 23.0192 10.7716 23.0508C11.169 23.0831 11.6813 23.0831 12.4239 23.0831H14.0001C14.414 23.0832 14.7497 23.4192 14.7501 23.8331C14.7501 24.2472 14.4142 24.583 14.0001 24.5831H12.4239C11.7059 24.5831 11.1219 24.5844 10.6495 24.5459C10.1685 24.5068 9.737 24.4227 9.33503 24.2188C8.70348 23.8984 8.18969 23.3868 7.86726 22.7569C7.66192 22.3556 7.57753 21.9249 7.53815 21.4454C7.49954 20.9745 7.50007 20.3925 7.50007 19.6778V11.7129C7.50007 10.9568 7.49331 10.4305 7.61433 9.98052C7.9256 8.82448 8.83257 7.92321 9.9903 7.61431C10.4409 7.49415 10.9681 7.50005 11.7286 7.50005H18.6856ZM17.3624 19.9844V23.4424H21.4952V19.9844L19.4288 18.7413L17.3624 19.9844ZM14.337 14.8584C14.7509 14.8586 15.0866 15.1946 15.087 15.6084C15.087 16.0226 14.7511 16.3583 14.337 16.3584H11.7286C11.3144 16.3584 10.9786 16.0227 10.9786 15.6084C10.979 15.1946 11.3146 14.8584 11.7286 14.8584H14.337ZM17.3809 11.3956C17.7948 11.3957 18.1306 11.7317 18.1309 12.1456C18.1309 12.5597 17.7951 12.8955 17.3809 12.8956H11.7286C11.3144 12.8956 10.9786 12.5598 10.9786 12.1456C10.9789 11.7316 11.3146 11.3956 11.7286 11.3956H17.3809Z" fill="white"/>
</svg>
