<svg width="32" height="32" viewBox="0 0 32 32" fill="none" xmlns="http://www.w3.org/2000/svg">
<g clip-path="url(#clip0_32002_820)">
<path fill-rule="evenodd" clip-rule="evenodd" d="M16 32C7.04054 32 4.62882 31.5462 2.54134 29.4587C0.440812 27.3582 0 24.9595 0 16C0 7.04054 0.453809 4.64182 2.54134 2.54134C4.62882 0.453809 7.04054 0 16 0C24.9595 0 27.3712 0.453809 29.4587 2.54134C31.5591 4.64182 32 7.04054 32 16C32 24.9595 31.5591 27.3582 29.4587 29.4587C27.3712 31.5462 24.9595 32 16 32Z" fill="#14387F"/>
<path d="M30.9881 9.50499C30.3805 9.46055 27.0123 9.17049 23.9066 9.17049C21.328 9.17049 19.6725 9.27843 17.9344 9.62351C17.3801 9.76589 16.8373 9.94986 16.3106 10.174C16.3106 10.174 15.8661 9.97707 15.2098 8.22629C14.6025 6.5324 14.1767 4.77885 13.9396 2.99509C13.7278 1.72486 13.603 0.649405 13.5648 0.217529H12.5063C12.5312 2.24631 12.7203 4.26974 13.0716 6.26802C13.768 10.2205 15.3262 12.7779 15.4426 12.9642C15.4426 12.9642 15.8047 12.5196 17.0453 12.0306C18.578 11.423 21.1375 10.7816 24.9842 10.5148C27.4632 10.3412 30.4165 10.3645 30.986 10.373L30.9881 9.50499Z" fill="#FBBA00"/>
<path d="M21.2087 19.51H19.3034L26.514 25.7489C25.9403 25.6579 25.3051 25.571 24.6256 25.4504C23.7787 25.3276 23.1014 25.226 22.5212 25.1329L17.1736 19.51H15.2683L21.5898 24.9719C20.0739 24.7221 19.261 24.5592 17.0699 24.1569C13.8435 23.5641 11.4279 23.0158 9.27706 22.7089C7.78386 22.4738 6.25548 22.6199 4.83387 23.1337C3.41226 23.6473 2.14353 24.512 1.14551 25.6473L1.62608 27.1885C2.86131 25.5067 4.69115 24.359 6.74296 23.9791C9.28341 23.4858 11.265 24.4025 13.3185 24.7983C14.4321 25.0228 16.6804 25.605 23.0061 26.1829L26.0081 28.7826L23.5946 26.2549C24.9664 26.3628 26.2642 26.4518 27.4053 26.5068L30.0304 28.7826L27.8816 26.5322C29.4292 26.6148 30.5703 26.6233 30.9852 26.6274V26.2253C30.5512 26.1893 29.2619 26.1067 27.2211 25.8399L21.2087 19.51Z" fill="#FBBA00"/>
<path d="M25.3708 19.5081H23.4507L31 26.0265V25.4231L25.3708 19.5081Z" fill="#FBBA00"/>
<path d="M1.74731 10.1975L2.69152 8.95483C5.23197 11.1459 7.05474 14.0357 6.37093 16.7328C5.58551 19.8554 2.67669 21.6931 1 22.5377V22.2837C1.06351 22.2434 4.95886 19.811 5.42885 16.5423C5.97504 12.7634 1.78754 10.2208 1.74731 10.1975Z" fill="#FBBA00"/>
<path d="M30.9868 17.1732C28.7761 17.7649 26.5086 18.1197 24.2228 18.2317C20.4418 18.4286 17.207 18.0687 14.0272 16.8641C10.6382 15.6061 7.73915 13.2995 5.75166 10.2801C4.55241 8.42341 3.6256 6.4044 2.99951 4.28463L4.7757 3.30444C5.21572 6.02594 6.32109 8.59662 7.99361 10.7882C9.37974 12.5949 11.1377 14.0828 13.1486 15.1514C16.4808 16.9276 19.5124 17.351 22.1968 17.4844C24.1784 17.6029 25.7577 17.5288 28.1796 17.2473C29.6022 17.0758 30.6586 16.8704 30.9825 16.809L30.9868 17.1732Z" fill="#FBBA00"/>
</g>
<defs>
<clipPath id="clip0_32002_820">
<rect width="32" height="32" fill="white"/>
</clipPath>
</defs>
</svg>
