<svg width="32" height="32" viewBox="0 0 32 32" fill="none" xmlns="http://www.w3.org/2000/svg">
<g clip-path="url(#clip0_32002_881)">
<path fill-rule="evenodd" clip-rule="evenodd" d="M16 32C7.04054 32 4.62883 31.5462 2.54134 29.4587C0.440812 27.3582 0 24.9595 0 16C0 7.04054 0.453809 4.64182 2.54134 2.54134C4.62883 0.453809 7.04054 0 16 0C24.9595 0 27.3712 0.453809 29.4587 2.54134C31.5591 4.64182 32 7.04054 32 16C32 24.9595 31.5591 27.3582 29.4587 29.4587C27.3712 31.5462 24.9595 32 16 32Z" fill="#4480DB"/>
<path d="M9.53369 10.9685H11.0973V20.5314H9.53369V10.9685Z" fill="white"/>
<path d="M20.6037 10.9685H22.1673V20.5314H20.4713L15.2243 13.5542V20.5314H13.6606V10.9685H15.2243L20.6037 18.11V10.9685Z" fill="white"/>
<path fill-rule="evenodd" clip-rule="evenodd" d="M15.4951 4.01115C19.0836 3.85759 22.3709 5.29988 24.6727 7.70879C25.0987 8.15469 24.7626 8.85012 24.146 8.85523C23.9326 8.85699 23.7295 8.767 23.5804 8.61396C21.5536 6.53295 18.6843 5.29142 15.5553 5.42526C15.5284 5.42632 15.5016 5.42755 15.4745 5.42896C15.0554 5.45009 14.6865 5.12853 14.6831 4.70835C14.6799 4.34786 14.9499 4.04127 15.3095 4.02049C15.3713 4.01696 15.4331 4.0138 15.4951 4.01115ZM7.86756 23.1448C7.25102 23.1499 6.91466 23.8451 7.34066 24.2912C9.6425 26.7001 12.9298 28.1424 16.5185 27.9888C16.5801 27.9862 16.6415 27.9832 16.703 27.9795C17.0628 27.9587 17.3326 27.6521 17.3298 27.2917C17.3261 26.8715 16.9573 26.5501 16.538 26.571C16.5116 26.5724 16.4848 26.5737 16.458 26.5747C13.329 26.7086 10.4598 25.467 8.43302 23.386C8.28439 23.233 8.08117 23.143 7.86756 23.1448Z" fill="#F08E35"/>
</g>
<defs>
<clipPath id="clip0_32002_881">
<rect width="32" height="32" fill="white"/>
</clipPath>
</defs>
</svg>
