<svg width="32" height="32" viewBox="0 0 32 32" fill="none" xmlns="http://www.w3.org/2000/svg">
<circle cx="16.5" cy="16" r="15" fill="black"/>
<path d="M23.0455 15.6202L24.5 14.2057C21.7873 11.5675 18.0491 10.5631 14.5364 11.1572L16.4127 12.982C18.8127 12.9679 21.22 13.8449 23.0455 15.6202ZM14.3182 19.864L16.5 21.9859L18.6818 19.864C17.4818 18.6899 15.5255 18.6899 14.3182 19.864ZM21.5909 17.0348C20.8055 16.2709 19.8745 15.7263 18.8855 15.3868L21.0818 17.5229L21.5909 17.0348ZM10.2527 9L9.22727 9.99728L11.4455 12.1545C10.3836 12.6708 9.38727 13.3498 8.5 14.2057L9.95455 15.6202C10.8491 14.7503 11.8818 14.0925 12.9873 13.654L14.6164 15.2383C13.4382 15.5424 12.3327 16.1436 11.4091 17.0348L12.8636 18.4494C13.8455 17.4946 15.1255 17.0065 16.42 16.9924L21.5691 22L22.5945 21.0027L10.2527 9Z" fill="white"/>
</svg>
