<svg width="32" height="32" viewBox="0 0 32 32" fill="none" xmlns="http://www.w3.org/2000/svg">
<g clip-path="url(#clip0_32019_6238)">
<path fill-rule="evenodd" clip-rule="evenodd" d="M16 32C7.04054 32 4.62883 31.5462 2.54134 29.4587C0.440812 27.3582 0 24.9595 0 16C0 7.04054 0.453809 4.64182 2.54134 2.54134C4.62883 0.453809 7.04054 0 16 0C24.9595 0 27.3712 0.453809 29.4587 2.54134C31.5591 4.64182 32 7.04054 32 16C32 24.9595 31.5591 27.3582 29.4587 29.4587C27.3712 31.5462 24.9595 32 16 32Z" fill="black"/>
<mask id="mask0_32019_6238" style="mask-type:luminance" maskUnits="userSpaceOnUse" x="3" y="4" width="13" height="21">
<path d="M10.6671 15.3723C7.25526 21.3705 3 24.8858 3 24.8858L10.2134 20.4496C11.6056 19.627 12.7701 18.4695 13.6012 17.0823C14.3949 15.6727 14.8239 14.0871 14.8493 12.4695L15.1346 4C15.1346 4 14.1896 9.43832 10.6671 15.3723Z" fill="white"/>
</mask>
<g mask="url(#mask0_32019_6238)">
<path d="M15.1014 3.32986L1.84863 4.06384L3.03864 25.5506L16.2914 24.8166L15.1014 3.32986Z" fill="white"/>
</g>
<mask id="mask1_32019_6238" style="mask-type:luminance" maskUnits="userSpaceOnUse" x="17" y="4" width="13" height="21">
<path d="M17.4427 12.4651C17.469 14.0825 17.8979 15.6679 18.6909 17.0779C19.5221 18.465 20.6866 19.6224 22.0787 20.4452L29.2929 24.8859C29.2929 24.8859 25.0359 21.375 21.6213 15.3768C18.0989 9.44105 17.1548 4.00452 17.1548 4.00452L17.4427 12.4651Z" fill="white"/>
</mask>
<g mask="url(#mask1_32019_6238)">
<path d="M17.1934 3.33171L16.0034 24.8185L29.2562 25.5525L30.4462 4.06569L17.1934 3.33171Z" fill="white"/>
</g>
<path d="M11.5301 22.5972C12.9411 21.8051 14.5276 21.3782 16.1456 21.3553C17.7629 21.3773 19.3493 21.8023 20.761 22.5919L28.224 26.5949C28.224 26.5949 23.0531 24.6816 16.1474 24.7494C9.24514 24.6914 4.06982 26.61 4.06982 26.61L11.5301 22.5972Z" fill="white"/>
</g>
<defs>
<clipPath id="clip0_32019_6238">
<rect width="32" height="32" fill="white"/>
</clipPath>
</defs>
</svg>
