<svg width="32" height="32" viewBox="0 0 32 32" fill="none" xmlns="http://www.w3.org/2000/svg">
<path fill-rule="evenodd" clip-rule="evenodd" d="M16 32C7.04054 32 4.62883 31.5462 2.54134 29.4587C0.440812 27.3582 0 24.9595 0 16C0 7.04054 0.453809 4.64182 2.54134 2.54134C4.62883 0.453809 7.04054 0 16 0C24.9595 0 27.3712 0.453809 29.4587 2.54134C31.5591 4.64182 32 7.04054 32 16C32 24.9595 31.5591 27.3582 29.4587 29.4587C27.3712 31.5462 24.9595 32 16 32Z" fill="#32353E"/>
<path d="M8.92188 20.5C8.96582 19.687 9.13281 18.9795 9.42285 18.3774C9.71729 17.7754 10.2886 17.2283 11.1367 16.7361L12.4023 16.0044C12.9692 15.6748 13.3669 15.3936 13.5955 15.1606C13.9558 14.7959 14.136 14.3784 14.136 13.9082C14.136 13.3589 13.9712 12.9238 13.6416 12.603C13.312 12.2778 12.8726 12.1152 12.3232 12.1152C11.5103 12.1152 10.9478 12.4229 10.6357 13.0381C10.4688 13.3677 10.3765 13.8247 10.3589 14.4092H9.15259C9.16577 13.5874 9.31738 12.9172 9.60742 12.3987C10.1216 11.4846 11.0291 11.0276 12.3298 11.0276C13.4109 11.0276 14.1997 11.3198 14.6963 11.9043C15.1973 12.4888 15.4478 13.1392 15.4478 13.8555C15.4478 14.6113 15.1819 15.2573 14.6501 15.7935C14.3425 16.1055 13.791 16.4834 12.9956 16.9272L12.0925 17.4282C11.6619 17.6655 11.3235 17.8918 11.0774 18.1072C10.6379 18.4895 10.3611 18.9136 10.2468 19.3794H15.4016V20.5H8.92188Z" fill="white"/>
<path d="M20.4773 17.158V12.8799L17.4517 17.158H20.4773ZM20.4971 20.5V18.1929H16.3574V17.0327L20.6816 11.0342H21.6836V17.158H23.0745V18.1929H21.6836V20.5H20.4971Z" fill="white"/>
<path fill-rule="evenodd" clip-rule="evenodd" d="M16 28C22.6274 28 28 22.6274 28 16C28 9.37258 22.6274 4 16 4C9.37258 4 4 9.37258 4 16C4 22.6274 9.37258 28 16 28ZM16 29C23.1797 29 29 23.1797 29 16C29 8.8203 23.1797 3 16 3C8.8203 3 3 8.8203 3 16C3 23.1797 8.8203 29 16 29Z" fill="#8DC34A"/>
</svg>
