<svg width="24" height="24" viewBox="0 0 24 24" fill="none" xmlns="http://www.w3.org/2000/svg">
<path fill-rule="evenodd" clip-rule="evenodd" d="M11.675 21.0718C11.5745 21.0633 11.4839 21.0441 11.4025 21.0151L11.3947 21.0126C9.2257 20.3411 7.48692 19.0913 6.17249 17.2599C4.85543 15.4248 4.19995 13.4422 4.19995 11.3076V7.10889C4.19995 6.73696 4.30697 6.40593 4.52199 6.10961C4.73714 5.81316 5.02701 5.59874 5.39679 5.46679L11.3226 3.32306L11.3237 3.32267C11.5468 3.24057 11.7718 3.20001 12 3.20001C12.2281 3.20001 12.4532 3.24057 12.6762 3.32267L18.6039 5.46709C18.9737 5.59903 19.2628 5.81316 19.4779 6.10961C19.6929 6.40593 19.8 6.73695 19.8 7.10889V11.3076C19.8 13.4422 19.1445 15.4248 17.8274 17.2599C16.513 19.0913 14.7742 20.3409 12.6052 21.0124L12.5975 21.0152C12.516 21.0441 12.4254 21.0634 12.3249 21.0718C12.2144 21.0811 12.1061 21.0857 12 21.0857C11.8939 21.0857 11.7856 21.0811 11.675 21.0718ZM11.9406 19.5578L12 19.5762L12.0593 19.5578C13.8064 19.0144 15.2547 17.9733 16.4015 16.4412C17.5498 14.9071 18.1258 13.1948 18.1258 11.3102V6.96855L11.9999 4.75245L5.87413 6.97135V11.3076C5.87413 13.1939 6.45005 14.907 7.59837 16.4412C8.74519 17.9733 10.1935 19.0144 11.9406 19.5578Z" fill="black"/>
</svg>
