<svg width="24" height="24" viewBox="0 0 24 24" fill="none" xmlns="http://www.w3.org/2000/svg">
<path d="M12.0094 14.0214C12.8172 14.0214 13.6021 14.2399 14.2937 14.6564L14.5739 14.8252C14.7863 14.9532 14.8237 15.2526 14.6495 15.4314L12.257 17.8869C12.11 18.0377 11.8718 18.0377 11.7248 17.8869L9.34766 15.4472C9.17425 15.2692 9.2104 14.9713 9.42104 14.8424L9.69811 14.6728C10.3961 14.2457 11.1909 14.0214 12.0094 14.0214Z" fill="black"/>
<path d="M12.0097 9.51077C14.0192 9.51077 15.9486 10.1968 17.5203 11.4674L17.7424 11.6469C17.9195 11.7901 17.9351 12.0598 17.7757 12.2234L16.3473 13.6894C16.2152 13.8249 16.0062 13.8405 15.8564 13.7259L15.6823 13.5928C14.6207 12.7808 13.3407 12.3453 12.0097 12.3453C10.6706 12.3453 9.38307 12.7862 8.318 13.6075L8.1437 13.7419C7.99389 13.8574 7.78408 13.8422 7.65157 13.7062L6.22375 12.2408C6.06469 12.0776 6.07979 11.8085 6.25606 11.6651L6.47693 11.4854C8.0524 10.2035 9.99056 9.51077 12.0097 9.51077Z" fill="black"/>
<path d="M12.0097 5C15.1988 5 18.2485 6.15775 20.6624 8.27985L20.8685 8.46099C21.035 8.60737 21.0448 8.86828 20.8898 9.02739L19.4661 10.4886C19.3281 10.6301 19.1077 10.6401 18.9582 10.5114L18.7819 10.3597C16.8813 8.72416 14.4992 7.83448 12.0097 7.83448C9.51179 7.83448 7.12202 8.73029 5.21863 10.3761L5.04227 10.5286C4.89284 10.6578 4.6719 10.6481 4.53373 10.5063L3.11022 9.04532C2.9554 8.88643 2.96493 8.62596 3.13092 8.47943L3.33618 8.29823C5.75309 6.16467 8.81123 5 12.0097 5Z" fill="black"/>
</svg>
