<svg width="32" height="32" viewBox="0 0 32 32" fill="none" xmlns="http://www.w3.org/2000/svg">
<g clip-path="url(#clip0_32019_7327)">
<path fill-rule="evenodd" clip-rule="evenodd" d="M16 32C7.04054 32 4.62883 31.5462 2.54134 29.4587C0.440812 27.3582 0 24.9595 0 16C0 7.04054 0.453809 4.64182 2.54134 2.54134C4.62883 0.453809 7.04054 0 16 0C24.9595 0 27.3712 0.453809 29.4587 2.54134C31.5591 4.64182 32 7.04054 32 16C32 24.9595 31.5591 27.3582 29.4587 29.4587C27.3712 31.5462 24.9595 32 16 32Z" fill="#070648"/>
<path d="M25.9265 4.5C32.1775 12.8836 22.3017 20.525 22.3017 20.525L20.1855 12.292C20.1855 12.292 25.6188 4.88325 25.9265 4.5Z" fill="white"/>
<path d="M9.41172 5.07922L9.49323 5.09697C9.64244 5.34401 9.80711 5.58136 9.98627 5.80761C11.301 7.53981 12.6513 9.24704 13.9746 10.9733C14.3086 11.442 14.6977 11.8654 15.0383 12.3302C15.9704 13.5739 16.9506 14.7816 17.8683 16.0365C18.0218 15.9601 18.1847 15.9044 18.3528 15.8708C18.1076 15.648 17.9584 15.3449 17.7349 15.103C17.2089 14.3549 16.6127 13.6627 16.0874 12.9166C16.0283 12.8574 16.0546 12.7746 16.0651 12.7029C16.1545 12.1967 16.2886 11.6997 16.4115 11.2008C16.5996 10.3692 16.806 9.54154 17.0111 8.71456C17.0499 8.53049 17.1662 8.37863 17.2661 8.22415C17.6218 8.17024 17.8085 8.49696 18.0004 8.73099C18.1483 8.58045 18.1792 8.33656 18.3758 8.23072C18.6598 8.17156 18.7702 8.47658 18.9674 8.61069C19.3218 8.6876 19.6906 8.63567 20.0482 8.72376C20.1424 8.81898 20.2166 8.93207 20.2664 9.0564C20.3312 9.22134 20.3787 9.3925 20.4084 9.56718C20.014 9.36997 19.5801 9.533 19.1647 9.4482C19.5505 11.3125 20.085 13.1427 20.536 14.9919L20.5583 15.032C20.7838 15.9458 21.0303 16.8543 21.2519 17.7694L21.2749 17.8101C21.4208 18.4267 21.5891 19.0381 21.7626 19.6468C21.9263 20.4686 22.1696 21.2712 22.3714 22.0844C22.5962 23.0547 22.8795 24.0106 23.109 24.9769C23.2904 25.5896 23.4547 26.2062 23.6059 26.8261C23.435 26.8307 23.2648 26.8307 23.0945 26.8261C22.3431 26.0642 21.5628 25.3326 20.7969 24.5851C20.4084 24.1907 19.9995 23.8133 19.6748 23.3637C19.5473 23.3637 19.4197 23.3637 19.2922 23.3637C19.6787 24.497 19.9114 25.6751 20.2474 26.8235C20.0298 26.8235 19.8128 26.8202 19.5959 26.8275C19.3566 26.5472 19.0964 26.2855 18.8176 26.0445C18.2792 25.5732 17.8059 25.0335 17.2727 24.5575C16.829 24.1631 16.4674 23.6898 16.0178 23.3039C15.6345 23.3039 15.2506 23.298 14.868 23.3111C14.8897 23.7989 15.0166 24.2735 15.1369 24.7442C15.3236 25.4338 15.4846 26.13 15.6628 26.8222C14.3066 26.8222 12.9504 26.8261 11.5942 26.8222C11.3313 26.8406 11.3418 26.5093 11.2885 26.3324L11.2662 26.291C11.1347 25.7106 10.975 25.1367 10.8258 24.5601C10.7344 24.1959 10.597 23.837 10.5687 23.4623C10.5354 23.3882 10.5045 23.3133 10.476 23.2375C10.2558 23.2375 10.0349 23.2447 9.81469 23.2467C9.75356 23.4741 9.69308 23.7016 9.64114 23.931C9.46891 24.6476 9.35321 25.3773 9.15205 26.0872C9.08631 26.3219 9.06659 26.5645 9.00874 26.8005C8.60379 26.8465 8.19621 26.8143 7.78995 26.8235C6.76312 26.8314 5.73563 26.8077 4.70945 26.836C4.8337 26.3995 4.91784 25.9538 5.00462 25.5094C5.13609 24.9776 5.25771 24.4425 5.3951 23.912C5.81451 22.233 6.15635 20.5317 6.65399 18.8744C6.30143 18.9141 5.9445 18.8821 5.60459 18.7804C5.26469 18.6788 4.94882 18.5095 4.67593 18.2828C4.41626 17.9436 4.16645 17.5787 4.07771 17.1527C3.90416 16.523 4.03629 15.8452 4.32554 15.2713C4.482 14.9275 4.80346 14.7086 5.04866 14.4364L5.16568 14.4141C5.35632 14.2787 5.57128 14.1452 5.81386 14.1511H8.05291C7.85569 13.5352 7.80113 12.887 7.73342 12.2447C7.59274 11.0752 7.72487 9.89127 7.95364 8.74217C8.19018 7.74885 8.53312 6.78393 8.97653 5.86414C9.08187 5.58237 9.22854 5.31783 9.41172 5.07922ZM7.97402 14.8433C7.8386 15.0478 7.73145 15.2891 7.51385 15.4212C7.38471 15.5033 7.25056 15.5773 7.11219 15.6427C6.89464 15.6621 6.67586 15.6634 6.45809 15.6467C6.07878 15.5408 5.81123 15.2332 5.54499 14.9623C5.38643 14.9766 5.23453 15.0329 5.1049 15.1253C4.97527 15.2177 4.87259 15.343 4.8074 15.4882C4.68513 15.6684 4.67593 15.9004 4.54445 16.072C4.53262 16.3468 4.53853 16.6222 4.54445 16.897C4.57666 16.9831 4.61019 17.0699 4.6378 17.16C4.72194 17.6201 5.09271 18.0073 5.52921 18.1644C5.84147 18.3327 6.20106 18.2769 6.54092 18.2841H9.70097C9.84165 18.2841 9.97312 18.338 10.1039 18.3827C9.73581 17.7457 9.27827 17.158 8.98639 16.4763C8.62877 15.8419 8.38028 15.1549 8.16203 14.4614C8.08407 14.5806 8.02094 14.7089 7.97402 14.8433Z" fill="white"/>
</g>
<defs>
<clipPath id="clip0_32019_7327">
<rect width="32" height="32" fill="white"/>
</clipPath>
</defs>
</svg>
