<svg width="68" height="28" viewBox="0 0 68 28" fill="none" xmlns="http://www.w3.org/2000/svg">
<path d="M50.7022 8.68573V18.6442H48.365V8.66927H45.7734V6.5459H53.2937V8.66927L50.7022 8.68573Z" fill="white"/>
<path d="M9.36456 6.5459V18.6442H7.0274V8.66927H2.35306V18.6442H0V6.5459H9.36456Z" fill="white"/>
<path d="M15.0884 6.54014C16.4081 6.54014 17.3143 6.68828 18.1729 7.46191C19.1268 8.33431 19.3653 9.51944 19.3653 10.3754C19.3653 10.8527 19.3017 12.1531 18.3954 13.0749C17.7436 13.7497 16.7896 14.1448 15.4382 14.1448H14.0232V18.622H11.686V6.52368L15.0884 6.54014ZM14.0232 12.1366H14.8976C15.3428 12.1366 15.8993 12.1366 16.3922 11.758C16.8055 11.4124 17.0281 10.8692 17.0281 10.3425C17.0281 9.66759 16.7101 9.22316 16.3763 8.9598C15.8993 8.61413 15.311 8.58121 14.7705 8.58121H14.0391L14.0232 12.1366Z" fill="white"/>
<path d="M43.4357 18.2158C42.7362 18.5943 41.814 18.9235 40.5421 18.9235C38.4911 18.9235 37.251 18.1993 36.2653 17.2281C34.9138 15.8784 34.3892 14.3805 34.3892 12.6028C34.3892 10.4136 35.2636 8.83342 36.2653 7.86227C37.4418 6.72651 38.8886 6.26562 40.558 6.26562C41.3848 6.26562 42.3705 6.41377 43.4357 7.00634V9.77165C42.3705 8.50422 41.035 8.40545 40.6216 8.40545C38.2685 8.40545 36.7422 10.3971 36.7422 12.6357C36.7422 15.3188 38.7455 16.7673 40.7011 16.7673C41.7822 16.7673 42.7521 16.2734 43.4357 15.4504V18.2158Z" fill="white"/>
<path d="M57.9846 6.5459V18.6442H55.6475V6.5459H57.9846Z" fill="white"/>
<path d="M63.7232 6.54014C65.0428 6.54014 65.9491 6.68828 66.8076 7.46191C67.7616 8.33431 68.0001 9.51944 68.0001 10.3754C68.0001 10.8527 67.9365 12.1531 67.0302 13.0749C66.3784 13.7497 65.4244 14.1448 64.073 14.1448H62.658V18.622H60.3208V6.52368L63.7232 6.54014ZM62.658 12.1366H63.5324C63.9776 12.1366 64.5341 12.1366 65.0269 11.758C65.4403 11.4124 65.6629 10.8692 65.6629 10.3425C65.6629 9.66759 65.3449 9.22316 65.011 8.9598C64.5341 8.61413 63.9458 8.58121 63.4052 8.58121H62.6739L62.658 12.1366Z" fill="white"/>
<path d="M25.7096 12.6178C25.7096 12.6013 25.7096 12.6178 25.7096 12.6178C25.7096 11.9265 26.2343 11.3833 26.8861 11.3833C27.538 11.3833 28.0627 11.9265 28.0627 12.6013C28.0627 13.2762 27.538 13.8194 26.8861 13.8194V15.4654C28.4124 15.4654 29.6526 14.1815 29.6526 12.5849C29.6526 11.0047 28.4124 9.70435 26.8702 9.70435C25.3439 9.70435 24.0879 10.9882 24.0879 12.5849V12.6013L25.7096 12.6178Z" fill="white"/>
<path d="M30.9885 10.5266C31.2905 11.1521 31.4495 11.8598 31.4495 12.6006C31.4495 15.2177 29.3985 17.3246 26.8865 17.3246C24.3585 17.3246 22.3235 15.2013 22.3235 12.6006C22.3235 10.0821 24.2154 8.02461 26.6162 7.87647L27.7609 6.06584C27.4748 6.03292 27.1886 6 26.8865 6C23.3728 6 20.5269 8.94638 20.5269 12.5841C20.5269 16.2218 23.3728 19.1682 26.8865 19.1682C30.4002 19.1682 33.2461 16.2218 33.2461 12.5841C33.2461 11.1685 32.8168 9.85169 32.0696 8.78178L30.9885 10.5266Z" fill="white"/>
</svg>
