<svg width="24" height="25" viewBox="0 0 24 25" fill="none" xmlns="http://www.w3.org/2000/svg">
<g clip-path="url(#clip0_1349_37146)">
<path d="M16.2939 15.194H15.3905L15.2304 15.0396C16.3511 13.736 17 11.9564 17 10.1154C17 6.01015 13.6052 2.61536 9.5 2.61536C5.3948 2.61536 2 5.94297 2 10.0482C2 14.1534 5.3948 17.6154 9.5 17.6154C11.3411 17.6154 13.1206 16.9664 14.4242 15.8458L14.5786 16.0059V16.9092L20.2962 22.6154L22 20.9115L16.2939 15.194ZM9.5 15.6154C6.65266 15.6154 4 12.8955 4 10.0482C4 7.20083 6.65266 4.61536 9.5 4.61536C12.3473 4.61536 15 7.26801 15 10.1154C15 12.9627 12.3473 15.6154 9.5 15.6154Z" fill="black"/>
</g>
<defs>
<clipPath id="clip0_1349_37146">
<rect width="24" height="24" fill="white" transform="translate(0 0.615356)"/>
</clipPath>
</defs>
</svg>
