<svg width="24" height="24" viewBox="0 0 24 24" fill="none" xmlns="http://www.w3.org/2000/svg">
<g clip-path="url(#clip0_1349_37146)">
<path d="M10.5 3C14.6421 3 18 6.35786 18 10.5C18 12.2404 17.4049 13.8407 16.4102 15.1133L20.998 19.5645L19.6055 21L14.9814 16.5137C13.7311 17.447 12.1803 18 10.5 18C6.35786 18 3 14.6421 3 10.5C3 6.35786 6.35786 3 10.5 3ZM10.5 5C7.46243 5 5 7.46243 5 10.5C5 13.5376 7.46243 16 10.5 16C13.5376 16 16 13.5376 16 10.5C16 7.46243 13.5376 5 10.5 5Z" fill="black"/>
</g>
<defs>
<clipPath id="clip0_1349_37146">
<rect width="24" height="24" fill="white"/>
</clipPath>
</defs>
</svg>
