<svg width="32" height="33" viewBox="0 0 32 33" fill="none" xmlns="http://www.w3.org/2000/svg">
<circle cx="16" cy="16.4" r="16" fill="black"/>
<path d="M8.99995 21.4L11.3332 19.0667M14 20.5756C11.5137 19.976 9.66662 17.7371 9.66662 15.0667C9.66662 11.9371 12.2037 9.40002 15.3333 9.40002C17.366 9.40002 19.1487 10.4703 20.1487 12.0781" stroke="white" stroke-width="1.5" stroke-linecap="round" stroke-linejoin="round"/>
<path d="M16 23.4687C16.8651 22.4971 18.0396 21.9 19.3333 21.9C20.627 21.9 21.8016 22.4971 22.6667 23.4687" stroke="white" stroke-width="1.5" stroke-linecap="round" stroke-linejoin="round"/>
<path d="M19.3332 19.5964C20.2536 19.5964 20.9998 18.8063 20.9998 17.8317C20.9998 16.8571 20.2536 16.067 19.3332 16.067C18.4127 16.067 17.6665 16.8571 17.6665 17.8317C17.6665 18.8063 18.4127 19.5964 19.3332 19.5964Z" stroke="white" stroke-width="1.5" stroke-linecap="round" stroke-linejoin="round"/>
</svg>
