<svg width="29" height="28" viewBox="0 0 29 28" fill="none" xmlns="http://www.w3.org/2000/svg">
<path d="M14.2686 4.33333C14.5787 4.33333 14.876 4.21042 15.0953 3.99162C15.3145 3.77283 15.4377 3.47609 15.4377 3.16667C15.4377 2.85725 15.3145 2.5605 15.0953 2.34171C14.876 2.12292 14.5787 2 14.2686 2C13.9586 2 13.6612 2.12292 13.442 2.34171C13.2228 2.5605 13.0996 2.85725 13.0996 3.16667C13.0996 3.47609 13.2228 3.77283 13.442 3.99162C13.6612 4.21042 13.9586 4.33333 14.2686 4.33333Z" fill="white" stroke="white" stroke-width="1.4091" stroke-linecap="round" stroke-linejoin="round"/>
<path d="M8.42257 25.332L9.72136 20.6654L11.3451 14.832M20.1129 25.332L18.8141 20.6654M11.3451 14.832H16.0213M11.3451 14.832L12.2804 11.472M9.72019 20.6654H18.8129L17.4288 15.6907M13.6189 6.66536L14.2677 4.33203L15.4917 8.72803M5.5 4.33203L23.0354 20.6654" stroke="white" stroke-width="1.46781" stroke-linecap="round" stroke-linejoin="round"/>
</svg>
