<svg width="32" height="32" viewBox="0 0 32 32" fill="none" xmlns="http://www.w3.org/2000/svg">
<circle cx="16" cy="16" r="16" fill="black"/>
<path d="M16.7803 15.8968L20.3482 15.7541C21.5714 15.7052 22.5511 16.7567 22.4159 17.9734L21.9363 22.2903M15.7977 15.6611L17.6508 12.9243C17.9764 12.4434 17.8253 11.7874 17.3223 11.4973L15.1064 10.2195C14.6623 9.96331 14.0963 10.0846 13.7961 10.5003L12.3608 12.488" stroke="white" stroke-width="1.5" stroke-linecap="round" stroke-linejoin="round"/>
<path d="M20.5042 9.97315C20.3088 9.97315 20.1214 9.89554 19.9833 9.75741C19.8452 9.61927 19.7676 9.43192 19.7676 9.23657C19.7676 9.04122 19.8452 8.85387 19.9833 8.71574C20.1214 8.5776 20.3088 8.5 20.5042 8.5C20.6995 8.5 20.8869 8.5776 21.025 8.71574C21.1631 8.85387 21.2407 9.04122 21.2407 9.23657C21.2407 9.43192 21.1631 9.61927 21.025 9.75741C20.8869 9.89554 20.6995 9.97315 20.5042 9.97315Z" fill="white" stroke="white" stroke-width="1.88235" stroke-linecap="round" stroke-linejoin="round"/>
<path d="M13.834 24.5C12.6619 24.5 11.5378 24.0344 10.709 23.2056C9.88017 22.3768 9.41455 21.2527 9.41455 20.0806C9.41455 18.9085 9.88017 17.7844 10.709 16.9556C11.5378 16.1268 12.6619 15.6611 13.834 15.6611C15.0061 15.6611 16.1302 16.1268 16.959 16.9556C17.7878 17.7844 18.2534 18.9085 18.2534 20.0806C18.2534 21.2527 17.7878 22.3768 16.959 23.2056C16.1302 24.0344 15.0061 24.5 13.834 24.5Z" stroke="white" stroke-width="1.5" stroke-linecap="round" stroke-linejoin="round"/>
</svg>
