<svg width="24" height="24" viewBox="0 0 24 24" fill="none" xmlns="http://www.w3.org/2000/svg">
<path d="M11.919 22.9807C10.7532 22.9807 9.78006 22.156 9.55102 21.0583C9.49462 20.7879 9.72386 20.5617 10 20.5617L13.8381 20.5617C14.1142 20.5617 14.3435 20.7879 14.2871 21.0583C14.058 22.156 13.0848 22.9807 11.919 22.9807Z" fill="black"/>
<path d="M9.55102 2.92246C9.78006 1.82466 10.7532 1 11.919 1C13.0848 1 14.058 1.82466 14.2871 2.92246C14.2926 2.94878 14.2953 2.97468 14.2956 3H14.416C14.1484 3.61246 14 4.2889 14 5H8.78289C8.76498 5.01206 8.73533 5.03494 8.6936 5.07588C8.55584 5.21104 8.36782 5.46737 8.14615 5.90234C8.04261 6.10551 7.83624 6.70343 7.54571 7.65842C7.26743 8.57316 6.93992 9.7177 6.59132 10.936L6.58955 10.9422C6.16446 12.4279 5.70913 14.0192 5.28351 15.3983L5.24977 15.507C5.16564 15.7771 5.08783 16.0303 5.04045 16.2772C4.99193 16.53 4.99274 16.6948 5.01304 16.7899C5.02555 16.8485 5.0357 16.8551 5.0585 16.8697L5.06084 16.8712C5.11821 16.9082 5.31577 17 5.80414 17H18.1958C18.6842 17 18.8817 16.9082 18.9391 16.8712L18.9414 16.8697C18.9642 16.8551 18.9744 16.8485 18.9869 16.7899C19.0072 16.6948 19.008 16.53 18.9595 16.2772C18.9121 16.0303 18.8343 15.7771 18.7502 15.507L18.7164 15.3984C18.2908 14.0193 17.8355 12.4279 17.4104 10.9422L17.4086 10.936C17.2768 10.4754 17.1481 10.0254 17.0238 9.59429C17.63 9.85537 18.2981 10 19 10C19.0736 10 19.1469 9.99841 19.2197 9.99526L19.3315 10.3858C19.7585 11.8783 20.2086 13.4511 20.6275 14.8086L20.665 14.9293C20.7441 15.1831 20.8533 15.5339 20.9237 15.9003C20.9944 16.2691 21.0434 16.7362 20.9428 17.2075C20.8349 17.7132 20.5553 18.2089 20.0227 18.5522C19.5231 18.8743 18.8965 19 18.1958 19H5.80414C5.1034 19 4.47688 18.8743 3.97722 18.5522C3.44465 18.2089 3.16507 17.7132 3.05711 17.2075C2.95651 16.7362 3.0055 16.2691 3.07629 15.9003C3.14662 15.5338 3.25588 15.183 3.33496 14.9292L3.37245 14.8086C3.79138 13.4511 4.24143 11.8784 4.66848 10.3858L4.67039 10.3792C5.01676 9.16864 5.34864 8.00873 5.6323 7.07632C5.90423 6.18246 6.16267 5.38968 6.36421 4.99421C6.6346 4.46366 6.93864 3.99585 7.29293 3.64825C7.65008 3.29785 8.13352 3 8.73134 3H9.54245C9.54274 2.97468 9.54553 2.94878 9.55102 2.92246Z" fill="black"/>
<path fill-rule="evenodd" clip-rule="evenodd" d="M19 8C20.6569 8 22 6.65685 22 5C22 3.34315 20.6569 2 19 2C17.3431 2 16 3.34315 16 5C16 6.65685 17.3431 8 19 8Z" fill="#E83C3C"/>
</svg>
