<svg width="58" height="32" viewBox="0 0 58 32" fill="none" xmlns="http://www.w3.org/2000/svg">
<rect x="26.75" y="2" width="28" height="28" rx="14" fill="#FFD600"/>
<path d="M45.0752 14.4893C45.0133 14.3911 44.9059 14.3325 44.789 14.3325H41.0866V9.33133C41.0852 9.14726 40.9338 8.99865 40.748 9.00001C40.6228 9.00137 40.5072 9.07091 40.4507 9.18135L36.4112 17.1835C36.3272 17.3485 36.3946 17.5489 36.5598 17.6307C36.6066 17.6539 36.6575 17.6661 36.7098 17.6661H40.4122V22.6673C40.4122 22.8214 40.5195 22.955 40.6709 22.9905C40.6957 22.9973 40.7219 23 40.748 23C40.8746 23 40.9902 22.9291 41.0481 22.8159L45.0876 14.8138C45.1413 14.7129 45.1372 14.5888 45.0752 14.4893Z" fill="black"/>
<rect x="3.125" y="1.125" width="29.75" height="29.75" rx="14.875" fill="#2664F1"/>
<rect x="3.125" y="1.125" width="29.75" height="29.75" rx="14.875" stroke="#BBDBF1" stroke-width="1.75"/>
<g clip-path="url(#clip0_17658_6776)">
<path d="M17.5419 22.3098C17.6872 22.3945 17.7599 22.4369 17.8624 22.4589C17.942 22.476 18.058 22.476 18.1376 22.4589C18.2401 22.4369 18.3128 22.3945 18.4581 22.3098C19.7365 21.564 23.25 19.2212 23.25 16V12.8616C23.25 12.3369 23.25 12.0745 23.1642 11.849C23.0884 11.6498 22.9652 11.4721 22.8053 11.3311C22.6243 11.1716 22.3786 11.0795 21.8874 10.8953L18.3687 9.57576C18.2322 9.5246 18.164 9.49902 18.0939 9.48888C18.0316 9.47988 17.9684 9.47988 17.9061 9.48888C17.836 9.49902 17.7678 9.5246 17.6313 9.57576L14.1126 10.8953C13.6214 11.0795 13.3757 11.1716 13.1947 11.3311C13.0348 11.4721 12.9116 11.6498 12.8358 11.849C12.75 12.0745 12.75 12.3369 12.75 12.8616V16C12.75 19.2212 16.2635 21.564 17.5419 22.3098Z" fill="white" stroke="white" stroke-width="1.3125" stroke-linecap="round" stroke-linejoin="round"/>
</g>
<defs>
<clipPath id="clip0_17658_6776">
<rect width="14" height="15.75" fill="white" transform="translate(11 8.125)"/>
</clipPath>
</defs>
</svg>
