<svg width="32" height="32" viewBox="0 0 32 32" fill="none" xmlns="http://www.w3.org/2000/svg">
<circle cx="16" cy="16" r="16" fill="black"/>
<path d="M12.0002 12L15.0002 15M12.0002 12H10.0002L9.3335 9.99999L10.0002 9.33333L12.0002 9.99999V12ZM20.8395 9.82734L19.0877 11.5791C18.8237 11.8431 18.6917 11.9751 18.6423 12.1273C18.5988 12.2612 18.5988 12.4054 18.6423 12.5393C18.6917 12.6916 18.8237 12.8236 19.0877 13.0876L19.2459 13.2457C19.5099 13.5098 19.6419 13.6418 19.7942 13.6912C19.928 13.7347 20.0723 13.7347 20.2062 13.6912C20.3584 13.6418 20.4904 13.5098 20.7544 13.2457L22.393 11.6071C22.5695 12.0366 22.6668 12.5069 22.6668 13C22.6668 15.025 21.0252 16.6667 19.0002 16.6667C18.756 16.6667 18.5175 16.6428 18.2867 16.5973C17.9626 16.5334 17.8005 16.5014 17.7023 16.5112C17.5978 16.5216 17.5464 16.5373 17.4538 16.5868C17.3668 16.6334 17.2795 16.7207 17.1048 16.8953L12.3335 21.6667C11.7812 22.2189 10.8858 22.2189 10.3335 21.6667C9.78121 21.1144 9.78121 20.2189 10.3335 19.6667L15.1048 14.8953C15.2795 14.7207 15.3668 14.6334 15.4134 14.5463C15.4629 14.4538 15.4786 14.4023 15.489 14.2979C15.4988 14.1996 15.4668 14.0376 15.4029 13.7135C15.3574 13.4827 15.3335 13.2441 15.3335 13C15.3335 10.975 16.9751 9.33333 19.0002 9.33333C19.6705 9.33333 20.2988 9.51321 20.8395 9.82734ZM16.0002 18L19.6668 21.6666C20.2191 22.2189 21.1145 22.2189 21.6668 21.6666C22.2191 21.1143 22.2191 20.2189 21.6668 19.6666L18.6504 16.6502C18.4368 16.63 18.2286 16.5915 18.0274 16.5362C17.768 16.465 17.4835 16.5167 17.2933 16.7069L16.0002 18Z" stroke="white" stroke-width="1.5" stroke-linecap="round" stroke-linejoin="round"/>
</svg>
