<svg width="24" height="24" viewBox="0 0 24 24" fill="none" xmlns="http://www.w3.org/2000/svg">
<path fill-rule="evenodd" clip-rule="evenodd" d="M10.9805 13.5112C11.6289 13.7522 12.3711 13.7522 13.0195 13.5112L16.813 12.1011V16.1481C16.813 16.6576 16.4842 17.1126 15.9902 17.2867L12.789 18.4149C12.3119 18.583 11.7902 18.5899 11.3086 18.4343L7.6677 17.2581C7.15728 17.0932 6.81299 16.6302 6.81299 16.1087V11.962L10.9805 13.5112ZM5.31299 11.4044L3.46484 10.7174C1.51172 9.99139 1.51172 7.70057 3.46484 6.97454L10.9805 4.18075C11.6289 3.93975 12.3711 3.93975 13.0195 4.18075L20.5352 6.97454C22.3908 7.66434 22.4834 9.76664 20.813 10.5974V14.0829C20.813 14.4843 20.4772 14.8098 20.063 14.8098C19.6488 14.8098 19.313 14.4843 19.313 14.0829V11.1717L18.313 11.5435V16.1481C18.313 17.2689 17.5896 18.27 16.5028 18.653L13.3016 19.7812C12.5065 20.0614 11.6369 20.0728 10.8342 19.8135L7.19336 18.6372C6.07042 18.2745 5.31299 17.256 5.31299 16.1087V11.4044ZM11.5922 12.3883C11.8515 12.4848 12.1485 12.4848 12.4078 12.3883L19.9235 9.59456C20.7047 9.30415 20.7047 8.38782 19.9235 8.09741L12.4078 5.30362C12.1485 5.20722 11.8515 5.20722 11.5922 5.30362L4.07652 8.09741C3.29528 8.38782 3.29528 9.30415 4.07652 9.59456L11.5922 12.3883Z" fill="black"/>
</svg>
