<svg width="32" height="32" viewBox="0 0 32 32" fill="none" xmlns="http://www.w3.org/2000/svg">
<g clip-path="url(#clip0_30620_12200)">
<path fill-rule="evenodd" clip-rule="evenodd" d="M16 32C7.04054 32 4.62882 31.5462 2.54134 29.4587C0.440812 27.3582 0 24.9595 0 16C0 7.04054 0.453809 4.64182 2.54134 2.54134C4.62882 0.453809 7.04054 0 16 0C24.9595 0 27.3712 0.453809 29.4587 2.54134C31.5591 4.64182 32 7.04054 32 16C32 24.9595 31.5591 27.3582 29.4587 29.4587C27.3712 31.5462 24.9595 32 16 32Z" fill="#019935"/>
<path d="M13.3401 6.16278C13.5459 6.0433 13.7827 5.98765 14.0202 6.0029C14.2578 6.01814 14.4855 6.1036 14.6744 6.24842C14.9634 6.48822 15.2164 6.76779 15.4943 7.02195C18.7464 10.1271 21.9974 13.2339 25.2473 16.3424C25.4032 16.5004 25.5733 16.6429 25.7231 16.807C25.8965 17.0322 25.9933 17.3069 25.9993 17.591C25.9993 19.6538 25.9993 21.7165 25.9993 23.7792C25.9839 24.3975 25.4573 24.9588 24.8313 24.9693C23.7263 24.9693 22.6257 24.9743 21.5228 24.9693C20.8919 24.9821 20.3377 24.408 20.3322 23.7842C20.3322 23.0107 20.3476 22.2405 20.3415 21.4686C18.0453 19.2195 15.7505 16.9685 13.4572 14.7157C13.4086 14.6782 13.3666 14.5903 13.2914 14.6224C11.8869 15.9429 10.4736 17.254 9.06966 18.5729C8.86743 18.7789 8.61604 18.9497 8.45139 19.1845C8.442 19.737 8.45139 20.2923 8.45139 20.8465C8.70499 20.7089 8.88125 20.442 9.11441 20.263C10.0382 19.379 10.9725 18.516 11.8947 17.633C12.324 17.2175 13.0599 17.191 13.5058 17.5927C15.2943 19.3199 17.0712 21.0586 18.8564 22.7897C19.1172 23.0239 19.2907 23.3687 19.2791 23.724C19.3072 24.3478 18.779 24.9456 18.1497 24.9677C17.8 25.0053 17.4535 24.8572 17.2071 24.613C16.3397 23.7842 15.4943 22.9333 14.6263 22.1095C13.9826 21.4935 13.3627 20.8487 12.7019 20.2525C11.1261 21.7388 9.55071 23.226 7.97567 24.7141C7.82875 24.8246 7.65895 24.9008 7.47873 24.9371C7.29851 24.9735 7.11244 24.969 6.93418 24.924C6.39492 24.7936 6.00706 24.2632 6.01479 23.7184C6.01479 22.0056 6.01479 20.2928 6.01479 18.58C6.01848 18.3914 6.06395 18.2058 6.14793 18.0368C6.23191 17.8678 6.3523 17.7195 6.50045 17.6026C8.47331 15.7628 10.4439 13.921 12.4124 12.0775C12.7069 11.746 13.176 11.5763 13.6119 11.6797C13.9213 11.7454 14.1721 11.9559 14.3827 12.1841C16.9345 14.6914 19.4892 17.1962 22.0466 19.6983C22.3499 19.995 22.7163 20.2934 22.7688 20.7437C22.7953 21.3261 22.7688 21.9101 22.7787 22.493H23.5522C23.5522 21.0277 23.5754 19.5646 23.5467 18.101C22.8036 17.4269 22.0986 16.7114 21.3626 16.0296C18.8892 13.6582 16.413 11.2898 13.934 8.92426C12.107 10.626 10.2789 12.3252 8.44973 14.0218C8.15358 14.2815 7.88838 14.6295 7.47565 14.697C7.19939 14.7168 6.90213 14.7434 6.65958 14.5865C5.95622 14.2549 5.77555 13.2239 6.30983 12.6642C7.56736 11.4675 8.85749 10.3011 10.1222 9.10991C11.072 8.23804 12.0079 7.34904 12.9616 6.47938C13.0815 6.36832 13.1909 6.23848 13.3401 6.16278Z" fill="white"/>
</g>
<defs>
<clipPath id="clip0_30620_12200">
<rect width="32" height="32" fill="white"/>
</clipPath>
</defs>
</svg>
