<svg width="33" height="32" viewBox="0 0 33 32" fill="none" xmlns="http://www.w3.org/2000/svg">
<rect x="2.5" y="2" width="28" height="28" rx="14" fill="black"/>
<path fill-rule="evenodd" clip-rule="evenodd" d="M17.7879 8.99831L15.2143 8.98459C15.0984 8.98397 15.0063 9.08169 15.0137 9.19735L15.5414 17.4492C15.5482 17.5545 15.6355 17.6364 15.741 17.6364H17.259C17.3645 17.6364 17.4518 17.5545 17.4586 17.4492L17.9864 9.2111C17.9938 9.09626 17.903 8.99892 17.7879 8.99831ZM18.0779 21.5323C18.0779 22.5751 17.6178 23.0154 16.5001 23.0154C15.3826 23.0154 14.9224 22.5751 14.9224 21.5323C14.9224 20.4432 15.4045 20.0029 16.5001 20.0029C17.5959 20.0029 18.0779 20.4432 18.0779 21.5323Z" fill="white"/>
</svg>
