<svg width="32" height="33" viewBox="0 0 32 33" fill="none" xmlns="http://www.w3.org/2000/svg">
<circle cx="16" cy="16.4" r="16" fill="black"/>
<path d="M11.9999 21.7914H13.7401C13.967 21.7914 14.1925 21.8184 14.4125 21.8724L16.2512 22.3193C16.6501 22.4165 17.0658 22.4259 17.4689 22.3476L19.5019 21.9521C20.0389 21.8475 20.533 21.5903 20.9201 21.2137L22.3585 19.8145C22.7693 19.4156 22.7693 18.7683 22.3585 18.3687C21.9887 18.009 21.4031 17.9685 20.9847 18.2736L19.3083 19.4966C19.0682 19.6721 18.7761 19.7666 18.4757 19.7666H16.8569L17.8873 19.7665C18.4681 19.7665 18.9385 19.3089 18.9385 18.744V18.5394C18.9385 18.0703 18.6103 17.6613 18.1426 17.5479L16.5523 17.1612C16.2935 17.0984 16.0285 17.0667 15.762 17.0667C15.1188 17.0667 13.9545 17.5992 13.9545 17.5992L11.9999 18.4166M9.33325 18.1333L9.33325 22C9.33325 22.3734 9.33325 22.5601 9.40591 22.7027C9.46983 22.8281 9.57182 22.9301 9.69726 22.994C9.83987 23.0667 10.0266 23.0667 10.3999 23.0667H10.9333C11.3066 23.0667 11.4933 23.0667 11.6359 22.994C11.7614 22.9301 11.8633 22.8281 11.9273 22.7027C11.9999 22.5601 11.9999 22.3734 11.9999 22V18.1333C11.9999 17.76 11.9999 17.5733 11.9273 17.4307C11.8633 17.3052 11.7614 17.2033 11.6359 17.1393C11.4933 17.0667 11.3066 17.0667 10.9333 17.0667L10.3999 17.0667C10.0266 17.0667 9.83987 17.0667 9.69726 17.1393C9.57182 17.2033 9.46983 17.3052 9.40591 17.4307C9.33325 17.5733 9.33325 17.76 9.33325 18.1333Z" stroke="white" stroke-width="1.4" stroke-linecap="round" stroke-linejoin="round"/>
<path d="M21.6665 15.7334C21.6665 16.1015 21.965 16.4 22.3332 16.4C22.7014 16.4 22.9998 16.1015 22.9998 15.7334V13.4167C22.9998 13.1945 22.9498 12.9889 22.8498 12.8C22.7498 12.6111 22.6109 12.4556 22.4332 12.3333L19.0998 9.95001C18.8665 9.78335 18.6109 9.70001 18.3332 9.70001C18.0554 9.70001 17.7998 9.78335 17.5665 9.95001L14.2332 12.3333C14.0554 12.4556 13.9165 12.6111 13.8165 12.8C13.7165 12.9889 13.6665 13.1945 13.6665 13.4167V14.7334C13.6665 15.1015 13.965 15.4 14.3332 15.4C14.7014 15.4 14.9998 15.1015 14.9998 14.7334V13.4L18.3332 11.0667L21.6665 13.4V15.7334Z" fill="white"/>
</svg>
