<svg width="32" height="32" viewBox="0 0 32 32" fill="none" xmlns="http://www.w3.org/2000/svg">
<circle cx="16" cy="16" r="16" fill="black"/>
<path fill-rule="evenodd" clip-rule="evenodd" d="M24.7272 12.7254V15.7727C24.7272 16.1741 24.4021 16.4999 24 16.4999C23.5978 16.4999 23.2727 16.1741 23.2727 15.7727V12.7254C23.2727 11.5226 22.2938 10.5437 21.091 10.5437H10.9096C9.70678 10.5437 8.72792 11.5226 8.72792 12.7254V18.0778C8.72792 19.2807 9.70678 20.2595 10.9096 20.2595H16.7314C17.1335 20.2595 17.4586 20.5854 17.4586 20.9868C17.4586 21.3882 17.1335 21.714 16.7314 21.714H10.9096C8.90464 21.714 7.27344 20.0828 7.27344 18.0778V12.7254C7.27344 10.7204 8.90464 9.08923 10.9096 9.08923H21.091C23.096 9.08923 24.7272 10.7204 24.7272 12.7254ZM22.0299 17.4449C21.9423 17.4448 21.8555 17.462 21.7746 17.4955C21.6936 17.5289 21.62 17.578 21.5581 17.64C21.4961 17.7019 21.4469 17.7754 21.4134 17.8563C21.3799 17.9373 21.3626 18.024 21.3626 18.1116C21.3626 18.1992 21.3798 18.2859 21.4133 18.3668C21.4468 18.4477 21.496 18.5212 21.5579 18.5831C21.6198 18.645 21.6933 18.694 21.7742 18.7275C21.8551 18.761 21.9418 18.7782 22.0293 18.7781C22.3828 18.7786 22.7218 18.9192 22.9717 19.1691C23.2217 19.4191 23.3623 19.758 23.3627 20.1115C23.3623 20.465 23.2218 20.8038 22.9719 21.0537C22.7221 21.3037 22.3833 21.4444 22.0299 21.4449H20.819L21.0942 21.1688C21.1562 21.107 21.2053 21.0335 21.2389 20.9526C21.2724 20.8718 21.2897 20.7851 21.2897 20.6975C21.2897 20.61 21.2724 20.5233 21.2389 20.4424C21.2053 20.3615 21.1562 20.2881 21.0942 20.2262C21.0323 20.1643 20.9589 20.1152 20.878 20.0816C20.7971 20.0481 20.7104 20.0309 20.6229 20.0309C20.5354 20.0309 20.4487 20.0481 20.3678 20.0816C20.2869 20.1152 20.2135 20.1643 20.1516 20.2262L18.9731 21.4045C18.7858 21.5921 18.6807 21.8464 18.6807 22.1115C18.6807 22.3766 18.7858 22.6309 18.9731 22.8186L20.1516 23.9972C20.2766 24.1222 20.4461 24.1925 20.6229 24.1925C20.7997 24.1925 20.9692 24.1222 21.0942 23.9972C21.2192 23.8722 21.2894 23.7027 21.2894 23.5259C21.2894 23.3492 21.2192 23.1796 21.0942 23.0546L20.8179 22.7783H22.0291C23.4998 22.7783 24.6959 21.582 24.6959 20.1115C24.6959 18.641 23.5006 17.4449 22.0299 17.4449ZM17.2606 14.3909C17.4651 14.213 17.6252 13.8973 17.6252 13.6039C17.6252 12.7146 16.8159 12.1321 15.5931 12.1321C14.7883 12.1321 14.1214 12.4344 13.8012 12.928C13.6945 13.0436 13.6411 13.1681 13.6411 13.2971C13.6411 13.5594 13.8501 13.755 14.1303 13.755C14.2992 13.755 14.4637 13.6661 14.5971 13.5283C14.8372 13.2259 15.1707 13.0436 15.5665 13.0436C16.0956 13.0436 16.4602 13.3282 16.4602 13.7417C16.4602 14.0574 16.2957 14.2575 15.9755 14.3909H13.4722C13.3077 14.3909 13.1787 14.5154 13.1787 14.6843C13.1787 14.8533 13.3077 14.9778 13.4722 14.9778H17.8519C18.012 14.9778 18.1321 14.8667 18.1321 14.711C18.1321 14.551 18.012 14.4398 17.8519 14.4398H17.2606V14.3909ZM13.4544 15.5203C13.2988 15.5203 13.1787 15.6314 13.1787 15.7871C13.1787 15.9383 13.2988 16.0494 13.4544 16.0494H13.9613V16.1028C13.7078 16.2762 13.5255 16.6097 13.5255 16.9432C13.5255 17.8147 14.3704 18.3971 15.6865 18.3971C16.5269 18.3971 17.265 18.0726 17.6029 17.5701C17.7097 17.4589 17.7541 17.3389 17.7541 17.2144C17.7541 16.9298 17.5273 16.7075 17.2472 16.7075C17.0649 16.7075 16.9004 16.792 16.7492 16.952C16.4958 17.2989 16.1845 17.4856 15.691 17.4856C15.104 17.4856 14.695 17.1877 14.695 16.7608C14.695 16.4496 14.9306 16.1917 15.2863 16.1028H17.843C18.0076 16.1028 18.1321 15.9783 18.1321 15.8137C18.1321 15.6448 18.0076 15.5203 17.843 15.5203H13.4544Z" fill="white"/>
</svg>
