<svg width="24" height="24" viewBox="0 0 24 24" fill="none" xmlns="http://www.w3.org/2000/svg">
<circle cx="18" cy="18" r="5.25" stroke="black" stroke-width="1.5"/>
<path d="M19.5557 19.6955L19.556 19.6956C19.8077 19.8494 20.142 19.7762 20.2964 19.506C20.4513 19.2432 20.3716 18.894 20.1075 18.7361L18.3387 17.6443V15.4854C18.3387 15.1774 18.0997 14.925 17.7963 14.925H17.7674C17.4641 14.925 17.225 15.1774 17.225 15.4854V17.8474C17.225 18.089 17.3447 18.3212 17.5561 18.4494C17.5562 18.4495 17.5563 18.4495 17.5565 18.4496L19.5545 19.6947L19.5548 19.6949L19.5557 19.6955Z" fill="black" stroke="black" stroke-width="0.15"/>
<path fill-rule="evenodd" clip-rule="evenodd" d="M14 9.75H17.5C17.5 10.1642 17.8358 10.5 18.25 10.5C18.6642 10.5 19 10.1642 19 9.75L19 9.24264C19 8.44699 18.6839 7.68393 18.1213 7.12132L14.8787 3.87868C14.3161 3.31607 13.553 3 12.7574 3H7C5.89543 3 5 3.89543 5 5V19C5 20.1046 5.89543 21 7 21H10.25C10.6642 21 11 20.6642 11 20.25C11 19.8358 10.6642 19.5 10.25 19.5H7C6.72386 19.5 6.5 19.2761 6.5 19V5C6.5 4.72386 6.72386 4.5 7 4.5H12.25L12.25 8C12.25 8.9665 13.0335 9.75 14 9.75ZM13.818 4.93934C13.796 4.91727 13.7733 4.89596 13.75 4.87542L13.75 8C13.75 8.13807 13.8619 8.25 14 8.25H17.1246C17.104 8.22674 17.0827 8.20405 17.0607 8.18198L13.818 4.93934Z" fill="black"/>
</svg>
