<svg width="32" height="32" viewBox="0 0 32 32" fill="none" xmlns="http://www.w3.org/2000/svg">
<g clip-path="url(#clip0_32002_322)">
<path fill-rule="evenodd" clip-rule="evenodd" d="M16 32C7.04054 32 4.62883 31.5462 2.54134 29.4587C0.440812 27.3582 0 24.9595 0 16C0 7.04054 0.453809 4.64182 2.54134 2.54134C4.62883 0.453809 7.04054 0 16 0C24.9595 0 27.3712 0.453809 29.4587 2.54134C31.5591 4.64182 32 7.04054 32 16C32 24.9595 31.5591 27.3582 29.4587 29.4587C27.3712 31.5462 24.9595 32 16 32Z" fill="#FF4D00"/>
<path fill-rule="evenodd" clip-rule="evenodd" d="M24.0739 8.44747C24.073 7.86266 24.429 7.33501 24.9756 7.11065C25.5223 6.88629 26.152 7.00945 26.5708 7.42266C26.9897 7.83586 27.1153 8.45769 26.8889 8.99802C26.6626 9.53835 26.1289 9.89071 25.537 9.8907C24.7297 9.8907 24.075 9.24488 24.0739 8.44747ZM13.3884 19.8234C13.3883 19.4696 13.6315 19.161 13.9788 19.0745C14.085 19.043 18.5677 17.711 19.0264 17.5641C20.3982 17.1194 21.0884 16.0328 21.0884 14.8539C21.0884 13.2743 19.9926 11.9947 17.9817 11.9947H11.1587V14.1365H17.7417C18.3278 14.1365 18.606 14.4784 18.606 14.9084C18.618 15.2429 18.3955 15.5417 18.0688 15.63C18.0454 15.6376 17.8068 15.7092 17.4462 15.8176L17.445 15.818L17.4449 15.818L17.4442 15.8182C16.2006 16.1918 13.5103 17.0001 13.1697 17.1236C11.5749 17.6963 10.906 18.6927 10.906 19.8716C10.906 21.4491 11.9487 22.7308 14.0127 22.7308H20.8357V20.5869H14.2739C13.7388 20.5869 13.3884 20.2429 13.3884 19.8234ZM26.777 11.9947H24.2968V22.7392H26.777V11.9947ZM5 8.44749C4.99916 7.86248 5.35534 7.3347 5.90227 7.11047C6.44919 6.88624 7.07901 7.00977 7.49773 7.42342C7.91644 7.83706 8.04146 8.45923 7.81444 8.9995C7.58742 9.53977 7.05312 9.89158 6.46096 9.89072C5.65409 9.89069 5 9.24455 5 8.44749ZM7.6929 11.9947H5.21261V22.7392H7.6929V11.9947Z" fill="white"/>
</g>
<defs>
<clipPath id="clip0_32002_322">
<rect width="32" height="32" fill="white"/>
</clipPath>
</defs>
</svg>
