<svg width="32" height="32" viewBox="0 0 32 32" fill="none" xmlns="http://www.w3.org/2000/svg">
<circle cx="16" cy="16" r="16" fill="black"/>
<path d="M25.08 10.7199H23.4151L22.5553 11.4151H25.08V12.1835H21.8052C21.5856 12.3482 21.4576 12.5494 21.4576 12.8056C21.4576 13.2447 21.8052 13.4825 22.4272 13.4825C22.9578 13.4825 23.4151 13.2264 23.781 12.6958L24.7873 13.3727C24.2384 14.2143 23.2505 14.6351 22.3174 14.6351C21.0917 14.6351 20.1769 14.0496 20.1769 13.08C20.1769 12.769 20.2867 12.4397 20.5062 12.1835H19.5V11.4151H21.11L21.9881 10.7199H19.5V9.95154H22.7565C22.9944 9.732 23.1041 9.53075 23.1041 9.29292C23.1041 8.90872 22.7565 8.63429 22.226 8.63429C21.7137 8.63429 21.2746 8.92702 20.9636 9.42098L19.994 8.76236C20.5245 7.92079 21.3844 7.5 22.3174 7.5C23.5798 7.5 24.4031 8.15862 24.4031 9.05508C24.4031 9.38439 24.2933 9.7137 24.1104 9.95154H25.08V10.7199Z" fill="white"/>
<path d="M13 17.25C13 17.9404 12.4404 18.5 11.75 18.5C11.0596 18.5 10.5 17.9404 10.5 17.25C10.5 16.5596 11.0596 16 11.75 16C12.4404 16 13 16.5596 13 17.25Z" fill="white"/>
<path d="M20.5 17.25C20.5 17.9404 19.9404 18.5 19.25 18.5C18.5596 18.5 18 17.9404 18 17.25C18 16.5596 18.5596 16 19.25 16C19.9404 16 20.5 16.5596 20.5 17.25Z" fill="white"/>
<path fill-rule="evenodd" clip-rule="evenodd" d="M9.25 22V21.3855V20.5H10.75V21.5V22C10.75 22.1381 10.8619 22.25 11 22.25H12C12.1381 22.25 12.25 22.1381 12.25 22V21.5V20.5H13.75V21.5V22C13.75 22.9665 12.9665 23.75 12 23.75H11C10.0335 23.75 9.25 22.9665 9.25 22Z" fill="white"/>
<path d="M11.4604 11.0946C11.6336 10.5894 12.1087 10.25 12.6429 10.25H18C19 10.25 19 8.75 18 8.75H12.6429C11.4678 8.75 10.4226 9.49658 10.0415 10.6081L8.97485 13.7192C9.28768 13.5784 9.63469 13.5 10 13.5H10.6357L11.4604 11.0946Z" fill="white"/>
<path d="M8.79054 14.2568L10.2095 14.7432L10.6357 13.5H10C9.63469 13.5 9.28768 13.5784 8.97485 13.7192L8.79054 14.2568Z" fill="white"/>
<path d="M10.2095 14.7432L8.79054 14.2568L8.97485 13.7192C8.10535 14.1106 7.5 14.9846 7.5 16V19C7.5 20.1194 8.23572 21.067 9.25 21.3855V20.5H10.75V21.5H12.25V20.5H13.75V21.5H17.25V20.5H18.75V21.5H20.25V20.5H21.75V21.3855C22.7643 21.067 23.5 20.1194 23.5 19V16.5C23.5 15.5 22 15.5 22 16.5V19C22 19.5523 21.5523 20 21 20H10C9.44772 20 9 19.5523 9 19V16C9 15.4477 9.44772 15 10 15H18C19.1429 15 19.1429 13.5 18 13.5H10.6357L10.2095 14.7432Z" fill="white"/>
<path fill-rule="evenodd" clip-rule="evenodd" d="M17.25 21.5V20.5H18.75V21.5H17.25Z" fill="white"/>
<path d="M18.75 21.5H17.25V22C17.25 22.9665 18.0335 23.75 19 23.75H20C20.9665 23.75 21.75 22.9665 21.75 22V21.3855C21.5132 21.4599 21.2613 21.5 21 21.5H20.25V22C20.25 22.1381 20.1381 22.25 20 22.25H19C18.8619 22.25 18.75 22.1381 18.75 22V21.5Z" fill="white"/>
<path d="M20.25 21.5H21C21.2613 21.5 21.5132 21.4599 21.75 21.3855V20.5H20.25V21.5Z" fill="white"/>
</svg>
