<svg width="16" height="16" viewBox="0 0 16 16" fill="none" xmlns="http://www.w3.org/2000/svg">
<path d="M11.3334 2.66669H2.00002C1.26669 2.66669 0.666687 3.26669 0.666687 4.00002V9.33335C0.666687 10.0667 1.26669 10.6667 2.00002 10.6667H11.3334C12.0667 10.6667 12.6667 10.0667 12.6667 9.33335V4.00002C12.6667 3.26669 12.0667 2.66669 11.3334 2.66669ZM2.00002 9.33335V4.00002H11.3334V9.33335H2.00002Z" fill="black" fill-opacity="0.6"/>
<path d="M6.66669 4.66669C5.56002 4.66669 4.66669 5.56002 4.66669 6.66669C4.66669 7.77335 5.56002 8.66669 6.66669 8.66669C7.77335 8.66669 8.66669 7.77335 8.66669 6.66669C8.66669 5.56002 7.77335 4.66669 6.66669 4.66669Z" fill="black" fill-opacity="0.6"/>
<path d="M15.3334 4.66669V12C15.3334 12.7334 14.7334 13.3334 14 13.3334H2.66669C2.66669 12.6667 2.66669 12.7334 2.66669 12H14V4.66669C14.7334 4.66669 14.6667 4.66669 15.3334 4.66669Z" fill="black" fill-opacity="0.6"/>
</svg>
