<svg width="32" height="32" viewBox="0 0 32 32" fill="none" xmlns="http://www.w3.org/2000/svg">
<circle cx="16" cy="16" r="16" fill="black"/>
<path fill-rule="evenodd" clip-rule="evenodd" d="M13.1429 9.75C12.6087 9.75 12.1336 10.0894 11.9604 10.5946L10.7095 14.2432L9.29054 13.7568L10.5415 10.1081C10.9226 8.99658 11.9678 8.25 13.1429 8.25H18.8571C20.0322 8.25 21.0774 8.99659 21.4585 10.1081L22.7095 13.7568L21.2905 14.2432L20.0396 10.5946C19.8664 10.0894 19.3913 9.75 18.8571 9.75H13.1429Z" fill="white"/>
<path fill-rule="evenodd" clip-rule="evenodd" d="M21.5 14.5H10.5C9.94772 14.5 9.5 14.9477 9.5 15.5V18.5C9.5 19.0523 9.94772 19.5 10.5 19.5H21.5C22.0523 19.5 22.5 19.0523 22.5 18.5V15.5C22.5 14.9477 22.0523 14.5 21.5 14.5ZM10.5 13C9.11929 13 8 14.1193 8 15.5V18.5C8 19.8807 9.11929 21 10.5 21H21.5C22.8807 21 24 19.8807 24 18.5V15.5C24 14.1193 22.8807 13 21.5 13H10.5Z" fill="white"/>
<path d="M13.5 16.75C13.5 17.4404 12.9404 18 12.25 18C11.5596 18 11 17.4404 11 16.75C11 16.0596 11.5596 15.5 12.25 15.5C12.9404 15.5 13.5 16.0596 13.5 16.75Z" fill="white"/>
<path d="M21 16.75C21 17.4404 20.4404 18 19.75 18C19.0596 18 18.5 17.4404 18.5 16.75C18.5 16.0596 19.0596 15.5 19.75 15.5C20.4404 15.5 21 16.0596 21 16.75Z" fill="white"/>
<path fill-rule="evenodd" clip-rule="evenodd" d="M9.75 21.5V20H11.25V21.5C11.25 21.6381 11.3619 21.75 11.5 21.75H12.5C12.6381 21.75 12.75 21.6381 12.75 21.5V20H14.25V21.5C14.25 22.4665 13.4665 23.25 12.5 23.25H11.5C10.5335 23.25 9.75 22.4665 9.75 21.5Z" fill="white"/>
<path fill-rule="evenodd" clip-rule="evenodd" d="M17.75 21.5V20H19.25V21.5C19.25 21.6381 19.3619 21.75 19.5 21.75H20.5C20.6381 21.75 20.75 21.6381 20.75 21.5V20H22.25V21.5C22.25 22.4665 21.4665 23.25 20.5 23.25H19.5C18.5335 23.25 17.75 22.4665 17.75 21.5Z" fill="white"/>
</svg>
