<svg width="32" height="32" viewBox="0 0 32 32" fill="none" xmlns="http://www.w3.org/2000/svg">
<circle cx="16" cy="16" r="16" fill="black"/>
<path d="M19 14.2667L13 10.8067" stroke="white" stroke-width="1.5" stroke-linecap="round" stroke-linejoin="round"/>
<path d="M22 18.6667V13.3333C21.9998 13.0995 21.938 12.8699 21.821 12.6674C21.704 12.465 21.5358 12.2969 21.3333 12.18L16.6667 9.51333C16.464 9.39631 16.234 9.3347 16 9.3347C15.766 9.3347 15.536 9.39631 15.3333 9.51333L10.6667 12.18C10.4642 12.2969 10.296 12.465 10.179 12.6674C10.062 12.8699 10.0002 13.0995 10 13.3333V18.6667C10.0002 18.9005 10.062 19.1301 10.179 19.3326C10.296 19.535 10.4642 19.7031 10.6667 19.82L15.3333 22.4867C15.536 22.6037 15.766 22.6653 16 22.6653C16.234 22.6653 16.464 22.6037 16.6667 22.4867L21.3333 19.82C21.5358 19.7031 21.704 19.535 21.821 19.3326C21.938 19.1301 21.9998 18.9005 22 18.6667Z" stroke="white" stroke-width="1.5" stroke-linecap="round" stroke-linejoin="round"/>
<path d="M10.1802 12.64L16.0002 16.0067L21.8202 12.64" stroke="white" stroke-width="1.5" stroke-linecap="round" stroke-linejoin="round"/>
<path d="M16 22.72V16" stroke="white" stroke-width="1.5" stroke-linecap="round" stroke-linejoin="round"/>
</svg>
