<svg width="24" height="25" viewBox="0 0 24 25" fill="none" xmlns="http://www.w3.org/2000/svg">
<g clip-path="url(#clip0_13657_22252)">
<path d="M14.3696 1.61536C13.6056 1.45157 12.8129 1.36536 12 1.36536C5.7868 1.36536 0.75 6.40215 0.75 12.6154C0.75 18.8286 5.7868 23.8654 12 23.8654C18.2132 23.8654 23.25 18.8286 23.25 12.6154C23.25 11.7048 23.1418 10.8194 22.9376 9.97153" stroke="white" stroke-width="1.5" stroke-linecap="round"/>
<path d="M11.9999 14.6154C7.98481 14.6154 4.43031 16.5872 2.25195 19.6154C2.55621 20.0383 2.88731 20.4406 3.24277 20.8199C5.43223 23.1559 8.54563 24.6154 11.9999 24.6154C15.4689 24.6154 18.5942 23.1433 20.785 20.7899L20.7682 20.8079C21.1194 20.4322 21.4467 20.0338 21.7478 19.6154C19.5694 16.5872 16.0149 14.6154 11.9999 14.6154Z" fill="white"/>
<rect x="9" y="5.61536" width="6" height="7" rx="3" fill="white" stroke="white" stroke-width="1.5"/>
<path fill-rule="evenodd" clip-rule="evenodd" d="M21 6.61536C22.6569 6.61536 24 5.27221 24 3.61536C24 1.9585 22.6569 0.615356 21 0.615356C19.3431 0.615356 18 1.9585 18 3.61536C18 5.27221 19.3431 6.61536 21 6.61536Z" fill="#E83C3C"/>
</g>
<defs>
<clipPath id="clip0_13657_22252">
<rect width="24" height="24" fill="white" transform="translate(0 0.615356)"/>
</clipPath>
</defs>
</svg>
