<svg width="32" height="33" viewBox="0 0 32 33" fill="none" xmlns="http://www.w3.org/2000/svg">
<circle cx="16" cy="16.4" r="16" fill="black"/>
<path d="M15.9558 24.4233L16 24.5072L16.0442 24.4233C16.153 24.2171 16.3167 24.0609 16.5114 23.929C17.3656 23.3617 17.9375 22.449 18.1458 21.4284H20.75H20.8V21.3784V10.5331V10.4541L20.7286 10.4879C19.2888 11.1708 18.3415 12.6708 18.1405 14.2227L17.7423 17.2712L17.7339 17.336L17.7986 17.3273L17.9943 17.3008C18.1916 17.3017 18.3773 17.3895 18.5144 17.5227C18.6525 17.6568 18.7374 17.8334 18.7374 18.0061C18.7374 18.3281 18.4749 18.6086 18.1225 18.6857L18.1223 18.6858L17.6753 18.7855C16.8928 17.3718 16.4482 15.9882 16.4482 14.6338C16.4482 14.0187 16.4973 13.4032 16.5469 12.782L16.5476 12.7729C16.5973 12.1494 16.6473 11.5201 16.6473 10.8838C16.6473 10.3033 16.414 9.77901 16.0369 9.3663L16 9.3259L15.9631 9.3663C15.586 9.77901 15.3527 10.3033 15.3527 10.8838L15.3527 10.885C15.3658 11.4671 15.4087 12.0435 15.4513 12.6153C15.4553 12.6678 15.4592 12.7202 15.463 12.7726C15.5093 13.3966 15.5518 14.0154 15.5518 14.6338C15.5518 15.9882 15.1072 17.3718 14.3247 18.7855L13.8777 18.6858L13.8775 18.6857C13.5251 18.6086 13.2626 18.3281 13.2626 18.0061C13.2626 17.8334 13.3475 17.6568 13.4856 17.5227C13.6227 17.3895 13.8084 17.3017 14.0057 17.3008L14.2014 17.3273L14.2661 17.336L14.2577 17.2712L13.8596 14.2241C13.744 12.6685 12.7091 11.1698 11.2714 10.4879L11.2 10.4541V10.5331V21.3784V21.4284H11.25H13.8542C14.0636 22.4497 14.6635 23.3352 15.4873 23.928L15.4873 23.928L15.4884 23.9288C15.6832 24.0608 15.847 24.217 15.9558 24.4233ZM19.0361 14.1544L19.0361 14.1544L19.0362 14.1536C19.1153 13.4286 19.4428 12.7727 19.9036 12.2307V17.5784H19.5358C19.4129 17.1842 19.1092 16.8454 18.7275 16.6298L19.0361 14.1544ZM13.5964 19.5109L13.5964 19.511L13.6001 19.5118L13.92 19.5819C13.8444 19.9033 13.7932 20.2271 13.7887 20.573H12.0964V18.4338H12.464C12.6211 18.9474 13.0544 19.3485 13.5964 19.5109ZM18.3999 19.5118L18.3999 19.512L18.4036 19.5109C18.9456 19.3485 19.3789 18.9474 19.536 18.4338H19.9036V20.573H18.2113C18.2068 20.2271 18.1556 19.9033 18.08 19.5819L18.3999 19.5118ZM13.2725 16.6298C12.8908 16.8454 12.5871 17.1842 12.4642 17.5784H12.0964V12.2311C12.5534 12.7721 12.8581 13.4281 12.9639 14.1549L13.2725 16.6298ZM16 17.3331C16.1941 17.9115 16.4739 18.4672 16.7775 18.9996C16.4697 19.0889 16.2106 19.2822 16 19.4985C15.7894 19.2822 15.5303 19.0889 15.2225 18.9996C15.5261 18.4672 15.8059 17.9115 16 17.3331ZM14.7848 19.7611C15.2061 19.8276 15.5254 20.1751 15.5502 20.573H14.6567C14.662 20.2894 14.7112 20.0255 14.7848 19.7611ZM17.2152 19.7611C17.2888 20.0255 17.338 20.2894 17.3433 20.573H16.4498C16.4746 20.1751 16.7939 19.8276 17.2152 19.7611ZM14.7841 21.4284H15.5518V22.8401C15.1889 22.4247 14.9199 21.9477 14.7841 21.4284ZM16.4482 21.4284H17.2159C17.0801 21.9477 16.8111 22.4247 16.4482 22.8401V21.4284Z" fill="white" stroke="white" stroke-width="0.1"/>
</svg>
