<svg width="32" height="32" viewBox="0 0 32 32" fill="none" xmlns="http://www.w3.org/2000/svg">
<circle cx="16" cy="16" r="16" fill="black"/>
<path d="M11 11.3C11 10.5821 10.3285 10 9.5 10C8.67158 10 8 10.5821 8 11.3V21.7C8 22.418 8.67158 23 9.5 23C10.3285 23 11 22.418 11 21.7V11.3Z" stroke="white" stroke-width="1.5" stroke-linejoin="round"/>
<path d="M24 11.3C24 10.5821 23.3285 10 22.5 10C21.6715 10 21 10.5821 21 11.3V21.7C21 22.418 21.6715 23 22.5 23C23.3285 23 24 22.418 24 21.7V11.3Z" stroke="white" stroke-width="1.5" stroke-linejoin="round"/>
<path d="M8 13.8334C8 13.097 7.32842 12.5 6.5 12.5C5.67158 12.5 5 13.097 5 13.8334V19.1666C5 19.903 5.67158 20.5 6.5 20.5C7.32842 20.5 8 19.903 8 19.1666V13.8334Z" stroke="white" stroke-width="1.5" stroke-linejoin="round"/>
<path d="M27 13.8334C27 13.097 26.3285 12.5 25.5 12.5C24.6715 12.5 24 13.097 24 13.8334V19.1666C24 19.903 24.6715 20.5 25.5 20.5C26.3285 20.5 27 19.903 27 19.1666V13.8334Z" stroke="white" stroke-width="1.5" stroke-linejoin="round"/>
<path d="M21 18H11V16H21V18Z" fill="white"/>
</svg>
