<svg width="32" height="33" viewBox="0 0 32 33" fill="none" xmlns="http://www.w3.org/2000/svg">
<circle cx="16" cy="16.4" r="16" fill="black"/>
<g clip-path="url(#clip0_13866_8092)">
<path d="M16.6863 13.6346C16.3047 13.9067 15.8377 14.0667 15.3333 14.0667C14.0447 14.0667 13 13.022 13 11.7334C13 10.4447 14.0447 9.40002 15.3333 9.40002C16.1687 9.40002 16.9015 9.83897 17.3137 10.4988M11.6667 21.4581H13.4069C13.6338 21.4581 13.8593 21.4851 14.0792 21.5391L15.9179 21.9859C16.3169 22.0831 16.7325 22.0926 17.1356 22.0143L19.1686 21.6188C19.7057 21.5141 20.1997 21.257 20.5869 20.8804L22.0253 19.4812C22.436 19.0823 22.436 18.435 22.0253 18.0354C21.6554 17.6756 21.0698 17.6352 20.6514 17.9402L18.9751 19.1633C18.735 19.3388 18.4429 19.4332 18.1424 19.4332H16.5237L17.554 19.4332C18.1348 19.4332 18.6052 18.9756 18.6052 18.4106V18.2061C18.6052 17.737 18.277 17.328 17.8094 17.2146L16.2191 16.8279C15.9603 16.7651 15.6952 16.7334 15.4288 16.7334C14.7856 16.7334 13.6213 17.2659 13.6213 17.2659L11.6667 18.0833M21 12.4C21 13.6887 19.9553 14.7334 18.6667 14.7334C17.378 14.7334 16.3333 13.6887 16.3333 12.4C16.3333 11.1114 17.378 10.0667 18.6667 10.0667C19.9553 10.0667 21 11.1114 21 12.4ZM9 17.8L9 21.6667C9 22.0401 9 22.2267 9.07266 22.3694C9.13658 22.4948 9.23856 22.5968 9.36401 22.6607C9.50661 22.7334 9.6933 22.7334 10.0667 22.7334H10.6C10.9734 22.7334 11.1601 22.7334 11.3027 22.6607C11.4281 22.5968 11.5301 22.4948 11.594 22.3694C11.6667 22.2267 11.6667 22.0401 11.6667 21.6667V17.8C11.6667 17.4267 11.6667 17.24 11.594 17.0974C11.5301 16.9719 11.4281 16.8699 11.3027 16.806C11.1601 16.7334 10.9734 16.7334 10.6 16.7334L10.0667 16.7334C9.6933 16.7334 9.50661 16.7334 9.36401 16.806C9.23857 16.8699 9.13658 16.9719 9.07266 17.0974C9 17.24 9 17.4267 9 17.8Z" stroke="white" stroke-width="1.4" stroke-linecap="round" stroke-linejoin="round"/>
</g>
<defs>
<clipPath id="clip0_13866_8092">
<rect width="16" height="16" fill="white" transform="translate(8 8.40002)"/>
</clipPath>
</defs>
</svg>
