<svg width="32" height="33" viewBox="0 0 32 33" fill="none" xmlns="http://www.w3.org/2000/svg">
<circle cx="16" cy="16.4" r="16" fill="black"/>
<path d="M11.9999 12.4L14.9999 15.4M11.9999 12.4H9.99992L9.33325 10.4L9.99992 9.73334L11.9999 10.4V12.4ZM20.8392 10.2273L19.0875 11.9791C18.8235 12.2431 18.6915 12.3751 18.642 12.5273C18.5985 12.6612 18.5985 12.8055 18.642 12.9393C18.6915 13.0916 18.8235 13.2236 19.0875 13.4876L19.2457 13.6458C19.5097 13.9098 19.6417 14.0418 19.7939 14.0912C19.9278 14.1347 20.072 14.1347 20.2059 14.0912C20.3581 14.0418 20.4902 13.9098 20.7542 13.6458L22.3928 12.0071C22.5693 12.4366 22.6666 12.9069 22.6666 13.4C22.6666 15.425 21.025 17.0667 18.9999 17.0667C18.7558 17.0667 18.5172 17.0428 18.2864 16.9973C17.9623 16.9334 17.8003 16.9014 17.702 16.9112C17.5976 16.9216 17.5461 16.9373 17.4536 16.9868C17.3665 17.0334 17.2792 17.1207 17.1046 17.2953L12.3333 22.0667C11.781 22.6189 10.8855 22.6189 10.3333 22.0667C9.78097 21.5144 9.78097 20.6189 10.3333 20.0667L15.1046 15.2953C15.2792 15.1207 15.3665 15.0334 15.4131 14.9463C15.4627 14.8538 15.4783 14.8023 15.4887 14.6979C15.4985 14.5996 15.4665 14.4376 15.4026 14.1135C15.3571 13.8827 15.3333 13.6441 15.3333 13.4C15.3333 11.375 16.9749 9.73334 18.9999 9.73334C19.6703 9.73334 20.2986 9.91322 20.8392 10.2273ZM16 18.4L19.6666 22.0666C20.2189 22.6189 21.1143 22.6189 21.6666 22.0666C22.2189 21.5143 22.2189 20.6189 21.6666 20.0666L18.6501 17.0502C18.4366 17.03 18.2284 16.9915 18.0271 16.9362C17.7677 16.865 17.4832 16.9167 17.293 17.1069L16 18.4Z" stroke="white" stroke-width="1.5" stroke-linecap="round" stroke-linejoin="round"/>
</svg>
