<svg width="48" height="48" viewBox="0 0 48 48" fill="none" xmlns="http://www.w3.org/2000/svg">
<path fill-rule="evenodd" clip-rule="evenodd" d="M24 48C10.5608 48 6.94324 47.3193 3.81201 44.188C0.661218 41.0373 0 37.4392 0 24C0 10.5608 0.680714 6.96273 3.81201 3.81201C6.94324 0.680714 10.5608 0 24 0C37.4392 0 41.0568 0.680714 44.188 3.81201C47.3387 6.96273 48 10.5608 48 24C48 37.4392 47.3387 41.0373 44.188 44.188C41.0568 47.3193 37.4392 48 24 48Z" fill="black"/>
<path fill-rule="evenodd" clip-rule="evenodd" d="M26.4168 17.5599C27.416 17.5599 27.8274 17.1858 27.8274 16.2996C27.8274 15.3741 27.3964 15 26.4168 15C25.4372 15 25.0062 15.3741 25.0062 16.2996C25.0062 17.1858 25.4176 17.5599 26.4168 17.5599ZM25.0454 27.7994L24.8691 27.6812L27.2005 19.4501H22.4789L21.9696 21.2814L24.7124 21.2617L22.9296 27.5434C22.6161 28.6854 23.3802 29.7489 24.634 29.7489C25.0259 29.7489 25.4177 29.6503 25.8487 29.3747L29.0617 27.189L28.0821 25.7317L25.0454 27.7994ZM19.0112 17.107H11.0179V22.1678C11.0179 24.7474 10.5673 26.756 9.96004 27.6618H9V32.25H10.9788V29.5325H18.4626V32.25H20.4414V27.6618H19.0112V17.107ZM13.0163 22.0891V19.0566H16.9346V27.6619H12.0172C12.5461 26.7364 13.0163 24.59 13.0163 22.0891ZM38.2501 19.4501H33.5874C31.6087 19.4501 30.2568 20.7497 30.2568 22.6205C30.2568 24.0973 31.0993 25.2198 32.4315 25.6135L29.8846 29.5126H32.1376L34.4298 25.968H36.2322V29.5126H38.2501V19.4501ZM33.8226 24.2159C32.9018 24.2159 32.2945 23.6054 32.2945 22.6996C32.2945 21.8134 32.9018 21.203 33.8226 21.203H36.2323V24.2159H33.8226Z" fill="white"/>
</svg>
