<svg width="32" height="33" viewBox="0 0 32 33" fill="none" xmlns="http://www.w3.org/2000/svg">
<rect y="0.119995" width="32" height="32" rx="16" fill="black"/>
<path d="M15.1667 9.2618H12.5C11.0999 9.2618 10.3998 9.2618 9.86502 9.53428C9.39462 9.77397 9.01217 10.1564 8.77248 10.6268C8.5 11.1616 8.5 11.8617 8.5 13.2618V17.5951C8.5 18.3701 8.5 18.7576 8.58519 19.0755C8.81635 19.9382 9.49022 20.6121 10.353 20.8433C10.6709 20.9285 11.0584 20.9285 11.8333 20.9285V22.8747C11.8333 23.3188 11.8333 23.5408 11.9244 23.6548C12.0035 23.754 12.1236 23.8117 12.2504 23.8115C12.3964 23.8114 12.5697 23.6727 12.9165 23.3953L14.9043 21.805C15.3104 21.4801 15.5135 21.3177 15.7396 21.2022C15.9402 21.0997 16.1537 21.0248 16.3743 20.9795C16.6231 20.9285 16.8831 20.9285 17.4031 20.9285H18.6667C20.0668 20.9285 20.7669 20.9285 21.3016 20.656C21.772 20.4163 22.1545 20.0338 22.3942 19.5634C22.6667 19.0287 22.6667 18.3286 22.6667 16.9285V16.7618M22.7678 9.1607C23.7441 10.137 23.7441 11.7199 22.7678 12.6962C21.7915 13.6725 20.2085 13.6725 19.2322 12.6962C18.2559 11.7199 18.2559 10.137 19.2322 9.1607C20.2085 8.18439 21.7915 8.18439 22.7678 9.1607Z" stroke="white" stroke-width="1.5" stroke-linecap="round" stroke-linejoin="round"/>
</svg>
