<svg width="32" height="33" viewBox="0 0 32 33" fill="none" xmlns="http://www.w3.org/2000/svg">
<rect y="0.0400009" width="32" height="32" rx="16" fill="black"/>
<path d="M23.0002 23.2677H16.5138M9 22.5L12.0961 22.0069C12.2563 21.9814 12.3364 21.9686 12.4232 21.9482C12.4893 21.9326 12.5874 21.9044 12.6516 21.8825C12.736 21.8536 12.7839 21.8333 12.8797 21.7925C12.9503 21.7625 13.009 21.7349 13.066 21.7043C13.1855 21.6401 13.2995 21.566 13.4068 21.4828C13.5275 21.3892 13.6365 21.2801 13.8545 21.0621L22.5948 12.3219C23.4904 11.4263 22.2742 10.3795 21.3786 9.48394C20.483 8.58835 19.8418 8.5884 18.9462 9.48399L10.6113 17.8189C10.3932 18.0369 10.2842 18.1459 10.1906 18.2666C10.1074 18.3738 10.0333 18.4878 9.96908 18.6074C9.92441 18.6906 9.88621 18.7774 9.83741 18.8995C9.80343 18.9845 9.78645 19.027 9.76699 19.0836C9.75108 19.1299 9.73294 19.1889 9.7201 19.2361C9.70439 19.2938 9.69215 19.3496 9.66765 19.4611L9 22.5ZM9 22.5L9.66899 19.3345M9 22.5L12.3389 22.0044" stroke="white" stroke-width="1.5" stroke-linecap="round" stroke-linejoin="round"/>
</svg>
