<svg width="32" height="33" viewBox="0 0 32 33" fill="none" xmlns="http://www.w3.org/2000/svg">
<circle cx="16" cy="16.4" r="16" fill="black"/>
<path fill-rule="evenodd" clip-rule="evenodd" d="M13.1429 10.15C12.6087 10.15 12.1336 10.4893 11.9604 10.9946L10.7095 14.6432L9.29054 14.1568L10.5415 10.5081C10.9226 9.39658 11.9678 8.64999 13.1429 8.64999H18.8571C20.0322 8.64999 21.0774 9.39658 21.4585 10.5081L22.7095 14.1568L21.2905 14.6432L20.0396 10.9946C19.8664 10.4894 19.3913 10.15 18.8571 10.15H13.1429Z" fill="white"/>
<path fill-rule="evenodd" clip-rule="evenodd" d="M21.5 14.9H10.5C9.94772 14.9 9.5 15.3477 9.5 15.9V18.9C9.5 19.4523 9.94772 19.9 10.5 19.9H21.5C22.0523 19.9 22.5 19.4523 22.5 18.9V15.9C22.5 15.3477 22.0523 14.9 21.5 14.9ZM10.5 13.4C9.11929 13.4 8 14.5193 8 15.9V18.9C8 20.2807 9.11929 21.4 10.5 21.4H21.5C22.8807 21.4 24 20.2807 24 18.9V15.9C24 14.5193 22.8807 13.4 21.5 13.4H10.5Z" fill="white"/>
<path d="M13.5 17.15C13.5 17.8404 12.9404 18.4 12.25 18.4C11.5596 18.4 11 17.8404 11 17.15C11 16.4596 11.5596 15.9 12.25 15.9C12.9404 15.9 13.5 16.4596 13.5 17.15Z" fill="white"/>
<path d="M21 17.15C21 17.8404 20.4404 18.4 19.75 18.4C19.0596 18.4 18.5 17.8404 18.5 17.15C18.5 16.4596 19.0596 15.9 19.75 15.9C20.4404 15.9 21 16.4596 21 17.15Z" fill="white"/>
<path fill-rule="evenodd" clip-rule="evenodd" d="M9.75 21.9V20.4H11.25V21.9C11.25 22.0381 11.3619 22.15 11.5 22.15H12.5C12.6381 22.15 12.75 22.0381 12.75 21.9V20.4H14.25V21.9C14.25 22.8665 13.4665 23.65 12.5 23.65H11.5C10.5335 23.65 9.75 22.8665 9.75 21.9Z" fill="white"/>
<path fill-rule="evenodd" clip-rule="evenodd" d="M17.75 21.9V20.4H19.25V21.9C19.25 22.0381 19.3619 22.15 19.5 22.15H20.5C20.6381 22.15 20.75 22.0381 20.75 21.9V20.4H22.25V21.9C22.25 22.8665 21.4665 23.65 20.5 23.65H19.5C18.5335 23.65 17.75 22.8665 17.75 21.9Z" fill="white"/>
</svg>
