<svg width="32" height="32" viewBox="0 0 32 32" fill="none" xmlns="http://www.w3.org/2000/svg">
<circle cx="16" cy="16" r="16" fill="black"/>
<path d="M18.6668 12V11.3333C18.6668 10.9797 18.5264 10.6406 18.2763 10.3905C18.0263 10.1405 17.6871 10 17.3335 10H14.6668C14.3132 10 13.9741 10.1405 13.724 10.3905C13.474 10.6406 13.3335 10.9797 13.3335 11.3333V12M10.6668 12.6667H21.3335C22.0699 12.6667 22.6668 13.2636 22.6668 14V20.6667C22.6668 21.403 22.0699 22 21.3335 22H10.6668C9.93045 22 9.3335 21.403 9.3335 20.6667V14C9.3335 13.2636 9.93045 12.6667 10.6668 12.6667Z" stroke="white" stroke-width="1.6" stroke-linecap="round" stroke-linejoin="round"/>
</svg>
