<svg width="32" height="32" viewBox="0 0 32 32" fill="none" xmlns="http://www.w3.org/2000/svg">
<g clip-path="url(#clip0_32002_472)">
<path fill-rule="evenodd" clip-rule="evenodd" d="M16 32C7.04054 32 4.62883 31.5462 2.54134 29.4587C0.440812 27.3582 0 24.9595 0 16C0 7.04054 0.453809 4.64182 2.54134 2.54134C4.62883 0.453809 7.04054 0 16 0C24.9595 0 27.3712 0.453809 29.4587 2.54134C31.5591 4.64182 32 7.04054 32 16C32 24.9595 31.5591 27.3582 29.4587 29.4587C27.3712 31.5462 24.9595 32 16 32Z" fill="#F18B00"/>
<path d="M9.39237 5.3733C9.18868 5.12962 9.05328 4.83626 9 4.52316C9 4.0654 9.35967 4 9.65395 4H12.4332C13.1853 4 13.2834 4 13.8392 4.78474L22.1444 16L13.8392 27.2153C13.2834 28 13.1853 28 12.4332 28H9.65395C9.32698 28 9 27.9346 9 27.4768C9.04692 27.1618 9.18308 26.8668 9.39237 26.6267L17.3706 16L9.39237 5.3733Z" fill="white"/>
</g>
<defs>
<clipPath id="clip0_32002_472">
<rect width="32" height="32" fill="white"/>
</clipPath>
</defs>
</svg>
