<svg width="24" height="24" viewBox="0 0 24 24" fill="none" xmlns="http://www.w3.org/2000/svg">
<g clip-path="url(#clip0_17471_37808)">
<path d="M20 1L20.5206 3.0824C20.6222 3.48874 20.673 3.69191 20.7788 3.85724C20.8723 4.00347 20.9965 4.12766 21.1428 4.22123C21.3081 4.32702 21.5113 4.37782 21.9176 4.4794L24 5L21.9176 5.5206C21.5113 5.62218 21.3081 5.67298 21.1428 5.77877C20.9965 5.87234 20.8723 5.99653 20.7788 6.14276C20.673 6.30809 20.6222 6.51126 20.5206 6.9176L20 9L19.4794 6.9176C19.3778 6.51126 19.327 6.30809 19.2212 6.14276C19.1277 5.99653 19.0035 5.87234 18.8572 5.77877C18.6919 5.67298 18.4887 5.62218 18.0824 5.5206L16 5L18.0824 4.4794C18.4887 4.37782 18.6919 4.32702 18.8572 4.22123C19.0035 4.12766 19.1277 4.00347 19.2212 3.85724C19.327 3.69191 19.3778 3.48874 19.4794 3.0824L20 1Z" fill="black"/>
<path d="M20 1L20.5206 3.0824C20.6222 3.48874 20.673 3.69191 20.7788 3.85724C20.8723 4.00347 20.9965 4.12766 21.1428 4.22123C21.3081 4.32702 21.5113 4.37782 21.9176 4.4794L24 5L21.9176 5.5206C21.5113 5.62218 21.3081 5.67298 21.1428 5.77877C20.9965 5.87234 20.8723 5.99653 20.7788 6.14276C20.673 6.30809 20.6222 6.51126 20.5206 6.9176L20 9L19.4794 6.9176C19.3778 6.51126 19.327 6.30809 19.2212 6.14276C19.1277 5.99653 19.0035 5.87234 18.8572 5.77877C18.6919 5.67298 18.4887 5.62218 18.0824 5.5206L16 5L18.0824 4.4794C18.4887 4.37782 18.6919 4.32702 18.8572 4.22123C19.0035 4.12766 19.1277 4.00347 19.2212 3.85724C19.327 3.69191 19.3778 3.48874 19.4794 3.0824L20 1Z" fill="black"/>
<path d="M10.1709 7.68555C10.3994 8.59965 10.514 9.05677 10.752 9.42871C10.9625 9.75774 11.2423 10.0375 11.5713 10.248C11.9432 10.486 12.4003 10.6006 13.3145 10.8291L18 12L13.3145 13.1709C12.4003 13.3994 11.9432 13.514 11.5713 13.752C11.2423 13.9625 10.9625 14.2423 10.752 14.5713C10.514 14.9432 10.3994 15.4003 10.1709 16.3145L9 21L7.8291 16.3145C7.60057 15.4003 7.48599 14.9432 7.24805 14.5713C7.03751 14.2423 6.75774 13.9625 6.42871 13.752C6.05677 13.514 5.59965 13.3994 4.68555 13.1709L0 12L4.68555 10.8291C5.59965 10.6006 6.05677 10.486 6.42871 10.248C6.75774 10.0375 7.03751 9.75774 7.24805 9.42871C7.48599 9.05677 7.60058 8.59965 7.8291 7.68555L9 3L10.1709 7.68555ZM8.60938 10.5615C8.53325 10.866 8.49523 11.0186 8.41602 11.1426C8.34584 11.2523 8.25225 11.3458 8.14258 11.416C8.01864 11.4952 7.86604 11.5332 7.56152 11.6094L6 12L7.56152 12.3906C7.86604 12.4668 8.01864 12.5048 8.14258 12.584C8.25225 12.6542 8.34584 12.7477 8.41602 12.8574C8.49523 12.9814 8.53325 13.134 8.60938 13.4385L9 15L9.39062 13.4385C9.46675 13.134 9.50477 12.9814 9.58398 12.8574C9.65416 12.7477 9.74775 12.6542 9.85742 12.584C9.98136 12.5048 10.134 12.4668 10.4385 12.3906L12 12L10.4385 11.6094C10.134 11.5332 9.98136 11.4952 9.85742 11.416C9.74775 11.3458 9.65416 11.2523 9.58398 11.1426C9.50477 11.0186 9.46675 10.866 9.39062 10.5615L9 9L8.60938 10.5615Z" fill="black"/>
<path d="M20 15L20.5206 17.0824C20.6222 17.4887 20.673 17.6919 20.7788 17.8572C20.8723 18.0035 20.9965 18.1277 21.1428 18.2212C21.3081 18.327 21.5113 18.3778 21.9176 18.4794L24 19L21.9176 19.5206C21.5113 19.6222 21.3081 19.673 21.1428 19.7788C20.9965 19.8723 20.8723 19.9965 20.7788 20.1428C20.673 20.3081 20.6222 20.5113 20.5206 20.9176L20 23L19.4794 20.9176C19.3778 20.5113 19.327 20.3081 19.2212 20.1428C19.1277 19.9965 19.0035 19.8723 18.8572 19.7788C18.6919 19.673 18.4887 19.6222 18.0824 19.5206L16 19L18.0824 18.4794C18.4887 18.3778 18.6919 18.327 18.8572 18.2212C19.0035 18.1277 19.1277 18.0035 19.2212 17.8572C19.327 17.6919 19.3778 17.4887 19.4794 17.0824L20 15Z" fill="black"/>
<path d="M20 15L20.5206 17.0824C20.6222 17.4887 20.673 17.6919 20.7788 17.8572C20.8723 18.0035 20.9965 18.1277 21.1428 18.2212C21.3081 18.327 21.5113 18.3778 21.9176 18.4794L24 19L21.9176 19.5206C21.5113 19.6222 21.3081 19.673 21.1428 19.7788C20.9965 19.8723 20.8723 19.9965 20.7788 20.1428C20.673 20.3081 20.6222 20.5113 20.5206 20.9176L20 23L19.4794 20.9176C19.3778 20.5113 19.327 20.3081 19.2212 20.1428C19.1277 19.9965 19.0035 19.8723 18.8572 19.7788C18.6919 19.673 18.4887 19.6222 18.0824 19.5206L16 19L18.0824 18.4794C18.4887 18.3778 18.6919 18.327 18.8572 18.2212C19.0035 18.1277 19.1277 18.0035 19.2212 17.8572C19.327 17.6919 19.3778 17.4887 19.4794 17.0824L20 15Z" fill="black"/>
</g>
<defs>
<clipPath id="clip0_17471_37808">
<rect width="24" height="24" fill="white"/>
</clipPath>
</defs>
</svg>
