<svg width="32" height="32" viewBox="0 0 32 32" fill="none" xmlns="http://www.w3.org/2000/svg">
<circle cx="16" cy="16" r="16" fill="black"/>
<path d="M13.0293 13.7363V16.3773" stroke="white" stroke-width="1.5" stroke-linecap="round" stroke-linejoin="round"/>
<path d="M14.3495 15.0569H11.7085" stroke="white" stroke-width="1.5" stroke-linecap="round" stroke-linejoin="round"/>
<path d="M9.43607 13.9565L8.965 18.1962C8.79327 19.7417 10.0031 21.0934 11.5581 21.0934C12.5463 21.0934 13.4497 20.535 13.8917 19.6511L14.3024 18.8296H17.698L18.1088 19.6511C18.5507 20.535 19.4542 21.0934 20.4424 21.0934C21.9974 21.0934 23.2072 19.7417 23.0354 18.1962L22.5643 13.9565C22.3714 12.2201 20.9038 10.9065 19.1568 10.9065H12.8437C11.0967 10.9065 9.629 12.2201 9.43607 13.9565Z" stroke="white" stroke-width="1.5" stroke-linejoin="round"/>
<path d="M19.9616 14.3023C19.8053 14.3023 19.6787 14.1756 19.6787 14.0193C19.6787 13.863 19.8053 13.7363 19.9616 13.7363" stroke="white" stroke-width="1.5" stroke-linecap="round" stroke-linejoin="round"/>
<path d="M19.9614 14.3023C20.1178 14.3023 20.2444 14.1756 20.2444 14.0193C20.2444 13.863 20.1178 13.7363 19.9614 13.7363" stroke="white" stroke-width="1.5" stroke-linecap="round" stroke-linejoin="round"/>
<path d="M17.981 15.7171C17.981 15.5608 18.1076 15.4341 18.2639 15.4341C18.4202 15.4341 18.5469 15.5608 18.5469 15.7171" stroke="white" stroke-width="1.5" stroke-linecap="round" stroke-linejoin="round"/>
<path d="M17.981 15.717C17.981 15.8733 18.1076 16 18.2639 16C18.4202 16 18.5469 15.8733 18.5469 15.717" stroke="white" stroke-width="1.5" stroke-linecap="round" stroke-linejoin="round"/>
</svg>
