<svg width="32" height="32" viewBox="0 0 32 32" fill="none" xmlns="http://www.w3.org/2000/svg">
<circle cx="16" cy="16" r="16" fill="black"/>
<path d="M16.4629 7.01172C21.2182 7.24989 25 11.1361 25 15.8955L24.9883 16.3535C24.7471 21.0535 20.8151 24.791 16 24.791L15.5371 24.7793C13.5301 24.6788 11.697 23.9279 10.248 22.7363L8.36133 24.7607L8.30566 24.8145C8.01966 25.0645 7.58464 25.0625 7.30078 24.7979C7.01701 24.5331 6.98528 24.0996 7.21484 23.7969L7.26465 23.7373L9.17285 21.6895C7.91326 20.2408 7.1161 18.3878 7.01172 16.3535L7 15.8955C7.00001 10.9827 11.0296 7.00014 16 7L16.4629 7.01172ZM16 8.5C11.8415 8.50014 8.50001 11.8276 8.5 15.8955C8.5 17.8376 9.26326 19.6096 10.5117 20.9326C10.6018 20.9661 10.6871 21.0173 10.7617 21.0869C10.8452 21.1647 10.9047 21.258 10.9443 21.3574C12.2753 22.5569 14.0474 23.2909 16 23.291C20.1586 23.291 23.5 19.9635 23.5 15.8955C23.5 11.8276 20.1586 8.50004 16 8.5ZM15.7979 16.7305C17.4114 16.7305 18.8551 17.4679 19.8984 18.625C20.1754 18.9326 20.1512 19.4073 19.8438 19.6846C19.5362 19.9616 19.0615 19.9362 18.7842 19.6289C17.9884 18.7465 16.9345 18.2305 15.7979 18.2305C14.7323 18.2305 13.7394 18.684 12.9639 19.4678L12.8115 19.6289C12.5343 19.9361 12.0605 19.9613 11.7529 19.6846C11.4454 19.4073 11.4211 18.9326 11.6982 18.625L11.8984 18.4131C12.9226 17.3787 14.2853 16.7305 15.7979 16.7305ZM15.8867 10.4316C17.3193 10.4317 18.497 11.5811 18.4971 13.0186C18.4971 14.4561 17.3193 15.6054 15.8867 15.6055C14.4541 15.6054 13.2764 14.4561 13.2764 13.0186C13.2764 11.581 14.4541 10.4317 15.8867 10.4316ZM15.8867 11.9316C15.2648 11.9317 14.7764 12.4271 14.7764 13.0186C14.7764 13.6101 15.2647 14.1054 15.8867 14.1055C16.5086 14.1054 16.9971 13.61 16.9971 13.0186C16.997 12.4271 16.5086 11.9317 15.8867 11.9316Z" fill="white"/>
</svg>
