<svg width="32" height="32" viewBox="0 0 32 32" fill="none" xmlns="http://www.w3.org/2000/svg">
<g clip-path="url(#clip0_30620_12205)">
<path fill-rule="evenodd" clip-rule="evenodd" d="M16 32C7.04054 32 4.62882 31.5462 2.54134 29.4587C0.440812 27.3582 0 24.9595 0 16C0 7.04054 0.453809 4.64182 2.54134 2.54134C4.62882 0.453809 7.04054 0 16 0C24.9595 0 27.3712 0.453809 29.4587 2.54134C31.5591 4.64182 32 7.04054 32 16C32 24.9595 31.5591 27.3582 29.4587 29.4587C27.3712 31.5462 24.9595 32 16 32Z" fill="#064783"/>
<path fill-rule="evenodd" clip-rule="evenodd" d="M3.00928 11.3106V7.40002H29.0004V11.3106H3.00928ZM24.2064 10.3472C24.1865 10.2635 24.1816 10.1991 24.1816 10.0955C24.1811 10.0848 24.1807 10.0737 24.1803 10.0623C24.1756 9.9435 24.1699 9.79686 24.1518 9.72047C24.1518 9.63616 24.1177 9.58222 24.0681 9.51775C24.0423 9.47643 23.9877 9.44969 23.9177 9.41544C23.8953 9.40447 23.8713 9.39274 23.8462 9.3795C23.9993 9.31565 24.1028 9.24621 24.1723 9.16252C24.2212 9.07325 24.256 8.97468 24.256 8.83643C24.256 8.59961 24.1524 8.41177 23.9497 8.27848C23.866 8.22951 23.7817 8.19479 23.6782 8.17495C23.574 8.16007 23.4215 8.14024 23.2188 8.14024H21.9448V10.5351H22.5375V9.58222H23.0806C23.2529 9.58222 23.3713 9.61694 23.4407 9.65166C23.5046 9.68637 23.5393 9.73535 23.5591 9.80478C23.574 9.87359 23.574 9.99197 23.574 10.1599V10.16L23.5753 10.1695C23.5945 10.318 23.6095 10.4337 23.6435 10.5351H24.3049C24.256 10.4855 24.2212 10.4309 24.2064 10.3472ZM15.9803 9.48365L16.9282 10.5351H17.6939L16.4348 9.12781L17.6244 8.12536H16.8594L15.6939 9.16252V8.12536H15.0963V10.5351H15.6939V9.72047L15.9803 9.48365ZM10.5242 10.041C10.5589 9.94241 10.5738 9.824 10.5738 9.65104H10.5744V8.14024H9.98178V9.65104C9.98178 9.83888 9.92722 9.99139 9.84353 10.0608C9.73938 10.1445 9.60609 10.1941 9.38415 10.1941C9.18143 10.1941 9.04318 10.1445 8.95949 10.0608C8.8758 9.97217 8.82124 9.83888 8.82124 9.65104V8.14024H8.22858V9.65104C8.22858 9.87298 8.27817 10.0608 8.36187 10.2139C8.45052 10.3621 8.58381 10.4656 8.75677 10.5351C8.92477 10.6039 9.14671 10.6336 9.41825 10.6336C9.87763 10.6336 10.1833 10.5146 10.386 10.2976C10.4507 10.2189 10.4853 10.1353 10.518 10.056C10.5201 10.051 10.5222 10.046 10.5242 10.041ZM13.0325 24.6022H13.867L12.3357 21.4814H11.5161L10.0401 24.6022H10.8547L11.1807 23.8911H12.6915L13.0325 24.6022ZM11.9265 22.2117L12.4547 23.3623H11.4182L11.9265 22.2117ZM17.8073 21.4467V24.5675H18.519V22.5334L20.0497 24.5675H20.8296V21.4467H20.1185V23.5353L18.5531 21.4467H17.8073ZM25.5046 21.4126V24.5526L26.4425 24.5328V23.4665L26.7141 23.2786L27.8548 24.5328H28.9409L27.3607 22.7703L28.9409 21.4126H27.6818L26.4425 22.464V21.4126H25.5046ZM23.1048 8.5004C23.3075 8.5004 23.4606 8.52024 23.5294 8.55496C23.6137 8.60455 23.6478 8.67337 23.6478 8.79178C23.6478 8.91019 23.6131 8.99388 23.5294 9.04347C23.46 9.07819 23.3075 9.11291 23.1048 9.11291H22.5418V8.5004H23.1048ZM4.58457 21.4814H3.06881V24.6028H4.36325C4.90632 24.6028 5.28139 24.5879 5.48411 24.5532C5.67133 24.5334 5.85918 24.4348 6.0123 24.2618C6.16543 24.1087 6.24912 23.9066 6.24912 23.7039C6.24912 23.516 6.17969 23.3629 6.06128 23.2296C5.94287 23.0914 5.75503 22.9928 5.53309 22.9383C5.68621 22.8887 5.82446 22.7851 5.90815 22.6667C6.01168 22.5483 6.06128 22.415 6.06128 22.2619C6.06128 22.0939 5.99185 21.9209 5.85856 21.7876C5.72031 21.6494 5.55231 21.5657 5.37934 21.531C5.21134 21.4963 4.9398 21.4814 4.58457 21.4814ZM3.83382 24.0734V23.2439H4.44571H4.44575C4.7371 23.2439 4.93981 23.2439 5.05821 23.2637C5.17662 23.2786 5.28015 23.3276 5.34958 23.397C5.41344 23.4658 5.44816 23.565 5.44816 23.6686C5.44816 23.7721 5.41406 23.8558 5.34958 23.9252C5.28077 23.9891 5.19646 24.0436 5.10781 24.0585C5.00924 24.0734 4.82139 24.0734 4.54986 24.0734H3.83382ZM3.83382 22.7207V21.9897L4.27832 21.9904C4.49581 21.9904 4.67419 21.9966 4.79961 22.001C4.8676 22.0034 4.92003 22.0052 4.95468 22.0052C5.05821 22.0251 5.1419 22.0592 5.21134 22.1088C5.28015 22.1776 5.31487 22.2619 5.31487 22.3456C5.31487 22.4838 5.26031 22.5675 5.1419 22.632C5.04333 22.6859 4.87037 22.7207 4.64843 22.7207H3.83382ZM24.9472 12.584H27.3762L28.7394 20.0791H26.5275L26.0532 17.3489L24.6063 20.0791H22.8388L21.3578 17.3489L20.9182 20.0791H14.0548L12.6426 18.0401L11.28 20.0791H3V12.584H11.6061L12.7616 14.3812L13.9023 12.584H19.0571L19.0621 17.5113L20.0348 12.584H22.4637L23.7917 16.4797L24.9472 12.584ZM14.1881 16.1734L16.2618 18.6867L16.2569 13.7197L14.1881 16.1734ZM5.74015 18.2273H9.58132L11.1616 16.1741L9.76916 14.1642H5.74015V15.502H7.73017V17.1412H5.74015V18.2273Z" fill="white"/>
</g>
<defs>
<clipPath id="clip0_30620_12205">
<rect width="32" height="32" fill="white"/>
</clipPath>
</defs>
</svg>
