<svg width="32" height="32" viewBox="0 0 32 32" fill="none" xmlns="http://www.w3.org/2000/svg">
<g clip-path="url(#clip0_32002_748)">
<path fill-rule="evenodd" clip-rule="evenodd" d="M16 32C7.04054 32 4.62882 31.5462 2.54134 29.4587C0.440812 27.3582 0 24.9595 0 16C0 7.04054 0.453809 4.64182 2.54134 2.54134C4.62882 0.453809 7.04054 0 16 0C24.9595 0 27.3712 0.453809 29.4587 2.54134C31.5591 4.64182 32 7.04054 32 16C32 24.9595 31.5591 27.3582 29.4587 29.4587C27.3712 31.5462 24.9595 32 16 32Z" fill="white"/>
<mask id="mask0_32002_748" style="mask-type:alpha" maskUnits="userSpaceOnUse" x="0" y="0" width="32" height="32">
<path fill-rule="evenodd" clip-rule="evenodd" d="M16 32C7.04054 32 4.62882 31.5462 2.54134 29.4587C0.440812 27.3582 0 24.9595 0 16C0 7.04054 0.453809 4.64182 2.54134 2.54134C4.62882 0.453809 7.04054 0 16 0C24.9595 0 27.3712 0.453809 29.4587 2.54134C31.5591 4.64182 32 7.04054 32 16C32 24.9595 31.5591 27.3582 29.4587 29.4587C27.3712 31.5462 24.9595 32 16 32Z" fill="white"/>
</mask>
<g mask="url(#mask0_32002_748)">
<path d="M15.1498 9.02802C14.8715 8.74976 14.5623 8.71884 14.5623 8.71884C14.5623 8.71884 15.0879 8.62609 15.7372 8.71884C16.3556 8.78067 16.6957 8.93526 16.6957 8.93526L16.2937 9.89372C16.1701 10.2029 15.6444 10.172 15.5826 9.80097C15.5517 9.49179 15.3353 9.21353 15.1498 9.02802ZM32 0V32H0V0H32ZM20.5604 9.73913H22.2918V8.84251H21.8589V7.85314C22.1372 7.85314 22.4464 7.85314 22.7246 7.85314C23.7759 7.85314 24.8271 7.85314 25.8783 7.85314C26.0638 7.85314 26.2493 7.97681 26.3111 8.16232C26.4348 8.44058 26.2493 8.87343 25.9092 8.87343H24.7343V9.77005C25.1362 9.77005 25.5072 9.77005 25.9092 9.77005C26.2802 9.77005 26.6512 9.58454 26.8986 9.27536C27.3005 8.74976 27.3005 7.94589 26.8676 7.42029C27.0222 7.23478 27.115 7.01836 27.1768 6.77101C27.2696 6.36908 27.1768 5.93623 26.9295 5.59613C26.713 5.28695 26.3111 5.07053 25.9401 5.07053H24.0232V4.60676H23.0957V5.07053H20.6222V5.96715H21.0551V8.87343H20.6222V9.73913H20.5604ZM26.744 11.3778V10.5121H23.9614V8.31691L23.0338 8.53333V10.5121H22.2609V11.3778H26.744ZM25.6618 13.3565L25.4763 12.429C25.4454 12.3053 25.2599 12.2126 25.1362 12.2744L24.7034 12.4599V14.315C24.7343 14.315 25.1053 14.1604 25.3217 14.0367C25.6 13.944 25.7855 13.8203 25.6618 13.3565ZM23.0647 15.1807V15.9536L23.9923 15.7063V12.1198L23.0647 12.3362V13.2328C23.0647 13.2328 21.1169 14.5932 19.4783 14.5932C19.7565 14.9952 19.7256 15.0261 20.1275 15.6444C20.4058 16.0773 21.1787 16.0155 21.4261 15.9536C21.9517 15.799 23.0647 15.1807 23.0647 15.1807ZM10.543 5.41063L11.3469 7.32754C11.8415 7.14203 12.3672 6.95652 12.8928 6.86377C13.2947 6.77101 13.6657 6.70918 14.0676 6.70918C14.4387 6.67826 14.8097 6.70918 15.1498 6.70918C15.9227 6.7401 16.6957 6.89469 17.4377 7.11111L18.2725 5.1942C18.2725 5.1942 17.9015 5.03961 17.1903 4.88502C17.1903 5.31787 16.9121 5.75072 16.4792 5.90531C16.0464 6.0599 15.5517 5.87439 15.3044 5.50338C15.1498 5.25603 15.0879 4.94686 15.1498 4.63768C14.6242 4.60676 14.0986 4.60676 13.542 4.6686C13.6348 5.07053 13.4802 5.5343 13.1092 5.75072C12.7382 5.99806 12.2435 5.99807 11.9034 5.71981C11.687 5.56522 11.5633 5.31787 11.5015 5.07053C10.914 5.25604 10.543 5.41063 10.543 5.41063ZM9.95556 10.6976C11.1614 9.64637 12.1198 9.30628 12.1198 9.30628C12.1198 9.30628 11.9343 9.67729 11.8725 10.0792C11.8106 10.3884 11.7488 10.7594 11.7488 10.7594C11.7488 10.7594 11.3469 10.9758 10.8522 11.4087C10.4812 11.7488 10.0792 12.2126 10.0174 12.2435C10.0174 12.2435 10.1411 12.8 10.172 12.9855C10.2029 13.1401 10.3575 13.5729 10.3575 13.5729C10.9449 12.6763 11.7488 12.058 11.7488 12.058C11.7488 12.058 11.8415 12.5217 11.9034 12.6454C11.9343 12.8 12.1198 13.2019 12.1198 13.2019C12.1198 13.2019 11.7797 13.5111 11.4705 13.8821C11.2541 14.1604 11.0686 14.4696 10.914 14.686L11.2541 15.1807L11.5942 15.6135C11.7488 15.3353 11.9034 15.0879 12.058 14.8406C12.3672 14.4077 12.7382 14.0676 13.171 13.7585C13.3874 13.6039 13.6039 13.4802 13.8512 13.3565C14.0986 13.2328 14.3459 13.1401 14.5932 13.0473C14.0986 12.5527 13.9749 11.9343 13.9749 11.9343H14.5314H15.057C15.057 11.9343 15.2734 12.5836 16.1391 12.8309C16.5101 12.9237 16.8193 12.7691 17.8705 13.2638C18.4889 13.5729 18.7672 13.8512 18.8908 13.944L19.1691 12.4599C19.2309 11.8725 18.458 11.8415 18.458 11.8415C18.458 11.9961 18.2106 12.3671 17.7778 12.3671C17.3758 12.3671 17.0667 12.0271 17.0667 11.6251C17.0667 11.3469 17.314 10.7903 18.0251 10.7903C18.9527 10.7903 19.3546 11.4087 19.3546 11.4087C19.3546 11.4087 19.6019 11.1923 19.6638 10.6976C19.7565 10.1411 19.2928 9.89372 19.2928 9.89372C19.5401 9.89372 19.7256 9.70821 19.7256 9.46087V9.39903H17.685L18.1179 8.37874C17.9015 8.25507 17.6232 8.16232 17.3758 8.06956C16.4483 7.76038 15.4899 7.63671 14.5314 7.60579C12.2126 7.57488 10.2957 8.93526 10.2957 8.93526C10.2957 8.93526 10.1101 9.55362 10.0483 9.77005C10.0483 10.0483 9.95556 10.6976 9.95556 10.6976ZM5.96715 19.7565C6.58551 20.2512 7.38937 20.5913 8.19324 20.6531C8.25507 20.0966 8.62609 19.6638 8.62609 19.6638C7.97681 19.6638 7.29662 19.5092 6.77102 19.1072C6.33817 18.7981 5.99807 18.3652 5.81256 17.8705C5.59614 17.3449 5.59614 16.7575 5.75072 16.2319C5.90531 15.6135 6.33816 15.1498 6.83285 14.7478C7.04928 14.5623 7.29662 14.4077 7.51304 14.2222C7.72947 14.0676 7.91498 13.8821 8.06957 13.6966C8.4715 13.2638 8.78068 12.7382 8.96618 12.1507C9.18261 11.4396 9.24444 10.6357 9.12077 9.8628C9.02802 9.18261 8.74976 8.53333 8.31691 8.00773C7.85314 7.45121 7.23478 7.08019 6.52367 6.86377C5.96715 6.67826 5.41063 6.61642 4.82319 6.5855C4.73043 6.5855 4.63768 6.5855 4.54493 6.5855V7.60579C4.97778 7.57488 6.36908 7.60579 7.2657 8.44058C7.54396 8.68792 7.76039 9.02802 7.91498 9.36811C8.06957 9.77004 8.1314 10.2338 8.1314 10.6667C8.1314 11.4705 7.91498 12.2435 7.42029 12.8618C7.17295 13.171 6.86377 13.4184 6.55459 13.6348C5.8744 14.1604 5.22512 14.7787 4.88503 15.5826C4.48309 16.5101 4.48309 17.5923 4.91594 18.4889C5.16329 18.9836 5.5343 19.4164 5.96715 19.7565ZM6.52367 12.1816C6.77101 11.9343 6.95652 11.656 7.04928 11.3159C6.18358 10.7594 5.59614 9.73913 5.56522 8.62609C5.22512 8.53333 4.88503 8.53333 4.57585 8.59517C4.57585 10.1101 5.34879 11.4396 6.52367 12.1816ZM9.3372 25.1981C13.6966 25.1981 14.7169 21.5188 14.7169 21.5188C14.7169 21.5188 16.6338 21.4879 18.2725 19.7256C16.8193 19.0145 15.9536 17.8087 15.9536 17.8087H17.2831C17.8705 18.3652 18.5198 18.7981 19.2928 19.0454C19.5092 19.1072 19.7256 19.2 19.942 19.2309C20.9314 19.0145 21.8899 18.7671 22.8483 18.5198C23.5594 18.3343 24.2705 18.1488 24.9507 17.9014C25.0744 17.8705 25.1672 17.8087 25.2908 17.7778C25.3836 17.7469 25.4763 17.7159 25.5382 17.6541C25.7237 17.5304 25.7546 17.2522 25.7855 17.0357C25.8164 16.7575 25.7855 16.4792 25.8164 16.201C25.8473 15.9845 25.7855 15.7681 25.5691 15.6444C25.3217 15.4899 25.0126 15.5826 24.7652 15.7063C24.7343 15.8609 24.5797 16.201 24.2705 16.2628C23.4358 16.4792 22.3536 16.7266 21.4879 16.943C20.715 17.1285 19.8493 16.8502 19.3237 16.2628C19.1382 16.0464 19.0145 15.8299 18.8908 15.5826C18.6744 15.1498 18.3652 14.7787 17.9942 14.4696C17.5923 14.1604 17.0976 13.9749 16.6029 13.8821C16.3246 13.8512 16.0155 13.8512 15.7063 13.8821C14.4077 14.0058 13.2329 14.7787 12.5836 15.9227C12.4908 16.0773 12.429 16.2319 12.3672 16.4174C12.3053 16.6029 12.2435 16.8193 12.1816 17.0048C12.1198 17.1903 12.0271 17.4068 11.9652 17.5923C11.8725 17.7778 11.8106 17.9633 11.687 18.1179C11.2232 18.7671 10.914 19.0763 10.2957 19.4783C9.73913 19.8184 9.24444 20.3749 9.12077 21.1169C8.9971 21.828 9.39904 22.8174 9.39904 22.8174L6.89469 24.3942L8.19324 27.4241H12.3672L11.7488 25.9401L10.0174 26.3729L9.3372 25.1981ZM19.5092 27.4551L18.8908 26.0019L17.1594 26.4348L16.4792 25.1981C16.4792 25.1981 18.087 24.7034 18.3343 22.7865C18.3961 22.2299 18.2106 21.5188 18.087 21.2715C16.7884 22.199 16.0155 22.3227 15.4589 22.4464C15.0261 23.3739 14.6242 23.8686 14.0676 24.4251L15.3662 27.4551H19.5092ZM27.5787 22.6319C27.486 21.6116 26.6821 20.7768 25.6618 20.6222C25.3527 20.5913 25.0435 20.5913 24.7652 20.6841V21.6425C24.9816 21.5498 25.1981 21.4879 25.4454 21.5188C26.1256 21.5807 26.6821 22.1372 26.713 22.8174C26.744 23.1884 26.5894 23.5594 26.3111 23.8377C26.0329 24.1159 25.6618 24.2705 25.2599 24.2396C25.0435 24.2396 24.8271 24.1778 24.6416 24.0541C24.3942 23.8995 24.2087 23.6831 24.085 23.4357C23.9923 23.2502 23.9614 23.0647 23.9614 22.8792V19.1072L23.0338 19.3546V22.9101C23.0338 23.3739 22.7865 23.8068 22.4155 24.0541C22.0135 24.3014 21.4879 24.3324 21.0551 24.1159C20.6531 23.8995 20.3749 23.5285 20.344 23.0647C20.2821 22.601 20.4986 22.1063 20.8386 21.828C21.2406 21.5188 21.828 21.457 22.2918 21.6734V20.715C21.3024 20.4367 20.2203 20.9005 19.7256 21.7971C19.6019 22.0444 19.5092 22.2918 19.4473 22.57C19.2928 23.5903 19.8802 24.5797 20.8077 24.9816C21.0551 25.1053 21.3333 25.1362 21.6116 25.1671C22.3536 25.1671 23.0338 24.8271 23.4667 24.2396C23.6522 24.5179 23.9304 24.7034 24.1778 24.9507C24.3942 25.1671 24.5179 25.4454 24.456 25.7546C24.3942 26.3111 23.8377 26.713 23.2812 26.6203C22.972 26.5585 22.6628 26.342 22.5391 26.0638C22.23 26.1565 21.9517 26.1874 21.6425 26.1874C21.8899 27.0222 22.6937 27.6097 23.6213 27.5169C24.4251 27.4551 25.1362 26.8367 25.3217 26.0638C25.3836 25.7546 25.3836 25.4454 25.3217 25.1671C26.6512 25.1053 27.7024 23.9613 27.5787 22.6319ZM26.342 6.64734C26.4039 6.49275 26.4039 6.30724 26.2802 6.15266C26.1874 6.02898 26.0638 5.96715 25.9092 5.93623C25.2599 5.93623 24.6415 5.93623 23.9923 5.93623V6.43091H23.0647V5.93623H21.8899V6.9256H25.9092C26.0947 6.95652 26.2493 6.83285 26.342 6.64734Z" fill="#931B59"/>
</g>
</g>
<defs>
<clipPath id="clip0_32002_748">
<rect width="32" height="32" fill="white"/>
</clipPath>
</defs>
</svg>
