<svg width="32" height="32" viewBox="0 0 32 32" fill="none" xmlns="http://www.w3.org/2000/svg">
<g clip-path="url(#clip0_32002_249)">
<path fill-rule="evenodd" clip-rule="evenodd" d="M16 32C7.04054 32 4.62882 31.5462 2.54134 29.4587C0.440812 27.3582 0 24.9595 0 16C0 7.04054 0.453809 4.64182 2.54134 2.54134C4.62882 0.453809 7.04054 0 16 0C24.9595 0 27.3712 0.453809 29.4587 2.54134C31.5591 4.64182 32 7.04054 32 16C32 24.9595 31.5591 27.3582 29.4587 29.4587C27.3712 31.5462 24.9595 32 16 32Z" fill="#6EC72D"/>
<path fill-rule="evenodd" clip-rule="evenodd" d="M22.207 7.02328C20.6628 7.02328 19.4106 8.27541 19.4106 9.81969C19.4106 11.3645 20.6628 12.6166 22.207 12.6166C23.7518 12.6166 25.0044 11.3645 25.0044 9.81969C25.0044 8.27541 23.7518 7.02328 22.207 7.02328ZM15.9869 5C9.91804 5.00741 5 9.92943 5 16.0007C5 22.0759 9.92449 27.0004 15.9998 27.0004C22.0755 27.0004 27 22.0759 27 15.9764L23.0251 15.9741C23.0251 19.9104 19.8565 23.0256 15.9998 23.0256C12.1203 23.0256 8.9749 19.8807 8.9749 16.0008C8.9749 12.1247 12.1128 8.9823 15.9869 8.97538V5ZM16.0267 11.1205C13.3316 11.1205 11.1472 13.3054 11.1472 16.0005C11.1472 18.6951 13.3316 20.88 16.0267 20.88C18.7218 20.88 20.9057 18.6951 20.9057 16.0005C20.9057 13.3054 18.7218 11.1205 16.0267 11.1205Z" fill="white"/>
</g>
<defs>
<clipPath id="clip0_32002_249">
<rect width="32" height="32" fill="white"/>
</clipPath>
</defs>
</svg>
