<svg width="32" height="32" viewBox="0 0 32 32" fill="none" xmlns="http://www.w3.org/2000/svg">
<circle cx="16" cy="16" r="16" fill="black"/>
<path d="M12.0002 21.3914H13.7404C13.9672 21.3914 14.1928 21.4184 14.4127 21.4724L16.2514 21.9192C16.6504 22.0164 17.066 22.0259 17.4691 21.9476L19.5021 21.5521C20.0392 21.4474 20.5332 21.1903 20.9204 20.8137L22.3588 19.4145C22.7695 19.0156 22.7695 18.3683 22.3588 17.9687C21.9889 17.6089 21.4033 17.5684 20.9849 17.8735L19.3086 19.0966C19.0685 19.272 18.7764 19.3665 18.4759 19.3665H16.8572L17.8875 19.3665C18.4683 19.3665 18.9387 18.9089 18.9387 18.3439V18.1394C18.9387 17.6703 18.6105 17.2613 18.1429 17.1479L16.5526 16.7612C16.2938 16.6984 16.0287 16.6667 15.7623 16.6667C15.1191 16.6667 13.9548 17.1992 13.9548 17.1992L12.0002 18.0166M9.3335 17.7333L9.3335 21.6C9.3335 21.9734 9.3335 22.16 9.40616 22.3026C9.47007 22.4281 9.57206 22.5301 9.6975 22.594C9.84011 22.6667 10.0268 22.6667 10.4002 22.6667H10.9335C11.3069 22.6667 11.4935 22.6667 11.6362 22.594C11.7616 22.5301 11.8636 22.4281 11.9275 22.3027C12.0002 22.16 12.0002 21.9734 12.0002 21.6V17.7333C12.0002 17.36 12.0002 17.1733 11.9275 17.0307C11.8636 16.9052 11.7616 16.8032 11.6362 16.7393C11.4935 16.6667 11.3069 16.6667 10.9335 16.6667L10.4002 16.6667C10.0268 16.6667 9.84011 16.6667 9.6975 16.7393C9.57206 16.8032 9.47007 16.9052 9.40616 17.0307C9.3335 17.1733 9.3335 17.36 9.3335 17.7333Z" stroke="white" stroke-width="1.4" stroke-linecap="round" stroke-linejoin="round"/>
<path d="M21.6665 15.3333C21.6665 15.7015 21.965 16 22.3332 16C22.7014 16 22.9998 15.7015 22.9998 15.3333V13.0167C22.9998 12.7944 22.9498 12.5889 22.8498 12.4C22.7498 12.2111 22.6109 12.0555 22.4332 11.9333L19.0998 9.54999C18.8665 9.38332 18.6109 9.29999 18.3332 9.29999C18.0554 9.29999 17.7998 9.38332 17.5665 9.54999L14.2332 11.9333C14.0554 12.0555 13.9165 12.2111 13.8165 12.4C13.7165 12.5889 13.6665 12.7944 13.6665 13.0167V14.3333C13.6665 14.7015 13.965 15 14.3332 15C14.7014 15 14.9998 14.7015 14.9998 14.3333V13L18.3332 10.6667L21.6665 13V15.3333Z" fill="white"/>
</svg>
