<svg width="56" height="36" viewBox="0 0 56 36" fill="none" xmlns="http://www.w3.org/2000/svg">
<path d="M0 6.4C0 4.15979 0 3.03969 0.435974 2.18404C0.819467 1.43139 1.43139 0.819467 2.18404 0.435974C3.03969 0 4.15979 0 6.4 0H49.6C51.8402 0 52.9603 0 53.816 0.435974C54.5686 0.819467 55.1805 1.43139 55.564 2.18404C56 3.03969 56 4.15979 56 6.4V29.6C56 31.8402 56 32.9603 55.564 33.816C55.1805 34.5686 54.5686 35.1805 53.816 35.564C52.9603 36 51.8402 36 49.6 36H6.4C4.15979 36 3.03969 36 2.18404 35.564C1.43139 35.1805 0.819467 34.5686 0.435974 33.816C0 32.9603 0 31.8402 0 29.6V6.4Z" fill="url(#paint0_linear_30197_16877)"/>
<path d="M0.25 6.4C0.25 5.27577 0.250194 4.44763 0.303666 3.79317C0.3569 3.14162 0.461689 2.68424 0.658726 2.29754C1.01825 1.59193 1.59193 1.01825 2.29754 0.658726C2.68424 0.461689 3.14162 0.3569 3.79317 0.303666C4.44763 0.250194 5.27577 0.25 6.4 0.25H49.6C50.7242 0.25 51.5524 0.250194 52.2068 0.303666C52.8584 0.3569 53.3158 0.461689 53.7025 0.658726C54.4081 1.01825 54.9818 1.59193 55.3413 2.29754C55.5383 2.68424 55.6431 3.14162 55.6963 3.79317C55.7498 4.44763 55.75 5.27577 55.75 6.4V29.6C55.75 30.7242 55.7498 31.5524 55.6963 32.2068C55.6431 32.8584 55.5383 33.3158 55.3413 33.7025C54.9818 34.4081 54.4081 34.9818 53.7025 35.3413C53.3158 35.5383 52.8584 35.6431 52.2068 35.6963C51.5524 35.7498 50.7242 35.75 49.6 35.75H6.4C5.27577 35.75 4.44763 35.7498 3.79317 35.6963C3.14162 35.6431 2.68424 35.5383 2.29754 35.3413C1.59193 34.9818 1.01825 34.4081 0.658726 33.7025C0.461689 33.3158 0.3569 32.8584 0.303666 32.2068C0.250194 31.5524 0.25 30.7242 0.25 29.6V6.4Z" stroke="#0805A8" stroke-opacity="0.04" stroke-width="0.5"/>
<g clip-path="url(#clip0_30197_16877)">
<path d="M45.3748 22.0906H40.6265V29.9078H45.3748V22.0906Z" fill="#FF5F00"/>
<path d="M41.1156 26.0001C41.1151 25.2474 41.2843 24.5044 41.6107 23.8273C41.937 23.1503 42.4119 22.5569 42.9994 22.0922C42.2718 21.5158 41.398 21.1574 40.4779 21.0579C39.5578 20.9584 38.6285 21.1219 37.7962 21.5296C36.9639 21.9373 36.2622 22.5728 35.7713 23.3634C35.2804 24.1541 35.02 25.0681 35.02 26.0008C35.02 26.9336 35.2804 27.8475 35.7713 28.6382C36.2622 29.4288 36.9639 30.0643 37.7962 30.472C38.6285 30.8797 39.5578 31.0432 40.4779 30.9437C41.398 30.8442 42.2718 30.4858 42.9994 29.9094C42.4117 29.4445 41.9368 28.851 41.6104 28.1737C41.284 27.4964 41.1149 26.7531 41.1156 26.0001Z" fill="#EB001B"/>
<path d="M50.5081 29.0808V28.9206H50.5766V28.8875H50.4136V28.9206H50.478V29.0808H50.5081ZM50.8246 29.0808V28.8875H50.7752L50.7177 29.0255L50.6602 28.8875H50.6108V29.0808H50.6465V28.9344L50.6999 29.0601H50.7369L50.7903 28.9344V29.0808H50.8246Z" fill="#F79E1B"/>
<path d="M50.9796 25.9999C50.9795 26.9328 50.7191 27.8468 50.2281 28.6374C49.7371 29.4281 49.0353 30.0636 48.2029 30.4713C47.3705 30.8789 46.4411 31.0422 45.5209 30.9426C44.6008 30.843 43.727 30.4844 42.9995 29.9079C43.5867 29.4427 44.0614 28.8492 44.3879 28.1721C44.7143 27.495 44.8839 26.752 44.8839 25.9992C44.8839 25.2464 44.7143 24.5035 44.3879 23.8264C44.0614 23.1493 43.5867 22.5558 42.9995 22.0906C43.727 21.5141 44.6008 21.1555 45.5209 21.0559C46.4411 20.9562 47.3705 21.1196 48.2029 21.5272C49.0353 21.9349 49.7371 22.5703 50.2281 23.361C50.7191 24.1517 50.9795 25.0657 50.9796 25.9986V25.9999Z" fill="#F79E1B"/>
</g>
<defs>
<linearGradient id="paint0_linear_30197_16877" x1="56" y1="2.59611e-06" x2="1.56553e-06" y2="34.8354" gradientUnits="userSpaceOnUse">
<stop offset="0.144565" stop-color="#FFEFA5"/>
<stop offset="0.416287" stop-color="#FFF4C1"/>
<stop offset="0.70626" stop-color="#BAD2F8"/>
<stop offset="0.839731" stop-color="#98D4F0"/>
</linearGradient>
<clipPath id="clip0_30197_16877">
<rect width="18" height="12" fill="white" transform="translate(34 20)"/>
</clipPath>
</defs>
</svg>
