<svg width="32" height="32" viewBox="0 0 32 32" fill="none" xmlns="http://www.w3.org/2000/svg">
<g clip-path="url(#clip0_32002_731)">
<path fill-rule="evenodd" clip-rule="evenodd" d="M16 32C7.04054 32 4.62882 31.5462 2.54134 29.4587C0.440812 27.3582 0 24.9595 0 16C0 7.04054 0.453809 4.64182 2.54134 2.54134C4.62882 0.453809 7.04054 0 16 0C24.9595 0 27.3712 0.453809 29.4587 2.54134C31.5591 4.64182 32 7.04054 32 16C32 24.9595 31.5591 27.3582 29.4587 29.4587C27.3712 31.5462 24.9595 32 16 32Z" fill="#00537F"/>
<path d="M3 8.25H9.25453C12.5223 10.6709 16 12.9681 19.9498 14.0773C22.0184 14.7069 24.1957 14.8043 26.343 14.7968C21.6324 16.9404 16.1724 16.0635 11.6379 13.8974C8.50504 12.5371 5.84808 10.3711 3 8.53481V8.25Z" fill="white"/>
<path d="M3 20.0171C4.72009 19.0427 6.57509 18.1171 8.62121 18.2145C13.1182 18.297 17.0343 20.894 20.3396 23.6971C18.4658 23.6484 16.5921 23.9407 14.7558 23.5622C12.7734 22.2393 10.8697 20.7216 8.57624 19.9496C6.71981 19.6779 4.82909 19.7529 3 20.1707L3 20.0171Z" fill="white"/>
<path d="M11.6196 8.25H17.0572C18.4925 9.26931 19.8641 10.4123 21.4642 11.1655C22.6076 11.7812 23.8615 12.1644 25.1536 12.293C26.4458 12.4217 27.7506 12.2932 28.9929 11.915C27.4623 13.1101 25.576 13.7591 23.634 13.7588C19.0284 13.8337 14.9924 11.1056 11.6196 8.25Z" fill="white"/>
<path d="M5.88965 17.3002C8.92135 15.745 12.5039 15.745 15.7418 16.517C20.6997 17.7311 25.1104 20.508 29.0003 23.7159C26.853 23.6821 24.6832 23.8695 22.5547 23.6372C17.7804 20.0021 12.0917 16.8467 5.88965 17.3002Z" fill="white"/>
</g>
<defs>
<clipPath id="clip0_32002_731">
<rect width="32" height="32" fill="white"/>
</clipPath>
</defs>
</svg>
