<svg width="32" height="32" viewBox="0 0 32 32" fill="none" xmlns="http://www.w3.org/2000/svg">
<g clip-path="url(#clip0_60019_246)">
<rect width="32" height="32" rx="16" fill="#2A7F48"/>
<path d="M10.9737 14.4615C10.6975 14.4615 10.4737 14.6854 10.4737 14.9615V18.9872C10.4737 19.2633 10.6975 19.4872 10.9737 19.4872H12.1842C12.4604 19.4872 12.6842 19.2633 12.6842 18.9872V14.9615C12.6842 14.6854 12.4604 14.4615 12.1842 14.4615H10.9737ZM15.3947 14.4615C15.1186 14.4615 14.8947 14.6854 14.8947 14.9615V18.9872C14.8947 19.2633 15.1186 19.4872 15.3947 19.4872H16.6053C16.8814 19.4872 17.1053 19.2633 17.1053 18.9872V14.9615C17.1053 14.6854 16.8814 14.4615 16.6053 14.4615H15.3947ZM9 22.5769C9 22.8531 9.22386 23.0769 9.5 23.0769H22.5C22.7761 23.0769 23 22.8531 23 22.5769V21.4231C23 21.1469 22.7761 20.9231 22.5 20.9231H9.5C9.22386 20.9231 9 21.1469 9 21.4231V22.5769ZM19.8158 14.4615C19.5396 14.4615 19.3158 14.6854 19.3158 14.9615V18.9872C19.3158 19.2633 19.5396 19.4872 19.8158 19.4872H21.0263C21.3025 19.4872 21.5263 19.2633 21.5263 18.9872V14.9615C21.5263 14.6854 21.3025 14.4615 21.0263 14.4615H19.8158ZM16.2282 8.117C16.0849 8.04355 15.9151 8.04355 15.7718 8.117L9.27184 11.4503C9.10496 11.5359 9 11.7077 9 11.8952V12.5256C9 12.8018 9.22386 13.0256 9.5 13.0256H22.5C22.7761 13.0256 23 12.8018 23 12.5256V11.8952C23 11.7077 22.895 11.5359 22.7282 11.4503L16.2282 8.117Z" fill="white"/>
</g>
<defs>
<clipPath id="clip0_60019_246">
<rect width="32" height="32" fill="white"/>
</clipPath>
</defs>
</svg>
