<svg width="48" height="48" viewBox="0 0 48 48" fill="none" xmlns="http://www.w3.org/2000/svg">
<mask id="path-1-inside-1_1432_7047" fill="white">
<path fill-rule="evenodd" clip-rule="evenodd" d="M24 48C10.5608 48 6.94324 47.3193 3.81201 44.188C0.661218 41.0373 0 37.4392 0 24C0 10.5608 0.680714 6.96273 3.81201 3.81201C6.94324 0.680714 10.5608 0 24 0C37.4392 0 41.0568 0.680714 44.188 3.81201C47.3387 6.96273 48 10.5608 48 24C48 37.4392 47.3387 41.0373 44.188 44.188C41.0568 47.3193 37.4392 48 24 48Z"/>
</mask>
<path d="M3.81201 44.188L4.51913 43.4809L4.51911 43.4809L3.81201 44.188ZM3.81201 3.81201L3.10489 3.10491L3.10272 3.1071L3.81201 3.81201ZM44.188 3.81201L43.4809 4.51911L43.4809 4.51912L44.188 3.81201ZM44.188 44.188L43.4809 43.4809L43.4809 43.4809L44.188 44.188ZM24 47C17.2702 47 13.0964 46.8273 10.226 46.2856C7.42724 45.7574 5.92833 44.8901 4.51913 43.4809L3.1049 44.8951C4.82692 46.6171 6.70241 47.6559 9.85507 48.2509C12.936 48.8323 17.2906 49 24 49V47ZM4.51911 43.4809C3.09964 42.0614 2.23288 40.5624 1.70723 37.7673C1.16787 34.8993 1 30.7306 1 24H-1C-1 30.7085 -0.837261 35.0585 -0.258314 38.137C0.334347 41.2884 1.37359 43.1638 3.10491 44.8951L4.51911 43.4809ZM1 24C1 17.2702 1.17271 13.1013 1.71439 10.2334C2.24247 7.43763 3.10975 5.93723 4.5213 4.51693L3.10272 3.1071C1.38297 4.83751 0.344252 6.71152 -0.250856 9.86223C-0.832349 12.9409 -1 17.2906 -1 24H1ZM4.51913 4.51911C5.92833 3.10987 7.42724 2.24262 10.226 1.71442C13.0964 1.1727 17.2702 1 24 1V-1C17.2906 -1 12.936 -0.832344 9.85507 -0.250884C6.70241 0.344103 4.82692 1.38285 3.1049 3.10491L4.51913 4.51911ZM24 1C30.7298 1 34.9036 1.1727 37.774 1.71442C40.5728 2.24262 42.0717 3.10987 43.4809 4.51911L44.8951 3.10491C43.1731 1.38285 41.2976 0.344103 38.1449 -0.250884C35.064 -0.832344 30.7094 -1 24 -1V1ZM43.4809 4.51912C44.9003 5.93856 45.7671 7.43756 46.2927 10.2327C46.8321 13.1007 47 17.2694 47 24H49C49 17.2915 48.8372 12.9415 48.2583 9.86301C47.6656 6.71158 46.6264 4.83619 44.8951 3.10491L43.4809 4.51912ZM47 24C47 30.7306 46.8321 34.8993 46.2927 37.7673C45.7671 40.5624 44.9003 42.0614 43.4809 43.4809L44.8951 44.8951C46.6264 43.1638 47.6656 41.2884 48.2583 38.137C48.8372 35.0585 49 30.7085 49 24H47ZM43.4809 43.4809C42.0717 44.8901 40.5728 45.7574 37.774 46.2856C34.9036 46.8273 30.7298 47 24 47V49C30.7094 49 35.064 48.8323 38.1449 48.2509C41.2976 47.6559 43.1731 46.6171 44.8951 44.8951L43.4809 43.4809Z" fill="white" mask="url(#path-1-inside-1_1432_7047)"/>
<path fill-rule="evenodd" clip-rule="evenodd" d="M26.4168 17.5599C27.416 17.5599 27.8274 17.1858 27.8274 16.2996C27.8274 15.3741 27.3964 15 26.4168 15C25.4372 15 25.0062 15.3741 25.0062 16.2996C25.0062 17.1858 25.4176 17.5599 26.4168 17.5599ZM25.0454 27.7994L24.8691 27.6812L27.2005 19.4501H22.4789L21.9696 21.2814L24.7124 21.2617L22.9296 27.5434C22.6161 28.6854 23.3802 29.7489 24.634 29.7489C25.0259 29.7489 25.4177 29.6503 25.8487 29.3747L29.0617 27.189L28.0821 25.7317L25.0454 27.7994ZM19.0112 17.107H11.0179V22.1678C11.0179 24.7474 10.5673 26.756 9.96004 27.6618H9V32.25H10.9788V29.5325H18.4626V32.25H20.4414V27.6618H19.0112V17.107ZM13.0163 22.0891V19.0566H16.9346V27.6619H12.0172C12.5461 26.7364 13.0163 24.59 13.0163 22.0891ZM38.2501 19.4501H33.5874C31.6087 19.4501 30.2568 20.7497 30.2568 22.6205C30.2568 24.0973 31.0993 25.2198 32.4315 25.6135L29.8846 29.5126H32.1376L34.4298 25.968H36.2322V29.5126H38.2501V19.4501ZM33.8226 24.2159C32.9018 24.2159 32.2945 23.6054 32.2945 22.6996C32.2945 21.8134 32.9018 21.203 33.8226 21.203H36.2323V24.2159H33.8226Z" fill="white"/>
</svg>
