<svg width="24" height="24" viewBox="0 0 24 24" fill="none" xmlns="http://www.w3.org/2000/svg">
<path d="M3 3L21 21" stroke="black" stroke-width="1.5" stroke-linecap="round" stroke-linejoin="round"/>
<path d="M10.5 10.677C10.1888 11.0296 10 11.4927 10 11.9999C10 13.1045 10.8954 13.9999 12 13.9999C12.5072 13.9999 12.9703 13.8111 13.3229 13.4999" stroke="black" stroke-width="1.5" stroke-linecap="round" stroke-linejoin="round"/>
<path d="M7.36185 7.56104C5.68002 8.73962 4.27894 10.4188 3 12C4.88856 14.9909 8.2817 18 12 18C13.5499 18 15.0434 17.4771 16.3949 16.6507" stroke="black" stroke-width="1.5" stroke-linecap="round" stroke-linejoin="round"/>
<path d="M12 6C16.0084 6 18.7015 9.1582 21 12C20.6815 12.5043 20.3203 13.0092 19.922 13.5" stroke="black" stroke-width="1.5" stroke-linecap="round" stroke-linejoin="round"/>
</svg>
