<svg width="24" height="24" viewBox="0 0 24 24" fill="none" xmlns="http://www.w3.org/2000/svg">
<path fill-rule="evenodd" clip-rule="evenodd" d="M14.5722 4.79035C14.4098 4.84671 14.1941 4.94314 13.8454 5.10028L7.48911 7.96521L14.8055 7.96521V5.67758C14.8055 5.3017 14.8047 5.07249 14.7893 4.90741C14.7832 4.84314 14.7761 4.80574 14.7718 4.78699C14.7561 4.77146 14.735 4.75855 14.7096 4.75142C14.692 4.75445 14.6496 4.76349 14.5722 4.79035ZM16.3055 7.96521L16.3055 5.64533C16.3055 5.31206 16.3055 5.01134 16.2827 4.76779C16.2591 4.51541 16.2039 4.21288 16.0136 3.94181C15.7599 3.58049 15.3709 3.33978 14.9386 3.26795C14.6172 3.21453 14.322 3.28943 14.0805 3.37321C13.8466 3.45437 13.5687 3.57964 13.2577 3.71986L5.34418 7.28665C5.3116 7.30134 5.27939 7.31582 5.24753 7.33014C4.74438 7.5563 4.33169 7.7418 4.0173 8.04186C3.74081 8.30574 3.52845 8.62915 3.39781 8.98806C3.24871 9.3977 3.24922 9.84789 3.24983 10.3871C3.24987 10.4218 3.24991 10.457 3.24991 10.4925V11.402C3.24991 11.4221 3.24991 11.4423 3.24991 11.4627L3.24991 17.2525C3.2499 17.7128 3.24989 18.104 3.27674 18.425C3.30496 18.7623 3.36669 19.0884 3.52874 19.399C3.77353 19.8681 4.16234 20.2463 4.63648 20.4822C4.94839 20.6374 5.27562 20.6967 5.61706 20.7239C5.94354 20.75 6.34218 20.75 6.81506 20.75H17.1848C17.6576 20.75 18.0563 20.75 18.3828 20.7239C18.7242 20.6967 19.0514 20.6374 19.3633 20.4822C19.8375 20.2463 20.2263 19.8681 20.4711 19.399C20.6331 19.0884 20.6949 18.7623 20.7231 18.425C20.7499 18.104 20.7499 17.7128 20.7499 17.2525V11.4627C20.7499 11.0023 20.7499 10.6112 20.7231 10.2902C20.6949 9.95288 20.6331 9.62681 20.4711 9.31622C20.2263 8.84705 19.8375 8.4689 19.3633 8.23297C19.0514 8.07777 18.7242 8.01848 18.3828 7.99124C18.0563 7.96519 17.6576 7.9652 17.1848 7.96521L16.3055 7.96521ZM6.84436 9.46521C6.33444 9.46521 5.99606 9.46577 5.73637 9.48649C5.48492 9.50655 5.37309 9.54188 5.30471 9.5759C5.10983 9.67287 4.95471 9.8259 4.85861 10.0101C4.8269 10.0709 4.79174 10.1736 4.77152 10.4152C4.75064 10.6648 4.74992 10.9905 4.74991 11.4847C4.74991 11.4875 4.74991 11.4902 4.74991 11.493V14.7916L4.74991 17.2222C4.74991 17.721 4.75052 18.0489 4.77152 18.2999C4.79174 18.5416 4.8269 18.6443 4.85861 18.7051C4.95471 18.8893 5.10983 19.0423 5.30471 19.1393C5.37309 19.1733 5.48492 19.2086 5.73637 19.2287C5.99606 19.2494 6.33444 19.25 6.84436 19.25H17.1555C17.6654 19.25 18.0038 19.2494 18.2635 19.2287C18.5149 19.2086 18.6267 19.1733 18.6951 19.1393C18.89 19.0423 19.0451 18.8893 19.1412 18.7051C19.1729 18.6443 19.2081 18.5416 19.2283 18.2999C19.2493 18.0489 19.2499 17.721 19.2499 17.2222V11.493C19.2499 10.9942 19.2493 10.6662 19.2283 10.4152C19.2081 10.1736 19.1729 10.0709 19.1412 10.0101C19.0451 9.8259 18.89 9.67287 18.6951 9.57591C18.6267 9.54188 18.5149 9.50655 18.2635 9.48649C18.0038 9.46577 17.6654 9.46521 17.1555 9.46521L6.84436 9.46521ZM14.8055 14.3576C14.8055 13.687 15.3571 13.1736 15.9999 13.1736C16.6427 13.1736 17.1944 13.687 17.1944 14.3576C17.1944 15.0282 16.6427 15.5416 15.9999 15.5416C15.3571 15.5416 14.8055 15.0282 14.8055 14.3576Z" fill="black"/>
</svg>
