<svg width="24" height="24" viewBox="0 0 24 24" fill="none" xmlns="http://www.w3.org/2000/svg">
<path d="M8.71032 4.99132C9.1114 4.76369 9.42148 4.40444 9.58807 3.97441L9.97894 2.9654C10.0883 2.68198 10.2807 2.4382 10.531 2.26598C10.7812 2.09376 11.0777 2.00114 11.3814 2.00024H12.618C12.9218 2.00114 13.2183 2.09376 13.4685 2.26598C13.7188 2.4382 13.9112 2.68198 14.0205 2.9654L14.4138 3.98058C14.5789 4.40685 14.8851 4.76368 15.2813 4.99166L16.2638 5.55694C16.6567 5.783 17.1147 5.86888 17.5628 5.80053L18.6502 5.63466C18.9465 5.59444 19.2482 5.64321 19.5167 5.77479C19.7852 5.90637 20.0085 6.11479 20.1583 6.37361L20.7615 7.42925C20.9161 7.69218 20.9874 7.99579 20.9658 8.30003C20.9443 8.60426 20.831 8.89482 20.6408 9.13335L19.9667 9.99214C19.6902 10.3444 19.54 10.7792 19.54 11.227V12.3634C19.54 12.8202 19.6964 13.2633 19.9831 13.6189L20.671 14.4719C20.8612 14.7104 20.9744 15.001 20.996 15.3052C21.0176 15.6094 20.9462 15.913 20.7916 16.176L20.1884 17.2316C20.0387 17.4904 19.8153 17.6988 19.5469 17.8305C19.2783 17.962 18.9767 18.0108 18.6804 17.9706L17.593 17.8047C17.1449 17.7363 16.6869 17.8222 16.294 18.0483L15.3115 18.6136C14.9153 18.8415 14.6091 19.1984 14.444 19.6246L14.0507 20.6398C13.9413 20.9232 13.7489 21.167 13.4987 21.3393C13.2484 21.5115 12.952 21.6041 12.6482 21.605H11.3814C11.0777 21.6041 10.7812 21.5115 10.531 21.3393C10.2807 21.167 10.0883 20.9232 9.97894 20.6398L9.58568 19.6247C9.42055 19.1984 9.11436 18.8415 8.71812 18.6136L7.73558 18.0483C7.34269 17.8222 6.88468 17.7363 6.43659 17.8047L5.34921 17.9706C5.05291 18.0108 4.75133 17.962 4.4828 17.8305C4.21429 17.6988 3.99095 17.4904 3.84116 17.2316L3.23793 16.176C3.08336 15.913 3.01215 15.6094 3.03368 15.3052C3.05522 15.001 3.1685 14.7104 3.35858 14.4719L4.03268 13.6131C4.30918 13.2608 4.45946 12.826 4.45946 12.3782V11.2418C4.45946 10.785 4.30306 10.3419 4.01628 9.98631L3.32842 9.13335C3.13834 8.89482 3.02506 8.60426 3.00352 8.30003C2.98199 7.99579 3.0532 7.69218 3.20777 7.42925L3.81099 6.37361C3.96079 6.11479 4.18413 5.90637 4.45264 5.77479C4.72117 5.64321 5.02275 5.59444 5.31905 5.63466L6.41293 5.80152C6.85704 5.86927 7.31103 5.78552 7.70174 5.56376L8.71032 4.99132ZM8.98363 11.8026C8.98363 12.3991 9.16052 12.9823 9.49193 13.4783C9.82336 13.9743 10.2944 14.3608 10.8455 14.5891C11.3967 14.8174 12.0031 14.8771 12.5882 14.7608C13.1732 14.6444 13.7106 14.3571 14.1325 13.9353C14.5543 13.5135 14.8415 12.9761 14.9579 12.391C15.0743 11.806 15.0146 11.1995 14.7863 10.6484C14.558 10.0973 14.1714 9.62621 13.6754 9.2948C13.1794 8.96339 12.5963 8.7865 11.9997 8.7865C11.1998 8.7865 10.4327 9.10426 9.86703 9.6699C9.3014 10.2355 8.98363 11.0027 8.98363 11.8026Z" stroke="black" stroke-width="1.5" stroke-linecap="round" stroke-linejoin="round"/>
</svg>
