<svg width="32" height="33" viewBox="0 0 32 33" fill="none" xmlns="http://www.w3.org/2000/svg">
<circle cx="16" cy="16.4" r="16" fill="black"/>
<g clip-path="url(#clip0_13866_8130)">
<path d="M15.9999 13.7333V16.4M15.9999 19.0667H16.0066M9.33325 14.0818V18.7182C9.33325 18.8812 9.33325 18.9628 9.35167 19.0395C9.368 19.1075 9.39494 19.1725 9.43149 19.2322C9.47272 19.2995 9.53037 19.3571 9.64567 19.4724L12.9275 22.7542C13.0428 22.8695 13.1005 22.9272 13.1677 22.9684C13.2274 23.005 13.2924 23.0319 13.3604 23.0482C13.4372 23.0667 13.5187 23.0667 13.6817 23.0667H18.3181C18.4812 23.0667 18.5627 23.0667 18.6394 23.0482C18.7074 23.0319 18.7725 23.005 18.8321 22.9684C18.8994 22.9272 18.957 22.8695 19.0723 22.7542L22.3542 19.4724C22.4695 19.3571 22.5271 19.2995 22.5683 19.2322C22.6049 19.1725 22.6318 19.1075 22.6482 19.0395C22.6666 18.9628 22.6666 18.8812 22.6666 18.7182V14.0818C22.6666 13.9188 22.6666 13.8372 22.6482 13.7605C22.6318 13.6925 22.6049 13.6274 22.5683 13.5678C22.5271 13.5005 22.4695 13.4429 22.3542 13.3276L19.0723 10.0457C18.957 9.93044 18.8994 9.87279 18.8321 9.83156C18.7725 9.79501 18.7074 9.76807 18.6394 9.75174C18.5627 9.73332 18.4812 9.73332 18.3181 9.73332H13.6817C13.5187 9.73332 13.4372 9.73332 13.3604 9.75174C13.2924 9.76807 13.2274 9.79501 13.1677 9.83156C13.1005 9.87279 13.0428 9.93044 12.9275 10.0457L9.64567 13.3276C9.53037 13.4429 9.47272 13.5005 9.43149 13.5678C9.39494 13.6274 9.368 13.6925 9.35167 13.7605C9.33325 13.8372 9.33325 13.9188 9.33325 14.0818Z" stroke="white" stroke-width="1.5" stroke-linecap="round" stroke-linejoin="round"/>
</g>
<defs>
<clipPath id="clip0_13866_8130">
<rect width="16" height="16" fill="white" transform="translate(8 8.39999)"/>
</clipPath>
</defs>
</svg>
