<svg width="64" height="64" viewBox="0 0 64 64" fill="none" xmlns="http://www.w3.org/2000/svg">
<path fill-rule="evenodd" clip-rule="evenodd" d="M20 2H44C53.9411 2 62 10.0589 62 20V39.1269L49.3226 26.7557L49.2971 26.7302C48.6184 26.0515 48.0662 25.4993 47.5814 25.0877C47.0806 24.6626 46.5863 24.3291 46.0049 24.1402C45.0899 23.8429 44.1043 23.8429 43.1894 24.1402C42.6079 24.3291 42.1136 24.6626 41.6128 25.0877C41.1281 25.4993 40.5759 26.0515 39.8972 26.7302L39.8679 26.7595L39.8674 26.76L8.79337 57.7924C8.73792 57.8478 8.69033 57.9081 8.6506 57.9718C4.59254 54.6714 2 49.6385 2 44V20C2 10.0589 10.0589 2 20 2ZM10.2689 59.1454C13.0747 60.9519 16.4149 62 20 62H44C53.9411 62 62 53.9411 62 44V41.9214L47.9214 28.1828L47.9126 28.1743L47.9127 28.1742C47.197 27.4585 46.7022 26.9648 46.2871 26.6124C45.8809 26.2676 45.6172 26.1171 45.3868 26.0423C44.8736 25.8755 44.3207 25.8755 43.8074 26.0423C43.5771 26.1171 43.3134 26.2676 42.9072 26.6124C42.4921 26.9648 41.9973 27.4585 41.2816 28.1742L41.2811 28.1747L10.2689 59.1454ZM64 41.5013V44C64 55.0457 55.0457 64 44 64H20C8.95431 64 0 55.0457 0 44V20C0 8.95431 8.95431 0 20 0H44C55.0457 0 64 8.95431 64 20V41.4988C64 41.4997 64 41.5005 64 41.5013ZM11.8194 18.1111C11.8194 14.736 14.5554 12 17.9305 12C21.3055 12 24.0416 14.736 24.0416 18.1111C24.0416 21.4862 21.3055 24.2222 17.9305 24.2222C14.5554 24.2222 11.8194 21.4862 11.8194 18.1111ZM17.9305 10C13.4508 10 9.81936 13.6315 9.81936 18.1111C9.81936 22.5908 13.4508 26.2222 17.9305 26.2222C22.4101 26.2222 26.0416 22.5908 26.0416 18.1111C26.0416 13.6315 22.4101 10 17.9305 10Z" fill="black"/>
</svg>
