<svg width="24" height="24" viewBox="0 0 24 24" fill="none" xmlns="http://www.w3.org/2000/svg">
<path d="M10.2271 4.39062C10.9752 2.95955 13.0236 2.95975 13.772 4.39062L21.9702 20.0732C22.6445 21.3633 21.7585 22.9004 20.3364 22.9951L20.1978 23H3.80127C2.29922 22.9994 1.33291 21.4046 2.02881 20.0732L10.2271 4.39062ZM3.80127 21H20.1978L11.9995 5.31738L3.80127 21ZM12.0005 17.5C12.6947 17.5001 13.0005 17.7795 13.0005 18.4697C13.0004 19.1304 12.7085 19.4091 12.0005 19.4092C11.2922 19.4092 10.9996 19.1306 10.9995 18.4697C10.9995 17.7794 11.306 17.5 12.0005 17.5ZM12.7866 10C12.9019 10.0003 12.9933 10.0978 12.9858 10.2129L12.6128 15.8135C12.6057 15.9185 12.5179 16 12.4126 16H11.5874C11.4821 16 11.3943 15.9185 11.3872 15.8135L11.0142 10.2129C11.0067 10.0978 11.098 10.0002 11.2134 10H12.7866Z" fill="black"/>
</svg>
