<svg width="24" height="24" viewBox="0 0 24 24" fill="none" xmlns="http://www.w3.org/2000/svg">
<path fill-rule="evenodd" clip-rule="evenodd" d="M9.24054 16.1353C8.12643 15.2478 7.4862 13.9229 7.4862 12.5036C7.4862 9.9446 9.56765 7.86322 12.1268 7.86322C13.546 7.86322 14.8709 8.50334 15.759 9.61749C16.6453 10.7311 16.9671 12.1806 16.6427 13.5897C16.2526 15.2845 14.9079 16.6293 13.2131 17.0195C12.8551 17.1017 12.4935 17.143 12.1335 17.143C11.0793 17.143 10.065 16.7914 9.24054 16.1353ZM12.1335 16.215C12.4233 16.215 12.7153 16.1816 13.0052 16.1151C14.3535 15.8046 15.4279 14.7301 15.7384 13.3815C15.9997 12.2464 15.7422 11.0866 15.0331 10.1956C14.3211 9.30236 13.2631 8.79122 12.1268 8.79122C10.0802 8.79122 8.4142 10.4571 8.4142 12.5036C8.4142 13.6399 8.92535 14.6977 9.81847 15.4092C10.4781 15.9341 11.2884 16.215 12.1335 16.215Z" fill="#1B1818"/>
<path fill-rule="evenodd" clip-rule="evenodd" d="M21.4062 8.79122V17.1432C21.4062 18.4245 20.3675 19.4632 19.0862 19.4632H5.16621C3.88492 19.4632 2.84622 18.4245 2.84622 17.1432V8.79122C2.84622 7.50992 3.88492 6.47123 5.16621 6.47123H7.43586L8.05066 5.48755C8.38982 4.9449 8.98461 4.61523 9.62454 4.61523H14.6278C15.2678 4.61523 15.8626 4.94489 16.2017 5.48755L16.8165 6.47123H19.0862C20.3675 6.47123 21.4062 7.50992 21.4062 8.79122ZM5.16621 7.39922C4.39744 7.39922 3.77422 8.02244 3.77422 8.79122V17.1432C3.77422 17.912 4.39744 18.5352 5.16621 18.5352H19.0862C19.8549 18.5352 20.4782 17.912 20.4782 17.1432V8.79122C20.4782 8.02244 19.8549 7.39922 19.0862 7.39922H16.8165C16.4965 7.39922 16.1992 7.23439 16.0296 6.96306L15.4148 5.97939C15.2452 5.70806 14.9478 5.54323 14.6278 5.54323H9.62454C9.30457 5.54323 9.00718 5.70806 8.8376 5.97939L8.2228 6.96306C8.05322 7.23439 7.75583 7.39922 7.43586 7.39922H5.16621Z" fill="#1B1818"/>
<path d="M9.24054 16.1353L9.05363 16.3699L9.05374 16.37L9.24054 16.1353ZM15.759 9.61749L15.9937 9.43067L15.9936 9.43049L15.759 9.61749ZM16.6427 13.5897L16.3504 13.5224L16.3504 13.5224L16.6427 13.5897ZM13.2131 17.0195L13.2802 17.3119L13.2804 17.3119L13.2131 17.0195ZM13.0052 16.1151L13.0723 16.4075L13.0725 16.4075L13.0052 16.1151ZM15.7384 13.3815L15.446 13.3142L15.446 13.3142L15.7384 13.3815ZM15.0331 10.1956L15.2678 10.0088L15.2677 10.0086L15.0331 10.1956ZM9.81847 15.4092L9.63155 15.6438L9.63167 15.6439L9.81847 15.4092ZM7.43586 6.47123V6.77123H7.60214L7.69026 6.63023L7.43586 6.47123ZM8.05066 5.48755L8.30506 5.64655L8.05066 5.48755ZM16.2017 5.48755L16.4561 5.32855V5.32855L16.2017 5.48755ZM16.8165 6.47123L16.5621 6.63023L16.6502 6.77123H16.8165V6.47123ZM16.0296 6.96306L16.284 6.80407H16.284L16.0296 6.96306ZM15.4148 5.97939L15.1604 6.13839L15.4148 5.97939ZM8.8376 5.97939L8.5832 5.82039L8.5832 5.82039L8.8376 5.97939ZM8.2228 6.96306L8.4772 7.12206V7.12206L8.2228 6.96306ZM7.1862 12.5036C7.1862 14.0147 7.86839 15.4258 9.05363 16.3699L9.42745 15.9006C8.38447 15.0698 7.7862 13.8311 7.7862 12.5036H7.1862ZM12.1268 7.56322C9.40197 7.56322 7.1862 9.77891 7.1862 12.5036H7.7862C7.7862 10.1103 9.73333 8.16322 12.1268 8.16322V7.56322ZM15.9936 9.43049C15.0489 8.2453 13.6378 7.56322 12.1268 7.56322V8.16322C13.4542 8.16322 14.6929 8.76137 15.5244 9.80448L15.9936 9.43049ZM16.9351 13.657C17.2795 12.1606 16.9381 10.6172 15.9937 9.43067L15.5243 9.8043C16.3525 10.845 16.6547 12.2005 16.3504 13.5224L16.9351 13.657ZM13.2804 17.3119C15.0871 16.8959 16.5192 15.4637 16.9351 13.657L16.3504 13.5224C15.986 15.1053 14.7287 16.3627 13.1458 16.7272L13.2804 17.3119ZM12.1335 17.443C12.5165 17.443 12.9006 17.399 13.2802 17.3119L13.146 16.7271C12.8096 16.8043 12.4705 16.843 12.1335 16.843V17.443ZM9.05374 16.37C9.93176 17.0687 11.012 17.443 12.1335 17.443V16.843C11.1466 16.843 10.1983 16.5141 9.42734 15.9005L9.05374 16.37ZM12.9381 15.8227C12.6697 15.8843 12.4002 15.915 12.1335 15.915V16.515C12.4464 16.515 12.7609 16.479 13.0723 16.4075L12.9381 15.8227ZM15.446 13.3142C15.1613 14.5509 14.1743 15.5381 12.9379 15.8228L13.0725 16.4075C14.5327 16.0712 15.6945 14.9093 16.0307 13.4488L15.446 13.3142ZM14.7984 10.3825C15.4492 11.2002 15.6873 12.266 15.446 13.3142L16.0307 13.4488C16.312 12.2268 16.0352 10.973 15.2678 10.0088L14.7984 10.3825ZM12.1268 9.09122C13.1712 9.09122 14.1431 9.56034 14.7985 10.3826L15.2677 10.0086C14.4991 9.04437 13.3549 8.49122 12.1268 8.49122V9.09122ZM8.7142 12.5036C8.7142 10.6228 10.2458 9.09122 12.1268 9.09122V8.49122C9.91449 8.49122 8.1142 10.2914 8.1142 12.5036H8.7142ZM10.0054 15.1745C9.18333 14.5197 8.7142 13.5481 8.7142 12.5036H8.1142C8.1142 13.7318 8.66736 14.8758 9.63155 15.6438L10.0054 15.1745ZM12.1335 15.915C11.3557 15.915 10.6113 15.6567 10.0053 15.1744L9.63167 15.6439C10.3449 16.2115 11.2212 16.515 12.1335 16.515V15.915ZM21.7062 17.1432V8.79122H21.1062V17.1432H21.7062ZM19.0862 19.7632C20.5331 19.7632 21.7062 18.5902 21.7062 17.1432H21.1062C21.1062 18.2588 20.2018 19.1632 19.0862 19.1632V19.7632ZM5.16621 19.7632H19.0862V19.1632H5.16621V19.7632ZM2.54622 17.1432C2.54622 18.5902 3.71923 19.7632 5.16621 19.7632V19.1632C4.0506 19.1632 3.14622 18.2588 3.14622 17.1432H2.54622ZM2.54622 8.79122V17.1432H3.14622V8.79122H2.54622ZM5.16621 6.17123C3.71923 6.17123 2.54622 7.34424 2.54622 8.79122H3.14622C3.14622 7.67561 4.0506 6.77123 5.16621 6.77123V6.17123ZM7.43586 6.17123H5.16621V6.77123H7.43586V6.17123ZM7.79626 5.32855L7.18146 6.31223L7.69026 6.63023L8.30506 5.64655L7.79626 5.32855ZM9.62454 4.31523C8.88117 4.31523 8.19024 4.69818 7.79626 5.32855L8.30506 5.64655C8.5894 5.19161 9.08805 4.91523 9.62454 4.91523V4.31523ZM14.6278 4.31523H9.62454V4.91523H14.6278V4.31523ZM16.4561 5.32855C16.0621 4.69818 15.3712 4.31523 14.6278 4.31523V4.91523C15.1643 4.91523 15.663 5.19161 15.9473 5.64655L16.4561 5.32855ZM17.0709 6.31223L16.4561 5.32855L15.9473 5.64655L16.5621 6.63023L17.0709 6.31223ZM19.0862 6.17123H16.8165V6.77123H19.0862V6.17123ZM21.7062 8.79122C21.7062 7.34424 20.5331 6.17123 19.0862 6.17123V6.77123C20.2018 6.77123 21.1062 7.67561 21.1062 8.79122H21.7062ZM4.07422 8.79122C4.07422 8.18813 4.56312 7.69922 5.16621 7.69922V7.09922C4.23175 7.09922 3.47422 7.85676 3.47422 8.79122H4.07422ZM4.07422 17.1432V8.79122H3.47422V17.1432H4.07422ZM5.16621 18.2352C4.56312 18.2352 4.07422 17.7463 4.07422 17.1432H3.47422C3.47422 18.0777 4.23175 18.8352 5.16621 18.8352V18.2352ZM19.0862 18.2352H5.16621V18.8352H19.0862V18.2352ZM20.1782 17.1432C20.1782 17.7463 19.6893 18.2352 19.0862 18.2352V18.8352C20.0206 18.8352 20.7782 18.0777 20.7782 17.1432H20.1782ZM20.1782 8.79122V17.1432H20.7782V8.79122H20.1782ZM19.0862 7.69922C19.6893 7.69922 20.1782 8.18813 20.1782 8.79122H20.7782C20.7782 7.85676 20.0206 7.09922 19.0862 7.09922V7.69922ZM16.8165 7.69922H19.0862V7.09922H16.8165V7.69922ZM15.7752 7.12206C15.9996 7.48111 16.3931 7.69922 16.8165 7.69922V7.09922C16.6 7.09922 16.3987 6.98768 16.284 6.80407L15.7752 7.12206ZM15.1604 6.13839L15.7752 7.12206L16.284 6.80407L15.6692 5.82039L15.1604 6.13839ZM14.6278 5.84323C14.8444 5.84323 15.0456 5.95478 15.1604 6.13839L15.6692 5.82039C15.4448 5.46135 15.0512 5.24323 14.6278 5.24323V5.84323ZM9.62454 5.84323H14.6278V5.24323H9.62454V5.84323ZM9.092 6.13839C9.20676 5.95478 9.40801 5.84323 9.62454 5.84323V5.24323C9.20114 5.24323 8.8076 5.46135 8.5832 5.82039L9.092 6.13839ZM8.4772 7.12206L9.092 6.13839L8.5832 5.82039L7.9684 6.80407L8.4772 7.12206ZM7.43586 7.69922C7.85926 7.69922 8.2528 7.48111 8.4772 7.12206L7.9684 6.80407C7.85364 6.98768 7.65239 7.09922 7.43586 7.09922V7.69922ZM5.16621 7.69922H7.43586V7.09922H5.16621V7.69922Z" fill="black"/>
</svg>
