<svg width="32" height="32" viewBox="0 0 32 32" fill="none" xmlns="http://www.w3.org/2000/svg">
<circle cx="16" cy="16" r="16" fill="black"/>
<path fill-rule="evenodd" clip-rule="evenodd" d="M10.3534 9.21606H21.673C21.6955 9.21609 21.7179 9.21609 21.7402 9.2161C22.4554 9.21626 23.0938 9.2164 23.7452 9.86806C24.417 10.5401 24.4727 11.2747 24.4732 12.0173V18.5456C24.4724 19.288 24.3852 19.9641 23.7612 20.5881C23.1372 21.2121 22.4154 21.345 21.673 21.3458H20.8133C20.4266 21.3458 20.1132 21.0324 20.1132 20.6457C20.1132 20.2591 20.4266 19.9457 20.8133 19.9457H21.673C22.0442 19.9451 22.4588 19.7785 22.7212 19.5161C22.9837 19.2536 23.0725 18.9168 23.0731 18.5456V14.1161H8.95335V18.5456C8.9539 18.9168 9.05077 19.2856 9.31322 19.5481C9.57567 19.8105 9.98227 19.9451 10.3534 19.9457H11.2137C11.6 19.9457 11.9132 20.2589 11.9132 20.6452C11.9132 21.0316 11.6 21.3447 11.2137 21.3447H10.3534C9.61103 21.3439 8.91323 21.2921 8.27322 20.6521C7.61722 19.9961 7.55404 19.287 7.55322 18.5446V12.0162C7.55404 11.2738 7.61722 10.5401 8.24122 9.91606C8.81722 9.34007 9.61103 9.21688 10.3534 9.21606ZM8.95335 12.0162V12.7161H23.0731V12.0162C23.073 11.9706 23.0737 11.9251 23.0744 11.88C23.0792 11.5582 23.0838 11.2487 22.8172 10.9401C22.5346 10.6129 22.1094 10.6146 21.7528 10.616C21.7258 10.6161 21.6991 10.6162 21.673 10.6161H10.3534C10.3061 10.6162 10.2577 10.6153 10.2088 10.6144C9.87452 10.6079 9.51238 10.601 9.23322 10.9081C8.9461 11.2239 8.94942 11.567 8.95267 11.9026C8.95304 11.9406 8.95341 11.9785 8.95335 12.0162ZM16.4885 16.6604C16.2282 16.4001 15.8061 16.4001 15.5458 16.6604L13.5458 18.6604C13.2855 18.9207 13.2855 19.3428 13.5458 19.6031C13.8061 19.8634 14.2282 19.8634 14.4885 19.6031L15.3506 18.741V22.8278C15.3506 23.1959 15.649 23.4943 16.0171 23.4943C16.3853 23.4943 16.6837 23.1959 16.6837 22.8278V18.741L17.5458 19.6031C17.8061 19.8634 18.2282 19.8634 18.4885 19.6031C18.7488 19.3428 18.7488 18.9207 18.4885 18.6604L16.4885 16.6604Z" fill="white"/>
</svg>
