<svg width="24" height="24" viewBox="0 0 24 24" fill="none" xmlns="http://www.w3.org/2000/svg">
<path fill-rule="evenodd" clip-rule="evenodd" d="M8 15.5C9.933 15.5 11.5 13.933 11.5 12C11.5 10.067 9.933 8.5 8 8.5C6.067 8.5 4.5 10.067 4.5 12C4.5 13.933 6.067 15.5 8 15.5ZM8 17C10.7614 17 13 14.7614 13 12C13 9.23858 10.7614 7 8 7C5.23858 7 3 9.23858 3 12C3 14.7614 5.23858 17 8 17Z" fill="black"/>
<path d="M12 11.3846H20.25C20.6642 11.3846 21 11.7204 21 12.1346C21 12.5489 20.6642 12.8846 20.25 12.8846H12V11.3846Z" fill="black"/>
<path d="M19 12.7693V15.0193C19 15.4335 18.6642 15.7693 18.25 15.7693C17.8358 15.7693 17.5 15.4335 17.5 15.0193V12.7693H19Z" fill="black"/>
</svg>
