<svg width="22" height="20" viewBox="0 0 22 20" fill="none" xmlns="http://www.w3.org/2000/svg">
<path d="M20.2499 10.0001H7.89494M3.53394 10.0001H1.74994M3.53394 10.0001C3.53394 9.42193 3.76362 8.86744 4.17245 8.45861C4.58128 8.04978 5.13577 7.8201 5.71394 7.8201C6.29211 7.8201 6.8466 8.04978 7.25543 8.45861C7.66426 8.86744 7.89394 9.42193 7.89394 10.0001C7.89394 10.5783 7.66426 11.1328 7.25543 11.5416C6.8466 11.9504 6.29211 12.1801 5.71394 12.1801C5.13577 12.1801 4.58128 11.9504 4.17245 11.5416C3.76362 11.1328 3.53394 10.5783 3.53394 10.0001ZM20.2499 16.6071H14.5019M14.5019 16.6071C14.5019 17.1854 14.2717 17.7405 13.8628 18.1495C13.4539 18.5584 12.8992 18.7881 12.3209 18.7881C11.7428 18.7881 11.1883 18.5574 10.7794 18.1486C10.3706 17.7398 10.1409 17.1853 10.1409 16.6071M14.5019 16.6071C14.5019 16.0288 14.2717 15.4747 13.8628 15.0658C13.4539 14.6568 12.8992 14.4271 12.3209 14.4271C11.7428 14.4271 11.1883 14.6568 10.7794 15.0656C10.3706 15.4744 10.1409 16.0289 10.1409 16.6071M10.1409 16.6071H1.74994M20.2499 3.3931H17.1449M12.7839 3.3931H1.74994M12.7839 3.3931C12.7839 2.81493 13.0136 2.26044 13.4224 1.85161C13.8313 1.44278 14.3858 1.2131 14.9639 1.2131C15.2502 1.2131 15.5337 1.26949 15.7982 1.37905C16.0627 1.4886 16.303 1.64918 16.5054 1.85161C16.7079 2.05404 16.8684 2.29436 16.978 2.55885C17.0876 2.82334 17.1439 3.10682 17.1439 3.3931C17.1439 3.67939 17.0876 3.96286 16.978 4.22735C16.8684 4.49184 16.7079 4.73217 16.5054 4.9346C16.303 5.13703 16.0627 5.29761 15.7982 5.40716C15.5337 5.51672 15.2502 5.5731 14.9639 5.5731C14.3858 5.5731 13.8313 5.34343 13.4224 4.9346C13.0136 4.52577 12.7839 3.97128 12.7839 3.3931Z" stroke="black" stroke-width="1.71429" stroke-miterlimit="10" stroke-linecap="round"/>
</svg>
