<svg width="32" height="32" viewBox="0 0 32 32" fill="none" xmlns="http://www.w3.org/2000/svg">
<circle cx="16" cy="16" r="16" fill="black"/>
<path d="M21.7559 10.0127C23.0164 10.1408 24 11.2057 24 12.5V19.5L23.9873 19.7559C23.8677 20.9323 22.9323 21.8677 21.7559 21.9873L21.5 22H10.5L10.2441 21.9873C9.06772 21.8677 8.13227 20.9323 8.0127 19.7559L8 19.5V12.5C8 11.2057 8.98361 10.1408 10.2441 10.0127L10.5 10H21.5L21.7559 10.0127ZM9.5 15.5V19.5C9.5 20.0523 9.94772 20.5 10.5 20.5H21.5C22.0523 20.5 22.5 20.0523 22.5 19.5V15.5H9.5ZM10.5 11.5C9.94772 11.5 9.5 11.9477 9.5 12.5V14H22.5V12.5C22.5 11.9477 22.0523 11.5 21.5 11.5H10.5Z" fill="white"/>
</svg>
