<svg width="140" height="140" viewBox="0 0 140 140" fill="none" xmlns="http://www.w3.org/2000/svg">
<g clip-path="url(#clip0_19466_13362)">
<rect width="140" height="140" fill="url(#paint0_linear_19466_13362)"/>
<path d="M115.042 118.591C113.825 114.267 111.521 110.327 108.349 107.145C105.178 103.963 101.245 101.646 96.925 100.414L80.7148 95.7898H60.2852L44.075 100.414C39.7549 101.646 35.8219 103.963 32.6506 107.145C29.4793 110.327 27.1753 114.267 25.9578 118.591L15.5 141.053C28.6903 153.675 52.243 145.721 70.5 145.721C88.757 145.721 112.31 153.675 125.5 141.053L115.042 118.591Z" fill="#6994AF"/>
<path d="M80.0474 82.8335H60.9767L57.9373 98.5192C57.9373 98.5192 63.3248 104.169 70.5001 104.479C77.6517 104.181 83.0511 98.5192 83.0511 98.5192L80.0474 82.8335Z" fill="#C3DCEC"/>
<path d="M91.8234 60.6637C91.8234 73.5722 82.288 90.867 70.4641 90.867C58.6403 90.867 49.1406 73.5722 49.1406 60.6637C49.1406 47.7551 58.676 37.29 70.4999 37.29C82.3238 37.29 91.8234 47.7551 91.8234 60.6637Z" fill="#DAE9F3"/>
<path d="M94.8629 62.2372C94.9463 64.764 93.6709 68.1968 92.0142 68.1968C90.3574 68.1968 88.8437 64.9548 88.7602 62.4517C88.6768 59.9487 89.9521 57.839 91.6566 57.7794C93.361 57.7198 94.7794 59.7222 94.8629 62.2372Z" fill="white"/>
<path d="M74.7076 52.5112C79.6303 54.6567 81.7757 56.6353 87.1275 56.9452C91.3826 66.5759 88.7246 78.1257 81.4539 85.7421C86.8891 88.2808 94.5651 87.1604 98.2243 82.4404C106.258 72.2137 100.608 54.4064 94.4578 44.6088C89.2968 36.3487 80.9533 29.9004 71.3702 28.2794C69.0078 27.7034 66.5198 27.9472 64.314 28.9707C61.6799 30.3891 60.3449 33.5596 60.2377 36.5513C59.9516 44.4896 67.4607 49.3407 74.7076 52.5112Z" fill="#6994AF"/>
<path d="M66.9958 42.9164C66.9958 42.9164 58.6523 46.2895 54.2541 51.6889C45.7437 62.2256 51.8702 76.9697 56.924 82.7743C56.924 82.7743 44.385 92.858 38.1989 78.0066C28.9734 55.8964 50.2492 29.3642 65.1125 35.3834C83.2774 42.7376 66.9958 42.9164 66.9958 42.9164Z" fill="#6994AF"/>
</g>
<defs>
<linearGradient id="paint0_linear_19466_13362" x1="70" y1="1.78814e-06" x2="100" y2="122.5" gradientUnits="userSpaceOnUse">
<stop stop-color="white"/>
<stop offset="1" stop-color="white" stop-opacity="0.7"/>
</linearGradient>
<clipPath id="clip0_19466_13362">
<rect width="140" height="140" fill="white"/>
</clipPath>
</defs>
</svg>
