<svg width="30" height="20" viewBox="0 0 30 20" fill="none" xmlns="http://www.w3.org/2000/svg">
<path d="M18.9583 3.48425H11.0444V16.513H18.9583V3.48425Z" fill="#FF5F00"/>
<path d="M11.8596 10.0002C11.8586 8.74563 12.1407 7.50728 12.6847 6.37887C13.2286 5.25045 14.02 4.26153 14.9991 3.48695C13.7865 2.52635 12.3302 1.92902 10.7967 1.76321C9.26322 1.5974 7.71438 1.86981 6.32722 2.5493C4.94006 3.22879 3.77054 4.28795 2.95232 5.60573C2.1341 6.92351 1.7002 8.44674 1.7002 10.0013C1.7002 11.5559 2.1341 13.0792 2.95232 14.3969C3.77054 15.7147 4.94006 16.7739 6.32722 17.4534C7.71438 18.1329 9.26322 18.4053 10.7967 18.2395C12.3302 18.0736 13.7865 17.4763 14.9991 16.5157C14.0197 15.7409 13.2281 14.7516 12.6842 13.6228C12.1402 12.4939 11.8582 11.2551 11.8596 10.0002Z" fill="#EB001B"/>
<path d="M27.5135 15.1346V14.8676H27.6277V14.8124H27.356V14.8676H27.4633V15.1346H27.5135ZM28.0409 15.1346V14.8124H27.9587L27.8628 15.0425L27.7669 14.8124H27.6847V15.1346H27.7441V14.8906L27.8332 15.1001H27.8948L27.9839 14.8906V15.1346H28.0409Z" fill="#F79E1B"/>
<path d="M28.2991 9.9999C28.2991 11.5546 27.8651 13.0779 27.0467 14.3958C26.2284 15.7136 25.0586 16.7727 23.6713 17.4521C22.284 18.1315 20.735 18.4037 19.2014 18.2377C17.6678 18.0717 16.2116 17.474 14.999 16.5131C15.9777 15.7379 16.7689 14.7487 17.313 13.6202C17.857 12.4917 18.1397 11.2534 18.1397 9.99875C18.1397 8.74407 17.857 7.50579 17.313 6.37731C16.7689 5.24883 15.9777 4.25964 14.999 3.48437C16.2116 2.52347 17.6678 1.92584 19.2014 1.7598C20.735 1.59375 22.284 1.86598 23.6713 2.54538C25.0586 3.22478 26.2284 4.28392 27.0467 5.60174C27.8651 6.91957 28.2991 8.44289 28.2991 9.9976V9.9999Z" fill="#F79E1B"/>
</svg>
