<svg width="24" height="24" viewBox="0 0 24 24" fill="none" xmlns="http://www.w3.org/2000/svg">
<path d="M12 2C17.5228 2 22 6.47715 22 12C22 17.5228 17.5228 22 12 22C6.47715 22 2 17.5228 2 12C2 6.47715 6.47715 2 12 2ZM12 4C7.58172 4 4 7.58172 4 12C4 16.4183 7.58172 20 12 20C16.4183 20 20 16.4183 20 12C20 7.58172 16.4183 4 12 4ZM13.6914 10.0576L12.166 15.4404L14.0596 14.1523L14.1846 14.0674L14.2686 14.1924L14.9326 15.1807L15.0166 15.3047L14.8926 15.3887L12.7148 16.8701L12.7109 16.873C12.395 17.075 12.1012 17.1504 11.8066 17.1504C10.856 17.1504 10.2676 16.3332 10.5059 15.4648L10.5068 15.4639L11.6602 11.3965L10.001 11.4092L9.80176 11.4102L9.85547 11.2188L10.2012 9.97656L10.2314 9.86719H13.7451L13.6914 10.0576ZM10.6055 15.9307C10.6084 15.976 10.6141 16.0206 10.6221 16.0645C10.6141 16.0203 10.6084 15.9754 10.6055 15.9297V15.9307ZM13.0156 6.84961C13.3613 6.84965 13.6466 6.91555 13.8438 7.09473C14.044 7.27698 14.122 7.5472 14.1221 7.88086C14.1221 8.2015 14.0473 8.4664 13.8477 8.64551C13.6521 8.82089 13.3673 8.8857 13.0156 8.88574C12.6638 8.88574 12.3783 8.82101 12.1826 8.64551C11.983 8.4664 11.9092 8.20145 11.9092 7.88086C11.9092 7.54701 11.987 7.27698 12.1875 7.09473C12.3847 6.9155 12.6698 6.84961 13.0156 6.84961ZM13.4502 8.68652C13.42 8.69475 13.3885 8.70189 13.3555 8.70801L13.4512 8.68652C13.4813 8.67829 13.5098 8.66859 13.5371 8.6582L13.4502 8.68652ZM12.0625 7.76758C12.0602 7.80391 12.0586 7.84164 12.0586 7.88086C12.0586 7.80254 12.063 7.72999 12.0723 7.66309L12.0625 7.76758Z" fill="black"/>
</svg>
