<svg width="32" height="32" viewBox="0 0 32 32" fill="none" xmlns="http://www.w3.org/2000/svg">
<g clip-path="url(#clip0_32158_788)">
<path fill-rule="evenodd" clip-rule="evenodd" d="M16 32C7.04054 32 4.62882 31.5462 2.54134 29.4587C0.440812 27.3582 0 24.9595 0 16C0 7.04054 0.453809 4.64182 2.54134 2.54134C4.62882 0.453809 7.04054 0 16 0C24.9595 0 27.3712 0.453809 29.4587 2.54134C31.5591 4.64182 32 7.04054 32 16C32 24.9595 31.5591 27.3582 29.4587 29.4587C27.3712 31.5462 24.9595 32 16 32Z" fill="#005495"/>
<path fill-rule="evenodd" clip-rule="evenodd" d="M16 32C7.04054 32 4.62882 31.5462 2.54134 29.4587C0.440812 27.3582 0 24.9595 0 16C0 7.04054 0.453809 4.64182 2.54134 2.54134C4.62882 0.453809 7.04054 0 16 0C24.9595 0 27.3712 0.453809 29.4587 2.54134C31.5591 4.64182 32 7.04054 32 16C32 24.9595 31.5591 27.3582 29.4587 29.4587C27.3712 31.5462 24.9595 32 16 32Z" fill="#005495"/>
<path fill-rule="evenodd" clip-rule="evenodd" d="M16 32C7.04054 32 4.62882 31.5462 2.54134 29.4587C0.440812 27.3582 0 24.9595 0 16C0 7.04054 0.453809 4.64182 2.54134 2.54134C4.62882 0.453809 7.04054 0 16 0C24.9595 0 27.3712 0.453809 29.4587 2.54134C31.5591 4.64182 32 7.04054 32 16C32 24.9595 31.5591 27.3582 29.4587 29.4587C27.3712 31.5462 24.9595 32 16 32Z" fill="#005495"/>
<path d="M17.7198 19.67C17.6458 19.633 17.4239 19.4851 17.4239 19.0043C17.4239 18.5974 17.8677 18.1536 18.3855 17.6359C19.1252 16.8962 19.9388 16.0825 19.9388 14.936C19.9272 14.2149 19.7895 13.5015 19.532 12.8279L26.2262 16.0455L17.7198 19.67ZM17.8307 10.6088L17.5349 10.4609L17.7198 10.7198C17.7198 10.7198 18.7923 12.3471 18.7923 13.7895C18.7923 15.1209 18.0526 15.8606 17.3499 16.5263C16.6842 17.192 15.9815 17.8947 15.9815 19.0782C15.9869 19.8788 16.2751 20.6517 16.7952 21.2603L16.8321 21.2973L16.8691 21.2603L28.8151 16.1565L29 16.0825L28.8521 16.0085L17.8307 10.6088ZM9.95306 16.7852C9.95306 15.7497 11.7283 14.899 12.394 14.6031C11.9696 15.2389 11.7384 15.9839 11.7283 16.7482C11.7673 17.5248 12.0378 18.2718 12.505 18.8933C11.8023 18.7084 9.95306 17.9687 9.95306 16.7852ZM16.4623 15.8976C17.091 15.01 17.7568 14.0854 17.7568 13.2717C17.7568 11.9772 16.4623 10.5349 16.4253 10.4609L16.3883 10.4239L16.3514 10.4609L3.18492 16.0085L3 16.0825L3.18492 16.1565L14.9459 20.8905L15.0199 20.7425C14.9829 20.7056 13.0228 18.7454 13.0228 17.1551C13.0228 15.8606 13.7255 15.2319 14.4282 14.6401C14.9179 14.2609 15.3213 13.7818 15.6117 13.2347C15.7502 12.8561 15.813 12.454 15.7966 12.0512C15.9666 12.2125 16.1005 12.408 16.1898 12.6247C16.279 12.8413 16.3215 13.0744 16.3144 13.3087C16.3144 13.8634 15.8336 14.5662 15.3158 15.3058C14.724 16.1565 14.0953 17.0071 14.0953 17.8208C14.0953 19.3371 15.9445 21.3713 16.0185 21.4452L16.1664 21.3343C16.1664 21.2973 15.2788 19.559 15.2788 18.1906C15.3158 17.5619 15.8706 16.7482 16.4623 15.8976Z" fill="#75B52A"/>
</g>
<defs>
<clipPath id="clip0_32158_788">
<rect width="32" height="32" fill="white"/>
</clipPath>
</defs>
</svg>
