<svg width="32" height="32" viewBox="0 0 32 32" fill="none" xmlns="http://www.w3.org/2000/svg">
<path fill-rule="evenodd" clip-rule="evenodd" d="M16 32C7.04054 32 4.62883 31.5462 2.54134 29.4587C0.440812 27.3582 0 24.9595 0 16C0 7.04054 0.453809 4.64182 2.54134 2.54134C4.62883 0.453809 7.04054 0 16 0C24.9595 0 27.3712 0.453809 29.4587 2.54134C31.5591 4.64182 32 7.04054 32 16C32 24.9595 31.5591 27.3582 29.4587 29.4587C27.3712 31.5462 24.9595 32 16 32Z" fill="#FFE001"/>
<path fill-rule="evenodd" clip-rule="evenodd" d="M15.9775 18.7659L23.1977 26L26.028 23.1567L18.8078 15.9032L20.2133 14.4912V11.6673L21.2145 10.6614V13.0019L22.1965 13.969L25.72 10.4293L26.6634 11.3771C26.6634 10.7775 26.4901 8.66917 24.815 7.02507C22.9281 5.18753 21.0605 6.25137 20.4059 6.90901L16.9979 10.352L17.8451 11.203L15.9775 13.0792L14.1099 11.203L14.957 10.352L11.5491 6.92835C10.8945 6.27071 9.02683 5.20688 7.13994 7.04441C5.46486 8.68852 5.33008 10.7775 5.33008 11.3965L6.23501 10.4487L9.75847 13.9883L10.7404 13.0019V10.6808L11.7416 11.6866V14.5106L13.1472 15.9226L5.98471 23.0986L8.81503 25.9226L15.9775 18.7659Z" fill="black"/>
</svg>
