<svg width="20" height="20" viewBox="0 0 20 20" fill="none" xmlns="http://www.w3.org/2000/svg">
<path fill-rule="evenodd" clip-rule="evenodd" d="M19.0002 6.75024V9.89285C19.0002 10.3069 18.665 10.6429 18.2502 10.6429C17.8355 10.6429 17.5002 10.3069 17.5002 9.89285V6.75024C17.5002 5.50974 16.4907 4.50024 15.2502 4.50024H4.75024C3.50974 4.50024 2.50024 5.50974 2.50024 6.75024V12.2702C2.50024 13.5107 3.50974 14.5202 4.75024 14.5202H10.7542C11.1689 14.5202 11.5042 14.8562 11.5042 15.2702C11.5042 15.6842 11.1689 16.0202 10.7542 16.0202H4.75024C2.68249 16.0202 1.00024 14.3379 1.00024 12.2702V6.75024C1.00024 4.68249 2.68249 3.00024 4.75024 3.00024H15.2502C17.318 3.00024 19.0002 4.68249 19.0002 6.75024ZM16.219 11.6174C16.1286 11.6173 16.0391 11.635 15.9556 11.6695C15.8721 11.7041 15.7963 11.7547 15.7323 11.8185C15.6684 11.8824 15.6177 11.9582 15.5832 12.0417C15.5486 12.1252 15.5308 12.2146 15.5308 12.305C15.5308 12.3953 15.5485 12.4847 15.5831 12.5681C15.6176 12.6515 15.6683 12.7273 15.7321 12.7912C15.796 12.855 15.8718 12.9056 15.9552 12.9401C16.0387 12.9747 16.1281 12.9924 16.2184 12.9924C16.5829 12.9928 16.9325 13.1378 17.1903 13.3956C17.4481 13.6534 17.5931 14.0029 17.5935 14.3675C17.5931 14.732 17.4481 15.0814 17.1905 15.3392C16.9328 15.5969 16.5834 15.742 16.219 15.7426H14.9702L15.254 15.4578C15.3179 15.3941 15.3686 15.3183 15.4032 15.2349C15.4378 15.1515 15.4556 15.0621 15.4556 14.9718C15.4556 14.8815 15.4378 14.7921 15.4032 14.7087C15.3686 14.6253 15.3179 14.5495 15.254 14.4857C15.1902 14.4219 15.1144 14.3712 15.031 14.3367C14.9476 14.3021 14.8582 14.2843 14.7679 14.2843C14.6776 14.2843 14.5882 14.3021 14.5048 14.3367C14.4214 14.3712 14.3457 14.4219 14.2818 14.4857L13.0665 15.7009C12.8734 15.8944 12.7649 16.1566 12.7649 16.4301C12.7649 16.7035 12.8734 16.9657 13.0665 17.1592L14.2818 18.3748C14.4108 18.5037 14.5856 18.5761 14.7679 18.5761C14.9502 18.5761 15.1251 18.5037 15.254 18.3748C15.3829 18.2459 15.4553 18.071 15.4553 17.8887C15.4553 17.7064 15.3829 17.5316 15.254 17.4027L14.969 17.1177H16.2182C17.7349 17.1177 18.9684 15.884 18.9684 14.3675C18.9684 12.851 17.7357 11.6174 16.219 11.6174ZM11.2996 8.46841C11.5106 8.28499 11.6757 7.95941 11.6757 7.65676C11.6757 6.73963 10.8411 6.13892 9.58004 6.13892C8.75004 6.13892 8.0622 6.45074 7.73203 6.95974C7.62198 7.07897 7.56695 7.20737 7.56695 7.34035C7.56695 7.6109 7.78248 7.81267 8.07137 7.81267C8.24562 7.81267 8.41529 7.72095 8.55286 7.5788C8.80048 7.26698 9.1444 7.07897 9.55252 7.07897C10.0982 7.07897 10.4742 7.37245 10.4742 7.79891C10.4742 8.12449 10.3046 8.33084 9.9744 8.46841H7.3927C7.22303 8.46841 7.09005 8.59681 7.09005 8.77106C7.09005 8.94532 7.22303 9.07371 7.3927 9.07371H11.9095C12.0746 9.07371 12.1984 8.95907 12.1984 8.79858C12.1984 8.63349 12.0746 8.51885 11.9095 8.51885H11.2996V8.46841ZM7.37436 9.63316C7.21386 9.63316 7.09005 9.7478 7.09005 9.9083C7.09005 10.0642 7.21386 10.1788 7.37436 10.1788H7.89712V10.2339C7.63574 10.4127 7.44773 10.7566 7.44773 11.1006C7.44773 11.9993 8.31899 12.6001 9.67634 12.6001C10.543 12.6001 11.3042 12.2653 11.6527 11.7471C11.7628 11.6325 11.8087 11.5087 11.8087 11.3803C11.8087 11.0868 11.5748 10.8575 11.2859 10.8575C11.0979 10.8575 10.9282 10.9446 10.7723 11.1097C10.5109 11.4674 10.1899 11.66 9.68092 11.66C9.07562 11.66 8.65374 11.3528 8.65374 10.9125C8.65374 10.5916 8.89678 10.3256 9.26363 10.2339H11.9004C12.07 10.2339 12.1984 10.1055 12.1984 9.93581C12.1984 9.76156 12.07 9.63316 11.9004 9.63316H7.37436Z" fill="black"/>
</svg>
