<svg width="24" height="24" viewBox="0 0 24 24" fill="none" xmlns="http://www.w3.org/2000/svg">
<g clip-path="url(#clip0_2741_1892)">
<path d="M18 20H6V4H18H20V3.5C20 2.67157 19.3284 2 18.5 2H6C4.9 2 4 3.125 4 4.5V19.5C4 20.875 4.9 22 6 22H18C19.1 22 20 20.875 20 19.5V4H18V20Z" fill="black"/>
<path d="M11.25 9.5H7.75C7.33579 9.5 7 9.83579 7 10.25C7 10.6642 7.33579 11 7.75 11H11.25C11.6642 11 12 10.6642 12 10.25C12 9.83579 11.6642 9.5 11.25 9.5Z" fill="black"/>
<path d="M11.25 6H7.75C7.33579 6 7 6.33579 7 6.75C7 7.16421 7.33579 7.5 7.75 7.5H11.25C11.6642 7.5 12 7.16421 12 6.75C12 6.33579 11.6642 6 11.25 6Z" fill="black"/>
<path d="M8.5 10.25L8.5 6.75C8.5 6.33579 8.16421 6 7.75 6C7.33579 6 7 6.33579 7 6.75L7 10.25C7 10.6642 7.33579 11 7.75 11C8.16421 11 8.5 10.6642 8.5 10.25Z" fill="black"/>
<path d="M12 10.25L12 6.75C12 6.33579 11.6642 6 11.25 6C10.8358 6 10.5 6.33579 10.5 6.75L10.5 10.25C10.5 10.6642 10.8358 11 11.25 11C11.6642 11 12 10.6642 12 10.25Z" fill="black"/>
<path d="M7.80768 12.3848C7.36161 12.3848 7 12.7464 7 13.1924C7 13.6385 7.36161 14.0001 7.80768 14.0001H16.1923C16.6384 14.0001 17 13.6385 17 13.1924C17 12.7464 16.6384 12.3848 16.1923 12.3848H13.25H7.80768Z" fill="black"/>
<path d="M12.1923 15.3848H7.80768C7.36161 15.3848 7 15.7464 7 16.1924C7 16.6385 7.36161 17.0001 7.80768 17.0001H12.1923C12.6384 17.0001 13 16.6385 13 16.1924C13 15.7464 12.6384 15.3848 12.1923 15.3848Z" fill="black"/>
</g>
<defs>
<clipPath id="clip0_2741_1892">
<rect width="24" height="24" fill="white"/>
</clipPath>
</defs>
</svg>
