<svg width="16" height="16" viewBox="0 0 16 16" fill="none" xmlns="http://www.w3.org/2000/svg">
<path d="M10.667 2.66699C11.1067 2.66713 11.4798 2.94684 11.6133 3.33984L12.2021 5.03711H10.7871L10.4268 4H3.56641L2.84668 6.07324H6.99707L7 7.33398H2.33301V10.667H6.33301V12H3V12.667C3 13.0337 2.69967 13.334 2.33301 13.334H1.66699C1.30033 13.334 1 13.0337 1 12.667V7.33398L2.38672 3.33984C2.5268 2.94684 2.89332 2.66713 3.33301 2.66699H10.667ZM11 5.33008C13.2091 5.33008 15 7.12094 15 9.33008C15 11.5392 13.2091 13.3301 11 13.3301C8.79086 13.3301 7 11.5392 7 9.33008C7 7.12094 8.79086 5.33008 11 5.33008ZM11 6.58008C9.48122 6.58008 8.25 7.8113 8.25 9.33008C8.25 10.8489 9.48122 12.0801 11 12.0801C12.5188 12.0801 13.75 10.8489 13.75 9.33008C13.75 7.8113 12.5188 6.58008 11 6.58008ZM10.9678 7.2002C11.265 7.20022 11.5239 7.25042 11.7441 7.35059C11.9656 7.44947 12.1378 7.58683 12.2607 7.7627C12.3837 7.93867 12.4453 8.1408 12.4453 8.36816C12.4453 8.51698 12.4136 8.66363 12.3516 8.80859C12.2908 8.95374 12.1821 9.1157 12.0254 9.29297C11.8687 9.46885 11.6482 9.68033 11.3633 9.92676L10.7568 10.4912V10.5186H12.5V11.2002H9.54102V10.5986L11.0186 9.29883C11.1441 9.18332 11.2489 9.07875 11.334 8.98633C11.4204 8.89387 11.4867 8.80345 11.5312 8.71484C11.5758 8.62496 11.5976 8.52783 11.5977 8.42383C11.5977 8.30822 11.5701 8.20849 11.5146 8.125C11.4593 8.04037 11.3838 7.97559 11.2881 7.93066C11.1923 7.88448 11.0834 7.86138 10.9619 7.86133C10.8349 7.86133 10.7235 7.88576 10.6289 7.93457C10.5344 7.98338 10.4615 8.0534 10.4102 8.14453C10.3589 8.23565 10.333 8.34401 10.333 8.46973H9.5C9.50003 8.21172 9.56172 7.98786 9.68457 7.79785C9.8075 7.6078 9.97965 7.46049 10.2012 7.35645C10.4228 7.2524 10.6786 7.2002 10.9678 7.2002ZM5 8C5.55228 8 6 8.44772 6 9C6 9.55228 5.55228 10 5 10C4.44772 10 4 9.55228 4 9C4 8.44772 4.44772 8 5 8Z" fill="black"/>
</svg>
