<svg width="24" height="24" viewBox="0 0 24 24" fill="none" xmlns="http://www.w3.org/2000/svg">
<path fill-rule="evenodd" clip-rule="evenodd" d="M7.96609 2H13.7839C14.5154 1.99999 15.1055 1.99999 15.5833 2.03855C16.0753 2.07825 16.5074 2.16212 16.9072 2.36331C17.5422 2.68289 18.0585 3.19282 18.3821 3.82003C18.5858 4.21489 18.6707 4.64168 18.7109 5.12758C18.75 5.5995 18.75 6.18226 18.7499 6.90478V10.6667C18.7499 11.0349 18.4477 11.3333 18.075 11.3333C17.7022 11.3333 17.4 11.0349 17.4 10.6667V6.93333C17.4 6.1756 17.3994 5.64739 17.3654 5.23616C17.332 4.83272 17.2698 4.60092 17.1792 4.42535C16.9851 4.04903 16.6753 3.74307 16.2943 3.55132C16.1165 3.46186 15.8818 3.40041 15.4733 3.36745C15.057 3.33385 14.5222 3.33333 13.755 3.33333H7.99498C7.22778 3.33333 6.69297 3.33385 6.2766 3.36745C5.86811 3.40041 5.63343 3.46186 5.45566 3.55132C5.07463 3.74307 4.76485 4.04903 4.57071 4.42535C4.48013 4.60092 4.41791 4.83272 4.38454 5.23616C4.35052 5.64739 4.35 6.1756 4.35 6.93333V16.1778C4.35 16.9355 4.35052 17.4637 4.38454 17.875C4.41791 18.2784 4.48013 18.5102 4.57071 18.6858C4.76485 19.0621 5.07463 19.368 5.45566 19.5598C5.63343 19.6492 5.86811 19.7107 6.2766 19.7437C6.69297 19.7773 7.22778 19.7778 7.99498 19.7778H9.07498C9.44777 19.7778 9.74998 20.0763 9.74998 20.4444C9.74998 20.8126 9.44777 21.1111 9.07498 21.1111H7.96607C7.23453 21.1111 6.64448 21.1111 6.16667 21.0726C5.6747 21.0329 5.24257 20.949 4.84278 20.7478C4.20773 20.4282 3.69142 19.9183 3.36785 19.2911C3.16415 18.8962 3.07922 18.4694 3.03903 17.9835C2.99999 17.5116 2.99999 16.9288 3 16.2063V6.9048C2.99999 6.18227 2.99999 5.5995 3.03903 5.12758C3.07922 4.64168 3.16415 4.21489 3.36785 3.82003C3.69142 3.19283 4.20773 2.68289 4.84278 2.36331C5.24257 2.16212 5.6747 2.07825 6.16667 2.03855C6.64449 1.99999 7.23454 1.99999 7.96609 2ZM6.59999 7.11111C6.59999 6.74292 6.9022 6.44445 7.27499 6.44445H14.475C14.8478 6.44445 15.15 6.74292 15.15 7.11111C15.15 7.4793 14.8478 7.77778 14.475 7.77778H7.27499C6.9022 7.77778 6.59999 7.4793 6.59999 7.11111ZM6.59999 10.6667C6.59999 10.2985 6.9022 10 7.27499 10H11.325C11.6978 10 12 10.2985 12 10.6667C12 11.0349 11.6978 11.3333 11.325 11.3333H7.27499C6.9022 11.3333 6.59999 11.0349 6.59999 10.6667Z" fill="black"/>
<path fill-rule="evenodd" clip-rule="evenodd" d="M10.772 16.8268C10.5582 16.5251 10.6325 16.1094 10.9379 15.8983L15.4379 12.7872C15.6703 12.6265 15.9796 12.6265 16.212 12.7872L20.712 15.8983C21.0174 16.1094 21.0917 16.5251 20.8779 16.8268C20.6641 17.1284 20.2433 17.2017 19.9379 16.9906L15.825 14.1471L11.7121 16.9906C11.4067 17.2017 10.9858 17.1284 10.772 16.8268Z" fill="black"/>
<path fill-rule="evenodd" clip-rule="evenodd" d="M12.675 15.3333C13.0478 15.3333 13.35 15.6318 13.35 16V20.6667H18.2999V16C18.2999 15.6318 18.6022 15.3333 18.9749 15.3333C19.3477 15.3333 19.6499 15.6318 19.6499 16V20.8C19.6499 21.4627 19.106 22 18.4349 22H13.215C12.5439 22 12 21.4627 12 20.8V16C12 15.6318 12.3022 15.3333 12.675 15.3333Z" fill="black"/>
</svg>
