<svg width="24" height="25" viewBox="0 0 24 25" fill="none" xmlns="http://www.w3.org/2000/svg">
<g clip-path="url(#clip0_1340_5189)">
<path d="M13 7.61536H11V11.6154H7V13.6154H11V17.6154H13V13.6154H17V11.6154H13V7.61536ZM12 2.61536C6.48 2.61536 2 7.09536 2 12.6154C2 18.1354 6.48 22.6154 12 22.6154C17.52 22.6154 22 18.1354 22 12.6154C22 7.09536 17.52 2.61536 12 2.61536ZM12 20.6154C7.59 20.6154 4 17.0254 4 12.6154C4 8.20536 7.59 4.61536 12 4.61536C16.41 4.61536 20 8.20536 20 12.6154C20 17.0254 16.41 20.6154 12 20.6154Z" fill="black"/>
</g>
<defs>
<clipPath id="clip0_1340_5189">
<rect width="24" height="24" fill="white" transform="translate(0 0.615356)"/>
</clipPath>
</defs>
</svg>
