<svg width="45" height="25" viewBox="0 0 45 25" fill="none" xmlns="http://www.w3.org/2000/svg">
<rect y="0.800049" width="24" height="24" rx="12" fill="#FFD600"/>
<path d="M16.3252 11.2893C16.2633 11.1912 16.1559 11.1325 16.039 11.1325H12.3366V6.13138C12.3352 5.94731 12.1838 5.79869 11.998 5.80006C11.8728 5.80142 11.7572 5.87096 11.7007 5.9814L7.66116 13.9835C7.5772 14.1485 7.64464 14.3489 7.8098 14.4307C7.8566 14.4539 7.90752 14.4662 7.95982 14.4662H11.6622V19.4674C11.6622 19.6214 11.7695 19.7551 11.9209 19.7905C11.9457 19.7973 11.9719 19.8 11.998 19.8C12.1246 19.8 12.2402 19.7291 12.2981 19.616L16.3376 11.6138C16.3913 11.5129 16.3872 11.3889 16.3252 11.2893Z" fill="black"/>
<path d="M23.4114 20.0164C24.7341 17.9291 25.4999 15.454 25.4999 12.8C25.4999 10.1461 24.7341 7.67099 23.4114 5.58369C25.6014 2.67833 29.0813 0.800049 32.9999 0.800049C39.6273 0.800049 44.9999 6.17264 44.9999 12.8C44.9999 19.4275 39.6273 24.8 32.9999 24.8C29.0813 24.8 25.6014 22.9218 23.4114 20.0164Z" fill="#2664F1"/>
<g clip-path="url(#clip0_10705_4406)">
<path fill-rule="evenodd" clip-rule="evenodd" d="M33.8391 19.5292C34.4061 19.1816 35.4811 18.4558 36.424 17.4235C37.3598 16.399 38.2501 14.9784 38.2501 13.2578V10.5094L38.2502 10.4177C38.2511 10.054 38.2521 9.67227 38.1263 9.32483C38.0166 9.02206 37.837 8.7476 37.599 8.52724C37.3226 8.27126 36.9656 8.13183 36.6433 8.00596L36.5603 7.97346L33.6281 6.81797L33.6046 6.80863C33.521 6.77517 33.3719 6.71551 33.2096 6.69087C33.0707 6.66977 32.9294 6.66977 32.7905 6.69087C32.6283 6.71551 32.4791 6.77517 32.3955 6.80863L32.372 6.81797L29.4398 7.97346L29.3568 8.00596C29.0346 8.13183 28.6775 8.27126 28.4011 8.52724C28.1632 8.7476 27.9835 9.02206 27.8739 9.32483C27.748 9.67227 27.749 10.054 27.7499 10.4177L27.7501 10.5094V13.2578C27.7501 14.9784 28.6403 16.399 29.5762 17.4235C30.5191 18.4558 31.594 19.1816 32.161 19.5292L32.1847 19.5439C32.283 19.6049 32.4601 19.7149 32.693 19.7674C32.886 19.8109 33.1141 19.8109 33.3071 19.7674C33.5401 19.7149 33.7171 19.6049 33.8154 19.5439L33.8391 19.5292Z" fill="white"/>
</g>
<defs>
<clipPath id="clip0_10705_4406">
<rect width="14" height="14" fill="white" transform="translate(26 5.80005)"/>
</clipPath>
</defs>
</svg>
