<svg width="24" height="25" viewBox="0 0 24 25" fill="none" xmlns="http://www.w3.org/2000/svg">
<path d="M5.23077 1.61536C4.55103 1.61536 4 2.16256 4 2.83758V22.3931C4 23.0681 4.55103 23.6154 5.23077 23.6154H7.69231C8.37204 23.6154 8.92308 23.0681 8.92308 22.3931V2.83758C8.92308 2.16256 8.37204 1.61536 7.69231 1.61536H5.23077Z" fill="white"/>
<path d="M16.3077 1.61536C15.628 1.61536 15.0769 2.16256 15.0769 2.83758V22.3931C15.0769 23.0681 15.628 23.6154 16.3077 23.6154H18.7692C19.449 23.6154 20 23.0681 20 22.3931V2.83758C20 2.16256 19.449 1.61536 18.7692 1.61536H16.3077Z" fill="white"/>
</svg>
