<svg width="66" height="24" viewBox="0 0 66 24" fill="none" xmlns="http://www.w3.org/2000/svg">
<rect width="24" height="24" rx="12" fill="#FFD600"/>
<path d="M16.3252 10.4893C16.2633 10.3911 16.1559 10.3325 16.039 10.3325H12.3366V5.33133C12.3352 5.14726 12.1838 4.99865 11.998 5.00001C11.8728 5.00137 11.7572 5.07091 11.7007 5.18135L7.66116 13.1835C7.5772 13.3485 7.64464 13.5489 7.8098 13.6307C7.8566 13.6539 7.90752 13.6662 7.95982 13.6662H11.6622V18.6673C11.6622 18.8214 11.7695 18.955 11.9209 18.9905C11.9457 18.9973 11.9719 19 11.998 19C12.1246 19 12.2402 18.9291 12.2981 18.8159L16.3376 10.8138C16.3913 10.7129 16.3872 10.5888 16.3252 10.4893Z" fill="black"/>
<path d="M23.4111 19.2164C24.7339 17.1291 25.4997 14.654 25.4997 12C25.4997 9.34604 24.7339 6.87094 23.4111 4.78365C25.6012 1.87828 29.0811 0 32.9997 0C39.6271 0 44.9997 5.37259 44.9997 12C44.9997 18.6274 39.6271 24 32.9997 24C29.0811 24 25.6012 22.1217 23.4111 19.2164Z" fill="#2664F1"/>
<path fill-rule="evenodd" clip-rule="evenodd" d="M33.8393 18.7292C34.4063 18.3816 35.4813 17.6557 36.4242 16.6235C37.36 15.599 38.2503 14.1783 38.2503 12.4577V9.70937L38.2505 9.61761C38.2514 9.25392 38.2523 8.87222 38.1265 8.52478C38.0169 8.22202 37.8372 7.94755 37.5993 7.72719C37.3228 7.47121 36.9658 7.33178 36.6435 7.20591L36.5606 7.17341L33.6283 6.01792L33.6049 6.00858C33.5213 5.97512 33.3721 5.91546 33.2099 5.89082C33.0709 5.86973 32.9297 5.86973 32.7907 5.89082C32.6285 5.91546 32.4794 5.97512 32.3957 6.00858L32.3723 6.01792L29.44 7.17341L29.3571 7.20591C29.0348 7.33178 28.6778 7.47121 28.4014 7.72719C28.1634 7.94755 27.9837 8.22202 27.8741 8.52478C27.7483 8.87222 27.7492 9.25392 27.7502 9.61761L27.7503 9.70937V12.4577C27.7503 14.1783 28.6406 15.599 29.5764 16.6235C30.5193 17.6557 31.5943 18.3816 32.1613 18.7292L32.185 18.7439C32.2832 18.8049 32.4603 18.9149 32.6933 18.9674C32.8862 19.0109 33.1144 19.0109 33.3073 18.9674C33.5403 18.9149 33.7174 18.8049 33.8156 18.7439L33.8393 18.7292Z" fill="white"/>
<path d="M44.4111 19.2164C45.7339 17.1291 46.4997 14.654 46.4997 12C46.4997 9.34604 45.7339 6.87094 44.4111 4.78365C46.6012 1.87828 50.0811 0 53.9997 0C60.6271 0 65.9997 5.37259 65.9997 12C65.9997 18.6274 60.6271 24 53.9997 24C50.0811 24 46.6012 22.1217 44.4111 19.2164Z" fill="#2A7F48"/>
<path d="M50.2632 10.5714C49.987 10.5714 49.7632 10.7953 49.7632 11.0714V14.4048C49.7632 14.6809 49.987 14.9048 50.2632 14.9048H51.1579C51.434 14.9048 51.6579 14.6809 51.6579 14.4048V11.0714C51.6579 10.7953 51.434 10.5714 51.1579 10.5714H50.2632ZM54.0526 10.5714C53.7765 10.5714 53.5526 10.7953 53.5526 11.0714V14.4048C53.5526 14.6809 53.7765 14.9048 54.0526 14.9048H54.9474C55.2235 14.9048 55.4474 14.6809 55.4474 14.4048V11.0714C55.4474 10.7953 55.2235 10.5714 54.9474 10.5714H54.0526ZM48.5 17.5C48.5 17.7761 48.7239 18 49 18H60C60.2761 18 60.5 17.7761 60.5 17.5V16.6429C60.5 16.3667 60.2761 16.1429 60 16.1429H49C48.7239 16.1429 48.5 16.3667 48.5 16.6429V17.5ZM57.8421 10.5714C57.566 10.5714 57.3421 10.7953 57.3421 11.0714V14.4048C57.3421 14.6809 57.566 14.9048 57.8421 14.9048H58.7368C59.013 14.9048 59.2368 14.6809 59.2368 14.4048V11.0714C59.2368 10.7953 59.013 10.5714 58.7368 10.5714H57.8421ZM54.7292 5.11825C54.5854 5.04406 54.4146 5.04406 54.2708 5.11825L48.7708 7.95556C48.6045 8.04134 48.5 8.2128 48.5 8.39991V8.83333C48.5 9.10947 48.7239 9.33333 49 9.33333H60C60.2761 9.33333 60.5 9.10948 60.5 8.83333V8.39991C60.5 8.2128 60.3955 8.04134 60.2292 7.95556L54.7292 5.11825Z" fill="white"/>
</svg>
