<svg width="32" height="33" viewBox="0 0 32 33" fill="none" xmlns="http://www.w3.org/2000/svg">
<rect y="0.0800018" width="32" height="32" rx="16" fill="black"/>
<path fill-rule="evenodd" clip-rule="evenodd" d="M14.3334 8.66334H14.2787H14.2787C12.9502 8.66332 11.8773 8.6633 11.0331 8.77681C10.1556 8.89478 9.41369 9.14757 8.82398 9.73728C8.23427 10.327 7.98148 11.0689 7.86351 11.9464C7.75 12.7906 7.75002 13.8635 7.75004 15.192L7.75004 15.2467V19.83L7.75002 19.9282C7.74982 20.6079 7.74968 21.0749 7.84197 21.4792C8.15538 22.8524 9.22764 23.9247 10.6008 24.2381C11.0051 24.3304 11.4721 24.3302 12.1518 24.33L12.25 24.33H16.4167C16.8309 24.33 17.1667 23.9942 17.1667 23.58C17.1667 23.1658 16.8309 22.83 16.4167 22.83H12.25C11.4342 22.83 11.1518 22.8253 10.9346 22.7757C10.1232 22.5905 9.48956 21.9569 9.30436 21.1455C9.25478 20.9282 9.25004 20.6459 9.25004 19.83V15.2467C9.25004 13.8505 9.25163 12.8789 9.35013 12.1462C9.44574 11.4351 9.62008 11.0625 9.88464 10.7979C10.1492 10.5334 10.5218 10.359 11.2329 10.2634C11.9656 10.1649 12.9372 10.1633 14.3334 10.1633H18.0834C19.28 10.1633 20.25 11.1334 20.25 12.33V14.83C20.25 15.2442 20.5858 15.58 21 15.58C21.4143 15.58 21.75 15.2442 21.75 14.83V12.33C21.75 10.305 20.1084 8.66334 18.0834 8.66334H14.3334ZM12.9048 13.1633H14.0953C14.3244 13.1633 14.5036 13.1634 14.6574 13.1673C14.6882 13.1681 14.7168 13.169 14.7434 13.17C14.7444 13.1965 14.7453 13.2251 14.7461 13.256C14.75 13.4097 14.75 13.589 14.75 13.8181V15.0086C14.75 15.2377 14.75 15.4169 14.7461 15.5707C14.7453 15.6015 14.7444 15.6301 14.7434 15.6567C14.7168 15.6577 14.6882 15.6586 14.6574 15.6594C14.5036 15.6633 14.3244 15.6633 14.0953 15.6633H12.9048C12.6757 15.6633 12.4964 15.6633 12.3427 15.6594C12.3118 15.6586 12.2832 15.6577 12.2567 15.6567C12.2557 15.6301 12.2548 15.6015 12.254 15.5707C12.2501 15.4169 12.25 15.2377 12.25 15.0086V13.8181C12.25 13.589 12.2501 13.4097 12.254 13.256C12.2548 13.2251 12.2557 13.1965 12.2567 13.17C12.2832 13.169 12.3118 13.1681 12.3427 13.1673C12.4964 13.1634 12.6757 13.1633 12.9048 13.1633ZM11 13.8181C11 12.9202 11 12.4712 11.279 12.1923C11.5579 11.9133 12.0069 11.9133 12.9048 11.9133H14.0953C14.9932 11.9133 15.4421 11.9133 15.7211 12.1923C16 12.4712 16 12.9202 16 13.8181V15.0086C16 15.9065 16 16.3554 15.7211 16.6344C15.4421 16.9133 14.9932 16.9133 14.0953 16.9133H12.9048C12.0069 16.9133 11.5579 16.9133 11.279 16.6344C11 16.3554 11 15.9065 11 15.0086V13.8181ZM11 18.6395C11 18.3765 11.2132 18.1633 11.4762 18.1633H15.5238C15.7868 18.1633 16 18.3765 16 18.6395V18.9371C16 19.2001 15.7868 19.4133 15.5238 19.4133H11.4762C11.2132 19.4133 11 19.2001 11 18.9371V18.6395ZM11 20.7229C11 20.4599 11.2132 20.2467 11.4762 20.2467H13.8572C14.1202 20.2467 14.3334 20.4599 14.3334 20.7229V21.0205C14.3334 21.2835 14.1202 21.4967 13.8572 21.4967H11.4762C11.2132 21.4967 11 21.2835 11 21.0205V20.7229ZM22.7588 19.0057C22.9932 19.2591 22.9778 19.6545 22.7244 19.8889L20.9493 21.5305C20.7029 21.7584 20.3204 21.751 20.083 21.5136L19.258 20.6886C19.014 20.4445 19.014 20.0488 19.258 19.8047C19.5021 19.5607 19.8979 19.5607 20.1419 19.8047L20.5419 20.2047L21.8756 18.9712C22.129 18.7368 22.5245 18.7522 22.7588 19.0057ZM23.9167 20.2467C23.9167 21.8575 22.6109 23.1633 21 23.1633C19.3892 23.1633 18.0834 21.8575 18.0834 20.2467C18.0834 18.6358 19.3892 17.33 21 17.33C22.6109 17.33 23.9167 18.6358 23.9167 20.2467ZM25.1667 20.2467C25.1667 22.5479 23.3012 24.4133 21 24.4133C18.6989 24.4133 16.8334 22.5479 16.8334 20.2467C16.8334 17.9455 18.6989 16.08 21 16.08C23.3012 16.08 25.1667 17.9455 25.1667 20.2467Z" fill="white"/>
</svg>
