<svg width="24" height="24" viewBox="0 0 24 24" fill="none" xmlns="http://www.w3.org/2000/svg">
<path d="M15.4254 3.38466C14.5678 4.6155 16.7119 5.84634 15.8542 7.07718M11.5592 3.38466C10.7016 4.6155 12.8457 5.84634 11.988 7.07718M7.70669 3.38466C6.84903 4.6155 8.99317 5.84634 8.1355 7.07718M7 13.3847L7 16.3847M10.3333 13.3847V16.3847M13.6666 13.3847V16.3847M17 13.3847V16.3847M7 20.3847V22.3847M17 20.3847V22.3847M6 19.3847H18C19.1046 19.3847 20 18.4892 20 17.3847V12.3847C20 11.2801 19.1046 10.3847 18 10.3847H6C4.89543 10.3847 4 11.2801 4 12.3847V17.3847C4 18.4892 4.89543 19.3847 6 19.3847Z" stroke="black" stroke-width="1.5" stroke-linecap="round"/>
</svg>
