<svg width="20" height="20" viewBox="0 0 20 20" fill="none" xmlns="http://www.w3.org/2000/svg">
<path fill-rule="evenodd" clip-rule="evenodd" d="M4.61098 18.0833C4.18756 18.0833 3.8251 17.9326 3.52357 17.631C3.22205 17.3295 3.07129 16.9671 3.07129 16.5436V7.3055C3.07129 6.88208 3.22205 6.51961 3.52357 6.21809C3.8251 5.91657 4.18756 5.76581 4.61098 5.76581H15.3888C15.8122 5.76581 16.1747 5.91657 16.4762 6.21809C16.7777 6.51961 16.9285 6.88208 16.9285 7.3055V16.5436C16.9285 16.9671 16.7777 17.3295 16.4762 17.631C16.1747 17.9326 15.8122 18.0833 15.3888 18.0833H4.61098ZM14.9998 7.26856C15.2299 7.26856 15.4165 7.45511 15.4165 7.68522V16.1427C15.4165 16.3728 15.2299 16.5594 14.9998 16.5594H4.98455C4.75444 16.5594 4.56789 16.3728 4.56789 16.1427V7.68522C4.56789 7.45511 4.75444 7.26856 4.98455 7.26856H14.9998Z" fill="black"/>
<path d="M13.3451 8.33335C13.7987 8.33335 14.1746 8.70459 14.0858 9.14946C14.0326 9.41538 13.9536 9.67612 13.8493 9.92787C13.6399 10.4334 13.333 10.8927 12.9461 11.2796C12.5592 11.6665 12.0998 11.9735 11.5943 12.1829C11.0888 12.3922 10.547 12.5 9.9998 12.5C9.45262 12.5 8.91081 12.3922 8.40528 12.1829C7.89976 11.9735 7.44043 11.6665 7.05352 11.2796C6.66661 10.8927 6.35969 10.4334 6.1503 9.92787C6.04602 9.67612 5.96695 9.41538 5.91383 9.14946C5.82498 8.70459 6.20089 8.33335 6.65454 8.33335C7.10819 8.33335 7.46339 8.7105 7.60844 9.14034C7.6265 9.19387 7.64639 9.24685 7.66806 9.29919C7.7949 9.6054 7.9808 9.88362 8.21517 10.118C8.44953 10.3523 8.72775 10.5383 9.03396 10.6651C9.34017 10.7919 9.66836 10.8572 9.9998 10.8572C10.3312 10.8572 10.6594 10.7919 10.9656 10.6651C11.2718 10.5383 11.5501 10.3523 11.7844 10.118C12.0188 9.88362 12.2047 9.6054 12.3315 9.29919C12.3532 9.24685 12.3731 9.19387 12.3912 9.14034C12.5362 8.7105 12.8914 8.33335 13.3451 8.33335Z" fill="black"/>
<path d="M14.1665 5.83335C14.1665 5.28618 14.0587 4.74436 13.8493 4.23884C13.6399 3.73332 13.333 3.27399 12.9461 2.88708C12.5592 2.50016 12.0998 2.19325 11.5943 1.98386C11.0888 1.77446 10.547 1.66669 9.9998 1.66669C9.45262 1.66669 8.91081 1.77446 8.40528 1.98386C7.89976 2.19325 7.44043 2.50016 7.05352 2.88708C6.66661 3.27399 6.35969 3.73332 6.1503 4.23884C5.9409 4.74436 5.83313 5.28618 5.83313 5.83335H7.47595C7.47595 5.50192 7.54123 5.17373 7.66806 4.86752C7.7949 4.56131 7.9808 4.28308 8.21517 4.04872C8.44953 3.81436 8.72775 3.62846 9.03396 3.50162C9.34017 3.37479 9.66836 3.3095 9.9998 3.3095C10.3312 3.3095 10.6594 3.37479 10.9656 3.50162C11.2718 3.62846 11.5501 3.81436 11.7844 4.04872C12.0188 4.28308 12.2047 4.56131 12.3315 4.86752C12.4584 5.17373 12.5236 5.50192 12.5236 5.83335H14.1665Z" fill="black"/>
</svg>
