<svg width="32" height="32" viewBox="0 0 32 32" fill="none" xmlns="http://www.w3.org/2000/svg">
<circle cx="16" cy="16" r="16" fill="black"/>
<path fill-rule="evenodd" clip-rule="evenodd" d="M24.7272 12.7254V15.7727C24.7272 16.1741 24.4021 16.4999 24 16.4999C23.5978 16.4999 23.2727 16.1741 23.2727 15.7727V12.7254C23.2727 11.5226 22.2938 10.5437 21.091 10.5437H10.9096C9.70678 10.5437 8.72792 11.5226 8.72792 12.7254V18.0778C8.72792 19.2807 9.70678 20.2595 10.9096 20.2595H16.7314C17.1335 20.2595 17.4586 20.5854 17.4586 20.9868C17.4586 21.3882 17.1335 21.714 16.7314 21.714H10.9096C8.90464 21.714 7.27344 20.0828 7.27344 18.0778V12.7254C7.27344 10.7204 8.90464 9.08923 10.9096 9.08923H21.091C23.096 9.08923 24.7272 10.7204 24.7272 12.7254ZM17.6252 13.604C17.6252 13.8974 17.4651 14.2131 17.2606 14.391V14.4399H17.8519C18.012 14.4399 18.1321 14.5511 18.1321 14.7111C18.1321 14.8668 18.012 14.9779 17.8519 14.9779H13.4722C13.3077 14.9779 13.1787 14.8534 13.1787 14.6845C13.1787 14.5155 13.3077 14.391 13.4722 14.391H15.9755C16.2957 14.2576 16.4602 14.0575 16.4602 13.7418C16.4602 13.3283 16.0956 13.0437 15.5665 13.0437C15.1707 13.0437 14.8372 13.226 14.5971 13.5284C14.4637 13.6662 14.2992 13.7552 14.1303 13.7552C13.8501 13.7552 13.6411 13.5595 13.6411 13.2972C13.6411 13.1682 13.6945 13.0437 13.8012 12.9281C14.1214 12.4346 14.7883 12.1322 15.5931 12.1322C16.8159 12.1322 17.6252 12.7147 17.6252 13.604ZM13.1787 15.7872C13.1787 15.6316 13.2988 15.5204 13.4544 15.5204H17.843C18.0076 15.5204 18.1321 15.6449 18.1321 15.8139C18.1321 15.9784 18.0076 16.1029 17.843 16.1029H15.2863C14.9306 16.1918 14.695 16.4497 14.695 16.761C14.695 17.1878 15.104 17.4857 15.691 17.4857C16.1845 17.4857 16.4958 17.299 16.7492 16.9522C16.9004 16.7921 17.0649 16.7076 17.2472 16.7076C17.5273 16.7076 17.7541 16.9299 17.7541 17.2145C17.7541 17.339 17.7097 17.4591 17.6029 17.5702C17.265 18.0727 16.5269 18.3973 15.6865 18.3973C14.3704 18.3973 13.5255 17.8148 13.5255 16.9433C13.5255 16.6098 13.7078 16.2763 13.9613 16.1029V16.0495H13.4544C13.2988 16.0495 13.1787 15.9384 13.1787 15.7872ZM23.4419 18.1437C23.6186 18.1437 23.7881 18.2138 23.9131 18.3386C24.0381 18.4635 24.1084 18.6329 24.1086 18.8095C24.1088 18.9862 24.0389 19.1557 23.9142 19.2809L22.6924 20.5025L23.9142 21.7242C24.0391 21.8492 24.1093 22.0187 24.1093 22.1953C24.1093 22.372 24.0391 22.5415 23.9142 22.6665C23.8524 22.7285 23.7789 22.7776 23.6979 22.8112C23.617 22.8447 23.5303 22.8619 23.4427 22.8618C23.3552 22.8619 23.2684 22.8447 23.1876 22.8112C23.1067 22.7777 23.0332 22.7285 22.9714 22.6665L21.7496 21.4449L20.528 22.6665C20.4661 22.7285 20.3927 22.7776 20.3117 22.8112C20.2308 22.8447 20.1441 22.8619 20.0565 22.8618C19.9689 22.8619 19.8822 22.8447 19.8013 22.8112C19.7205 22.7777 19.647 22.7285 19.5852 22.6665C19.4603 22.5415 19.3901 22.372 19.3901 22.1953C19.3901 22.0187 19.4603 21.8492 19.5852 21.7242L20.807 20.5025L19.5852 19.2809C19.4603 19.1559 19.3902 18.9864 19.3902 18.8098C19.3902 18.6331 19.4603 18.4636 19.5852 18.3386C19.7102 18.2138 19.8796 18.1437 20.0563 18.1437C20.233 18.1437 20.4024 18.2138 20.5274 18.3386L21.749 19.5604L22.9708 18.3386C23.0958 18.2138 23.2653 18.1437 23.4419 18.1437Z" fill="white"/>
</svg>
