<svg width="24" height="24" viewBox="0 0 24 24" fill="none" xmlns="http://www.w3.org/2000/svg">
<path d="M4 7C4 6.44772 4.44772 6 5 6C5.55228 6 6 6.44772 6 7V17C6 17.5523 5.55228 18 5 18C4.44772 18 4 17.5523 4 17V7Z" fill="black"/>
<path d="M9 6.75C9 6.33579 9.33579 6 9.75 6C10.1642 6 10.5 6.33579 10.5 6.75V17.25C10.5 17.6642 10.1642 18 9.75 18C9.33579 18 9 17.6642 9 17.25V6.75Z" fill="black"/>
<path d="M13.5 6.75C13.5 6.33579 13.8358 6 14.25 6C14.6642 6 15 6.33579 15 6.75V17.25C15 17.6642 14.6642 18 14.25 18C13.8358 18 13.5 17.6642 13.5 17.25V6.75Z" fill="black"/>
<path d="M18 7C18 6.44772 18.4477 6 19 6C19.5523 6 20 6.44772 20 7V17C20 17.5523 19.5523 18 19 18C18.4477 18 18 17.5523 18 17V7Z" fill="black"/>
</svg>
