<svg width="32" height="32" viewBox="0 0 32 32" fill="none" xmlns="http://www.w3.org/2000/svg">
<circle cx="16" cy="16" r="16" fill="black"/>
<path d="M15.9558 24.0233L16 24.1072L16.0442 24.0233C16.153 23.8171 16.3167 23.6609 16.5114 23.5289C17.3656 22.9617 17.9375 22.0489 18.1458 21.0284H20.75H20.8V20.9784V10.1331V10.054L20.7286 10.0879C19.2888 10.7707 18.3415 12.2707 18.1405 13.8227L17.7423 16.8712L17.7339 16.936L17.7986 16.9272L17.9943 16.9007C18.1916 16.9017 18.3773 16.9895 18.5144 17.1226C18.6525 17.2568 18.7374 17.4333 18.7374 17.6061C18.7374 17.9281 18.4749 18.2086 18.1225 18.2857L18.1223 18.2857L17.6753 18.3855C16.8928 16.9718 16.4482 15.5882 16.4482 14.2338C16.4482 13.6186 16.4973 13.0031 16.5469 12.382L16.5476 12.3729C16.5973 11.7493 16.6473 11.1201 16.6473 10.4838C16.6473 9.90328 16.414 9.37899 16.0369 8.96627L16 8.92588L15.9631 8.96627C15.586 9.37899 15.3527 9.90328 15.3527 10.4838L15.3527 10.4849C15.3658 11.0671 15.4087 11.6435 15.4513 12.2153C15.4553 12.2678 15.4592 12.3202 15.463 12.3726C15.5093 12.9966 15.5518 13.6154 15.5518 14.2338C15.5518 15.5882 15.1072 16.9718 14.3247 18.3855L13.8777 18.2857L13.8775 18.2857C13.5251 18.2086 13.2626 17.9281 13.2626 17.6061C13.2626 17.4333 13.3475 17.2568 13.4856 17.1226C13.6227 16.9895 13.8084 16.9017 14.0057 16.9007L14.2014 16.9272L14.2661 16.936L14.2577 16.8712L13.8596 13.824C13.744 12.2685 12.7091 10.7697 11.2714 10.0879L11.2 10.054V10.1331V20.9784V21.0284H11.25H13.8542C14.0636 22.0497 14.6635 22.9352 15.4873 23.528L15.4873 23.528L15.4884 23.5288C15.6832 23.6608 15.847 23.817 15.9558 24.0233ZM19.0361 13.7544L19.0361 13.7544L19.0362 13.7536C19.1153 13.0286 19.4428 12.3727 19.9036 11.8307V17.1784H19.5358C19.4129 16.7842 19.1092 16.4454 18.7275 16.2298L19.0361 13.7544ZM13.5964 19.1108L13.5964 19.111L13.6001 19.1118L13.92 19.1818C13.8444 19.5033 13.7932 19.827 13.7887 20.173H12.0964V18.0338H12.464C12.6211 18.5474 13.0544 18.9485 13.5964 19.1108ZM18.3999 19.1118L18.3999 19.1119L18.4036 19.1108C18.9456 18.9485 19.3789 18.5474 19.536 18.0338H19.9036V20.173H18.2113C18.2068 19.827 18.1556 19.5033 18.08 19.1818L18.3999 19.1118ZM13.2725 16.2298C12.8908 16.4454 12.5871 16.7842 12.4642 17.1784H12.0964V11.831C12.5534 12.372 12.8581 13.0281 12.9639 13.7549L13.2725 16.2298ZM16 16.9331C16.1941 17.5115 16.4739 18.0672 16.7775 18.5996C16.4697 18.6889 16.2106 18.8822 16 19.0985C15.7894 18.8822 15.5303 18.6889 15.2225 18.5996C15.5261 18.0672 15.8059 17.5115 16 16.9331ZM14.7848 19.3611C15.2061 19.4275 15.5254 19.7751 15.5502 20.173H14.6567C14.662 19.8894 14.7112 19.6255 14.7848 19.3611ZM17.2152 19.3611C17.2888 19.6255 17.338 19.8894 17.3433 20.173H16.4498C16.4746 19.7751 16.7939 19.4275 17.2152 19.3611ZM14.7841 21.0284H15.5518V22.44C15.1889 22.0247 14.9199 21.5477 14.7841 21.0284ZM16.4482 21.0284H17.2159C17.0801 21.5477 16.8111 22.0247 16.4482 22.44V21.0284Z" fill="white" stroke="white" stroke-width="0.1"/>
</svg>
