<svg width="24" height="24" viewBox="0 0 24 24" fill="none" xmlns="http://www.w3.org/2000/svg">
<path d="M14.5 6.5V5.66667C14.5 5.22464 14.342 4.80072 14.0607 4.48816C13.7794 4.17559 13.3978 4 13 4H10C9.60218 4 9.22065 4.17559 8.93934 4.48816C8.65804 4.80072 8.5 5.22464 8.5 5.66667V6.5M5.5 7.33333H17.5C18.3284 7.33333 19 8.07953 19 9V17.3333C19 18.2538 18.3284 19 17.5 19H5.5C4.67157 19 4 18.2538 4 17.3333V9C4 8.07953 4.67157 7.33333 5.5 7.33333Z" stroke="black" stroke-width="1.6" stroke-linecap="round" stroke-linejoin="round"/>
</svg>
