<svg width="32" height="32" viewBox="0 0 32 32" fill="none" xmlns="http://www.w3.org/2000/svg">
<g clip-path="url(#clip0_32002_551)">
<path fill-rule="evenodd" clip-rule="evenodd" d="M16 32C7.04054 32 4.62883 31.5462 2.54134 29.4587C0.440812 27.3582 0 24.9595 0 16C0 7.04054 0.453809 4.64182 2.54134 2.54134C4.62883 0.453809 7.04054 0 16 0C24.9595 0 27.3712 0.453809 29.4587 2.54134C31.5591 4.64182 32 7.04054 32 16C32 24.9595 31.5591 27.3582 29.4587 29.4587C27.3712 31.5462 24.9595 32 16 32Z" fill="#1A91D0"/>
<path fill-rule="evenodd" clip-rule="evenodd" d="M15.1264 10.9048C15.1264 13.2136 13.3042 15.0896 11.0627 15.0896C8.81945 15.0896 7 13.2155 7 10.9048C7 8.59125 8.81945 6.71997 11.0627 6.71997C13.3042 6.71997 15.1264 8.5903 15.1264 10.9048ZM25.0042 10.9048C25.0042 8.59125 23.1848 6.71997 20.9424 6.71997C18.701 6.71997 16.8824 8.59125 16.8824 10.9048C16.8824 13.2136 18.701 15.0896 20.9424 15.0896C23.1857 15.0886 25.0042 13.2145 25.0042 10.9048ZM15.1264 21.0822C15.1264 18.7715 13.3042 16.9002 11.0627 16.9002C8.81945 16.9002 7 18.7715 7 21.0822C7 23.3929 8.81945 25.267 11.0627 25.267C13.3042 25.267 15.1264 23.3939 15.1264 21.0822ZM25.0042 21.0822C25.0042 18.7715 23.1848 16.9002 20.9424 16.9002C18.701 16.9002 16.8824 18.7715 16.8824 21.0822C16.8824 23.3929 18.701 25.267 20.9424 25.267C23.1857 25.267 25.0042 23.3939 25.0042 21.0822Z" fill="white"/>
</g>
<defs>
<clipPath id="clip0_32002_551">
<rect width="32" height="32" fill="white"/>
</clipPath>
</defs>
</svg>
