<svg width="24" height="24" viewBox="0 0 24 24" fill="none" xmlns="http://www.w3.org/2000/svg">
<path d="M12 3L13.1713 7.68539C13.3999 8.59966 13.5142 9.0568 13.7522 9.42878C13.9628 9.75781 14.2422 10.0372 14.5712 10.2478C14.9432 10.4858 15.4003 10.6001 16.3146 10.8287L21 12L16.3146 13.1713C15.4003 13.3999 14.9432 13.5142 14.5712 13.7522C14.2422 13.9628 13.9628 14.2422 13.7522 14.5712C13.5142 14.9432 13.3999 15.4003 13.1713 16.3146L12 21L10.8287 16.3146C10.6001 15.4003 10.4858 14.9432 10.2478 14.5712C10.0372 14.2422 9.75781 13.9628 9.42878 13.7522C9.0568 13.5142 8.59966 13.3999 7.68539 13.1713L3 12L7.68539 10.8287C8.59966 10.6001 9.0568 10.4858 9.42878 10.2478C9.75781 10.0372 10.0372 9.75781 10.2478 9.42878C10.4858 9.0568 10.6001 8.59966 10.8287 7.68539L12 3Z" fill="black"/>
<path d="M12 3L13.1713 7.68539C13.3999 8.59966 13.5142 9.0568 13.7522 9.42878C13.9628 9.75781 14.2422 10.0372 14.5712 10.2478C14.9432 10.4858 15.4003 10.6001 16.3146 10.8287L21 12L16.3146 13.1713C15.4003 13.3999 14.9432 13.5142 14.5712 13.7522C14.2422 13.9628 13.9628 14.2422 13.7522 14.5712C13.5142 14.9432 13.3999 15.4003 13.1713 16.3146L12 21L10.8287 16.3146C10.6001 15.4003 10.4858 14.9432 10.2478 14.5712C10.0372 14.2422 9.75781 13.9628 9.42878 13.7522C9.0568 13.5142 8.59966 13.3999 7.68539 13.1713L3 12L7.68539 10.8287C8.59966 10.6001 9.0568 10.4858 9.42878 10.2478C9.75781 10.0372 10.0372 9.75781 10.2478 9.42878C10.4858 9.0568 10.6001 8.59966 10.8287 7.68539L12 3Z" fill="black"/>
</svg>
