<svg width="24" height="25" viewBox="0 0 24 25" fill="none" xmlns="http://www.w3.org/2000/svg">
<rect y="0.800049" width="24" height="24" rx="12" fill="#FFD600"/>
<path d="M16.3252 11.2893C16.2633 11.1912 16.1559 11.1325 16.039 11.1325H12.3366V6.13138C12.3352 5.94731 12.1838 5.79869 11.998 5.80006C11.8728 5.80142 11.7572 5.87096 11.7007 5.9814L7.66116 13.9835C7.5772 14.1485 7.64464 14.3489 7.8098 14.4307C7.8566 14.4539 7.90752 14.4662 7.95982 14.4662H11.6622V19.4674C11.6622 19.6214 11.7695 19.7551 11.9209 19.7905C11.9457 19.7973 11.9719 19.8 11.998 19.8C12.1246 19.8 12.2402 19.7291 12.2981 19.616L16.3376 11.6138C16.3913 11.5129 16.3872 11.3889 16.3252 11.2893Z" fill="black"/>
</svg>
