<svg width="24" height="24" viewBox="0 0 24 24" fill="none" xmlns="http://www.w3.org/2000/svg">
<g clip-path="url(#clip0_163620_32714)">
<path d="M12 23C18.0751 23 23 18.0751 23 12C23 5.92487 18.0751 1 12 1C5.92487 1 1 5.92487 1 12C1 18.0751 5.92487 23 12 23Z" stroke="white" stroke-width="1.5" stroke-linecap="round" stroke-linejoin="round"/>
<path d="M15.9767 8.81902C15.9767 9.38112 15.6535 9.98581 15.2406 10.3265V10.4202H16.4345C16.7576 10.4202 17 10.6331 17 10.9397C17 11.2378 16.7576 11.4507 16.4345 11.4507H7.59246C7.26032 11.4507 7 11.2122 7 10.8886C7 10.5649 7.26032 10.3265 7.59246 10.3265H12.6463C13.2926 10.071 13.6248 9.68772 13.6248 9.08304C13.6248 8.29099 12.8887 7.74592 11.8205 7.74592C11.0215 7.74592 10.3483 8.0951 9.86355 8.67424C9.59426 8.93825 9.26212 9.10859 8.92101 9.10859C8.35548 9.10859 7.93357 8.73385 7.93357 8.23137C7.93357 7.98439 8.04129 7.74592 8.25673 7.52449C8.90305 6.57913 10.2496 6 11.8743 6C14.3429 6 15.9767 7.11568 15.9767 8.81902ZM7 13.0007C7 12.7026 7.24237 12.4897 7.55655 12.4897H16.4165C16.7487 12.4897 17 12.7282 17 13.0518C17 13.3669 16.7487 13.6054 16.4165 13.6054H11.2549C10.5368 13.7757 10.061 14.2697 10.061 14.8659C10.061 15.6835 10.8869 16.2541 12.0718 16.2541C13.0682 16.2541 13.6966 15.8964 14.2083 15.2321C14.5135 14.9255 14.8456 14.7637 15.2136 14.7637C15.7792 14.7637 16.237 15.1895 16.237 15.7346C16.237 15.973 16.1472 16.203 15.9318 16.4159C15.2496 17.3783 13.7594 18 12.0628 18C9.40575 18 7.70018 16.8843 7.70018 15.215C7.70018 14.5763 8.06822 13.9375 8.57989 13.6054V13.5032H7.55655C7.24237 13.5032 7 13.2903 7 13.0007Z" fill="white"/>
</g>
<defs>
<clipPath id="clip0_163620_32714">
<rect width="24" height="24" fill="white"/>
</clipPath>
</defs>
</svg>
