<svg width="24" height="24" viewBox="0 0 24 24" fill="none" xmlns="http://www.w3.org/2000/svg">
<path d="M1.56863 20.5588L10.2353 4.30882C10.9882 2.89706 13.0118 2.89706 13.7647 4.30882L22.4314 20.5588C23.1419 21.891 22.1765 23.5 20.6667 23.5H3.33333C1.82349 23.5 0.858115 21.891 1.56863 20.5588Z" fill="#070707"/>
<path fill-rule="evenodd" clip-rule="evenodd" d="M12.7862 10H11.2138C11.0981 10 11.0065 10.0979 11.0142 10.2133L11.3876 15.8133C11.3946 15.9184 11.4818 16 11.5871 16H12.4129C12.5182 16 12.6054 15.9184 12.6124 15.8133L12.9858 10.2133C12.9935 10.0979 12.9019 10 12.7862 10ZM13.0002 18.4694C13.0002 19.1304 12.7085 19.4095 12.0001 19.4095C11.2917 19.4095 11 19.1304 11 18.4694C11 17.7791 11.3056 17.5 12.0001 17.5C12.6946 17.5 13.0002 17.7791 13.0002 18.4694Z" fill="white"/>
</svg>
