<svg width="32" height="33" viewBox="0 0 32 33" fill="none" xmlns="http://www.w3.org/2000/svg">
<circle cx="16" cy="16.4" r="16" fill="black"/>
<g clip-path="url(#clip0_13866_8180)">
<path d="M16.0001 9.73334V13.0667M16.0001 9.73334C15.5246 9.73334 15.0608 9.78312 14.6134 9.87776M16.0001 9.73334C16.4757 9.73334 16.9395 9.78312 17.3869 9.87776M16.0001 13.0667C14.1592 13.0667 12.6668 14.5591 12.6668 16.4M16.0001 13.0667C17.8411 13.0667 19.3335 14.5591 19.3335 16.4M16.0001 19.7333V23.0667M16.0001 19.7333C17.8411 19.7333 19.3335 18.241 19.3335 16.4M16.0001 19.7333C14.1592 19.7333 12.6668 18.241 12.6668 16.4M16.0001 23.0667C16.4749 23.0667 16.9381 23.017 17.3849 22.9227M16.0001 23.0667C15.5236 23.0667 15.0587 23.0167 14.6105 22.9216M11.2861 11.686L13.6431 14.043M18.3572 18.757L20.7142 21.114M9.3335 16.4H12.6668M9.3335 16.4C9.3335 16.8756 9.38327 17.3395 9.47792 17.7868M9.3335 16.4C9.3335 15.9238 9.38342 15.4592 9.47834 15.0112M19.3335 16.4H22.6668M22.6668 16.4C22.6668 15.9245 22.617 15.4605 22.5224 15.0132M22.6668 16.4C22.6668 16.8754 22.6171 17.3391 22.5225 17.7863M11.2861 21.114L13.6431 18.757M18.3572 14.043L20.7142 11.686M19.6313 10.8081C20.4141 11.3175 21.0834 11.9868 21.5927 12.7698M21.5908 20.033C21.0815 20.8153 20.4124 21.484 19.6298 21.9929M12.3693 21.9921C11.5875 21.4835 10.919 20.8154 10.41 20.0339M10.408 12.7692C10.9171 11.9866 11.5861 11.3176 12.3687 10.8083" stroke="white" stroke-width="1.5" stroke-linecap="round" stroke-linejoin="round"/>
</g>
<defs>
<clipPath id="clip0_13866_8180">
<rect width="16" height="16" fill="white" transform="translate(8 8.40002)"/>
</clipPath>
</defs>
</svg>
