<svg width="24" height="24" viewBox="0 0 24 24" fill="none" xmlns="http://www.w3.org/2000/svg">
<g clip-path="url(#clip0_60019_239)">
<rect width="24" height="24" rx="12" fill="#2A7F48"/>
<path d="M7.76316 11.0714C7.48702 11.0714 7.26316 11.2953 7.26316 11.5714V14.9048C7.26316 15.1809 7.48702 15.4048 7.76316 15.4048H8.65789C8.93404 15.4048 9.15789 15.1809 9.15789 14.9048V11.5714C9.15789 11.2953 8.93404 11.0714 8.65789 11.0714H7.76316ZM11.5526 11.0714C11.2765 11.0714 11.0526 11.2953 11.0526 11.5714V14.9048C11.0526 15.1809 11.2765 15.4048 11.5526 15.4048H12.4474C12.7235 15.4048 12.9474 15.1809 12.9474 14.9048V11.5714C12.9474 11.2953 12.7235 11.0714 12.4474 11.0714H11.5526ZM6 18C6 18.2761 6.22386 18.5 6.5 18.5H17.5C17.7761 18.5 18 18.2761 18 18V17.1429C18 16.8667 17.7761 16.6429 17.5 16.6429H6.5C6.22386 16.6429 6 16.8667 6 17.1429V18ZM15.3421 11.0714C15.066 11.0714 14.8421 11.2953 14.8421 11.5714V14.9048C14.8421 15.1809 15.066 15.4048 15.3421 15.4048H16.2368C16.513 15.4048 16.7368 15.1809 16.7368 14.9048V11.5714C16.7368 11.2953 16.513 11.0714 16.2368 11.0714H15.3421ZM12.2292 5.61825C12.0854 5.54406 11.9146 5.54406 11.7708 5.61825L6.27077 8.45556C6.10448 8.54134 6 8.7128 6 8.89991V9.33333C6 9.60947 6.22386 9.83333 6.5 9.83333H17.5C17.7761 9.83333 18 9.60948 18 9.33333V8.89991C18 8.7128 17.8955 8.54134 17.7292 8.45556L12.2292 5.61825Z" fill="white"/>
</g>
<defs>
<clipPath id="clip0_60019_239">
<rect width="24" height="24" fill="white"/>
</clipPath>
</defs>
</svg>
