<svg width="24" height="24" viewBox="0 0 24 24" fill="none" xmlns="http://www.w3.org/2000/svg">
<path fill-rule="evenodd" clip-rule="evenodd" d="M6.85029 3.83533C7.05721 3.47651 7.51584 3.35337 7.87467 3.56029L16.8747 8.75029C17.2335 8.95721 17.3566 9.41584 17.1497 9.77467C16.9428 10.1335 16.4842 10.2566 16.1253 10.0497L7.12533 4.85971C6.76651 4.65279 6.64337 4.19416 6.85029 3.83533Z" fill="black"/>
<path fill-rule="evenodd" clip-rule="evenodd" d="M10.6266 1.61958C11.0442 1.3788 11.5179 1.25205 12 1.25205C12.4821 1.25205 12.9557 1.37879 13.3734 1.61955L13.375 1.62048L20.375 5.62048C20.7926 5.86161 21.1395 6.20832 21.3809 6.62583C21.6222 7.04335 21.7495 7.51699 21.75 7.99923V16C21.7495 16.4823 21.6222 16.9567 21.3809 17.3742C21.1395 17.7917 20.7926 18.1384 20.375 18.3795L20.3721 18.3812L13.375 22.3795L13.3734 22.3804C12.9557 22.6212 12.4821 22.748 12 22.748C11.5179 22.748 11.0442 22.6212 10.6265 22.3804L10.625 22.3795L3.6279 18.3812L3.625 18.3795C3.20736 18.1384 2.86047 17.7917 2.61913 17.3742C2.3778 16.9567 2.2505 16.483 2.25 16.0008L2.25 8C2.25049 7.51775 2.3778 7.04335 2.61913 6.62583C2.86047 6.20832 3.20736 5.86161 3.625 5.62048L3.62789 5.61881L10.6266 1.61958ZM12 2.75205C11.7806 2.75205 11.565 2.80981 11.375 2.91952L11.3721 2.92118L4.375 6.91952L4.37377 6.92023C4.18448 7.02981 4.02725 7.18713 3.91779 7.3765C3.80815 7.56617 3.75029 7.78133 3.75 8.00041V15.9996C3.75029 16.2187 3.80815 16.4338 3.91779 16.6235C4.02724 16.8129 4.18445 16.9702 4.3737 17.0797L4.375 17.0805L11.375 21.0805C11.565 21.1902 11.7806 21.248 12 21.248C12.2194 21.248 12.435 21.1902 12.625 21.0805L12.6279 21.0788L19.625 17.0805L19.6263 17.0797C19.8156 16.9702 19.9728 16.8129 20.0822 16.6235C20.1919 16.4337 20.2498 16.2184 20.25 15.9992V8.00077C20.2498 7.78157 20.1919 7.56628 20.0822 7.3765C19.9728 7.18713 19.8155 7.02981 19.6262 6.92023L19.625 6.91952L12.625 2.91953C12.435 2.80982 12.2194 2.75205 12 2.75205Z" fill="black"/>
<path fill-rule="evenodd" clip-rule="evenodd" d="M2.62079 6.58446C2.8282 6.22591 3.287 6.10339 3.64554 6.3108L12 11.1436L20.3545 6.3108C20.713 6.10339 21.1718 6.22591 21.3792 6.58446C21.5866 6.94301 21.4641 7.4018 21.1055 7.60921L12.3755 12.6592C12.1432 12.7936 11.8568 12.7936 11.6245 12.6592L2.89446 7.60921C2.53591 7.4018 2.41339 6.94301 2.62079 6.58446Z" fill="black"/>
<path fill-rule="evenodd" clip-rule="evenodd" d="M12 11.25C12.4142 11.25 12.75 11.5858 12.75 12V22.08C12.75 22.4942 12.4142 22.83 12 22.83C11.5858 22.83 11.25 22.4942 11.25 22.08V12C11.25 11.5858 11.5858 11.25 12 11.25Z" fill="black"/>
</svg>
