<svg width="24" height="24" viewBox="0 0 24 24" fill="none" xmlns="http://www.w3.org/2000/svg">
<path fill-rule="evenodd" clip-rule="evenodd" d="M11.9622 1.25H12.0378C13.875 1.25 15.305 1.24999 16.4475 1.35354C17.6082 1.45874 18.5457 1.67552 19.375 2.15433C20.4011 2.74676 21.2532 3.59887 21.8457 4.625C22.3245 5.45433 22.5413 6.39182 22.6465 7.55249C22.75 8.69502 22.75 10.1249 22.75 11.9621V12.0379C22.75 13.8751 22.75 15.305 22.6465 16.4475C22.5413 17.6082 22.3245 18.5457 21.8457 19.375C21.2532 20.4011 20.4011 21.2532 19.375 21.8457C18.5457 22.3245 17.6082 22.5413 16.4475 22.6465C15.305 22.75 13.8751 22.75 12.0379 22.75H11.9621C10.1249 22.75 8.69502 22.75 7.55249 22.6465C6.39182 22.5413 5.45433 22.3245 4.625 21.8457C3.59887 21.2532 2.74676 20.4011 2.15433 19.375C1.67552 18.5457 1.45874 17.6082 1.35354 16.4475C1.24999 15.305 1.25 13.875 1.25 12.0378V11.9622C1.25 10.125 1.24999 8.69502 1.35354 7.55249C1.45874 6.39182 1.67552 5.45433 2.15433 4.625C2.74676 3.59887 3.59887 2.74676 4.625 2.15433C5.45433 1.67552 6.39182 1.45874 7.55249 1.35354C8.69502 1.24999 10.125 1.25 11.9622 1.25ZM7.68789 2.84742C6.63125 2.94319 5.93798 3.12833 5.375 3.45337C4.5769 3.91415 3.91415 4.5769 3.45337 5.375C3.12833 5.93798 2.94319 6.63125 2.84742 7.68789C2.75072 8.75483 2.75 10.117 2.75 12C2.75 13.883 2.75072 15.2452 2.84742 16.3121C2.94319 17.3687 3.12833 18.062 3.45337 18.625C3.91415 19.4231 4.5769 20.0858 5.375 20.5466C5.93798 20.8717 6.63125 21.0568 7.68789 21.1526C8.75483 21.2493 10.117 21.25 12 21.25C13.883 21.25 15.2452 21.2493 16.3121 21.1526C17.3687 21.0568 18.062 20.8717 18.625 20.5466C19.4231 20.0858 20.0858 19.4231 20.5466 18.625C20.8717 18.062 21.0568 17.3687 21.1526 16.3121C21.2493 15.2452 21.25 13.883 21.25 12C21.25 10.117 21.2493 8.75483 21.1526 7.68789C21.0568 6.63125 20.8717 5.93798 20.5466 5.375C20.0858 4.5769 19.4231 3.91415 18.625 3.45337C18.062 3.12833 17.3687 2.94319 16.3121 2.84742C15.2452 2.75072 13.883 2.75 12 2.75C10.117 2.75 8.75483 2.75072 7.68789 2.84742Z" fill="black"/>
<path fill-rule="evenodd" clip-rule="evenodd" d="M15.5303 8.46967C15.8232 8.76256 15.8232 9.23744 15.5303 9.53033L9.53033 15.5303C9.23744 15.8232 8.76256 15.8232 8.46967 15.5303C8.17678 15.2374 8.17678 14.7626 8.46967 14.4697L14.4697 8.46967C14.7626 8.17678 15.2374 8.17678 15.5303 8.46967Z" fill="black"/>
<path fill-rule="evenodd" clip-rule="evenodd" d="M8.46967 8.46967C8.76256 8.17678 9.23744 8.17678 9.53033 8.46967L15.5303 14.4697C15.8232 14.7626 15.8232 15.2374 15.5303 15.5303C15.2374 15.8232 14.7626 15.8232 14.4697 15.5303L8.46967 9.53033C8.17678 9.23744 8.17678 8.76256 8.46967 8.46967Z" fill="black"/>
</svg>
