<svg width="32" height="33" viewBox="0 0 32 33" fill="none" xmlns="http://www.w3.org/2000/svg">
<rect y="0.199982" width="32" height="32" rx="16" fill="black"/>
<path fill-rule="evenodd" clip-rule="evenodd" d="M14.7862 9.5314L10.5472 11.2725C10.416 11.3255 10.2569 11.4527 10.1277 11.6456C9.99849 11.8385 9.94068 12.0352 9.94068 12.1766V15.5266C9.94068 18.9239 12.414 22.1418 15.7995 23.0811C15.9254 23.1153 16.067 23.1153 16.1929 23.0811C19.5784 22.1418 22.0517 18.9239 22.0517 15.5266L22.0517 15.5249L22.0593 12.1766C22.0592 12.0378 22.0012 11.8414 21.8703 11.6469C21.7393 11.4523 21.5788 11.3241 21.4497 11.2713L17.2138 9.5314C16.4383 9.21403 15.5616 9.21403 14.7862 9.5314ZM14.2403 8.19813C15.3658 7.73734 16.6341 7.73734 17.7596 8.19813L21.9954 9.93793C22.4442 10.1217 22.8124 10.4666 23.0654 10.8423C23.3184 11.2181 23.5 11.6896 23.5 12.1766L23.5 12.1782L23.4924 15.5266C23.4919 19.5915 20.5666 23.3635 16.5765 24.4698L16.5742 24.4704C16.1988 24.5731 15.7936 24.5731 15.4182 24.4704L15.4159 24.4698C11.4254 23.3635 8.5 19.5919 8.5 15.5266V12.1766C8.5 11.6922 8.67795 11.2212 8.93084 10.8437C9.18338 10.4667 9.55208 10.1213 10.0055 9.93756L14.2403 8.19813Z" fill="white"/>
<path fill-rule="evenodd" clip-rule="evenodd" d="M19.0177 13.3336C19.299 13.615 19.299 14.0711 19.0177 14.3524L15.3736 17.9964C15.0923 18.2777 14.6362 18.2777 14.3549 17.9964L12.9905 16.632C12.7092 16.3507 12.7092 15.8946 12.9905 15.6133C13.2718 15.332 13.7279 15.332 14.0092 15.6133L14.8642 16.4684L17.999 13.3336C18.2803 13.0523 18.7364 13.0523 19.0177 13.3336Z" fill="white"/>
</svg>
