<svg width="24" height="24" viewBox="0 0 24 24" fill="none" xmlns="http://www.w3.org/2000/svg">
<path fill-rule="evenodd" clip-rule="evenodd" d="M13.9818 1.5L10.0176 1.5C9.88325 1.5 9.7544 1.55197 9.65939 1.64449L8.01009 3.25054C7.79872 3.45636 7.81536 3.79471 8.04595 3.97992L10.5829 6.01764C6.57586 6.67496 3.5 10.0731 3.5 14.1991C3.5 18.7997 7.32434 22.4955 11.9997 22.4955C16.675 22.4955 20.4993 18.7997 20.4993 14.1991C20.4993 10.0732 17.4235 6.67501 13.4165 6.01765L15.9535 3.97992C16.184 3.79471 16.2007 3.45636 15.9893 3.25054L14.34 1.64449C14.245 1.55197 14.1162 1.5 13.9818 1.5ZM5 14.1991C5 10.4642 8.11494 7.40266 11.9997 7.40266C15.8844 7.40266 18.9993 10.4642 18.9993 14.1991C18.9993 17.934 15.8844 20.9955 11.9997 20.9955C8.11494 20.9955 5 17.934 5 14.1991Z" fill="black"/>
</svg>
