<svg width="19" height="19" viewBox="0 0 19 19" fill="none" xmlns="http://www.w3.org/2000/svg">
<path d="M0.5 9.61523C0.5 11.3953 1.02784 13.1353 2.01677 14.6154C3.00571 16.0954 4.41131 17.249 6.05585 17.9301C7.70038 18.6113 9.50998 18.7896 11.2558 18.4423C13.0016 18.095 14.6053 17.2379 15.864 15.9792C17.1226 14.7205 17.9798 13.1169 18.3271 11.371C18.6743 9.62522 18.4961 7.81562 17.8149 6.17108C17.1337 4.52655 15.9802 3.12094 14.5001 2.13201C13.0201 1.14308 11.28 0.615235 9.5 0.615234V2.59523C10.8884 2.59523 12.2457 3.00695 13.4001 3.77832C14.5545 4.54969 15.4543 5.64606 15.9856 6.9288C16.517 8.21153 16.656 9.62302 16.3851 10.9848C16.1142 12.3465 15.4457 13.5974 14.4639 14.5791C13.4821 15.5609 12.2313 16.2295 10.8695 16.5003C9.50779 16.7712 8.0963 16.6322 6.81356 16.1009C5.53082 15.5695 4.43445 14.6698 3.66308 13.5153C2.89172 12.3609 2.48 11.0037 2.48 9.61523H0.5Z" fill="url(#paint0_angular_30418_3649)"/>
<defs>
<radialGradient id="paint0_angular_30418_3649" cx="0" cy="0" r="1" gradientUnits="userSpaceOnUse" gradientTransform="translate(9.5 9.61523) rotate(164.055) scale(100 100)">
<stop/>
<stop offset="0.255208" stop-opacity="0.7"/>
</radialGradient>
</defs>
</svg>