<svg width="32" height="32" viewBox="0 0 32 32" fill="none" xmlns="http://www.w3.org/2000/svg">
<g clip-path="url(#clip0_32002_584)">
<path fill-rule="evenodd" clip-rule="evenodd" d="M16 32C7.04054 32 4.62882 31.5462 2.54134 29.4587C0.440812 27.3582 0 24.9595 0 16C0 7.04054 0.453809 4.64182 2.54134 2.54134C4.62882 0.453809 7.04054 0 16 0C24.9595 0 27.3712 0.453809 29.4587 2.54134C31.5591 4.64182 32 7.04054 32 16C32 24.9595 31.5591 27.3582 29.4587 29.4587C27.3712 31.5462 24.9595 32 16 32Z" fill="#EE1D23"/>
<path d="M7.16992 6H7.49779C10.4961 8.57068 14.326 11.1271 14.9437 15.3466C15.1623 18.8914 14.9437 22.4505 15.034 26C11.475 23.7192 7.87318 20.6306 7.16992 16.221V6Z" fill="white"/>
<path d="M17.0435 15.0282C18.0223 11.032 21.4246 8.14774 24.7983 6.14252C24.7223 9.74432 24.9598 13.3604 24.689 16.9527C23.7386 20.9869 20.3412 23.895 16.9437 25.981C17.0197 22.3126 16.8154 18.6538 17.0435 15.0282Z" fill="white"/>
</g>
<defs>
<clipPath id="clip0_32002_584">
<rect width="32" height="32" fill="white"/>
</clipPath>
</defs>
</svg>
