<svg width="16" height="16" viewBox="0 0 16 16" fill="none" xmlns="http://www.w3.org/2000/svg">
<g clip-path="url(#clip0_23524_42156)">
<path d="M7.993 1C4.129 1 1 4.136 1 8C1 11.864 4.129 15 7.993 15C11.864 15 15 11.864 15 8C15 4.136 11.864 1 7.993 1ZM8 13.6C4.906 13.6 2.4 11.094 2.4 8C2.4 4.906 4.906 2.4 8 2.4C11.094 2.4 13.6 4.906 13.6 8C13.6 11.094 11.094 13.6 8 13.6ZM8.35 4.85H6.95V8.7L10.45 10.856L11.15 9.75L8.35 8.175V4.85Z" fill="black" fill-opacity="0.6"/>
</g>
<defs>
<clipPath id="clip0_23524_42156">
<rect width="16" height="16" fill="white"/>
</clipPath>
</defs>
</svg>
