<svg width="32" height="32" viewBox="0 0 32 32" fill="none" xmlns="http://www.w3.org/2000/svg">
<path d="M32 16C32 24.8366 24.8366 32 16 32C7.16344 32 0 24.8366 0 16C0 7.16344 7.16344 0 16 0C24.8366 0 32 7.16344 32 16Z" fill="black"/>
<path d="M19.6162 7.45801C20.3766 7.45801 20.9039 7.45206 21.3545 7.57227L21.5684 7.63672C22.623 7.99451 23.4377 8.85468 23.7295 9.93848L23.7695 10.1104C23.8495 10.523 23.8447 11.0088 23.8447 11.6709V15.0254C23.8447 15.4394 23.5087 15.7751 23.0947 15.7754C22.6805 15.7754 22.3447 15.4396 22.3447 15.0254V11.6709C22.3447 11.0313 22.3411 10.7141 22.3154 10.5068L22.2812 10.3281C22.1206 9.73158 21.6711 9.25497 21.0859 9.05664L20.9678 9.02148C20.755 8.96473 20.4726 8.95801 19.6162 8.95801H12.6592C12.0171 8.95801 11.6975 8.96162 11.4883 8.9873L11.3076 9.02148C10.7053 9.18216 10.2278 9.63047 10.0293 10.21L9.99414 10.3281C9.93754 10.5385 9.93067 10.8177 9.93066 11.6709V19.6357C9.93066 20.3753 9.93145 20.885 9.96387 21.2803C9.99557 21.6665 10.054 21.8771 10.1328 22.0312L10.2041 22.1582C10.3823 22.4476 10.6379 22.6844 10.9443 22.8398L11.0742 22.8945C11.2181 22.9457 11.4107 22.9851 11.7021 23.0088C12.0996 23.0411 12.612 23.041 13.3545 23.041H17.252L17.3281 23.0449C17.7062 23.0833 18.0017 23.4029 18.002 23.791C18.002 24.1793 17.7063 24.4987 17.3281 24.5371L17.252 24.541H13.3545C12.6365 24.541 12.0525 24.5423 11.5801 24.5039C11.1593 24.4697 10.7764 24.4011 10.418 24.248L10.2656 24.1768C9.71288 23.8963 9.24981 23.4698 8.92676 22.9453L8.79785 22.7148C8.59249 22.3135 8.50813 21.8829 8.46875 21.4033C8.43013 20.9325 8.43066 20.3505 8.43066 19.6357V11.6709C8.43066 10.9147 8.42391 10.3885 8.54492 9.93848L8.61035 9.72461C8.9706 8.67182 9.83543 7.86188 10.9209 7.57227L11.0938 7.53223C11.5069 7.45295 11.9938 7.45801 12.6592 7.45801H19.6162ZM24.2188 20.8408C24.3955 20.8408 24.5293 20.9746 24.5293 21.1553C24.5292 21.3312 24.3955 21.4639 24.2188 21.4639H21.4727C21.0906 21.559 20.837 21.8351 20.8369 22.168C20.8369 22.6245 21.2767 22.9434 21.9072 22.9434C22.4372 22.9433 22.7717 22.7438 23.0439 22.373C23.2064 22.2018 23.3832 22.1113 23.5791 22.1113C23.88 22.1114 24.123 22.349 24.123 22.6533C24.123 22.7864 24.0754 22.9144 23.9609 23.0332C23.5979 23.5706 22.8051 23.9179 21.9023 23.918C20.4885 23.918 19.5812 23.2953 19.5811 22.3633C19.5811 22.0066 19.7765 21.6493 20.0488 21.4639V21.4072H19.5039C19.337 21.4071 19.2082 21.2884 19.208 21.127C19.208 20.9606 19.3369 20.841 19.5039 20.8408H24.2188ZM21.8018 17.2178C23.1154 17.2178 23.9854 17.8409 23.9854 18.792C23.9852 19.1058 23.8124 19.4436 23.5928 19.6338V19.6855H24.2285C24.4004 19.6855 24.5292 19.8045 24.5293 19.9756C24.5293 20.142 24.4005 20.2607 24.2285 20.2607H19.5234C19.3467 20.2607 19.208 20.128 19.208 19.9473C19.208 19.7666 19.3467 19.6338 19.5234 19.6338H22.2129C22.5567 19.4912 22.7332 19.2769 22.7334 18.9395C22.7334 18.4972 22.3418 18.1924 21.7734 18.1924C21.3483 18.1924 20.9894 18.3876 20.7314 18.7109C20.5882 18.8581 20.4118 18.9531 20.2305 18.9531C19.9297 18.9531 19.7053 18.7442 19.7051 18.4639C19.7051 18.326 19.7623 18.192 19.877 18.0684C20.221 17.5407 20.9374 17.2178 21.8018 17.2178ZM15.3447 14.8203C15.7226 14.8588 16.0172 15.1785 16.0176 15.5664C16.0176 15.9546 15.7227 16.2739 15.3447 16.3125L15.2676 16.3164H12.6592C12.245 16.3164 11.9092 15.9806 11.9092 15.5664C11.9095 15.1525 12.2452 14.8164 12.6592 14.8164H15.2676L15.3447 14.8203ZM18.3887 11.3574C18.7664 11.3961 19.0612 11.7157 19.0615 12.1035C19.0615 12.4916 18.7665 12.8109 18.3887 12.8496L18.3115 12.8535H12.6592C12.245 12.8535 11.9092 12.5177 11.9092 12.1035C11.9095 11.6896 12.2452 11.3535 12.6592 11.3535H18.3115L18.3887 11.3574Z" fill="white"/>
</svg>
