<svg width="32" height="32" viewBox="0 0 32 32" fill="none" xmlns="http://www.w3.org/2000/svg">
<circle cx="16" cy="16" r="16" fill="black"/>
<path d="M18.1665 20L20.1665 22M20.1665 22L22.1665 20M20.1665 22V18" stroke="white" stroke-width="1.5" stroke-linecap="round" stroke-linejoin="round"/>
<path d="M22.1668 14.6666H8.8335M22.1668 16V13.4666C22.1668 12.7199 22.1668 12.3465 22.0215 12.0613C21.8937 11.8104 21.6897 11.6065 21.4388 11.4786C21.1536 11.3333 20.7802 11.3333 20.0335 11.3333H10.9668C10.2201 11.3333 9.84672 11.3333 9.56151 11.4786C9.31063 11.6065 9.10665 11.8104 8.97882 12.0613C8.8335 12.3465 8.8335 12.7199 8.8335 13.4666V18.5333C8.8335 19.28 8.8335 19.6534 8.97882 19.9386C9.10665 20.1895 9.31063 20.3935 9.56151 20.5213C9.84672 20.6666 10.2201 20.6666 10.9668 20.6666H15.5002" stroke="white" stroke-width="1.5" stroke-linecap="round" stroke-linejoin="round"/>
</svg>
