<svg width="16" height="16" viewBox="0 0 16 16" fill="none" xmlns="http://www.w3.org/2000/svg">
<path d="M8 1C11.866 1 15 4.13401 15 8C15 11.866 11.866 15 8 15C4.13401 15 1 11.866 1 8C1 4.13401 4.13401 1 8 1ZM8 2.40039C4.90721 2.40039 2.40039 4.90721 2.40039 8C2.40039 11.0928 4.90721 13.5996 8 13.5996C11.0928 13.5996 13.5996 11.0928 13.5996 8C13.5996 4.90721 11.0928 2.40039 8 2.40039ZM8.85645 6.85254L7.94922 9.92969L9.00391 9.24023L9.125 9.16016L9.20898 9.28027L9.62305 9.87305L9.71191 9.99902L9.58203 10.084L8.22266 10.9736L8.21973 10.9756C8.0138 11.1022 7.82048 11.1504 7.62695 11.1504C7.3198 11.1504 7.06167 11.0236 6.90039 10.8184C6.73912 10.613 6.6827 10.3384 6.76172 10.0615V10.0605L7.45898 7.69824L6.50098 7.70508L6.2998 7.70703L6.35547 7.51367L6.57129 6.76855L6.60254 6.66016H8.91309L8.85645 6.85254ZM8.38184 4.84961C8.60167 4.84961 8.7962 4.8889 8.93457 5.00977C9.07771 5.13488 9.12884 5.31839 9.12891 5.52832C9.12891 5.73039 9.07943 5.91089 8.93652 6.03418C8.79913 6.15252 8.60508 6.19141 8.38184 6.19141C8.15859 6.1914 7.96453 6.15258 7.82715 6.03418C7.68424 5.91089 7.63477 5.73039 7.63477 5.52832C7.63483 5.31839 7.68596 5.13488 7.8291 5.00977C7.96746 4.88884 8.16199 4.84962 8.38184 4.84961Z" fill="black" fill-opacity="0.6"/>
</svg>
