<svg width="32" height="32" viewBox="0 0 32 32" fill="none" xmlns="http://www.w3.org/2000/svg">
<g clip-path="url(#clip0_32002_847)">
<path fill-rule="evenodd" clip-rule="evenodd" d="M16 32C7.04054 32 4.62882 31.5462 2.54134 29.4587C0.440812 27.3582 0 24.9595 0 16C0 7.04054 0.453809 4.64182 2.54134 2.54134C4.62882 0.453809 7.04054 0 16 0C24.9595 0 27.3712 0.453809 29.4587 2.54134C31.5591 4.64182 32 7.04054 32 16C32 24.9595 31.5591 27.3582 29.4587 29.4587C27.3712 31.5462 24.9595 32 16 32Z" fill="#1471D1"/>
<path d="M15.977 5.45996C13.0616 5.46453 10.4209 6.65927 8.5033 8.56352C6.59484 10.4769 5.41406 13.1136 5.41406 16.0157C5.42779 18.9316 6.61772 21.5546 8.53991 23.4588C10.4621 25.3722 13.1166 26.5486 16.0273 26.5395C18.9426 26.5258 21.5834 25.3356 23.4964 23.4268C25.4049 21.5179 26.5856 18.8767 26.5811 15.9745C26.5719 13.0632 25.3774 10.4357 23.4598 8.5269C21.533 6.62723 18.8877 5.44622 15.977 5.45996ZM23.7069 9.18149L17.6841 9.20896L16.0639 5.73003C18.8648 5.74376 21.4049 6.88357 23.2676 8.72374C23.4186 8.87022 23.5651 9.02585 23.7069 9.18149ZM20.7321 15.8555L11.2722 15.8967L10.8054 16.8901L21.2081 16.858L20.7779 15.8784L26.311 15.8555C26.311 15.8967 26.311 15.9334 26.311 15.9745C26.311 16.2675 26.2973 16.5605 26.2744 16.8489L21.2127 16.8672L21.7527 18.0436L26.1051 18.0299C26.0547 18.2816 25.9953 18.5288 25.9266 18.7714L22.1234 18.7806L21.7573 18.0527L10.2745 18.0711L9.95867 18.8264L22.1097 18.7943L22.7458 20.2179L25.4049 20.1905C25.3133 20.3873 25.2218 20.5841 25.1211 20.7764L23.0204 20.781L23.8717 22.6211L23.8808 22.6394L23.9129 22.7035H23.7985L8.14632 22.7722L9.02046 20.8542L6.94266 20.8771C6.83282 20.6711 6.72756 20.4651 6.63145 20.25L9.30879 20.2454L9.03877 20.845L23.025 20.8084L22.7458 20.2088L9.31337 20.2408L9.96325 18.8035H6.09141C6.02276 18.5609 5.96326 18.3137 5.91292 18.0665L10.3111 18.0573L10.8099 16.9038L5.739 16.9221C5.71154 16.6246 5.69781 16.3224 5.69781 16.0203C5.69781 15.9791 5.69781 15.9425 5.69781 15.9013L11.2722 15.8876L11.7802 14.8943L5.76189 14.8759C5.80765 14.4548 5.88088 14.0428 5.97699 13.64L12.2699 13.6675L11.739 14.8759L20.3111 14.8347L19.739 13.64L26.0364 13.6217C26.1325 14.0154 26.2012 14.4182 26.247 14.8302L20.2836 14.8531L20.7321 15.8555ZM19.4095 12.8572L18.8145 11.6076L13.1898 11.6167L12.6406 12.871H19.3591L19.7024 13.6309L12.2928 13.6446L12.6452 12.8984L6.17836 12.903C6.31566 12.4682 6.48042 12.0516 6.67264 11.6442L13.2264 11.603L13.5102 11.0079L7.00216 11.0171C7.2676 10.541 7.57424 10.0833 7.91291 9.65755L14.1234 9.63924L13.4873 11.0033L18.5262 10.985L18.8099 11.6076L25.3088 11.5893C25.5056 11.9967 25.6749 12.4178 25.8122 12.8527L19.4095 12.8572ZM18.5262 10.9667L17.9129 9.63467L24.0685 9.61178C24.4072 10.0329 24.7092 10.4815 24.9792 10.9576L18.5262 10.9667ZM8.70467 8.75578C10.5445 6.91103 13.0799 5.7575 15.8809 5.73003L15.9678 5.54235L15.9724 5.55151L14.2928 9.23184L17.6566 9.21353L17.858 9.61636L14.128 9.62093L14.2973 9.21811L8.25158 9.24558C8.39346 9.07621 8.54449 8.91142 8.70467 8.75578Z" fill="white"/>
<path d="M16 4C15.9908 4 15.9771 4 15.968 4C9.35471 4.01831 3.9863 9.41064 4.00003 16.0252C4.00918 19.2294 5.26318 22.2415 7.53778 24.5028C9.80322 26.7595 12.8055 28 15.9954 28C16.0046 28 16.0183 28 16.0275 28C22.6453 27.9863 28.0137 22.5894 28 15.9748C27.9771 9.36487 22.5995 4 16 4ZM27.4782 15.9748C27.4874 19.0326 26.2975 21.9165 24.1327 24.0954C21.9679 26.2697 19.0892 27.4736 16.0275 27.4782C16.0137 27.4782 16 27.4782 15.9863 27.4782C12.9382 27.4782 10.0732 26.2926 7.90391 24.1366C5.73 21.9714 4.52634 19.0921 4.51719 16.0252C4.50803 12.9674 5.69796 10.0835 7.86272 7.90921C10.0275 5.73488 12.9062 4.53099 15.968 4.52184C15.9771 4.52184 15.9863 4.52184 16 4.52184C19.048 4.52184 21.9222 5.70742 24.0915 7.86801C26.2654 10.0332 27.4691 12.9125 27.4782 15.9748Z" fill="white"/>
</g>
<defs>
<clipPath id="clip0_32002_847">
<rect width="32" height="32" fill="white"/>
</clipPath>
</defs>
</svg>
