<svg width="48" height="48" viewBox="0 0 48 48" fill="none" xmlns="http://www.w3.org/2000/svg">
<mask id="path-2-inside-1_44383_5421" fill="white">
<path fill-rule="evenodd" clip-rule="evenodd" d="M24 48C10.5608 48 6.94324 47.3193 3.81201 44.188C0.661218 41.0373 0 37.4392 0 24C0 10.5608 0.680714 6.96273 3.81201 3.81201C6.94324 0.680714 10.5608 0 24 0C37.4392 0 41.0568 0.680714 44.188 3.81201C47.3387 6.96273 48 10.5608 48 24C48 37.4392 47.3387 41.0373 44.188 44.188C41.0568 47.3193 37.4392 48 24 48Z"/>
</mask>
<path d="M3.81201 44.188L4.87268 43.1273L4.87266 43.1273L3.81201 44.188ZM3.81201 3.81201L2.75133 2.75136L2.74808 2.75464L3.81201 3.81201ZM44.188 3.81201L43.1273 4.87266L43.1273 4.87267L44.188 3.81201ZM44.188 44.188L43.1273 43.1273L43.1273 43.1273L44.188 44.188ZM24 46.5C17.2652 46.5 13.1365 46.326 10.3187 45.7943C7.60844 45.2828 6.20368 44.4584 4.87268 43.1273L2.75134 45.2486C4.55157 47.0489 6.52121 48.1305 9.76234 48.7422C12.896 49.3336 17.2957 49.5 24 49.5V46.5ZM4.87266 43.1273C3.53116 41.7858 2.70751 40.3809 2.19862 37.6749C1.66915 34.8596 1.5 30.7362 1.5 24H-1.5C-1.5 30.703 -1.33854 35.0983 -0.7497 38.2294C-0.140286 41.4699 0.942074 43.4394 2.75136 45.2487L4.87266 43.1273ZM1.5 24C1.5 17.2651 1.67397 13.1414 2.20571 10.3262C2.71702 7.61915 3.54145 6.21216 4.87595 4.86939L2.74808 2.75464C0.951277 4.56258 -0.130302 6.52999 -0.742169 9.76943C-1.33361 12.9007 -1.5 17.2957 -1.5 24H1.5ZM4.87268 4.87266C6.20368 3.54163 7.60844 2.71724 10.3187 2.20575C13.1365 1.67396 17.2652 1.5 24 1.5V-1.5C17.2957 -1.5 12.896 -1.3336 9.76234 -0.742211C6.52121 -0.130525 4.55157 0.951096 2.75134 2.75136L4.87268 4.87266ZM24 1.5C30.7348 1.5 34.8635 1.67396 37.6813 2.20575C40.3916 2.71724 41.7963 3.54163 43.1273 4.87266L45.2487 2.75136C43.4484 0.951096 41.4788 -0.130525 38.2377 -0.742211C35.104 -1.3336 30.7043 -1.5 24 -1.5V1.5ZM43.1273 4.87267C44.4688 6.21415 45.2925 7.61906 45.8014 10.3251C46.3308 13.1404 46.5 17.2638 46.5 24H49.5C49.5 17.297 49.3385 12.9017 48.7497 9.77059C48.1402 6.53009 47.0579 4.5606 45.2486 2.75135L43.1273 4.87267ZM46.5 24C46.5 30.7362 46.3308 34.8596 45.8014 37.6749C45.2925 40.3809 44.4688 41.7859 43.1273 43.1273L45.2486 45.2486C47.0579 43.4394 48.1402 41.4699 48.7497 38.2294C49.3385 35.0983 49.5 30.703 49.5 24H46.5ZM43.1273 43.1273C41.7963 44.4584 40.3916 45.2828 37.6813 45.7943C34.8635 46.326 30.7348 46.5 24 46.5V49.5C30.7043 49.5 35.104 49.3336 38.2377 48.7422C41.4788 48.1305 43.4484 47.0489 45.2487 45.2486L43.1273 43.1273Z" fill="black" mask="url(#path-2-inside-1_44383_5421)"/>
<path fill-rule="evenodd" clip-rule="evenodd" d="M17.618 30.3514C21.1254 33.8726 26.8247 33.8838 30.3459 30.3764C33.8671 26.8689 33.8782 21.1697 30.3708 17.6485C26.8634 14.1273 21.1641 14.1161 17.6429 17.6235C15.8788 19.3808 15.0045 21.6772 15 23.9823L17.0082 23.9863C17.0046 22.1973 17.687 20.4025 19.0543 19.0405C21.7962 16.3094 26.2227 16.318 28.9538 19.0599C31.685 21.8018 31.6763 26.2282 28.9344 28.9594C26.1926 31.6905 21.7661 31.6818 19.0349 28.94L20.4519 27.5285L15.5106 26.8188L16.201 31.7629L17.618 30.3514ZM24.7861 19.7057C24.7861 19.1534 24.3384 18.7057 23.7861 18.7057C23.2338 18.7057 22.7861 19.1534 22.7861 19.7057V24.2057C22.7861 24.5095 22.9242 24.7968 23.1614 24.9866L25.6614 26.9866C26.0927 27.3316 26.722 27.2616 27.067 26.8304C27.412 26.3991 27.3421 25.7698 26.9108 25.4248L24.7861 23.7251V19.7057Z" fill="black"/>
</svg>
