<svg width="32" height="32" viewBox="0 0 32 32" fill="none" xmlns="http://www.w3.org/2000/svg">
<path d="M32 16C32 24.8366 24.8366 32 16 32C7.16344 32 0 24.8366 0 16C0 7.16344 7.16344 0 16 0C24.8366 0 32 7.16344 32 16Z" fill="black"/>
<path fill-rule="evenodd" clip-rule="evenodd" d="M19.7149 7.50098C20.2051 7.50494 20.5859 7.52508 20.9239 7.61523C22.0816 7.92424 22.9877 8.82533 23.2989 9.98145C23.4199 10.4315 23.4141 10.9577 23.4141 11.7139C23.4141 11.7192 23.4142 11.7252 23.4141 11.7305L23.3194 16.0586C23.3102 16.4724 22.9677 16.8009 22.5538 16.792C22.1399 16.7829 21.8117 16.4402 21.8204 16.0264L21.9141 11.7139L21.9122 11.1738C21.9077 10.7257 21.893 10.5288 21.8507 10.3711C21.6794 9.73491 21.1797 9.23596 20.5372 9.06445C20.3244 9.00769 20.0422 9.00098 19.1856 9.00098H12.2286C11.3719 9.00098 11.0898 9.00769 10.877 9.06445C10.2345 9.23595 9.73477 9.73489 9.56354 10.3711C9.50705 10.5814 9.50007 10.8611 9.50007 11.7139V19.6787C9.50007 20.4182 9.50083 20.928 9.53327 21.3232C9.56498 21.7093 9.62339 21.9202 9.70221 22.0742C9.87998 22.4214 10.1638 22.7053 10.5137 22.8828C10.6697 22.9619 10.8829 23.0201 11.2715 23.0518C11.669 23.0841 12.1813 23.084 12.9239 23.084H14.5001C14.9142 23.084 15.2499 23.4199 15.2501 23.834C15.2498 24.248 14.9141 24.584 14.5001 24.584H12.9239C12.2059 24.584 11.6219 24.5853 11.1495 24.5469C10.6686 24.5077 10.237 24.4236 9.83503 24.2197C9.20358 23.8993 8.6897 23.3876 8.36725 22.7578C8.16191 22.3566 8.07755 21.9257 8.03815 21.4463C7.99951 20.9755 8.00007 20.3934 8.00007 19.6787V11.7139C8.00006 10.9578 7.99342 10.4314 8.11432 9.98145C8.42549 8.82532 9.33256 7.92422 10.4903 7.61523C10.8283 7.52508 11.2092 7.50494 11.6993 7.50098H19.7149ZM23.1876 19.042C23.4871 18.7559 23.973 18.7559 24.2725 19.042C24.5716 19.3281 24.5718 19.7921 24.2725 20.0781L20.5909 23.5947C20.2914 23.8806 19.8054 23.8808 19.5059 23.5947L17.2979 21.4844C16.9984 21.1983 16.9984 20.7344 17.2979 20.4482C17.5974 20.1623 18.0824 20.1623 18.3819 20.4482L20.0489 22.04L23.1876 19.042ZM14.837 14.8594C15.2511 14.8594 15.5868 15.1953 15.587 15.6094C15.5867 16.0234 15.251 16.3594 14.837 16.3594H12.2286C11.8146 16.3593 11.4788 16.0233 11.4786 15.6094C11.4788 15.1954 11.8146 14.8594 12.2286 14.8594H14.837ZM17.8809 11.3965C18.295 11.3965 18.6308 11.7324 18.6309 12.1465C18.6307 12.5605 18.295 12.8965 17.8809 12.8965H12.2286C11.8146 12.8964 11.4788 12.5604 11.4786 12.1465C11.4788 11.7325 11.8145 11.3966 12.2286 11.3965H17.8809Z" fill="white"/>
</svg>
