<svg width="30" height="20" viewBox="0 0 30 20" fill="none" xmlns="http://www.w3.org/2000/svg">
<path d="M11.4078 5.15076L7.47573 14.8492H4.90291L2.96116 7.11055C2.86408 6.65829 2.71845 6.45729 2.37864 6.25628C1.79612 5.95477 0.825243 5.60302 0 5.45226L0.048543 5.15076H4.17476C4.70874 5.15076 5.19418 5.50251 5.29126 6.15578L6.31068 11.7839L8.83495 5.20101H11.4078V5.15076ZM21.4563 11.6834C21.4563 9.1206 18.0583 8.96985 18.0583 7.86432C18.0583 7.51256 18.3981 7.1608 19.0777 7.0603C19.4175 7.01005 20.3883 6.9598 21.4563 7.51256L21.8932 5.45226C21.3107 5.25126 20.5825 5 19.6117 5C17.233 5 15.534 6.30653 15.534 8.21608C15.534 9.62312 16.7476 10.3769 17.6699 10.8291C18.5922 11.2814 18.932 11.5829 18.932 12.0352C18.932 12.6884 18.2039 12.9899 17.4757 12.9899C16.2621 12.9899 15.534 12.6382 15 12.3869L14.5631 14.4975C15.1456 14.7487 16.165 15 17.233 15C19.7573 15 21.4078 13.6935 21.4563 11.6834ZM27.767 14.8492H30L28.0583 5.15076H25.9709C25.4854 5.15076 25.0971 5.45226 24.9515 5.85427L21.3107 14.8492H23.835L24.3204 13.392H27.4272L27.767 14.8492ZM25.0485 11.4322L26.3107 7.81407L27.0388 11.4322H25.0485ZM14.8544 5.15076L12.8641 14.8492H10.4369L12.4272 5.15076H14.8544Z" fill="#1A1F71"/>
</svg>
