<svg width="49" height="48" viewBox="0 0 49 48" fill="none" xmlns="http://www.w3.org/2000/svg">
<rect x="0.5" width="48" height="48" rx="24" fill="black"/>
<path fill-rule="evenodd" clip-rule="evenodd" d="M25.8669 15H23.1321C23.0177 15 22.9267 15.0958 22.9324 15.21L23.5434 27.431C23.5487 27.5375 23.6366 27.621 23.7432 27.621H25.2558C25.3624 27.621 25.4503 27.5375 25.4556 27.431L26.0666 15.21C26.0723 15.0958 25.9813 15 25.8669 15ZM26.0774 31.5169C26.0774 32.5597 25.6173 33 24.4997 33C23.3821 33 22.9219 32.5597 22.9219 31.5169C22.9219 30.4278 23.404 29.9875 24.4997 29.9875C25.5954 29.9875 26.0774 30.4278 26.0774 31.5169Z" fill="white"/>
</svg>
