<svg width="32" height="32" viewBox="0 0 32 32" fill="none" xmlns="http://www.w3.org/2000/svg">
<g clip-path="url(#clip0_32002_862)">
<path fill-rule="evenodd" clip-rule="evenodd" d="M16 32C7.04054 32 4.62882 31.5462 2.54134 29.4587C0.440812 27.3582 0 24.9595 0 16C0 7.04054 0.453809 4.64182 2.54134 2.54134C4.62882 0.453809 7.04054 0 16 0C24.9595 0 27.3712 0.453809 29.4587 2.54134C31.5591 4.64182 32 7.04054 32 16C32 24.9595 31.5591 27.3582 29.4587 29.4587C27.3712 31.5462 24.9595 32 16 32Z" fill="#154A8E"/>
<path d="M15.9941 7.78003C8.81641 7.78003 3 11.0794 3 15.1493C3 16.4434 3.59271 17.6604 4.62204 18.7174L4.93617 19.0375C5.40916 19.4396 5.91618 19.7999 6.45152 20.1142C6.67543 20.2459 6.90659 20.3777 7.14499 20.5094C7.41368 20.6477 7.69225 20.782 7.9807 20.9045C8.88988 21.3009 9.83104 21.6195 10.7941 21.8568L11.3176 21.9556C11.5063 22.2283 11.7207 22.4823 11.9578 22.7142C12.4712 23.2275 13.088 23.6257 13.7672 23.8822C14.4463 24.1387 15.1724 24.2477 15.8969 24.2019C16.6215 24.1561 17.328 23.9566 17.9695 23.6166C18.611 23.2767 19.1728 22.8041 19.6175 22.2302C25.0368 21.3431 29 18.508 29 15.1493C28.9881 11.0794 23.1717 7.78003 15.9941 7.78003ZM18.5625 20.7543C18.0938 21.2219 17.4971 21.54 16.8477 21.6686C16.1983 21.7971 15.5254 21.7303 14.914 21.4766C14.3026 21.2229 13.78 20.7937 13.4124 20.2432C13.0448 19.6926 12.8486 19.0455 12.8486 18.3835C12.8486 17.7215 13.0448 17.0744 13.4124 16.5239C13.78 15.9734 14.3026 15.5441 14.914 15.2904C15.5254 15.0367 16.1983 14.9699 16.8477 15.0985C17.4971 15.227 18.0938 15.5452 18.5625 16.0127C18.8749 16.3231 19.1231 16.6921 19.2928 17.0986C19.4624 17.5051 19.5502 17.941 19.5511 18.3815C19.552 18.8219 19.4661 19.2582 19.2981 19.6654C19.1301 20.0726 18.8835 20.4426 18.5723 20.7543H18.5625ZM19.2026 15.4516C18.3446 14.5963 17.2125 14.0709 16.0054 13.9676C14.7983 13.8644 13.5935 14.1899 12.6027 14.887C11.6118 15.5842 10.8984 16.6082 10.5879 17.7792C10.2774 18.9503 10.3895 20.1933 10.9047 21.2898L10.7071 21.2463C10.6281 21.2265 10.5511 21.2028 10.472 21.1811C8.68009 20.6852 6.84073 19.8831 5.41231 18.6996C6.20258 16.4296 8.37584 13.9876 11.3986 12.2451C13.6568 10.949 15.759 10.8325 17.9184 12.6264C18.4712 13.1029 18.9337 13.6751 19.2836 14.3156C19.4855 14.6827 19.6344 15.0764 19.7261 15.4852C19.785 15.742 19.8298 16.0019 19.8605 16.2636C19.6699 15.9709 19.4494 15.6988 19.2026 15.4516ZM21.2889 20.136C25.3628 16.1609 24.9637 9.28945 17.8809 9.54629C15.4982 9.63322 13.0543 10.5025 11.0015 11.68C9.34612 12.6253 7.8609 13.8414 6.6076 15.2778C4.06687 12.9583 4.87097 11.5635 7.47888 10.2101C10.0315 8.88444 13.1432 8.33915 15.9941 8.33915C18.845 8.33915 21.9587 8.88444 24.5112 10.2101C26.1945 11.0853 28.0536 12.5553 28.3796 14.5566C28.4455 14.9556 28.4455 15.3628 28.3796 15.7618C27.8442 19.0078 24.1122 20.0411 21.2889 20.136Z" fill="white"/>
</g>
<defs>
<clipPath id="clip0_32002_862">
<rect width="32" height="32" fill="white"/>
</clipPath>
</defs>
</svg>
