<svg width="32" height="32" viewBox="0 0 32 32" fill="none" xmlns="http://www.w3.org/2000/svg">
<path d="M20.2 25H10.9314C10.3256 25 10.0226 25 9.88238 24.8802C9.76068 24.7763 9.69609 24.6203 9.70865 24.4608C9.72312 24.2769 9.93731 24.0627 10.3657 23.6343L18.8686 15.1314C19.2646 14.7354 19.4627 14.5373 19.691 14.4632C19.8918 14.3979 20.1082 14.3979 20.309 14.4632C20.5373 14.5373 20.7354 14.7354 21.1314 15.1314L25 19V20.2M20.2 25C21.8802 25 22.7202 25 23.362 24.673C23.9265 24.3854 24.3854 23.9265 24.673 23.362C25 22.7202 25 21.8802 25 20.2M20.2 25H11.8C10.1198 25 9.27976 25 8.63803 24.673C8.07354 24.3854 7.6146 23.9265 7.32698 23.362C7 22.7202 7 21.8802 7 20.2V11.8C7 10.1198 7 9.27976 7.32698 8.63803C7.6146 8.07354 8.07354 7.6146 8.63803 7.32698C9.27976 7 10.1198 7 11.8 7H20.2C21.8802 7 22.7202 7 23.362 7.32698C23.9265 7.6146 24.3854 8.07354 24.673 8.63803C25 9.27976 25 10.1198 25 11.8V20.2M14.5 12.5C14.5 13.6046 13.6046 14.5 12.5 14.5C11.3954 14.5 10.5 13.6046 10.5 12.5C10.5 11.3954 11.3954 10.5 12.5 10.5C13.6046 10.5 14.5 11.3954 14.5 12.5Z" stroke="black" stroke-width="1.5" stroke-linecap="round" stroke-linejoin="round"/>
</svg>
