<svg width="24" height="24" viewBox="0 0 24 24" fill="none" xmlns="http://www.w3.org/2000/svg">
<path fill-rule="evenodd" clip-rule="evenodd" d="M9.94358 3.25L13 3.25C13.4142 3.25 13.75 3.58579 13.75 4C13.75 4.41421 13.4142 4.75 13 4.75H10C8.09318 4.75 6.73851 4.75159 5.71085 4.88976C4.70476 5.02502 4.12511 5.27869 3.7019 5.7019C3.27869 6.12511 3.02502 6.70476 2.88976 7.71085C2.75159 8.73851 2.75 10.0932 2.75 12C2.75 13.9068 2.75159 15.2615 2.88976 16.2892C3.02502 17.2952 3.27869 17.8749 3.7019 18.2981C4.12511 18.7213 4.70476 18.975 5.71085 19.1102C6.73851 19.2484 8.09318 19.25 10 19.25H14C15.9068 19.25 17.2615 19.2484 18.2892 19.1102C19.2952 18.975 19.8749 18.7213 20.2981 18.2981C20.7213 17.8749 20.975 17.2952 21.1102 16.2892C21.2484 15.2615 21.25 13.9068 21.25 12C21.25 11.5858 21.5858 11.25 22 11.25C22.4142 11.25 22.75 11.5858 22.75 12V12.0564C22.75 13.8942 22.75 15.3498 22.5969 16.489C22.4392 17.6614 22.1071 18.6104 21.3588 19.3588C20.6104 20.1071 19.6614 20.4392 18.489 20.5969C17.3498 20.75 15.8942 20.75 14.0564 20.75H9.94359C8.10583 20.75 6.65019 20.75 5.51098 20.5969C4.33856 20.4392 3.38961 20.1071 2.64124 19.3588C1.89288 18.6104 1.56076 17.6614 1.40314 16.489C1.24997 15.3498 1.24998 13.8942 1.25 12.0564V11.9436C1.24998 10.1058 1.24997 8.65019 1.40314 7.51098C1.56076 6.33856 1.89288 5.38961 2.64124 4.64124C3.38961 3.89288 4.33856 3.56076 5.51098 3.40314C6.65019 3.24997 8.10582 3.24998 9.94358 3.25Z" fill="black"/>
<path fill-rule="evenodd" clip-rule="evenodd" d="M9.73482 13.3299L1.5699 7.61442L2.4301 6.38558L10.595 12.101C11.307 12.5994 11.5055 12.7237 11.6977 12.7716C11.8962 12.8211 12.1038 12.8211 12.3023 12.7716C12.4945 12.7237 12.693 12.5994 13.405 12.101L15.8561 10.3852C16.1954 10.1477 16.6631 10.2302 16.9006 10.5696C17.1382 10.9089 17.0556 11.3765 16.7163 11.6141L14.2652 13.3299C14.2312 13.3537 14.1977 13.3772 14.1646 13.4004C13.6031 13.7942 13.1628 14.103 12.6651 14.227C12.2284 14.3359 11.7716 14.3359 11.3349 14.227C10.8372 14.103 10.3969 13.7942 9.83545 13.4004C9.80234 13.3772 9.76881 13.3537 9.73482 13.3299Z" fill="black"/>
<path fill-rule="evenodd" clip-rule="evenodd" d="M20 9C22.2091 9 24 7.20914 24 5C24 2.79086 22.2091 1 20 1C17.7909 1 16 2.79086 16 5C16 7.20914 17.7909 9 20 9Z" fill="#E83C3C"/>
</svg>
