<svg width="24" height="24" viewBox="0 0 24 24" fill="none" xmlns="http://www.w3.org/2000/svg">
<path d="M18 5.87524H6C5.44772 5.87524 5 6.32296 5 6.87524C5 7.42753 5.44772 7.87524 6 7.87524H18C18.5523 7.87524 19 7.42753 19 6.87524C19 6.32296 18.5523 5.87524 18 5.87524Z" fill="black"/>
<path fill-rule="evenodd" clip-rule="evenodd" d="M16 8.75513H8H7C6.44771 8.75513 6 9.20284 6 9.75513V18.7551V19.7551C6 20.3074 6.44771 20.7551 7 20.7551H8H16H17C17.5523 20.7551 18 20.3074 18 19.7551V18.7551V9.75513C18 9.20284 17.5523 8.75513 17 8.75513H16ZM16 10.7551H8V18.7551H9V16.7551C9 16.2028 9.44771 15.7551 10 15.7551C10.5523 15.7551 11 16.2028 11 16.7551V18.7551H13V16.7551C13 16.2028 13.4477 15.7551 14 15.7551C14.5523 15.7551 15 16.2028 15 16.7551V18.7551H16V10.7551Z" fill="black"/>
<path d="M15 2.99512H9C8.44772 2.99512 8 3.44283 8 3.99512C8 4.5474 8.44772 4.99512 9 4.99512H15C15.5523 4.99512 16 4.5474 16 3.99512C16 3.44283 15.5523 2.99512 15 2.99512Z" fill="black"/>
</svg>
