<svg width="32" height="32" viewBox="0 0 32 32" fill="none" xmlns="http://www.w3.org/2000/svg">
<circle cx="16" cy="16" r="16" fill="black"/>
<path d="M22.6951 16.9182C22.5111 16.7765 22.3003 16.6736 22.0753 16.616C21.8504 16.5583 21.616 16.547 21.3866 16.5828C22.707 15.2497 23.375 13.9243 23.375 12.6249C23.375 10.7638 21.878 9.24994 20.038 9.24994C19.5497 9.24688 19.0667 9.35072 18.6229 9.55418C18.179 9.75764 17.7851 10.0558 17.4688 10.4277C17.1524 10.0558 16.7585 9.75764 16.3146 9.55418C15.8708 9.35072 15.3878 9.24688 14.8995 9.24994C13.0595 9.24994 11.5625 10.7638 11.5625 12.6249C11.5625 13.3984 11.7903 14.15 12.2698 14.9453C11.8771 15.0448 11.5187 15.2489 11.2327 15.5359L9.64227 17.1249H7.625C7.32663 17.1249 7.04048 17.2435 6.8295 17.4544C6.61853 17.6654 6.5 17.9516 6.5 18.2499V21.0624C6.5 21.3608 6.61853 21.647 6.8295 21.8579C7.04048 22.0689 7.32663 22.1874 7.625 22.1874H14.9375C14.9835 22.1875 15.0293 22.1818 15.0739 22.1706L19.5739 21.0456C19.6026 21.0387 19.6306 21.0293 19.6576 21.0174L22.3906 19.8545L22.4216 19.8404C22.6842 19.7092 22.9092 19.5132 23.0752 19.271C23.2412 19.0288 23.3428 18.7483 23.3704 18.456C23.3981 18.1636 23.3508 17.8691 23.2332 17.6001C23.1155 17.331 22.9313 17.0964 22.6979 16.9182H22.6951ZM14.8995 10.3749C15.3352 10.3686 15.7629 10.4923 16.1278 10.7303C16.4928 10.9682 16.7785 11.3097 16.9484 11.7109C16.9908 11.8141 17.0629 11.9023 17.1556 11.9644C17.2482 12.0265 17.3572 12.0597 17.4688 12.0597C17.5803 12.0597 17.6893 12.0265 17.7819 11.9644C17.8746 11.9023 17.9467 11.8141 17.9891 11.7109C18.159 11.3097 18.4447 10.9682 18.8097 10.7303C19.1746 10.4923 19.6023 10.3686 20.038 10.3749C21.2368 10.3749 22.25 11.405 22.25 12.6249C22.25 13.9967 21.1398 15.5485 19.0395 17.1179L18.2598 17.2972C18.3282 17.0081 18.3303 16.7072 18.2659 16.4171C18.2016 16.1271 18.0724 15.8553 17.8881 15.6223C17.7037 15.3893 17.469 15.201 17.2016 15.0716C16.9341 14.9421 16.6409 14.8749 16.3438 14.8749H13.5791C12.9723 14.0565 12.6875 13.3365 12.6875 12.6249C12.6875 11.405 13.7007 10.3749 14.8995 10.3749ZM7.625 18.2499H9.3125V21.0624H7.625V18.2499ZM21.9287 18.8272L19.2568 19.9649L14.8672 21.0624H10.4375V17.9202L12.0287 16.3297C12.1328 16.2248 12.2567 16.1416 12.3932 16.085C12.5297 16.0284 12.6761 15.9995 12.8239 15.9999H16.3438C16.5675 15.9999 16.7821 16.0888 16.9404 16.2471C17.0986 16.4053 17.1875 16.6199 17.1875 16.8437C17.1875 17.0675 17.0986 17.2821 16.9404 17.4403C16.7821 17.5985 16.5675 17.6874 16.3438 17.6874H14.375C14.2258 17.6874 14.0827 17.7467 13.9773 17.8522C13.8718 17.9577 13.8125 18.1008 13.8125 18.2499C13.8125 18.3991 13.8718 18.5422 13.9773 18.6477C14.0827 18.7532 14.2258 18.8124 14.375 18.8124H16.625C16.6673 18.8123 16.7095 18.8076 16.7509 18.7984L21.4618 17.7149L21.4836 17.7092C21.6274 17.6693 21.7809 17.684 21.9145 17.7504C22.0482 17.8169 22.1525 17.9304 22.2075 18.0691C22.2625 18.2079 22.2642 18.3621 22.2123 18.502C22.1605 18.642 22.0587 18.7578 21.9266 18.8272H21.9287Z" fill="white"/>
</svg>
