<svg width="68" height="28" viewBox="0 0 68 28" fill="none" xmlns="http://www.w3.org/2000/svg">
<path d="M26.3366 3.32412L17.9482 24.1759H12.4595L8.31715 7.53769C8.11003 6.56533 7.79935 6.13317 7.07444 5.701C5.83172 5.05276 3.76052 4.29648 2 3.97236L2.10356 3.32412H10.9061C12.0453 3.32412 13.0809 4.08041 13.288 5.48493L15.4628 17.5854L20.8479 3.43216H26.3366V3.32412ZM47.7735 17.3693C47.7735 11.8593 40.5243 11.5352 40.5243 9.1583C40.5243 8.40201 41.2492 7.64573 42.699 7.42965C43.4239 7.32161 45.4951 7.21357 47.7735 8.40201L48.7055 3.97236C47.4628 3.5402 45.9094 3 43.8382 3C38.7638 3 35.1392 5.80905 35.1392 9.91457C35.1392 12.9397 37.7282 14.5603 39.6958 15.5327C41.6634 16.505 42.3884 17.1533 42.3884 18.1256C42.3884 19.5301 40.835 20.1784 39.2816 20.1784C36.6926 20.1784 35.1392 19.4221 34 18.8819L33.068 23.4196C34.3107 23.9598 36.4854 24.5 38.7638 24.5C44.1489 24.5 47.6699 21.691 47.7735 17.3693ZM61.2363 24.1759H66L61.8576 3.32412H57.4045C56.3689 3.32412 55.5405 3.97237 55.2298 4.83669L47.4628 24.1759H52.8479L53.8835 21.0427H60.5113L61.2363 24.1759ZM55.4369 16.8291L58.1295 9.05025L59.6829 16.8291H55.4369ZM33.6893 3.32412L29.4434 24.1759H24.2654L28.5113 3.32412H33.6893Z" fill="white"/>
</svg>
