<svg width="24" height="24" viewBox="0 0 24 24" fill="none" xmlns="http://www.w3.org/2000/svg">
<path d="M4 6.75C4 6.33579 4.33579 6 4.75 6H19.25C19.6642 6 20 6.33579 20 6.75C20 7.16421 19.6642 7.5 19.25 7.5H4.75C4.33579 7.5 4 7.16421 4 6.75Z" fill="black"/>
<path fill-rule="evenodd" clip-rule="evenodd" d="M8.25 6C8.25 4.48122 9.48122 3.25 11 3.25H13C14.5188 3.25 15.75 4.48122 15.75 6H14.25C14.25 5.30964 13.6904 4.75 13 4.75H11C10.3096 4.75 9.75 5.30964 9.75 6H8.25Z" fill="black"/>
<path fill-rule="evenodd" clip-rule="evenodd" d="M5 6L5.86732 18.1425C5.94208 19.1891 6.81296 20 7.86224 20H16.1378C17.187 20 18.0579 19.1891 18.1327 18.1425L19 6H5ZM6.61096 7.5L7.36351 18.0356C7.3822 18.2973 7.59992 18.5 7.86224 18.5H16.1378C16.4001 18.5 16.6178 18.2973 16.6365 18.0356L17.389 7.5H6.61096Z" fill="black"/>
<path fill-rule="evenodd" clip-rule="evenodd" d="M9.89676 10.2519C10.3099 10.2224 10.6688 10.5334 10.6983 10.9466L10.984 14.9466C11.0135 15.3597 10.7025 15.7186 10.2893 15.7481C9.87618 15.7776 9.51733 15.4666 9.48782 15.0534L9.2021 11.0534C9.17259 10.6403 9.4836 10.2814 9.89676 10.2519Z" fill="black"/>
<path fill-rule="evenodd" clip-rule="evenodd" d="M14.1037 10.2519C13.6906 10.2224 13.3317 10.5334 13.3022 10.9466L13.0165 14.9466C12.987 15.3597 13.298 15.7186 13.7111 15.7481C14.1243 15.7776 14.4832 15.4666 14.5127 15.0534L14.7984 11.0534C14.8279 10.6403 14.5169 10.2814 14.1037 10.2519Z" fill="black"/>
</svg>
