<svg width="24" height="24" viewBox="0 0 24 24" fill="none" xmlns="http://www.w3.org/2000/svg">
<g clip-path="url(#clip0_2660_2314)">
<path d="M12.7002 2C13.1713 2 13.5934 1.99866 13.9424 2.03125C14.3077 2.06536 14.6853 2.14241 15.0479 2.35352C15.5733 2.65948 15.9768 3.13322 16.2227 3.68457C16.3858 4.05056 16.4461 4.42967 16.4736 4.81543C16.4972 5.14575 16.4988 5.54085 16.499 6H21V8H19V19.6562C19 20.9453 18.4667 22 17 22H7C5.53333 22 5 20.9453 5 19.6562V8H3V6H7.50098C7.50123 5.54085 7.50277 5.14575 7.52637 4.81543C7.55395 4.42967 7.61417 4.05056 7.77734 3.68457C8.02321 3.13322 8.42672 2.65948 8.95215 2.35352C9.31469 2.14241 9.69231 2.06536 10.0576 2.03125C10.4066 1.99866 10.8287 2 11.2998 2H12.7002ZM7 20.125H17V8H7V20.125ZM10 10C10.5523 10 11 10.4477 11 11V16C11 16.5523 10.5523 17 10 17C9.44772 17 9 16.5523 9 16V11C9 10.4477 9.44772 10 10 10ZM14 10C14.5523 10 15 10.4477 15 11V16C15 16.5523 14.5523 17 14 17C13.4477 17 13 16.5523 13 16V11C13 10.4477 13.4477 10 14 10ZM11.2998 4C10.791 4 10.4777 4.00056 10.2432 4.02246C10.0267 4.04271 9.97129 4.07487 9.95898 4.08203C9.82598 4.15948 9.69419 4.298 9.60449 4.49902C9.57693 4.56085 9.54159 4.67678 9.52148 4.95801C9.50331 5.21246 9.50139 5.53556 9.50098 6H14.499C14.4986 5.53556 14.4967 5.21246 14.4785 4.95801C14.4584 4.67678 14.4231 4.56085 14.3955 4.49902C14.3058 4.298 14.174 4.15948 14.041 4.08203C14.0287 4.07487 13.9733 4.04271 13.7568 4.02246C13.5223 4.00056 13.209 4 12.7002 4H11.2998Z" fill="black"/>
</g>
<defs>
<clipPath id="clip0_2660_2314">
<rect width="24" height="24" fill="white"/>
</clipPath>
</defs>
</svg>
