<svg width="24" height="24" viewBox="0 0 24 24" fill="none" xmlns="http://www.w3.org/2000/svg">
<g clip-path="url(#clip0_26483_3777)">
<path d="M13.5858 2C14.0573 2 14.5116 2.16649 14.8702 2.46691L15 2.58579L19.4142 7C19.7476 7.3334 19.9511 7.77238 19.9923 8.23836L20 8.41421V20C20 21.0544 19.1841 21.9182 18.1493 21.9945L18 22H6C4.94564 22 4.08183 21.1841 4.00549 20.1493L4 20V4C4 2.94564 4.81588 2.08183 5.85074 2.00549L6 2H13.5858ZM12 4H6V20H18V10H13.5C12.6716 10 12 9.32843 12 8.5V4ZM14 4.41421V8H17.5858L14 4.41421Z" fill="black"/>
<rect x="2" y="11" width="20" height="8" rx="1" fill="black"/>
<path d="M7.09961 12C7.65653 12 8.19116 12.1898 8.58496 12.5273C8.97855 12.8648 9.20013 13.3226 9.2002 13.7998C9.2002 14.277 8.97848 14.7347 8.58496 15.0723C8.19116 15.4098 7.65653 15.5996 7.09961 15.5996H6.40039V17.4004C6.40014 17.7315 6.0865 17.9999 5.7002 18C5.31377 18 5.00025 17.7316 5 17.4004V12.5996C5.00025 12.2684 5.31377 12 5.7002 12H7.09961ZM12 12C12.5568 12.0001 13.0907 12.1899 13.4844 12.5273C13.8781 12.8649 14.0995 13.3225 14.0996 13.7998V16.2002C14.0995 16.6775 13.8781 17.1351 13.4844 17.4727C13.0907 17.8101 12.5568 17.9999 12 18H10.5996C10.2132 18 9.89966 17.7316 9.89941 17.4004V12.5996C9.89966 12.2684 10.2132 12 10.5996 12H12ZM18.2998 12C18.6862 12.0001 18.9998 12.2685 19 12.5996C19 12.9309 18.6863 13.2001 18.2998 13.2002H16.2002V14.4004H17.5996C17.986 14.4004 18.2996 14.6688 18.2998 15C18.2998 15.3314 17.9862 15.6006 17.5996 15.6006H16.2002V17.4004C16.1999 17.7315 15.8864 17.9999 15.5 18C15.1136 18 14.8001 17.7316 14.7998 17.4004V12.5996C14.8001 12.2684 15.1136 12 15.5 12H18.2998ZM11.2998 16.7998H12C12.1854 16.7997 12.363 16.7364 12.4941 16.624C12.6254 16.5115 12.6992 16.3593 12.6992 16.2002V13.7998C12.6992 13.6407 12.6254 13.4885 12.4941 13.376C12.363 13.2636 12.1854 13.2003 12 13.2002H11.2998V16.7998ZM6.40039 14.4004H7.09961C7.28515 14.4004 7.46348 14.337 7.59473 14.2246C7.72599 14.1121 7.7998 13.9589 7.7998 13.7998C7.79974 13.6408 7.72588 13.4884 7.59473 13.376C7.46346 13.2635 7.28525 13.2002 7.09961 13.2002H6.40039V14.4004Z" fill="#EEEEEE"/>
</g>
<defs>
<clipPath id="clip0_26483_3777">
<rect width="24" height="24" fill="white"/>
</clipPath>
</defs>
</svg>
