<svg width="140" height="140" viewBox="0 0 140 140" fill="none" xmlns="http://www.w3.org/2000/svg">
<g clip-path="url(#clip0_19466_13370)">
<rect width="140" height="140" fill="url(#paint0_linear_19466_13370)"/>
<path d="M116.845 120.647C115.566 116.109 113.148 111.974 109.821 108.634C106.494 105.293 102.368 102.859 97.8357 101.563L80.8276 96.7104H59.3924L42.3843 101.563C37.8517 102.859 33.7259 105.293 30.3988 108.634C27.0718 111.974 24.654 116.109 23.3752 120.647L18.698 140.451C32.5376 153.695 50.9544 149.087 70.11 149.087C89.2657 149.087 107.682 153.695 121.522 140.451L116.845 120.647Z" fill="#6993AF"/>
<path d="M80.1274 83.0288H60.1179L56.9289 99.5617C56.9289 99.5617 62.5816 105.49 70.1102 105.815C77.6138 105.502 83.279 99.5617 83.279 99.5617L80.1274 83.0288Z" fill="#C3DCEC"/>
<path d="M92.4832 59.8427C92.4832 73.3867 82.4785 91.5328 70.1101 91.5328C57.7417 91.5328 47.6994 73.3867 47.6994 59.8427C47.6994 46.2988 57.7041 35.306 70.1101 35.306C82.516 35.306 92.4832 46.2613 92.4832 59.8427Z" fill="#DAE9F3"/>
<path d="M50.5383 61.7312C50.4258 64.3825 48.85 67.8716 47.0867 67.7966C45.3233 67.7216 44.0352 64.1199 44.1353 61.4686C44.2353 58.8173 45.761 56.7413 47.5244 56.8039C49.2877 56.8664 50.6384 59.08 50.5383 61.7312Z" fill="#DAE9F3"/>
<path d="M95.6722 61.4935C95.7597 64.1448 94.4216 67.7465 92.6832 67.7465C90.9449 67.7465 89.3566 64.3074 89.2691 61.6561C89.1816 59.0048 90.5197 56.8163 92.3081 56.7538C94.0964 56.6912 95.5846 58.8423 95.6722 61.4935Z" fill="#DAE9F3"/>
<path d="M52.8015 36.2566C48.9747 45.0108 64.5946 44.5355 69.0593 44.0103C70.152 43.7787 71.2708 43.6946 72.3859 43.7602C73.6365 43.9728 74.762 44.5981 76.0251 44.7857C78.768 45.214 81.573 44.9956 84.2165 44.1479C84.7952 43.8748 85.4546 43.8258 86.0674 44.0103C86.3932 44.216 86.6671 44.4942 86.8678 44.8232C87.9677 46.2751 88.8135 47.9032 89.369 49.638C89.826 52.16 89.8893 54.7377 89.5565 57.2791C89.469 58.8674 89.3564 64.4951 91.4074 64.8702C91.7326 62.2065 92.0327 59.5302 92.3454 56.8539C92.3454 56.8539 94.5714 48.8126 93.7836 44.5981C92.4829 37.9574 87.7557 29.8035 68.7216 30.0036C55.4903 30.1537 52.814 36.2566 52.8015 36.2566Z" fill="#6993AF"/>
<path d="M58.267 40.8838C58.2249 41.1133 58.1111 41.3235 57.9418 41.484C57.4262 41.8668 56.8395 42.1431 56.216 42.2969C54.2901 43.0348 53.102 44.9357 52.064 46.7115C51.301 47.8029 50.8042 49.0579 50.6133 50.3758C50.5008 52.1766 51.5012 53.7649 51.7514 55.5157C51.8551 56.8563 51.6718 58.2035 51.2136 59.4676C51.0385 60.0804 49.7004 65.3579 48.6124 64.8202L47.6744 56.8038C47.6744 56.8038 45.4609 48.7625 46.2112 44.548C46.9616 40.3335 48.9875 35.5187 54.0524 36.8943C55.128 37.182 58.5546 39.308 58.267 40.8838Z" fill="#6993AF"/>
</g>
<defs>
<linearGradient id="paint0_linear_19466_13370" x1="70" y1="1.78814e-06" x2="100" y2="122.5" gradientUnits="userSpaceOnUse">
<stop stop-color="white"/>
<stop offset="1" stop-color="white" stop-opacity="0.7"/>
</linearGradient>
<clipPath id="clip0_19466_13370">
<rect width="140" height="140" fill="white"/>
</clipPath>
</defs>
</svg>
