<svg width="32" height="33" viewBox="0 0 32 33" fill="none" xmlns="http://www.w3.org/2000/svg">
<rect y="0.159988" width="32" height="32" rx="16" fill="black"/>
<path d="M14.8445 8.66C14.7183 8.65992 14.5467 8.65981 14.3924 8.67243C14.2086 8.68744 13.9219 8.72753 13.6169 8.88295C13.232 9.07906 12.9191 9.39197 12.723 9.77685C12.5675 10.0819 12.5274 10.3686 12.5124 10.5523C12.4998 10.7067 12.4999 10.8783 12.5 11.0045L12.5 12.66L10.8445 12.66C10.7183 12.6599 10.5467 12.6598 10.3924 12.6724C10.2086 12.6874 9.9219 12.7275 9.61686 12.883C9.23199 13.0791 8.91907 13.392 8.72297 13.7769C8.56754 14.0819 8.52745 14.3686 8.51244 14.5523C8.49983 14.7067 8.49993 14.8783 8.50001 15.0045L8.50002 17.41C8.50002 17.8242 8.83581 18.16 9.25002 18.16C9.66424 18.16 10 17.8242 10 17.41V15.0327C10 14.7273 10 14.5745 10.0595 14.4578C10.1118 14.3552 10.1952 14.2718 10.2978 14.2195C10.4145 14.16 10.5673 14.16 10.8728 14.16H13.1273C13.4328 14.16 13.5855 14.16 13.7022 14.1006C13.8048 14.0483 13.8883 13.9648 13.9406 13.8622C14 13.7455 14 13.5928 14 13.2873V11.0327C14 10.7273 14 10.5745 14.0595 10.4578C14.1118 10.3552 14.1952 10.2718 14.2978 10.2195C14.4145 10.16 14.5673 10.16 14.8728 10.16H17.1273C17.4328 10.16 17.5855 10.16 17.7022 10.2195C17.8048 10.2718 17.8883 10.3552 17.9406 10.4578C18 10.5745 18 10.7273 18 11.0327V13.2873C18 13.5928 18 13.7455 18.0595 13.8622C18.1118 13.9648 18.1952 14.0483 18.2978 14.1006C18.4145 14.16 18.5673 14.16 18.8728 14.16H21.1273C21.4328 14.16 21.5855 14.16 21.7022 14.2195C21.8048 14.2718 21.8883 14.3552 21.9406 14.4578C22 14.5745 22 14.7273 22 15.0327V17.41C22 17.8242 22.3358 18.16 22.75 18.16C23.1642 18.16 23.5 17.8242 23.5 17.41L23.5 15.0045C23.5001 14.8783 23.5002 14.7067 23.4876 14.5523C23.4726 14.3686 23.4325 14.0819 23.2771 13.7769C23.081 13.392 22.7681 13.0791 22.3832 12.883C22.0781 12.7275 21.7914 12.6874 21.6077 12.6724C21.4533 12.6598 21.2817 12.6599 21.1555 12.66L19.5 12.66L19.5 11.0045C19.5001 10.8783 19.5002 10.7067 19.4876 10.5523C19.4726 10.3686 19.4325 10.0819 19.2771 9.77685C19.081 9.39197 18.7681 9.07906 18.3832 8.88295C18.0781 8.72753 17.7914 8.68744 17.6077 8.67243C17.4533 8.65981 17.2817 8.65992 17.1555 8.66H14.8445Z" fill="white"/>
<path fill-rule="evenodd" clip-rule="evenodd" d="M16 16.91C15.0835 16.91 14.35 17.646 14.35 18.5423C14.35 19.4387 15.0835 20.1747 16 20.1747C16.9165 20.1747 17.65 19.4387 17.65 18.5423C17.65 17.646 16.9165 16.91 16 16.91ZM12.85 18.5423C12.85 16.8072 14.2656 15.41 16 15.41C17.7345 15.41 19.15 16.8072 19.15 18.5423C19.15 19.4197 18.7881 20.2107 18.2061 20.7783C19.1213 21.1967 19.9306 21.8638 20.5881 22.6945C20.8452 23.0193 20.7903 23.491 20.4655 23.7481C20.1407 24.0051 19.669 23.9502 19.412 23.6255C18.4837 22.4527 17.2757 21.7923 16 21.7923C14.7243 21.7923 13.5164 22.4527 12.5881 23.6255C12.331 23.9502 11.8593 24.0051 11.5346 23.7481C11.2098 23.491 11.1549 23.0193 11.412 22.6945C12.0694 21.8638 12.8788 21.1967 13.794 20.7783C13.2119 20.2107 12.85 19.4197 12.85 18.5423Z" fill="white"/>
</svg>
