<svg width="32" height="33" viewBox="0 0 32 33" fill="none" xmlns="http://www.w3.org/2000/svg">
<circle cx="16" cy="16.4" r="16" fill="black"/>
<g clip-path="url(#clip0_13866_8056)">
<path d="M19 14.6667L13 11.2067" stroke="white" stroke-width="1.5" stroke-linecap="round" stroke-linejoin="round"/>
<path d="M22 19.0667V13.7334C21.9998 13.4996 21.938 13.2699 21.821 13.0675C21.704 12.8651 21.5358 12.6969 21.3333 12.58L16.6667 9.91337C16.464 9.79635 16.234 9.73474 16 9.73474C15.766 9.73474 15.536 9.79635 15.3333 9.91337L10.6667 12.58C10.4642 12.6969 10.296 12.8651 10.179 13.0675C10.062 13.2699 10.0002 13.4996 10 13.7334V19.0667C10.0002 19.3005 10.062 19.5302 10.179 19.7326C10.296 19.935 10.4642 20.1031 10.6667 20.22L15.3333 22.8867C15.536 23.0037 15.766 23.0653 16 23.0653C16.234 23.0653 16.464 23.0037 16.6667 22.8867L21.3333 20.22C21.5358 20.1031 21.704 19.935 21.821 19.7326C21.938 19.5302 21.9998 19.3005 22 19.0667Z" stroke="white" stroke-width="1.5" stroke-linecap="round" stroke-linejoin="round"/>
<path d="M10.1799 13.04L15.9999 16.4067L21.8199 13.04" stroke="white" stroke-width="1.5" stroke-linecap="round" stroke-linejoin="round"/>
<path d="M16 23.12V16.4" stroke="white" stroke-width="1.5" stroke-linecap="round" stroke-linejoin="round"/>
</g>
<defs>
<clipPath id="clip0_13866_8056">
<rect width="16" height="16" fill="white" transform="translate(8 8.40002)"/>
</clipPath>
</defs>
</svg>
