<svg width="32" height="32" viewBox="0 0 32 32" fill="none" xmlns="http://www.w3.org/2000/svg">
<path fill-rule="evenodd" clip-rule="evenodd" d="M16 32C7.04054 32 4.62882 31.5462 2.54134 29.4587C0.440812 27.3582 0 24.9595 0 16C0 7.04054 0.453809 4.64182 2.54134 2.54134C4.62882 0.453809 7.04054 0 16 0C24.9595 0 27.3712 0.453809 29.4587 2.54134C31.5591 4.64182 32 7.04054 32 16C32 24.9595 31.5591 27.3582 29.4587 29.4587C27.3712 31.5462 24.9595 32 16 32Z" fill="#2722FF"/>
<path fill-rule="evenodd" clip-rule="evenodd" d="M6.82112 14.9636C6.26734 14.5326 5.76893 14.3979 5.18745 14.3979C4.46753 14.3979 4.27371 14.6134 4.3014 14.9366C4.3014 15.3239 4.734 15.4637 5.35525 15.6645C5.38204 15.6731 5.40918 15.6819 5.43666 15.6908C6.90419 16.1487 7.29184 16.6066 7.29184 17.1722C7.29184 18.0341 6.65499 18.7075 5.35359 18.7075C4.24602 18.7075 3.41534 18.1688 3 17.5224L3.69223 16.9837C4.0245 17.5224 4.66136 17.8995 5.40897 17.8995C5.96275 17.8995 6.37809 17.657 6.37809 17.253C6.37809 17.0106 6.12889 16.7413 5.21514 16.4719C4.07988 16.1218 3.35996 15.7447 3.35996 14.9366C3.35996 14.1286 4.0245 13.5899 5.21514 13.5899C5.65817 13.5899 6.1012 13.7246 6.46116 13.9131L6.6273 13.4013L7.34722 13.6438L6.84881 14.8828L6.82112 14.9636ZM21.2192 14.3979C21.8007 14.3979 22.2991 14.5326 22.8529 14.9636L22.8806 14.8828L23.3513 13.6438L22.6313 13.4013L22.4929 13.9131C22.1329 13.7246 21.6899 13.5899 21.2469 13.5899C20.0562 13.5899 19.3917 14.1286 19.3917 14.9366C19.3917 15.7447 20.1116 16.1218 21.2469 16.4719C22.1606 16.7413 22.4098 17.0106 22.4098 17.253C22.4098 17.657 21.9945 17.8995 21.4407 17.8995C20.6931 17.8995 20.0562 17.5224 19.724 16.9837L19.0317 17.5224C19.4471 18.1688 20.2778 18.7075 21.3853 18.7075C22.6867 18.7075 23.3236 18.0341 23.3236 17.1722C23.3236 16.6066 22.9359 16.1487 21.4684 15.6908L21.387 15.6645C20.7657 15.4637 20.3331 15.3239 20.3331 14.9366C20.2778 14.6134 20.4993 14.3979 21.2192 14.3979ZM26.5913 18.6806C27.7265 18.6806 28.6126 18.1149 29.0002 17.253L28.2526 16.7951C28.0034 17.4146 27.422 17.8456 26.5913 17.8456C25.6498 17.8456 24.9576 17.2261 24.8745 16.3372H28.5295C28.9449 14.775 28.0311 13.5899 26.4251 13.5899C25.0684 13.5899 23.9331 14.7481 23.9331 16.1487C23.9608 17.5762 25.0961 18.6806 26.5913 18.6806ZM26.4528 14.3979C27.2835 14.3979 27.7819 14.8827 27.7819 15.5831H24.9299C25.0961 14.8289 25.6498 14.3979 26.4528 14.3979ZM14.5745 14.2635C14.9622 13.8595 15.516 13.5632 16.1805 13.5632C17.5096 13.5632 18.3403 14.2904 18.3403 15.5564V18.5192H17.4542V15.6372C17.4542 14.9369 16.9558 14.4251 16.1528 14.4251C15.156 14.4251 14.5745 15.1793 14.5745 16.0143V18.5462H13.6885V13.7248H14.5745V14.2635ZM10.5874 17.8189C9.64594 17.8189 8.9537 17.1994 8.87064 16.3106H12.5256C12.941 14.7483 12.0272 13.5632 10.4212 13.5632C9.06446 13.5632 7.9292 14.7214 7.9292 16.122C7.9292 17.5765 9.06446 18.6808 10.5597 18.6808C11.6949 18.6808 12.581 18.1152 12.9686 17.2533L12.1933 16.7954C11.9995 17.4149 11.418 17.8189 10.5874 17.8189ZM10.4212 14.3982C11.2519 14.3982 11.7503 14.883 11.7503 15.5833H8.92601C9.09215 14.8291 9.64594 14.3982 10.4212 14.3982Z" fill="white"/>
</svg>
