<svg width="32" height="32" viewBox="0 0 32 32" fill="none" xmlns="http://www.w3.org/2000/svg">
<circle cx="16" cy="16" r="16" fill="black"/>
<path d="M16.0001 9.33331V12.6666M16.0001 9.33331C15.5246 9.33331 15.0608 9.3831 14.6134 9.47773M16.0001 9.33331C16.4757 9.33331 16.9395 9.3831 17.3869 9.47773M16.0001 12.6666C14.1592 12.6666 12.6668 14.159 12.6668 16M16.0001 12.6666C17.8411 12.6666 19.3335 14.159 19.3335 16M16.0001 19.3333V22.6666M16.0001 19.3333C17.8411 19.3333 19.3335 17.8409 19.3335 16M16.0001 19.3333C14.1592 19.3333 12.6668 17.8409 12.6668 16M16.0001 22.6666C16.4749 22.6666 16.9381 22.617 17.3849 22.5226M16.0001 22.6666C15.5236 22.6666 15.0587 22.6166 14.6105 22.5216M11.2861 11.2859L13.6431 13.643M18.3572 18.357L20.7142 20.714M9.3335 16H12.6668M9.3335 16C9.3335 16.4755 9.38327 16.9394 9.47792 17.3868M9.3335 16C9.3335 15.5238 9.38342 15.0592 9.47834 14.6112M19.3335 16H22.6668M22.6668 16C22.6668 15.5245 22.617 15.0605 22.5224 14.6132M22.6668 16C22.6668 16.4754 22.6171 16.9391 22.5225 17.3863M11.2861 20.714L13.6431 18.357M18.3572 13.643L20.7142 11.2859M19.6313 10.408C20.4141 10.9174 21.0834 11.5868 21.5927 12.3698M21.5908 19.633C21.0815 20.4153 20.4124 21.084 19.6298 21.5929M12.3693 21.5921C11.5875 21.0835 10.919 20.4153 10.41 19.6338M10.408 12.3692C10.9171 11.5866 11.5861 10.9175 12.3687 10.4083" stroke="white" stroke-width="1.5" stroke-linecap="round" stroke-linejoin="round"/>
</svg>
