<svg width="45" height="24" viewBox="0 0 45 24" fill="none" xmlns="http://www.w3.org/2000/svg">
<rect x="20" y="2" width="20" height="20" rx="10" fill="#FFD600"/>
<path d="M33.2439 10.867C33.1975 10.7933 33.117 10.7494 33.0292 10.7494H30.2524V6.9985C30.2514 6.86045 30.1379 6.74898 29.9985 6.75001C29.9046 6.75103 29.8179 6.80318 29.7755 6.88601L26.7459 12.8876C26.6829 13.0114 26.7335 13.1617 26.8574 13.223C26.8924 13.2404 26.9306 13.2496 26.9699 13.2496H29.7466V17.0005C29.7466 17.1161 29.8272 17.2163 29.9407 17.2429C29.9593 17.248 29.9789 17.25 29.9985 17.25C30.0935 17.25 30.1802 17.1968 30.2235 17.112L33.2532 11.1104C33.2935 11.0347 33.2904 10.9416 33.2439 10.867Z" fill="black"/>
<rect x="2.34375" y="1.34375" width="21.3125" height="21.3125" rx="10.6563" fill="#2664F1"/>
<rect x="2.34375" y="1.34375" width="21.3125" height="21.3125" rx="10.6563" stroke="black" stroke-width="1.3125"/>
<g clip-path="url(#clip0_16255_937)">
<path d="M12.6565 16.7324C12.7654 16.796 12.8199 16.8278 12.8968 16.8443C12.9565 16.8571 13.0435 16.8571 13.1032 16.8443C13.1801 16.8278 13.2346 16.796 13.3435 16.7324C14.3024 16.1731 16.9375 14.416 16.9375 12.0001V9.64627C16.9375 9.25276 16.9375 9.056 16.8732 8.88687C16.8163 8.73746 16.7239 8.60415 16.604 8.49845C16.4682 8.3788 16.284 8.30972 15.9155 8.17155L13.2765 7.18192C13.1742 7.14355 13.123 7.12436 13.0704 7.11675C13.0237 7.11001 12.9763 7.11001 12.9296 7.11675C12.877 7.12436 12.8258 7.14355 12.7235 7.18192L10.0845 8.17155C9.71603 8.30972 9.5318 8.3788 9.39604 8.49845C9.2761 8.60415 9.18371 8.73746 9.12686 8.88687C9.0625 9.056 9.0625 9.25276 9.0625 9.64627V12.0001C9.0625 14.416 11.6977 16.1731 12.6565 16.7324Z" fill="white" stroke="white" stroke-width="0.984376" stroke-linecap="round" stroke-linejoin="round"/>
</g>
<defs>
<clipPath id="clip0_16255_937">
<rect width="10.5" height="11.8125" fill="white" transform="translate(7.75 6.09375)"/>
</clipPath>
</defs>
</svg>
