<svg width="32" height="33" viewBox="0 0 32 33" fill="none" xmlns="http://www.w3.org/2000/svg">
<circle cx="16" cy="16.4" r="16" fill="black"/>
<path d="M18.6667 11.0667C19.2867 11.0667 19.5967 11.0667 19.8511 11.1348C20.5412 11.3198 21.0803 11.8589 21.2653 12.5491C21.3334 12.8034 21.3334 13.1134 21.3334 13.7334V19.8667C21.3334 20.9868 21.3334 21.5469 21.1154 21.9747C20.9237 22.351 20.6177 22.657 20.2414 22.8487C19.8136 23.0667 19.2535 23.0667 18.1334 23.0667H13.8667C12.7466 23.0667 12.1866 23.0667 11.7588 22.8487C11.3824 22.657 11.0765 22.351 10.8847 21.9747C10.6667 21.5469 10.6667 20.9868 10.6667 19.8667V13.7334C10.6667 13.1134 10.6667 12.8034 10.7349 12.5491C10.9198 11.8589 11.4589 11.3198 12.1491 11.1348C12.4034 11.0667 12.7134 11.0667 13.3334 11.0667M15.3333 20.0667H13.3333M17.6666 17.4H13.3333M14.4001 12.4H17.6001C17.9734 12.4 18.1601 12.4 18.3027 12.3274C18.4282 12.2634 18.5302 12.1615 18.5941 12.036C18.6667 11.8934 18.6667 11.7067 18.6667 11.3334V10.8C18.6667 10.4267 18.6667 10.24 18.5941 10.0974C18.5302 9.97193 18.4282 9.86994 18.3027 9.80602C18.1601 9.73336 17.9734 9.73336 17.6001 9.73336H14.4001C14.0267 9.73336 13.84 9.73336 13.6974 9.80602C13.572 9.86994 13.47 9.97193 13.4061 10.0974C13.3334 10.24 13.3334 10.4267 13.3334 10.8V11.3334C13.3334 11.7067 13.3334 11.8934 13.4061 12.036C13.47 12.1615 13.572 12.2634 13.6974 12.3274C13.84 12.4 14.0267 12.4 14.4001 12.4Z" stroke="white" stroke-width="1.5" stroke-linecap="round" stroke-linejoin="round"/>
</svg>
