<svg width="57" height="56" viewBox="0 0 57 56" fill="none" xmlns="http://www.w3.org/2000/svg">
<path d="M28.5 56C40.7697 56 47.5905 56 52.0452 51.5452C56.5 47.0905 56.5 40.2737 56.5 28C56.5 15.7263 56.5 8.90955 52.0452 4.45478C47.5905 0 40.7697 0 28.5 0C16.2303 0 9.40955 0 4.95478 4.45478C0.5 8.90955 0.5 15.7303 0.5 28C0.5 40.2697 0.5 47.0905 4.95478 51.5452C9.40955 56 16.2303 56 28.5 56Z" fill="black"/>
<g clip-path="url(#clip0_2353_2845)">
<path d="M25.5004 32.2L21.3004 28L19.9004 29.4L25.5004 35L37.5004 23L36.1004 21.6L25.5004 32.2Z" fill="white"/>
</g>
<defs>
<clipPath id="clip0_2353_2845">
<rect width="24" height="24" fill="white" transform="translate(16.5 16)"/>
</clipPath>
</defs>
</svg>
