<svg width="32" height="32" viewBox="0 0 32 32" fill="none" xmlns="http://www.w3.org/2000/svg">
<g clip-path="url(#clip0_30620_12197)">
<path fill-rule="evenodd" clip-rule="evenodd" d="M16 32C7.04054 32 4.62882 31.5462 2.54134 29.4587C0.440812 27.3582 0 24.9595 0 16C0 7.04054 0.453809 4.64182 2.54134 2.54134C4.62882 0.453809 7.04054 0 16 0C24.9595 0 27.3712 0.453809 29.4587 2.54134C31.5591 4.64182 32 7.04054 32 16C32 24.9595 31.5591 27.3582 29.4587 29.4587C27.3712 31.5462 24.9595 32 16 32Z" fill="#007A62"/>
<path d="M24.9513 8.41689C22.9767 9.57803 22.3717 9.67585 20.224 10.9612C21.4747 9.60436 21.9096 9.02644 22.6832 7.89089C20.7033 7.99624 17.8265 8.23403 15.7721 8.68931C17.5601 7.73436 21.1052 6.67256 22.9767 6.41972C22.5425 5.82071 19.0305 3.91836 18.1568 3.55188C20.9374 3.76785 24.3357 4.80707 25.9837 5.81469C26.6316 5.61227 27.3059 5.60248 28.5122 5.49487C28.2052 6.02239 28.1916 6.32791 27.0079 7.11278C27.336 7.98947 26.5526 12.8123 25.9055 14.0894C25.8821 12.0719 25.7061 9.52385 24.9513 8.41689ZM10.4909 25.7188C9.35614 25.2981 8.53891 24.8082 7.6389 23.9669C7.9083 23.2234 8.21608 22.6425 8.71725 21.8975C7.91547 22.0117 7.11614 22.1424 6.31974 22.2895C5.67257 21.1578 5.37909 20.0643 5.04949 18.5435C4.8734 20.1554 4.80643 21.3067 5.03369 22.5898C4.30375 22.793 3.78752 22.9698 3.18701 23.24C4.02832 23.7547 4.70709 24.1513 5.64699 24.5892C6.15117 25.6729 6.67342 26.4035 7.52075 27.2381C7.32209 26.527 7.26941 25.9618 7.35068 25.2161C8.40044 25.5216 9.29895 25.6826 10.4909 25.7188ZM13.4453 9.67887C13.0916 10.1379 12.6815 10.9928 12.5709 11.3901C15.4959 11.7874 17.843 13.2894 17.843 13.2894C15.2845 12.8357 13.9375 12.8921 12.9833 12.9779C12.0351 13.0667 11.8394 13.1781 11.8394 13.1781C11.1501 14.6906 10.7363 17.2868 10.7363 17.2868C10.2712 16.1648 9.59845 13.9178 9.59845 13.9178C8.30788 14.6071 5.33921 17.3997 5.33921 17.3997C6.97142 14.1315 8.6277 12.6438 8.6277 12.6438C8.05805 12.0666 6.56355 11.7784 5.47015 11.7302C6.03754 11.4985 7.49366 11.2275 8.6119 11.1764C9.73164 11.144 10.4089 11.208 10.4089 11.208C11.4075 10.4193 12.9223 9.75562 13.4453 9.67812V9.67887ZM16.5479 23.6922C16.0691 24.3479 15.5574 24.9791 15.0151 25.5833C14.1287 25.8426 13.2091 25.9702 12.2857 25.9618C12.8458 26.248 13.443 26.4549 14.0601 26.5766C13.5236 27.0708 12.9444 27.5165 12.3293 27.9086C13.3294 27.6715 14.6441 27.2471 15.6231 26.6684C16.1348 26.688 16.6126 26.6549 16.9626 26.5857C16.8715 26.2892 16.8158 26.0679 16.7413 25.6826C17.6632 24.9685 18.3322 24.3221 19.0997 23.5455C18.3227 24.0989 17.4973 24.5812 16.6337 24.9866C16.5939 24.5559 16.5653 24.1243 16.5479 23.6922Z" fill="#F2F2F6"/>
</g>
<defs>
<clipPath id="clip0_30620_12197">
<rect width="32" height="32" fill="white"/>
</clipPath>
</defs>
</svg>
