<svg width="32" height="32" viewBox="0 0 32 32" fill="none" xmlns="http://www.w3.org/2000/svg">
<g clip-path="url(#clip0_30620_12185)">
<path fill-rule="evenodd" clip-rule="evenodd" d="M16 32C7.04054 32 4.62882 31.5462 2.54134 29.4587C0.440812 27.3582 0 24.9595 0 16C0 7.04054 0.453809 4.64182 2.54134 2.54134C4.62882 0.453809 7.04054 0 16 0C24.9595 0 27.3712 0.453809 29.4587 2.54134C31.5591 4.64182 32 7.04054 32 16C32 24.9595 31.5591 27.3582 29.4587 29.4587C27.3712 31.5462 24.9595 32 16 32Z" fill="#131C23"/>
<path d="M30 16.4947H2V23.4893H30V16.4947Z" fill="#E8E100"/>
<path d="M30 9.49963H2V16.4942H30V9.49963Z" fill="#004542"/>
<path fill-rule="evenodd" clip-rule="evenodd" d="M23.6839 18.9782C23.6839 18.9077 23.6356 18.8445 23.5764 18.8445C23.5167 18.8445 23.4683 18.9077 23.4689 18.9782C23.4689 19.0488 23.5172 19.1119 23.5764 19.1119C23.6356 19.1119 23.6839 19.0488 23.6839 18.9782ZM23.8393 20.4819V19.245H23.598V20.4819H23.8393ZM23.9621 18.9782C23.9621 18.9077 23.9138 18.8445 23.8546 18.8445C23.7949 18.8445 23.7465 18.9077 23.7471 18.9782C23.7471 19.0488 23.7954 19.1119 23.8546 19.1119C23.9138 19.1119 23.9621 19.0488 23.9621 18.9782ZM7.93085 20.0681V19.2449H7.68962V20.4818H7.8603L8.53905 19.6545V20.4818H8.78028V19.2449H8.6096L7.93085 20.0681ZM8.23523 18.9576C8.21077 18.9576 8.10665 18.9536 8.06796 18.85L7.90126 18.9166C7.94962 19.0429 8.06455 19.1243 8.23523 19.1243C8.40535 19.1243 8.52027 19.0423 8.56863 18.9166L8.40193 18.85C8.36324 18.9536 8.25913 18.9576 8.23523 18.9576ZM5.64538 19.2448H5.81948L6.14776 20.0311L6.49083 19.2448H6.66493L6.87259 20.4817H6.62795L6.51643 19.7193L6.18474 20.4817H6.10338L5.78648 19.7193L5.66017 20.4817H5.41553L5.64538 19.2448ZM7.37076 19.2448V20.4817H7.12952V19.2448H7.37076ZM9.56825 19.2448H10.284V19.4525H9.80891V19.7364H9.97618C10.0689 19.7364 10.1895 19.7512 10.2857 19.8365C10.3562 19.8997 10.4023 19.9941 10.4023 20.1108C10.4023 20.1944 10.3761 20.2701 10.3335 20.3315C10.239 20.4652 10.0848 20.4817 9.97732 20.4817H9.56768V19.2448H9.56825ZM9.80891 20.2741H9.92384C10.1167 20.2741 10.1537 20.183 10.1537 20.1125C10.1537 20.0345 10.111 19.9435 9.92725 19.9435H9.80891V20.2741ZM10.8574 20.2223H11.3563L11.4656 20.4817H11.725L11.2078 19.2448H11.019L10.4864 20.4817H10.7481L10.8574 20.2223ZM11.11 19.5805L11.2858 20.0254H10.9336L11.11 19.5805ZM12.1482 19.7233H12.671V19.2448H12.9123V20.4817H12.671V19.931H12.1482V20.4817H11.9069V19.2448H12.1482V19.7233ZM13.9262 19.2448L13.4716 19.7677V19.2448H13.2304V20.4817H13.4716V19.9549L13.4995 19.927L13.9393 20.4817H14.2585L13.7077 19.8161L14.2306 19.2448H13.9262ZM14.5397 20.2169C14.6211 20.2169 14.6842 20.28 14.6842 20.3614C14.6842 20.4428 14.6211 20.5059 14.5397 20.5059C14.4578 20.5059 14.3952 20.4428 14.3952 20.3614C14.3952 20.28 14.4584 20.2169 14.5397 20.2169ZM15.7618 19.2448H15.5877L15.3573 20.4817H15.6019L15.7282 19.7193L16.0451 20.4817H16.1265L16.4587 19.7193L16.5702 20.4817H16.8149L16.6072 19.2448H16.4331L16.0901 20.0311L15.7618 19.2448ZM18.3317 19.8649C18.3317 20.2416 18.0609 20.5101 17.6717 20.5101C17.2826 20.5101 17.0117 20.241 17.0117 19.8649C17.0117 19.4883 17.2826 19.2175 17.6717 19.2175C18.0609 19.2175 18.3317 19.4883 18.3317 19.8649ZM18.0831 19.8649C18.0831 19.6146 17.9124 19.4365 17.6712 19.4365C17.4299 19.4365 17.2592 19.6146 17.2592 19.8649C17.2592 20.1153 17.4299 20.2916 17.6712 20.2916C17.9124 20.2911 18.0831 20.1153 18.0831 19.8649ZM19.1218 20.4817H19.3631V19.2448H19.0052C18.9017 19.2448 18.7845 19.2539 18.6883 19.3392C18.6234 19.3967 18.566 19.4911 18.566 19.6266C18.566 19.7694 18.6308 19.8712 18.7048 19.9253C18.7441 19.9531 18.7941 19.9736 18.8402 19.981L18.4732 20.4817H18.7623L19.0775 20.0032H19.1218V20.4817ZM18.814 19.6271C18.814 19.4434 19.0035 19.4416 19.0479 19.4416H19.1218V19.8143H19.0513C19.0035 19.8143 18.814 19.8143 18.814 19.6271ZM20.392 19.7677L20.8466 19.2448H21.151L20.6281 19.816L21.1788 20.4817H20.8597L20.4199 19.927L20.392 19.9548V20.4817H20.1508V19.2448H20.392V19.7677ZM22.0538 19.3392C21.9628 19.2596 21.866 19.2448 21.7272 19.2448H21.3671V20.4817H21.6083V20.0237H21.7642C21.907 20.0237 22.0088 19.9833 22.0777 19.9144C22.1721 19.8194 22.1795 19.6863 22.1795 19.6379C22.1795 19.5486 22.1539 19.428 22.0538 19.3392ZM21.7067 19.816H21.6083V19.453H21.6919C21.7494 19.453 21.8126 19.4564 21.8626 19.4917C21.8973 19.5179 21.9309 19.5645 21.9309 19.6328C21.9309 19.6863 21.9087 19.7421 21.8643 19.7773C21.8126 19.816 21.7534 19.816 21.7067 19.816ZM23.0482 20.2222H22.5492L22.44 20.4817H22.1783L22.7108 19.2448H22.9003L23.4174 20.4817H23.1574L23.0482 20.2222ZM22.9776 20.0254L22.8013 19.5805L22.6255 20.0254H22.9776ZM24.399 19.7233H24.9219V19.2448H25.1631V20.4817H24.9219V19.9309H24.399V20.4817H24.1584V19.2448H24.399V19.7233ZM25.716 20.2222H26.215L26.3242 20.4817H26.5837L26.0665 19.2448H25.8776L25.3451 20.4817H25.6068L25.716 20.2222ZM25.9681 19.5805L26.1444 20.0254H25.7917L25.9681 19.5805Z" fill="#1D1D1B"/>
<path fill-rule="evenodd" clip-rule="evenodd" d="M5.39551 12.9939C5.39551 12.3175 5.77841 11.769 6.56014 11.769C7.34186 11.769 7.72476 12.3175 7.72476 12.9939C7.72476 13.6704 7.34186 14.2189 6.56014 14.2189C5.77841 14.2189 5.39551 13.6704 5.39551 12.9939ZM5.8939 12.9939C5.8939 13.58 6.09417 14.0829 6.56014 14.0829C7.0261 14.0829 7.22637 13.5794 7.22637 12.9939C7.22637 12.4085 7.0187 11.9112 6.55274 11.9112C6.08677 11.9112 5.8939 12.4079 5.8939 12.9939ZM11.1099 11.829V13.9978H11.4496L11.3261 14.7619H11.1213V14.1622H8.33347V12.1322C8.33347 12.0315 8.23106 11.9308 8.12865 11.9308V11.8301H8.5161C8.66914 11.8301 8.79374 11.9792 8.79374 12.1317V13.9955H9.49809L9.49866 11.8296H9.95837V13.9978H10.6508L10.653 11.8296L11.1099 11.829ZM13.8775 13.9626C13.7205 13.7447 12.9945 11.8308 12.9945 11.8308L12.9951 11.8297H12.7687L11.6979 14.1618H11.95L12.2168 13.5672H13.2005L13.3865 13.9774C13.4389 14.0895 13.5128 14.1629 13.7 14.1629H13.9782V14.0389C13.9583 14.0383 13.9049 14.0008 13.8775 13.9626ZM12.2896 13.4034L12.7522 12.3201L13.1334 13.4034H12.2896ZM20.4049 11.8309C20.4049 11.8309 21.1308 13.7448 21.2879 13.9627C21.3152 14.0008 21.3686 14.0384 21.3886 14.039V14.163H21.1103C20.9232 14.163 20.8492 14.0896 20.7969 13.9775L20.6108 13.5673H19.6271L19.3603 14.1618H19.1082L20.179 11.8297H20.4054L20.4049 11.8309ZM20.1625 12.3202L19.6999 13.4034H20.5437L20.1625 12.3202ZM16.5803 14.0141C16.5098 14.0141 16.4091 13.9173 16.3459 13.7876C16.1166 13.3131 15.5614 11.8305 15.5614 11.8305H15.5608L15.3332 11.8276L14.3387 13.9987H14.1999L14.3216 14.7628H14.5264V14.1631H16.2521V14.7628H16.4569L16.5803 14.0141ZM15.3224 12.3431L15.3298 12.3425L15.8487 13.77C15.905 13.9054 15.9744 13.9788 16.0649 14.0141H14.5907L15.3224 12.3431ZM17.4334 12.9186H17.9358C18.5981 12.9186 18.7596 13.2076 18.7596 13.5177C18.7596 13.809 18.5986 14.1617 17.9358 14.1617L16.972 14.1629V12.1329C16.972 12.0322 16.8696 11.9315 16.7672 11.9315V11.8291L18.6897 11.8302L18.5457 12.588H18.3557L18.3551 11.9946H17.4334V12.9186ZM17.4329 14.0104H17.8442C18.2004 14.0104 18.305 13.6952 18.3045 13.5069C18.3045 13.3049 18.2038 13.0824 17.8482 13.0824H17.4329V14.0104ZM23.2776 11.8297V12.9181H22.3809V12.1341C22.3809 11.9817 22.2256 11.8303 22.072 11.8303H21.6954V11.931C21.7978 11.931 21.9002 12.0317 21.9002 12.1324V14.1624H22.3809V13.082H23.2776V14.1618H23.7481V11.8297H23.2776ZM25.4722 12.9334C25.4722 12.9334 26.085 13.6167 26.3063 13.8443C26.436 13.978 26.5498 14.0661 26.6039 14.0661L26.6027 14.197H26.4173C26.2085 14.197 26.0025 14.1486 25.8261 13.9455C25.8261 13.9455 25.2509 13.2344 25.1434 13.0967H25.0108V14.1629H24.5625V12.1329C24.5625 12.0322 24.4646 11.9315 24.3577 11.9315V11.8308H24.7025C24.8561 11.8308 25.0114 11.9821 25.0114 12.1346V12.9152H25.1667L26.1265 11.8291H26.4298L25.4722 12.9152V12.9334Z" fill="white"/>
</g>
<defs>
<clipPath id="clip0_30620_12185">
<rect width="32" height="32" fill="white"/>
</clipPath>
</defs>
</svg>
