<svg width="24" height="25" viewBox="0 0 24 25" fill="none" xmlns="http://www.w3.org/2000/svg">
<path d="M11 3.61536C15.97 3.61536 20 7.64536 20 12.6154H22L19 16.6054L16 12.6154H18C18 8.74536 14.87 5.61536 11 5.61536C7.13 5.61536 4 8.74536 4 12.6154C4 16.4854 7.13 19.6154 11 19.6154C12.5693 19.6154 14.0197 19.093 15.1843 18.215C15.6265 17.8816 16.2598 17.8751 16.6514 18.2668C17.0419 18.6573 17.0465 19.2969 16.6157 19.6424C15.0769 20.8764 13.1299 21.6154 11 21.6154C6.03 21.6154 2 17.5854 2 12.6154C2 7.64536 6.03 3.61536 11 3.61536Z" fill="#CA2F28"/>
</svg>
