<svg width="56" height="36" viewBox="0 0 56 36" fill="none" xmlns="http://www.w3.org/2000/svg">
<path d="M0 6.4C0 4.15979 0 3.03969 0.435974 2.18404C0.819467 1.43139 1.43139 0.819467 2.18404 0.435974C3.03969 0 4.15979 0 6.4 0H49.6C51.8402 0 52.9603 0 53.816 0.435974C54.5686 0.819467 55.1805 1.43139 55.564 2.18404C56 3.03969 56 4.15979 56 6.4V29.6C56 31.8402 56 32.9603 55.564 33.816C55.1805 34.5686 54.5686 35.1805 53.816 35.564C52.9603 36 51.8402 36 49.6 36H6.4C4.15979 36 3.03969 36 2.18404 35.564C1.43139 35.1805 0.819467 34.5686 0.435974 33.816C0 32.9603 0 31.8402 0 29.6V6.4Z" fill="url(#paint0_linear_30197_16876)"/>
<path d="M0.25 6.4C0.25 5.27577 0.250194 4.44763 0.303666 3.79317C0.3569 3.14162 0.461689 2.68424 0.658726 2.29754C1.01825 1.59193 1.59193 1.01825 2.29754 0.658726C2.68424 0.461689 3.14162 0.3569 3.79317 0.303666C4.44763 0.250194 5.27577 0.25 6.4 0.25H49.6C50.7242 0.25 51.5524 0.250194 52.2068 0.303666C52.8584 0.3569 53.3158 0.461689 53.7025 0.658726C54.4081 1.01825 54.9818 1.59193 55.3413 2.29754C55.5383 2.68424 55.6431 3.14162 55.6963 3.79317C55.7498 4.44763 55.75 5.27577 55.75 6.4V29.6C55.75 30.7242 55.7498 31.5524 55.6963 32.2068C55.6431 32.8584 55.5383 33.3158 55.3413 33.7025C54.9818 34.4081 54.4081 34.9818 53.7025 35.3413C53.3158 35.5383 52.8584 35.6431 52.2068 35.6963C51.5524 35.7498 50.7242 35.75 49.6 35.75H6.4C5.27577 35.75 4.44763 35.7498 3.79317 35.6963C3.14162 35.6431 2.68424 35.5383 2.29754 35.3413C1.59193 34.9818 1.01825 34.4081 0.658726 33.7025C0.461689 33.3158 0.3569 32.8584 0.303666 32.2068C0.250194 31.5524 0.25 30.7242 0.25 29.6V6.4Z" stroke="#0805A8" stroke-opacity="0.04" stroke-width="0.5"/>
<path d="M40.8447 23.0905L38.4854 28.9095H36.9417L35.7767 24.2663C35.7184 23.995 35.6311 23.8744 35.4272 23.7538C35.0777 23.5729 34.4951 23.3618 34 23.2714L34.0291 23.0905H36.5049C36.8252 23.0905 37.1165 23.3015 37.1748 23.6935L37.7864 27.0704L39.301 23.1206H40.8447V23.0905ZM46.8738 27.0101C46.8738 25.4724 44.835 25.3819 44.835 24.7186C44.835 24.5075 45.0388 24.2965 45.4466 24.2362C45.6505 24.206 46.233 24.1759 46.8738 24.5075L47.1359 23.2714C46.7864 23.1508 46.3495 23 45.767 23C44.3398 23 43.3204 23.7839 43.3204 24.9296C43.3204 25.7739 44.0485 26.2261 44.6019 26.4975C45.1553 26.7688 45.3592 26.9497 45.3592 27.2211C45.3592 27.6131 44.9223 27.794 44.4854 27.794C43.7573 27.794 43.3204 27.5829 43 27.4322L42.7379 28.6985C43.0874 28.8492 43.699 29 44.3398 29C45.8544 29 46.8447 28.2161 46.8738 27.0101ZM50.6602 28.9095H52L50.835 23.0905H49.5825C49.2913 23.0905 49.0583 23.2714 48.9709 23.5126L46.7864 28.9095H48.301L48.5922 28.0352H50.4563L50.6602 28.9095ZM49.0291 26.8593L49.7864 24.6884L50.2233 26.8593H49.0291ZM42.9126 23.0905L41.7184 28.9095H40.2621L41.4563 23.0905H42.9126Z" fill="#1A1F71"/>
<defs>
<linearGradient id="paint0_linear_30197_16876" x1="56" y1="2.59611e-06" x2="1.56553e-06" y2="34.8354" gradientUnits="userSpaceOnUse">
<stop offset="0.144565" stop-color="#FFEFA5"/>
<stop offset="0.416287" stop-color="#FFF4C1"/>
<stop offset="0.70626" stop-color="#BAD2F8"/>
<stop offset="0.839731" stop-color="#98D4F0"/>
</linearGradient>
</defs>
</svg>
