<svg width="32" height="32" viewBox="0 0 32 32" fill="none" xmlns="http://www.w3.org/2000/svg">
<g clip-path="url(#clip0_32002_512)">
<path fill-rule="evenodd" clip-rule="evenodd" d="M16 32C7.04054 32 4.62883 31.5462 2.54134 29.4587C0.440812 27.3582 0 24.9595 0 16C0 7.04054 0.453809 4.64182 2.54134 2.54134C4.62883 0.453809 7.04054 0 16 0C24.9595 0 27.3712 0.453809 29.4587 2.54134C31.5591 4.64182 32 7.04054 32 16C32 24.9595 31.5591 27.3582 29.4587 29.4587C27.3712 31.5462 24.9595 32 16 32Z" fill="#006F4E"/>
<path d="M19.7879 15.8566L18.3021 12.0318L16.364 16.2545C15.7091 17.5833 13.567 17.9694 12.0679 18.1823L12.3395 17.617L16.6767 9.29791H20.0581L22.4807 14.3428L23.5423 16.7361L25.73 21.5373L24.2221 21.5343L23.046 21.527C22.5512 21.5343 22.0681 21.4976 21.8626 20.9676L21.4456 19.9427L20.7467 18.2073L19.7879 15.8566Z" fill="white"/>
<path d="M20.7643 18.225C18.4606 19.4128 16.1188 20.5874 13.4377 21.2041C10.9402 21.7781 8.19166 21.853 6.27412 20.7401C4.54746 19.7417 3.98365 17.7845 4.01595 16.3471C4.03797 15.4059 4.49607 14.0889 5.39611 12.9921C7.07138 10.9483 10.2311 9.17907 12.7476 9.09832C13.6447 9.06895 14.2144 9.36701 14.5551 11.5826C13.6231 11.5691 12.6966 11.7284 11.8226 12.0524C10.6977 12.4804 9.63269 13.0518 8.65416 13.7527C6.88051 15.0022 5.86888 16.2516 5.76317 17.4365C5.67067 18.4775 6.63825 19.0942 8.24305 19.2278C12.0429 19.5523 16.4344 17.739 19.8055 15.8728L22.4968 14.3591L27.9998 11.3697L27.9822 14.1726L23.5598 16.7523L20.7643 18.225Z" fill="white"/>
<path d="M4 22.9126H26.3277V24.8624H4V22.9126Z" fill="white"/>
<path d="M27.077 8.48452L23.9011 10.1804C23.9011 10.1804 22.8088 10.7794 22.1099 10.9292L22.6032 12.0729C22.75 12.5516 23.2889 12.7116 23.7088 12.4973L27.9741 10.1686V8L27.077 8.48452Z" fill="white"/>
<path d="M11.9624 10.0438C12.8066 10.0878 14.2294 9.49316 14.5553 11.65C14.1604 11.5282 13.391 11.6324 12.952 11.7234" fill="white"/>
</g>
<defs>
<clipPath id="clip0_32002_512">
<rect width="32" height="32" fill="white"/>
</clipPath>
</defs>
</svg>
