<svg width="24" height="24" viewBox="0 0 24 24" fill="none" xmlns="http://www.w3.org/2000/svg">
<g clip-path="url(#clip0_11359_15372)">
<path d="M8.10062 12.487H11.1192L9.54062 16.3766C9.31299 16.9376 9.93155 17.2297 10.3324 16.78L15.2115 11.2306C15.3105 11.1193 15.36 11.008 15.36 10.8875C15.36 10.6742 15.1819 10.5166 14.9394 10.5166H11.9208L13.4944 6.62231C13.7221 6.06598 13.1035 5.76928 12.7076 6.21898L7.82351 11.7684C7.72454 11.8843 7.68 11.9909 7.68 12.1114C7.68 12.3293 7.85815 12.487 8.10062 12.487Z" fill="black"/>
<path d="M10.8396 6.91667H2.88C1.81961 6.91667 0.96 7.73748 0.96 8.75V14.25C0.96 15.2625 1.81961 16.0833 2.88 16.0833H8.63069C8.51951 16.3796 8.50209 16.7048 8.59159 17H2.88C1.28942 17 0 15.7688 0 14.25V8.75C0 7.23122 1.28942 6 2.88 6H11.6464L10.8396 6.91667Z" fill="black"/>
<path d="M12.1984 16.0833H19.2C20.2604 16.0833 21.12 15.2625 21.12 14.25V8.75C21.12 7.73748 20.2604 6.91667 19.2 6.91667H14.4041C14.5163 6.61933 14.533 6.29452 14.4432 6H19.2C20.7906 6 22.08 7.23122 22.08 8.75V14.25C22.08 15.7688 20.7906 17 19.2 17H11.3924L12.1984 16.0833Z" fill="black"/>
<path d="M23.04 9.66667C23.5702 9.66667 24 10.0771 24 10.5833V12.4167C24 12.9229 23.5702 13.3333 23.04 13.3333V9.66667Z" fill="black"/>
<path d="M10.0328 7.83333L7.08398 11.1839L7.07948 11.1891C6.87505 11.4285 6.72 11.7334 6.72 12.1115C6.72 12.8949 7.39223 13.4037 8.10062 13.4037H9.7176L9.00212 15.1667H2.88C2.34981 15.1667 1.92 14.7563 1.92 14.25V8.75C1.92 8.24374 2.34981 7.83333 2.88 7.83333H10.0328Z" fill="black"/>
</g>
<defs>
<clipPath id="clip0_11359_15372">
<rect width="24" height="24" fill="white"/>
</clipPath>
</defs>
</svg>
