<svg width="32" height="32" viewBox="0 0 32 32" fill="none" xmlns="http://www.w3.org/2000/svg">
<g clip-path="url(#clip0_32002_4267)">
<mask id="mask0_32002_4267" style="mask-type:alpha" maskUnits="userSpaceOnUse" x="0" y="0" width="32" height="32">
<path fill-rule="evenodd" clip-rule="evenodd" d="M16 32C7.04054 32 4.62883 31.5462 2.54134 29.4587C0.440812 27.3582 0 24.9595 0 16C0 7.04054 0.453809 4.64182 2.54134 2.54134C4.62883 0.453809 7.04054 0 16 0C24.9595 0 27.3712 0.453809 29.4587 2.54134C31.5591 4.64182 32 7.04054 32 16C32 24.9595 31.5591 27.3582 29.4587 29.4587C27.3712 31.5462 24.9595 32 16 32Z" fill="#B61414"/>
</mask>
<g mask="url(#mask0_32002_4267)">
<path d="M33 33H-1V-1H33V33ZM-0.266833 32.2668H32.2668V-0.266833H-0.266833V32.2668Z" fill="#D0D1D3"/>
<path d="M7.40904 7.27426L-0.630859 -0.630981V32.6309L7.43398 24.4962L7.40904 7.27426Z" fill="url(#paint0_linear_32002_4267)"/>
<path d="M24.1621 7.82787L24.2269 24.3216L32.6309 32.6309V-0.630981L24.1621 7.82787Z" fill="url(#paint1_linear_32002_4267)"/>
<path d="M7.43398 24.4962L-0.630859 32.6309V32.6359H32.631V32.6309L24.1971 24.4962H7.43398Z" fill="url(#paint2_linear_32002_4267)"/>
<path d="M7.59863 7.65833V24.3217L15.8131 15.9925L7.59863 7.65833Z" fill="url(#paint3_linear_32002_4267)"/>
<path d="M24.0279 24.3217V7.65833L15.8135 15.9925L24.0279 24.3217Z" fill="url(#paint4_linear_32002_4267)"/>
<path d="M7.59863 24.3216H24.0276L15.8131 15.9924L7.59863 24.3216Z" fill="url(#paint5_linear_32002_4267)"/>
<path d="M23.8631 7.91778V24.1572H7.76336V7.87788C7.63047 7.78017 7.51711 7.65836 7.4292 7.51878V24.4764H24.1973V7.47888C24.1164 7.64609 24.0028 7.79534 23.8631 7.91778Z" fill="#BF2338"/>
<path d="M-0.630859 -0.630981L6.9053 6.90518L15.9976 16.0024L25.0998 6.90518L32.631 -0.630981H-0.630859Z" fill="url(#paint6_linear_32002_4267)"/>
<path d="M24.1613 7.49365H7.4082V7.82782H24.1613V7.49365Z" fill="#A6A8AA"/>
<path d="M24.0022 7.82788H7.57324L15.7877 15.8229L24.0022 7.82788Z" fill="url(#paint7_linear_32002_4267)"/>
<path d="M31.2543 31.1547C30.3665 30.227 28.9999 28.8804 27.4687 27.2993C26.6957 26.5063 25.0797 25.03 24.1969 24.1123V24.4963H23.8179C24.7306 25.3742 26.3865 26.8205 27.1795 27.5936C28.7605 29.1298 30.2269 30.3717 31.1695 31.2594L32.6658 32.641L31.2543 31.1547Z" fill="#BBBCBE"/>
<path d="M7.43408 24.1222C6.55129 25.0349 5.19468 26.5012 4.44157 27.2943C2.88546 28.8753 1.63857 30.2269 0.745804 31.1546L-0.635742 32.6509L0.860517 31.2693C1.79319 30.3815 3.13982 29.1297 4.72087 27.5935C5.51388 26.8204 6.90541 25.389 7.81812 24.5062H7.44905L7.43408 24.1222Z" fill="#BBBCBE"/>
<path d="M24.1966 24.112C23.3238 23.2043 22.8849 22.7105 21.9173 21.738C20.057 19.8577 18.057 17.7479 16.0719 15.7529L15.8126 16.0123L15.5532 16.2666C17.5482 18.2617 19.5831 20.3464 21.4634 22.2068C22.461 23.1744 22.9098 23.6382 23.8126 24.511H24.1916L24.1966 24.112Z" fill="#BF2338"/>
<path d="M16.0675 16.242L15.8131 15.9926L15.5638 15.7383C13.5687 17.7333 11.5338 20.0076 9.67348 21.8879C8.7059 22.8854 8.31189 23.2146 7.43408 24.1223V24.4964H7.80316C8.71089 23.6186 9.13483 23.2994 10.1124 22.3318C11.9677 20.4465 14.0625 18.2271 16.0675 16.242Z" fill="#BF2338"/>
<path d="M25.0996 7.27439C25.9774 6.36167 26.8053 5.49883 27.5934 4.70581L25.0996 7.27439Z" fill="white"/>
<path d="M31.1547 0.745577C30.227 1.63835 28.8754 2.88523 27.2943 4.42139C26.5013 5.19446 25.6385 6.02239 24.7307 6.91515C23.823 7.80792 22.8704 8.71565 21.8928 9.68323C20.0075 11.5286 17.828 13.4987 15.823 15.4588C13.828 13.4638 12.0026 11.5037 10.1173 9.64333C9.11977 8.67575 8.19208 7.75306 7.28435 6.88024C6.37662 6.00742 5.5038 5.16952 4.71079 4.38648C3.12974 2.88024 1.77812 1.63336 0.84545 0.745577L-0.630859 -0.630981L0.745699 0.865278C1.63348 1.79296 2.88036 3.14458 4.41652 4.73062C5.18959 5.52363 6.01752 6.39146 6.91029 7.30418C7.80306 8.2169 8.7058 9.16453 9.67338 10.1371C11.5337 12.0174 13.3292 14.0124 15.3143 16.0174L15.5637 16.2718L15.818 16.5211L16.0774 16.2618L16.3367 16.0024C18.3317 14.0074 20.4814 12.0124 22.3218 10.1321C23.2893 9.13461 24.217 8.20194 25.0898 7.29421L27.5836 4.72563C29.1198 3.14458 30.3716 1.79296 31.2594 0.865278L32.641 -0.630981L31.1547 0.745577Z" fill="white"/>
</g>
</g>
<defs>
<linearGradient id="paint0_linear_32002_4267" x1="-0.630859" y1="15.9974" x2="7.43398" y2="15.9974" gradientUnits="userSpaceOnUse">
<stop stop-color="#A6A8AA"/>
<stop offset="1" stop-color="#D0D1D3"/>
</linearGradient>
<linearGradient id="paint1_linear_32002_4267" x1="24.1621" y1="15.9974" x2="32.6309" y2="15.9974" gradientUnits="userSpaceOnUse">
<stop stop-color="#A6A8AA"/>
<stop offset="1" stop-color="#BBBCBE"/>
</linearGradient>
<linearGradient id="paint2_linear_32002_4267" x1="-0.630859" y1="28.566" x2="32.631" y2="28.566" gradientUnits="userSpaceOnUse">
<stop stop-color="#808183"/>
<stop offset="1" stop-color="#929496"/>
</linearGradient>
<linearGradient id="paint3_linear_32002_4267" x1="3.54377" y1="15.9925" x2="15.1996" y2="15.9925" gradientUnits="userSpaceOnUse">
<stop stop-color="#6F1B1D"/>
<stop offset="1" stop-color="#BF2338"/>
</linearGradient>
<linearGradient id="paint4_linear_32002_4267" x1="19.9232" y1="25.2394" x2="19.9232" y2="-3.91773" gradientUnits="userSpaceOnUse">
<stop stop-color="#6F1B1D"/>
<stop offset="1" stop-color="#BF2338"/>
</linearGradient>
<linearGradient id="paint5_linear_32002_4267" x1="7.09489" y1="20.157" x2="38.5463" y2="20.157" gradientUnits="userSpaceOnUse">
<stop stop-color="#6F1B1D"/>
<stop offset="1" stop-color="#BF2338"/>
</linearGradient>
<linearGradient id="paint6_linear_32002_4267" x1="16.0026" y1="16.0373" x2="16.0026" y2="-4.95018" gradientUnits="userSpaceOnUse">
<stop stop-color="#E6E6E7"/>
<stop offset="1" stop-color="#F1F1F2"/>
</linearGradient>
<linearGradient id="paint7_linear_32002_4267" x1="15.7877" y1="7.82788" x2="15.7877" y2="22.9501" gradientUnits="userSpaceOnUse">
<stop stop-color="#BBBCBE"/>
<stop offset="1" stop-color="#E6E6E7"/>
</linearGradient>
<clipPath id="clip0_32002_4267">
<rect width="32" height="32" fill="white"/>
</clipPath>
</defs>
</svg>
