<svg width="24" height="24" viewBox="0 0 24 24" fill="none" xmlns="http://www.w3.org/2000/svg">
<path d="M4 6.75C4 6.33579 4.33579 6 4.75 6H19.25C19.6642 6 20 6.33579 20 6.75C20 7.16421 19.6642 7.5 19.25 7.5H4.75C4.33579 7.5 4 7.16421 4 6.75Z" fill="black"/>
<path d="M9 6V6C9 4.89543 9.89543 4 11 4H13C14.1046 4 15 4.89543 15 6V6" stroke="black" stroke-width="1.5"/>
<path d="M6.61542 18.0891L5.80548 6.75H18.1945L17.3846 18.0891C17.3379 18.7432 16.7936 19.25 16.1378 19.25H7.86224C7.20644 19.25 6.66214 18.7432 6.61542 18.0891Z" stroke="black" stroke-width="1.5"/>
<path d="M9.9502 11L10.2359 15" stroke="black" stroke-width="1.5" stroke-linecap="round"/>
<path d="M14.0503 11L13.7646 15" stroke="black" stroke-width="1.5" stroke-linecap="round"/>
</svg>
