<svg width="32" height="32" viewBox="0 0 32 32" fill="none" xmlns="http://www.w3.org/2000/svg">
<circle cx="16" cy="16" r="16" fill="black"/>
<path d="M17.9883 14.6444C17.9883 14.9723 17.8268 15.3251 17.6203 15.5238V15.5784H18.2172C18.3788 15.5784 18.5 15.7026 18.5 15.8815C18.5 16.0554 18.3788 16.1796 18.2172 16.1796H13.7962C13.6302 16.1796 13.5 16.0405 13.5 15.8517C13.5 15.6629 13.6302 15.5238 13.7962 15.5238H16.3232C16.6463 15.3747 16.8124 15.1512 16.8124 14.7984C16.8124 14.3364 16.4443 14.0185 15.9102 14.0185C15.5108 14.0185 15.1741 14.2221 14.9318 14.56C14.7971 14.714 14.6311 14.8133 14.4605 14.8133C14.1777 14.8133 13.9668 14.5947 13.9668 14.3016C13.9668 14.1576 14.0206 14.0185 14.1284 13.8893C14.4515 13.3378 15.1248 13 15.9372 13C17.1715 13 17.9883 13.6508 17.9883 14.6444ZM13.5 17.0837C13.5 16.9099 13.6212 16.7857 13.7783 16.7857H18.2083C18.3743 16.7857 18.5 16.9248 18.5 17.1136C18.5 17.2974 18.3743 17.4365 18.2083 17.4365H15.6275C15.2684 17.5358 15.0305 17.824 15.0305 18.1718C15.0305 18.6487 15.4434 18.9815 16.0359 18.9815C16.5341 18.9815 16.8483 18.7729 17.1041 18.3854C17.2567 18.2065 17.4228 18.1121 17.6068 18.1121C17.8896 18.1121 18.1185 18.3605 18.1185 18.6785C18.1185 18.8176 18.0736 18.9517 17.9659 19.0759C17.6248 19.6373 16.8797 20 16.0314 20C14.7029 20 13.8501 19.3492 13.8501 18.3754C13.8501 18.0028 14.0341 17.6302 14.2899 17.4365V17.3769H13.7783C13.6212 17.3769 13.5 17.2527 13.5 17.0837Z" fill="white"/>
<path d="M19.2 10.3333V9.55556C19.2 9.143 19.0314 8.74733 18.7314 8.45561C18.4313 8.16389 18.0243 8 17.6 8H14.4C13.9757 8 13.5687 8.16389 13.2686 8.45561C12.9686 8.74733 12.8 9.143 12.8 9.55556V10.3333M9.6 11.1111H22.4C23.2837 11.1111 24 11.8076 24 12.6667V20.4444C24 21.3036 23.2837 22 22.4 22H9.6C8.71634 22 8 21.3036 8 20.4444V12.6667C8 11.8076 8.71634 11.1111 9.6 11.1111Z" stroke="white" stroke-width="1.6" stroke-linecap="round" stroke-linejoin="round"/>
</svg>
