<svg width="32" height="32" viewBox="0 0 32 32" fill="none" xmlns="http://www.w3.org/2000/svg">
<g clip-path="url(#clip0_32030_7428)">
<path fill-rule="evenodd" clip-rule="evenodd" d="M16 32C7.04054 32 4.62883 31.5462 2.54134 29.4587C0.440812 27.3582 0 24.9595 0 16C0 7.04054 0.453809 4.64182 2.54134 2.54134C4.62883 0.453809 7.04054 0 16 0C24.9595 0 27.3712 0.453809 29.4587 2.54134C31.5591 4.64182 32 7.04054 32 16C32 24.9595 31.5591 27.3582 29.4587 29.4587C27.3712 31.5462 24.9595 32 16 32Z" fill="#512C1E"/>
<path d="M22.1582 8.16003L12.812 23.8442H14.4562L23.7957 8.16003H22.1582Z" fill="white"/>
<path d="M6.99604 14.7019H6.64633L10.7352 8.16003H3.37458V9.14454H8.45457L4.37897 15.6648H4.40384L4.37069 15.7212H6.99604C9.54019 15.7212 10.6971 17.5294 10.6971 19.2101C10.6971 22.3592 8.27226 22.8249 6.82699 22.8249H3V23.8442H6.82699C9.88824 23.8442 11.7164 22.1122 11.7164 19.2034C11.7164 16.9626 10.0954 14.6952 6.99604 14.6952" fill="white"/>
<path d="M26.9796 14.7946H25.9619V18.7061H26.9796V14.7946Z" fill="white"/>
<path d="M21.2633 19.9277L28.3156 8.16003H26.6847L19.4385 20.2194V20.9371H25.9621V23.8442H26.9814V20.9371H29.0001V19.9277H21.2633Z" fill="white"/>
</g>
<defs>
<clipPath id="clip0_32030_7428">
<rect width="32" height="32" fill="white"/>
</clipPath>
</defs>
</svg>
