<svg width="32" height="32" viewBox="0 0 32 32" fill="none" xmlns="http://www.w3.org/2000/svg">
<g clip-path="url(#clip0_32478_6871)">
<path fill-rule="evenodd" clip-rule="evenodd" d="M16 32C7.04054 32 4.62882 31.5462 2.54134 29.4587C0.440812 27.3582 0 24.9595 0 16C0 7.04054 0.453809 4.64182 2.54134 2.54134C4.62882 0.453809 7.04054 0 16 0C24.9595 0 27.3712 0.453809 29.4587 2.54134C31.5591 4.64182 32 7.04054 32 16C32 24.9595 31.5591 27.3582 29.4587 29.4587C27.3712 31.5462 24.9595 32 16 32Z" fill="#4BDF7F"/>
<path d="M24.771 19.0962V10.4305H20.484V11.658C19.1466 10.7786 17.571 10.2473 15.8855 10.2473C10.9756 10.2473 7 14.2229 7 19.1328C7 24.0427 10.9939 28 15.8855 28C17.571 28 19.1282 27.4687 20.484 26.5893V27.8351H24.771C24.771 27.8351 24.771 19.1511 24.771 19.1328C24.771 19.1145 24.771 19.0962 24.771 19.0962ZM15.8855 23.8595C13.2656 23.8595 11.1405 21.7344 11.1405 19.1145C11.1405 16.4947 13.2656 14.3695 15.8855 14.3695C18.5053 14.3695 20.6305 16.4947 20.6305 19.1145C20.6305 21.7344 18.5053 23.8595 15.8855 23.8595Z" fill="white"/>
<path d="M18.5787 8.30534L16.1604 4H11.2505L14.6215 8.30534H18.5787Z" fill="white"/>
</g>
<defs>
<clipPath id="clip0_32478_6871">
<rect width="32" height="32" fill="white"/>
</clipPath>
</defs>
</svg>
