<svg width="32" height="32" viewBox="0 0 32 32" fill="none" xmlns="http://www.w3.org/2000/svg">
<circle cx="16" cy="16" r="16" fill="black"/>
<path d="M13.9718 10.0654V9M11.1739 11.1739L10.4205 10.4205M11.1739 16.8129L10.4205 17.5662M16.8129 11.1739L17.5662 10.4205M10.0654 13.9718H9M18.8474 19.0783L17.0776 22.365C16.8754 22.7405 16.7743 22.9282 16.6527 22.9757C16.5472 23.0169 16.4283 23.0053 16.3327 22.9444C16.2226 22.8742 16.1598 22.6704 16.0343 22.2629L13.5778 14.2881C13.4752 13.9551 13.4239 13.7887 13.4652 13.6762C13.5011 13.5783 13.5783 13.5011 13.6762 13.4652C13.7887 13.4239 13.9551 13.4752 14.2881 13.5778L22.2629 16.0343C22.6704 16.1598 22.8742 16.2226 22.9444 16.3327C23.0053 16.4283 23.0169 16.5472 22.9757 16.6527C22.9282 16.7744 22.7405 16.8754 22.365 17.0776L19.0783 18.8474C19.0225 18.8774 18.9946 18.8924 18.9702 18.9117C18.9485 18.9289 18.9289 18.9485 18.9118 18.9702C18.8925 18.9946 18.8774 19.0225 18.8474 19.0783Z" stroke="white" stroke-width="1.5" stroke-linecap="round" stroke-linejoin="round"/>
</svg>
