<svg width="24" height="24" viewBox="0 0 24 24" fill="none" xmlns="http://www.w3.org/2000/svg">
<path d="M5.25 5.13464H18.75C19.0724 5.13464 19.4549 5.3008 19.7704 5.61177C20.0866 5.9234 20.25 6.29551 20.25 6.60203V16.5803C20.25 16.8868 20.0866 17.2589 19.7704 17.5706C19.4549 17.8815 19.0724 18.0477 18.75 18.0477H11.2627C10.8234 18.0477 10.4002 18.2129 10.0771 18.5105L7.84283 20.5685C7.79667 20.611 7.73621 20.6346 7.67346 20.6346H7.51064C7.39326 20.6346 7.29199 20.5898 7.22355 20.5268C7.15566 20.4642 7.13298 20.3981 7.13298 20.3459V18.8077C7.13298 18.388 6.79275 18.0477 6.37298 18.0477H5.25C4.92758 18.0477 4.54511 17.8815 4.22957 17.5706C3.91335 17.2589 3.75 16.8868 3.75 16.5803V6.60203C3.75 6.29551 3.91335 5.9234 4.22957 5.61177C4.54511 5.3008 4.92758 5.13464 5.25 5.13464Z" stroke="black" stroke-width="1.5"/>
<rect x="7" y="8.38464" width="10" height="1.5" rx="0.75" fill="black"/>
<rect x="7" y="11.3846" width="7" height="1.5" rx="0.75" fill="black"/>
</svg>
