<svg width="24" height="24" viewBox="0 0 24 24" fill="none" xmlns="http://www.w3.org/2000/svg">
<circle cx="12" cy="12" r="11" fill="black" stroke="black" stroke-width="2"/>
<path fill-rule="evenodd" clip-rule="evenodd" d="M12.9906 7.43031C13.8872 7.43031 14.2563 7.07511 14.2563 6.23382C14.2563 5.3552 13.8696 5 12.9906 5C12.1117 5 11.7249 5.3552 11.7249 6.23382C11.7249 7.07511 12.0941 7.43031 12.9906 7.43031ZM11.7599 17.1493L11.6017 17.0372L13.6936 9.22274H9.45701L9 10.9613L11.4611 10.9427L9.86136 16.9063C9.58009 17.9905 10.2657 19.0001 11.3907 19.0001C11.7423 19.0001 12.0939 18.9066 12.4806 18.6449L15.3636 16.5698L14.4847 15.1864L11.7599 17.1493Z" fill="white"/>
</svg>
