<svg width="32" height="32" viewBox="0 0 32 32" fill="none" xmlns="http://www.w3.org/2000/svg">
<circle cx="16" cy="16" r="16" fill="black"/>
<path d="M22.6696 17.2551L16.0064 23.75L9.34321 17.2551C8.90371 16.8342 8.55752 16.3283 8.32645 15.7692C8.09537 15.2102 7.98442 14.6101 8.00056 14.0068C8.01671 13.4034 8.15962 12.8099 8.42028 12.2636C8.68094 11.7173 9.05371 11.23 9.51511 10.8325C9.97652 10.4349 10.5166 10.1357 11.1012 9.95363C11.6859 9.77158 12.3026 9.71065 12.9124 9.77467C13.5221 9.83868 14.1119 10.0263 14.6444 10.3256C15.1769 10.625 15.6406 11.0296 16.0064 11.514C16.3738 11.0331 16.8381 10.632 17.3703 10.3358C17.9024 10.0397 18.4909 9.8548 19.099 9.79278C19.7071 9.73076 20.3216 9.79294 20.9041 9.97541C21.4867 10.1579 22.0247 10.4567 22.4844 10.8533C22.9442 11.2498 23.3159 11.7354 23.5762 12.2798C23.8365 12.8242 23.9798 13.4156 23.9972 14.0171C24.0146 14.6185 23.9057 15.217 23.6772 15.775C23.4488 16.3331 23.1058 16.8388 22.6696 17.2604" stroke="white" stroke-width="1.5" stroke-linecap="round" stroke-linejoin="round"/>
<path d="M15.9997 11.5L14.134 15L18.134 16.5L15.9998 22V23" stroke="white" stroke-width="1.5" stroke-linecap="round" stroke-linejoin="round"/>
</svg>
