<svg width="24" height="24" viewBox="0 0 24 24" fill="none" xmlns="http://www.w3.org/2000/svg">
<path d="M11.9999 17.9998C11.5676 17.9998 11.2171 17.6494 11.2171 17.2171V12.783L6.78281 12.7831C6.3505 12.7831 6.00003 12.4327 6.00003 12.0003C6.00003 11.5681 6.35047 11.2176 6.78276 11.2176L11.2171 11.2175V6.7826C11.2171 6.3503 11.5676 5.99985 11.9999 5.99985C12.4322 5.99985 12.7826 6.3503 12.7826 6.7826V11.2174L17.2173 11.2173C17.6496 11.2173 18 11.5677 18 12C18 12.4323 17.6496 12.7828 17.2173 12.7828L12.7826 12.7829V17.2171C12.7826 17.6494 12.4322 17.9998 11.9999 17.9998Z" fill="black"/>
<path fill-rule="evenodd" clip-rule="evenodd" d="M24 12C24 18.6274 18.6274 24 12 24C5.37258 24 0 18.6274 0 12C0 5.37258 5.37258 0 12 0C18.6274 0 24 5.37258 24 12ZM22.5 12C22.5 17.799 17.799 22.5 12 22.5C6.20101 22.5 1.5 17.799 1.5 12C1.5 6.20101 6.20101 1.5 12 1.5C17.799 1.5 22.5 6.20101 22.5 12Z" fill="black"/>
</svg>
