<svg width="32" height="33" viewBox="0 0 32 33" fill="none" xmlns="http://www.w3.org/2000/svg">
<circle cx="16" cy="16.4" r="16" fill="black"/>
<path d="M22.667 16.4781C22.667 12.7531 19.6473 9.73334 15.9222 9.73334C12.8989 9.73334 10.3402 11.7226 9.48346 14.4636C9.42858 14.6392 9.40114 14.727 9.40373 14.8368C9.40584 14.926 9.43297 15.0363 9.47252 15.1164C9.52117 15.2148 9.59628 15.2899 9.74649 15.4401L16.9605 22.6538C17.1107 22.804 17.1858 22.8791 17.2843 22.9278C17.3643 22.9673 17.4746 22.9944 17.5639 22.9965C17.6736 22.9991 17.7614 22.9717 17.937 22.9168C20.6779 22.06 22.667 19.5013 22.667 16.4781Z" stroke="white" stroke-width="1.5" stroke-linecap="round" stroke-linejoin="round"/>
<path d="M10.2978 14.8894C10.4581 14.878 10.62 14.8722 10.7832 14.8722C14.5083 14.8722 17.528 17.8919 17.528 21.617C17.528 21.7802 17.5222 21.9421 17.5108 22.1024C17.4909 22.3825 17.4809 22.5226 17.3993 22.6091C17.3329 22.6794 17.2198 22.7216 17.1236 22.712C17.0053 22.7001 16.8976 22.5925 16.6823 22.3772L10.023 15.7179C9.80772 15.5026 9.70008 15.3949 9.68822 15.2766C9.67859 15.1804 9.72083 15.0673 9.79109 15.0009C9.87759 14.9193 10.0177 14.9093 10.2978 14.8894Z" stroke="white" stroke-width="1.5" stroke-linecap="round" stroke-linejoin="round"/>
</svg>
