<svg width="32" height="32" viewBox="0 0 32 32" fill="none" xmlns="http://www.w3.org/2000/svg">
<path d="M32 16C32 24.8366 24.8366 32 16 32C7.16344 32 0 24.8366 0 16C0 7.16344 7.16344 0 16 0C24.8366 0 32 7.16344 32 16Z" fill="black"/>
<path fill-rule="evenodd" clip-rule="evenodd" d="M20.543 19.4239C20.8464 19.4243 21.0928 19.6702 21.0928 19.9737V23.9503C21.0928 24.1859 20.942 24.396 20.7188 24.4717C20.4955 24.5472 20.2487 24.4715 20.1055 24.2842L18.0538 21.5987V23.9503C18.0538 24.2539 17.8075 24.5008 17.504 24.501C17.2002 24.501 16.9542 24.254 16.9542 23.9503V19.9737C16.9542 19.7379 17.1048 19.5288 17.3282 19.4532C17.5514 19.378 17.7984 19.4525 17.9415 19.6397L19.9922 22.3233V19.9737C19.9923 19.67 20.2393 19.4239 20.543 19.4239ZM24.4493 23.4005C24.7527 23.4007 24.9998 23.6468 25 23.9503C25 24.2539 24.7528 24.5008 24.4493 24.501H22.2793C21.9756 24.501 21.7295 24.254 21.7295 23.9503C21.7298 23.6467 21.9757 23.4005 22.2793 23.4005H24.4493ZM19.6045 7.50006C20.3585 7.50006 20.8829 7.49354 21.3311 7.61334C22.4823 7.92125 23.3824 8.81941 23.6915 9.96979C23.8117 10.4178 23.8057 10.9416 23.8057 11.6934V16.4932C23.8057 16.9073 23.4697 17.243 23.0557 17.2432C22.6415 17.2432 22.3057 16.9074 22.3057 16.4932V11.6934C22.3057 10.8447 22.2993 10.5671 22.2432 10.3585C22.0736 9.72697 21.5783 9.2324 20.9434 9.06256C20.7334 9.00647 20.4545 9.00007 19.6045 9.00006H12.7012C11.8514 9.00007 11.5723 9.00654 11.3624 9.06256C10.7273 9.2323 10.2323 9.72694 10.0625 10.3585C10.0065 10.5671 10.0001 10.8447 10 11.6934V19.6114C10 20.3466 10.0011 20.8534 10.0333 21.2462C10.0647 21.6302 10.1223 21.8396 10.2002 21.9923C10.3762 22.3367 10.6571 22.6171 11.003 22.793C11.1566 22.8711 11.3678 22.9296 11.753 22.961C12.147 22.9931 12.655 22.9932 13.3917 22.9932H14.0323C14.4461 22.9936 14.7821 23.3294 14.7823 23.7432C14.7823 24.1572 14.4462 24.4929 14.0323 24.4932H13.3917C12.6795 24.4932 12.1 24.4943 11.6309 24.4561C11.1531 24.4172 10.7233 24.3342 10.3233 24.1309C9.69538 23.8118 9.18464 23.3019 8.86431 22.6749C8.66018 22.2752 8.57722 21.8462 8.53814 21.3692C8.49979 20.9009 8.50005 20.322 8.50005 19.6114V11.6934C8.50005 10.9416 8.49404 10.4178 8.61431 9.96979C8.92339 8.81942 9.82339 7.92117 10.9747 7.61334C11.4229 7.49363 11.9473 7.50006 12.7012 7.50006H19.6045ZM23.3643 19.4239C23.8155 19.424 24.2365 19.6216 24.5381 19.9532C24.8382 20.2832 25 20.7208 25 21.1671C25 21.6132 24.8381 22.051 24.5381 22.3809C24.2365 22.7123 23.8153 22.9101 23.3643 22.9102C22.9132 22.9102 22.4922 22.7123 22.1905 22.3809C21.8904 22.051 21.7296 21.6133 21.7295 21.1671C21.7296 20.7207 21.8903 20.2832 22.1905 19.9532C22.4922 19.6217 22.9131 19.4239 23.3643 19.4239ZM23.3643 20.5235C23.2402 20.5235 23.1092 20.5779 23.004 20.6934C22.8971 20.8109 22.8292 20.9806 22.8292 21.1671C22.8292 21.3534 22.8972 21.5233 23.004 21.6407C23.1092 21.7561 23.2402 21.8096 23.3643 21.8096C23.4883 21.8095 23.6196 21.7561 23.7247 21.6407C23.8313 21.5233 23.8994 21.3533 23.8995 21.1671C23.8994 20.9807 23.8314 20.8109 23.7247 20.6934C23.6195 20.5778 23.4884 20.5236 23.3643 20.5235ZM15.2901 14.8165C15.7041 14.8167 16.04 15.1525 16.0401 15.5665C16.04 15.9805 15.7041 16.3162 15.2901 16.3165H12.7012C12.2872 16.3163 11.9513 15.9805 11.9512 15.5665C11.9513 15.1524 12.2872 14.8166 12.7012 14.8165H15.2901ZM18.3096 11.3731C18.7235 11.3733 19.0594 11.7092 19.0596 12.1231C19.0596 12.5372 18.7237 12.8729 18.3096 12.8731H12.7012C12.2871 12.873 11.9512 12.5372 11.9512 12.1231C11.9514 11.7092 12.2873 11.3733 12.7012 11.3731H18.3096Z" fill="white"/>
</svg>
