<svg width="32" height="32" viewBox="0 0 32 32" fill="none" xmlns="http://www.w3.org/2000/svg">
<g clip-path="url(#clip0_32002_279)">
<path fill-rule="evenodd" clip-rule="evenodd" d="M16 32C7.04054 32 4.62882 31.5462 2.54134 29.4587C0.440812 27.3582 0 24.9595 0 16C0 7.04054 0.453809 4.64182 2.54134 2.54134C4.62882 0.453809 7.04054 0 16 0C24.9595 0 27.3712 0.453809 29.4587 2.54134C31.5591 4.64182 32 7.04054 32 16C32 24.9595 31.5591 27.3582 29.4587 29.4587C27.3712 31.5462 24.9595 32 16 32Z" fill="#F47C20"/>
<path d="M16.4311 16.0001L9.71557 9.40115L3 16.0001L9.71557 22.6009L16.4311 16.0001ZM9.94701 5H16.8959L28.1274 16.0001L16.8959 27.0001H9.94701L21.1804 16.0001L9.94701 5Z" fill="white"/>
</g>
<defs>
<clipPath id="clip0_32002_279">
<rect width="32" height="32" fill="white"/>
</clipPath>
</defs>
</svg>
