<svg width="56" height="36" viewBox="0 0 56 36" fill="none" xmlns="http://www.w3.org/2000/svg">
<path d="M0 6.4C0 4.15979 0 3.03969 0.435974 2.18404C0.819467 1.43139 1.43139 0.819467 2.18404 0.435974C3.03969 0 4.15979 0 6.4 0H49.6C51.8402 0 52.9603 0 53.816 0.435974C54.5686 0.819467 55.1805 1.43139 55.564 2.18404C56 3.03969 56 4.15979 56 6.4V29.6C56 31.8402 56 32.9603 55.564 33.816C55.1805 34.5686 54.5686 35.1805 53.816 35.564C52.9603 36 51.8402 36 49.6 36H6.4C4.15979 36 3.03969 36 2.18404 35.564C1.43139 35.1805 0.819467 34.5686 0.435974 33.816C0 32.9603 0 31.8402 0 29.6V6.4Z" fill="url(#paint0_linear_30197_16878)"/>
<path d="M0.25 6.4C0.25 5.27577 0.250194 4.44763 0.303666 3.79317C0.3569 3.14162 0.461689 2.68424 0.658726 2.29754C1.01825 1.59193 1.59193 1.01825 2.29754 0.658726C2.68424 0.461689 3.14162 0.3569 3.79317 0.303666C4.44763 0.250194 5.27577 0.25 6.4 0.25H49.6C50.7242 0.25 51.5524 0.250194 52.2068 0.303666C52.8584 0.3569 53.3158 0.461689 53.7025 0.658726C54.4081 1.01825 54.9818 1.59193 55.3413 2.29754C55.5383 2.68424 55.6431 3.14162 55.6963 3.79317C55.7498 4.44763 55.75 5.27577 55.75 6.4V29.6C55.75 30.7242 55.7498 31.5524 55.6963 32.2068C55.6431 32.8584 55.5383 33.3158 55.3413 33.7025C54.9818 34.4081 54.4081 34.9818 53.7025 35.3413C53.3158 35.5383 52.8584 35.6431 52.2068 35.6963C51.5524 35.7498 50.7242 35.75 49.6 35.75H6.4C5.27577 35.75 4.44763 35.7498 3.79317 35.6963C3.14162 35.6431 2.68424 35.5383 2.29754 35.3413C1.59193 34.9818 1.01825 34.4081 0.658726 33.7025C0.461689 33.3158 0.3569 32.8584 0.303666 32.2068C0.250194 31.5524 0.25 30.7242 0.25 29.6V6.4Z" stroke="#0805A8" stroke-opacity="0.04" stroke-width="0.5"/>
<path d="M45.8948 24.5483V28.063H45.0699V24.5425H44.1553V23.7931H46.8095V24.5425L45.8948 24.5483Z" fill="#124483"/>
<path d="M31.3051 23.7931V28.063H30.4802V24.5425H28.8305V28.063H28V23.7931H31.3051Z" fill="#124483"/>
<path d="M33.3249 23.7911C33.7906 23.7911 34.1105 23.8434 34.4135 24.1164C34.7502 24.4243 34.8343 24.8426 34.8343 25.1447C34.8343 25.3132 34.8119 25.7721 34.492 26.0974C34.262 26.3356 33.9253 26.4751 33.4483 26.4751H32.9489V28.0552H32.124V23.7853L33.3249 23.7911ZM32.9489 25.7663H33.2575C33.4146 25.7663 33.611 25.7663 33.785 25.6327C33.9309 25.5107 34.0095 25.319 34.0095 25.1331C34.0095 24.8949 33.8972 24.738 33.7794 24.6451C33.611 24.5231 33.4034 24.5115 33.2126 24.5115H32.9545L32.9489 25.7663Z" fill="#124483"/>
<path d="M43.3306 27.9116C43.0837 28.0453 42.7582 28.1614 42.3093 28.1614C41.5854 28.1614 41.1477 27.9058 40.7998 27.5631C40.3229 27.0867 40.1377 26.558 40.1377 25.9306C40.1377 25.158 40.4463 24.6002 40.7998 24.2575C41.2151 23.8566 41.7257 23.694 42.3149 23.694C42.6067 23.694 42.9546 23.7463 43.3306 23.9554V24.9314C42.9546 24.4841 42.4833 24.4492 42.3374 24.4492C41.5069 24.4492 40.9682 25.1521 40.9682 25.9422C40.9682 26.8892 41.6752 27.4004 42.3654 27.4004C42.747 27.4004 43.0893 27.2261 43.3306 26.9356V27.9116Z" fill="#124483"/>
<path d="M48.4645 23.7931V28.063H47.6396V23.7931H48.4645Z" fill="#124483"/>
<path d="M50.4909 23.7911C50.9566 23.7911 51.2765 23.8434 51.5795 24.1164C51.9162 24.4243 52.0003 24.8426 52.0003 25.1447C52.0003 25.3132 51.9779 25.7721 51.6581 26.0974C51.428 26.3356 51.0913 26.4751 50.6143 26.4751H50.1149V28.0552H49.29V23.7853L50.4909 23.7911ZM50.1149 25.7663H50.4235C50.5807 25.7663 50.7771 25.7663 50.951 25.6327C51.0969 25.5107 51.1755 25.319 51.1755 25.1331C51.1755 24.8949 51.0632 24.738 50.9454 24.6451C50.7771 24.5231 50.5694 24.5115 50.3787 24.5115H50.1205L50.1149 25.7663Z" fill="#124483"/>
<path d="M37.0743 25.9356C37.0743 25.9298 37.0743 25.9356 37.0743 25.9356C37.0743 25.6916 37.2595 25.4999 37.4896 25.4999C37.7196 25.4999 37.9048 25.6916 37.9048 25.9298C37.9048 26.168 37.7196 26.3597 37.4896 26.3597V26.9407C38.0283 26.9407 38.4659 26.4875 38.4659 25.924C38.4659 25.3663 38.0283 24.9073 37.4839 24.9073C36.9453 24.9073 36.502 25.3605 36.502 25.924V25.9298L37.0743 25.9356Z" fill="#FFCB05"/>
<path d="M38.9364 25.1978C39.0431 25.4186 39.0992 25.6684 39.0992 25.9298C39.0992 26.8535 38.3753 27.5971 37.4887 27.5971C36.5965 27.5971 35.8782 26.8477 35.8782 25.9298C35.8782 25.041 36.546 24.3148 37.3933 24.2625L37.7973 23.6235C37.6963 23.6118 37.5953 23.6002 37.4887 23.6002C36.2486 23.6002 35.2441 24.6401 35.2441 25.924C35.2441 27.2079 36.2486 28.2478 37.4887 28.2478C38.7288 28.2478 39.7333 27.2079 39.7333 25.924C39.7333 25.4244 39.5818 24.9596 39.318 24.582L38.9364 25.1978Z" fill="#124483"/>
<defs>
<linearGradient id="paint0_linear_30197_16878" x1="56" y1="2.59611e-06" x2="1.56553e-06" y2="34.8354" gradientUnits="userSpaceOnUse">
<stop offset="0.144565" stop-color="#FFEFA5"/>
<stop offset="0.416287" stop-color="#FFF4C1"/>
<stop offset="0.70626" stop-color="#BAD2F8"/>
<stop offset="0.839731" stop-color="#98D4F0"/>
</linearGradient>
</defs>
</svg>
