<svg width="32" height="32" viewBox="0 0 32 32" fill="none" xmlns="http://www.w3.org/2000/svg">
<g clip-path="url(#clip0_32002_793)">
<path fill-rule="evenodd" clip-rule="evenodd" d="M16 32C7.04054 32 4.62882 31.5462 2.54134 29.4587C0.440812 27.3582 0 24.9595 0 16C0 7.04054 0.453809 4.64182 2.54134 2.54134C4.62882 0.453809 7.04054 0 16 0C24.9595 0 27.3712 0.453809 29.4587 2.54134C31.5591 4.64182 32 7.04054 32 16C32 24.9595 31.5591 27.3582 29.4587 29.4587C27.3712 31.5462 24.9595 32 16 32Z" fill="#FF700D"/>
<path d="M24.7285 11.6031L24.7301 11.6062L24.7207 11.6172H24.7191L24.4917 11.7976V11.8039L24.465 11.8133L24.4634 11.8086C24.0336 11.818 23.599 11.7851 23.1425 11.7521C23.1331 11.7521 23.1284 11.7505 23.1269 11.7505C22.515 11.7066 21.8844 11.6596 21.2742 11.7207H21.2663L20.5792 11.6454C19.1281 11.5356 17.9641 11.4964 16.9115 11.5246C16.8629 11.5231 16.8111 11.5152 16.7578 11.5043C16.7452 11.5011 16.7389 11.5011 16.7358 11.5011C16.6229 11.4776 16.5146 11.4556 16.397 11.4964V11.5011H16.375V11.498C16.2401 11.465 16.0926 11.4697 15.9483 11.4713C15.7993 11.4744 15.6565 11.476 15.5326 11.4415C15.4824 11.4446 15.4291 11.4556 15.3773 11.465L15.36 11.4697C15.2455 11.4901 15.1247 11.5152 15.0133 11.4886C14.4674 11.5105 13.9246 11.509 13.4022 11.5058H13.3505H13.3395C12.53 11.5011 11.6923 11.4964 10.8593 11.578L10.8515 11.5796C10.7872 11.5858 10.646 11.5796 10.3448 11.5827L9.21214 11.5874C8.10304 11.5905 7.49123 11.5874 7.39711 11.578C7.26847 11.5654 7.22455 11.4792 7.22611 11.4039C7.22925 11.2705 7.37358 11.1058 7.4928 11.0979C7.53045 11.0948 7.81125 11.0948 8.34933 11.0932C9.35803 11.0901 11.0491 11.0854 11.7566 11.0666C12.4359 11.0462 13.1026 11.0289 13.7897 11.0242C14.7168 10.9897 15.6644 10.9803 16.5256 11.0054C16.5256 11.0054 17.7539 11.0305 20.2074 11.0807C20.6624 11.087 21.1189 11.0823 21.5581 11.0776L21.5926 11.076H21.6193C22.4978 11.0666 23.3277 11.0572 24.1952 11.1403C24.3316 11.0807 24.534 11.1262 24.6674 11.2062H24.6689L24.6768 11.2109L24.6752 11.2125C24.7819 11.3097 24.8054 11.4839 24.7285 11.6031Z" fill="white"/>
<path d="M18.5994 19.1626C18.5618 19.4324 18.5696 19.7085 18.5775 20.0003C18.5853 20.2968 18.5931 20.6059 18.5524 20.9259L18.5414 21.0106L18.4567 20.9949C18.3971 20.9808 18.3406 20.9855 18.2637 21.0075L18.1617 21.0373V20.951C18.1257 20.9588 18.077 20.9604 18.0331 20.9322C18.0331 20.9322 18.0315 20.9306 18.03 20.9306C17.997 20.9133 17.9798 20.882 17.9798 20.8427V20.631L17.9123 20.5745L17.9923 20.5478L17.906 20.4615H18.0111C18.008 20.4396 18.0096 20.4113 18.0206 20.3862C18.0268 20.3705 18.0409 20.3533 18.0613 20.3376L18.0331 20.3015L18.0315 20.3047C18.0362 20.2968 18.0378 20.2749 18.0409 20.2607C18.0441 20.2262 18.0488 20.1619 18.0943 20.1196C18.0943 20.1164 18.0943 20.1133 18.0927 20.1117C18.0864 20.0897 18.0786 20.0599 18.0692 20.049L17.9625 19.9188H18.0237C18.0237 19.8827 18.0362 19.8497 18.0472 19.8278L18.0488 19.8215L17.9609 19.7242L18.0315 19.6881C18.0315 19.6693 18.0331 19.6489 18.0347 19.6348C18.0378 19.605 18.0394 19.5768 18.0347 19.547L18.0268 19.4889L18.0394 19.4842C18.0331 19.4607 18.0331 19.4403 18.0331 19.4262V19.3226C18.03 19.2991 18.0268 19.2771 18.0237 19.2583C18.0237 19.2379 18.0206 19.2191 18.0143 19.205L18.0096 19.0999H18.099C18.1053 19.0999 18.1053 19.0999 18.1084 19.0999C18.1115 19.092 18.1162 19.0779 18.1194 19.0669C18.1272 19.045 18.1351 19.0183 18.1508 18.9885L18.0425 18.9304C18.0441 18.9257 18.0457 18.9226 18.0488 18.9195H18.0472C18.0613 18.9006 18.066 18.8755 18.0755 18.8473C18.0786 18.8332 18.0833 18.8159 18.088 18.8002L18.0284 18.7924L18.0331 18.7171C18.0409 18.6638 18.066 18.6292 18.0911 18.6057C18.0864 18.6026 18.0833 18.601 18.0817 18.5963C18.0676 18.5791 18.0566 18.5461 18.0723 18.5006L18.077 18.4802L18.0566 18.3908L18.1225 18.3579C18.1288 18.3484 18.1366 18.3422 18.1445 18.3359L18.1413 18.3328L18.1131 18.2308H18.1523C18.1445 18.2182 18.1304 18.2026 18.1115 18.1837C18.0629 18.1367 17.9845 18.0567 18.0158 17.9468C17.986 17.9327 17.9813 17.8951 17.9782 17.8966L18.0143 17.8355C18.0017 17.7962 18.0143 17.7617 18.0253 17.7366L18.0017 17.6849L18.0519 17.6723V17.6488C18.0519 17.608 18.0535 17.5876 18.0535 17.5876L18.0676 17.5829C18.0472 17.5735 18.0315 17.5562 18.0237 17.5296L18.008 17.4841L18.0237 17.4652C18.0237 17.4605 18.0206 17.4558 18.0206 17.448C18.0174 17.4166 18.0315 17.3947 18.0457 17.3805C18.0409 17.3664 18.0362 17.3554 18.0315 17.3429C18.008 17.2786 17.9735 17.197 17.997 17.1107L18.0017 17.0982L18.008 17.0872C18.0237 17.0605 18.0268 17.0307 18.0284 16.9836C18.0284 16.9554 18.03 16.9256 18.0331 16.8927H18.0033L18.0206 16.7985C18.0221 16.7891 18.0253 16.7813 18.0284 16.7734C18.0033 16.7687 17.9782 16.7609 17.9782 16.7577L18.0002 16.6762C18.0017 16.6683 17.9955 16.6448 17.9955 16.6322C17.9876 16.5899 17.9782 16.5334 18.0158 16.4816C18.0174 16.4801 18.0206 16.4785 18.0237 16.4769C17.9421 16.3389 17.9751 16.1695 18.0017 16.0393L18.0096 16.0032C18.008 16 18.0064 15.9953 18.0033 15.9922C17.9955 15.9734 17.9829 15.9436 17.9829 15.9122L17.9515 15.8949L17.9123 15.84L17.9311 15.7663L17.9578 15.7412C17.9484 15.7224 17.9453 15.7083 17.9405 15.6941C17.939 15.691 17.9374 15.6894 17.9374 15.6863C17.9358 15.6863 17.9358 15.6863 17.9358 15.6863L17.9107 15.6471L17.9045 15.5843C17.9107 15.5357 17.9092 15.5075 17.9453 15.4808C17.9421 15.4777 17.9358 15.4729 17.9296 15.4667C17.8825 15.4322 17.7868 15.3553 17.8574 15.2188L17.8715 15.189C17.8668 15.1796 17.8605 15.1686 17.8574 15.1576C17.8401 15.1231 17.8135 15.0713 17.8182 15.0196L17.8072 15.0102L17.7539 14.9568L17.7727 14.8972C17.7711 14.8878 17.768 14.8768 17.7664 14.869C17.757 14.8407 17.7366 14.7764 17.7601 14.7247C17.6786 14.6384 17.6488 14.5082 17.6252 14.4046C17.6252 14.4015 17.6237 14.3999 17.6237 14.3984H17.5656V14.3184C17.5656 14.2336 17.4276 14.0407 17.2927 13.8979C17.2315 13.8964 17.1546 13.8728 17.1185 13.8242L17.1013 13.8038V13.8007C17.0934 13.7944 17.0793 13.7834 17.0699 13.7803C17.0432 13.7646 17.015 13.7473 16.9899 13.7254C16.8722 13.7442 16.7922 13.6548 16.7452 13.603C16.7373 13.5967 16.7295 13.5858 16.7216 13.5763L16.684 13.6344L16.6197 13.6014C16.4393 13.5042 16.24 13.5308 16.011 13.5591L15.9341 13.5701L15.8761 13.5763L15.8745 13.5716C15.84 13.5795 15.8118 13.5701 15.7992 13.5607C15.7851 13.5528 15.7741 13.5544 15.7333 13.5685C15.7176 13.5748 15.6957 13.581 15.6753 13.5842C15.6518 13.6234 15.611 13.6344 15.589 13.6391C15.5874 13.6391 15.5843 13.6422 15.5827 13.6422L15.5498 13.6736L15.4996 13.6501C15.451 13.6265 15.4259 13.6407 15.3537 13.7003C15.3082 13.7364 15.2549 13.7756 15.1874 13.7944C15.1655 13.8148 15.1309 13.8305 15.0729 13.8242C15.0305 13.8791 14.9741 13.9168 14.9223 13.9481C14.8533 13.9921 14.8109 14.0187 14.7984 14.0689L14.7874 14.1128L14.7435 14.1254C14.6556 14.1505 14.6211 14.2038 14.5756 14.2823C14.5458 14.3325 14.5113 14.3889 14.4564 14.4391C14.4595 14.4501 14.4611 14.4595 14.4611 14.4721C14.4627 14.5301 14.4172 14.5678 14.3889 14.5913C14.3842 14.596 14.3764 14.6039 14.3717 14.6086L14.3732 14.6117L14.3701 14.6305C14.356 14.7466 14.3042 14.8298 14.2572 14.9035C14.2132 14.9725 14.1787 15.0259 14.1787 15.0902C14.1787 15.0917 14.1787 15.0933 14.1787 15.0964C14.2054 15.1231 14.2164 15.1529 14.2132 15.1859L14.207 15.2376C14.1944 15.3867 14.1803 15.542 14.1175 15.6675C14.1411 15.7302 14.1269 15.7914 14.1144 15.8447C14.1034 15.8871 14.094 15.9263 14.105 15.9624L14.1113 15.9828L14.1066 16.0016C14.0971 16.0393 14.0956 16.0785 14.094 16.1208C14.094 16.1742 14.0909 16.2322 14.0752 16.2934C14.0924 16.3358 14.083 16.3812 14.0485 16.4252L14.0532 16.4362L14.0516 16.455C14.0501 16.535 14.0516 16.6103 14.0516 16.6824C14.0548 16.8472 14.0579 16.9993 14.0203 17.1672C14.0344 17.3131 14.0297 17.4731 14.025 17.6268C14.0203 17.7978 14.014 17.9751 14.036 18.1429V18.1445L14.0375 18.1492C14.0375 18.2779 14.0438 18.419 14.0501 18.5665C14.0642 18.9179 14.0799 19.3132 14.0532 19.6505C14.0752 19.7274 14.0689 19.8011 14.0611 19.8686C14.0516 19.9391 14.0438 20.0035 14.0752 20.0678L14.0862 20.0866L14.083 20.1086C14.0815 20.1541 14.0752 20.1996 14.072 20.2498C14.0548 20.4317 14.0344 20.6404 14.0815 20.7957L14.0862 20.8129L14.083 20.8318C14.0815 20.8412 14.0815 20.8522 14.0815 20.8663C14.0767 20.9306 14.072 21.0451 13.9544 21.0796L13.9105 21.0922L13.8775 21.0608C13.7222 20.9118 13.7191 20.7157 13.7191 20.5415C13.7191 20.4521 13.7191 20.3643 13.6971 20.2953L13.6751 20.2262L13.7065 20.2137C13.6955 20.1901 13.6846 20.1556 13.6971 20.118L13.6955 20.1321L13.7065 20.0333C13.6642 19.9376 13.6767 19.8387 13.6846 19.7587C13.6924 19.7038 13.6987 19.6505 13.6846 19.6207L13.6877 19.6254C13.6469 19.5579 13.6799 19.4968 13.6971 19.4638C13.6987 19.4607 13.7002 19.4575 13.7034 19.4544L13.6328 19.4026L13.6877 19.3477C13.6438 19.263 13.6673 19.1626 13.6877 19.0858C13.7097 18.9963 13.7191 18.9399 13.6908 18.8991L13.6516 18.8426L13.6908 18.8018C13.694 18.7846 13.6987 18.7689 13.7081 18.7579C13.683 18.7171 13.6689 18.6638 13.6767 18.6089L13.6783 18.5994L13.6422 18.5053H13.6438C13.6422 18.5037 13.6391 18.5006 13.6391 18.4959L13.6704 18.4865C13.6548 18.4802 13.6391 18.4677 13.6281 18.452C13.6124 18.4206 13.6124 18.3955 13.6171 18.372L13.5151 18.27L13.614 18.2339C13.6077 18.1947 13.5983 18.1351 13.6328 18.0818C13.6124 18.0253 13.5779 17.9233 13.6516 17.8464C13.65 17.837 13.6453 17.8213 13.6438 17.8088C13.6312 17.7696 13.6171 17.7068 13.6422 17.6441C13.6077 17.5892 13.6234 17.5249 13.6312 17.4951C13.6328 17.4841 13.6359 17.4747 13.6375 17.4652L13.5842 17.357L13.6642 17.3382C13.661 17.3303 13.6595 17.3209 13.6595 17.3115C13.614 17.2676 13.6187 17.2033 13.6202 17.1688C13.6202 17.164 13.6202 17.1593 13.6202 17.1562L13.5779 17.106L13.6202 17.0276C13.6375 17.0056 13.6344 16.9852 13.6281 16.9319C13.6202 16.8958 13.6155 16.8519 13.6234 16.8064L13.5544 16.7577L13.5606 16.7279L13.5983 16.6495C13.5998 16.6448 13.6046 16.6275 13.6046 16.5742C13.6046 16.546 13.6124 16.524 13.6202 16.513C13.6265 16.5052 13.6312 16.4989 13.6375 16.4926C13.614 16.422 13.6375 16.3389 13.6579 16.2714C13.6783 16.1993 13.6987 16.1271 13.672 16.08L13.6359 16.0189L13.6877 15.9796C13.6877 15.9702 13.6846 15.9483 13.683 15.9342C13.6767 15.8887 13.6673 15.8196 13.7065 15.7585C13.6971 15.6534 13.7081 15.5545 13.7222 15.4573C13.7348 15.36 13.7473 15.2659 13.7332 15.167L13.7253 15.1153L13.7599 15.0917C13.7599 15.0855 13.7614 15.0713 13.7614 15.0604C13.7614 15.0368 13.7614 14.996 13.7771 14.9568L13.7536 14.9396L13.8054 14.8753C13.8179 14.8596 13.8195 14.8407 13.8257 14.8109C13.8336 14.7717 13.8414 14.7215 13.8838 14.6713C13.8885 14.6635 13.8901 14.6462 13.8916 14.6337C13.8995 14.596 13.9073 14.5395 13.9465 14.4972C13.9544 14.436 14.0046 14.4062 14.0234 14.3937L14.0077 14.3591L14.0328 14.3215C14.1144 14.2007 14.2195 14.0877 14.3183 13.9826C14.4062 13.8885 14.4878 13.8022 14.5521 13.7144C14.5772 13.6799 14.5913 13.6626 14.5929 13.6658L14.6525 13.6893C14.6572 13.6893 14.6603 13.6893 14.665 13.6909V13.6893V13.6093H14.7435H14.7686C14.7827 13.5952 14.8015 13.581 14.8203 13.5748L14.7952 13.5528L14.9035 13.5042C14.9537 13.4838 15.0447 13.4414 15.0729 13.4053L15.0949 13.3802L15.1278 13.3771C15.1466 13.3771 15.1529 13.3708 15.1733 13.3567C15.2031 13.3348 15.2423 13.3065 15.3113 13.2924C15.316 13.2893 15.3223 13.2861 15.3286 13.2783C15.3647 13.2485 15.4306 13.1951 15.5184 13.2171L15.52 13.214L15.498 13.1402L15.6925 13.1387H15.8369H15.9028C15.9451 13.1151 15.9969 13.1057 16.0549 13.1057L16.0643 13.043L16.1977 13.0822C16.2118 13.09 16.2243 13.0994 16.2353 13.1057L16.2526 13.0885L16.2887 13.09C16.3279 13.0947 16.3608 13.1089 16.3906 13.1183C16.4581 13.1418 16.4612 13.1387 16.4738 13.123L16.502 13.0869L16.5506 13.0916L16.8675 13.1402L16.935 13.1496V13.1857C16.9852 13.1873 17.0573 13.1951 17.095 13.2485L17.0966 13.25C17.2299 13.2924 17.3429 13.33 17.4637 13.4289L17.4888 13.4477L17.5076 13.443L17.5374 13.4681C17.5593 13.4885 17.5782 13.4995 17.597 13.512C17.6315 13.5356 17.6707 13.5591 17.7037 13.603L17.7131 13.6124C17.8464 13.7615 17.9986 13.9324 18.0943 14.1081C18.1382 14.1772 18.1586 14.2478 18.1759 14.3184C18.1978 14.4046 18.2182 14.4752 18.2747 14.5317L18.2919 14.5505L18.2982 14.5756L18.3469 14.8376C18.4174 15.2235 18.4912 15.6204 18.499 15.9938C18.5367 16.251 18.5429 16.546 18.5492 16.8315C18.5539 17.0825 18.5586 17.3194 18.5853 17.5358V17.5405V17.5437L18.601 18.9775V19.023L18.5837 19.0356C18.5979 19.0607 18.623 19.1093 18.5994 19.1626Z" fill="white"/>
<path d="M12.4906 19.1626C12.4514 19.4324 12.4593 19.7085 12.4655 20.0003C12.4749 20.2968 12.4828 20.6059 12.442 20.9259L12.431 21.0106L12.3463 20.9949C12.2867 20.9808 12.2302 20.9855 12.1534 21.0075L12.053 21.0373V20.951C12.0137 20.9588 11.9667 20.9604 11.9228 20.9322C11.9212 20.9322 11.9212 20.9306 11.9196 20.9306C11.8867 20.9133 11.8694 20.882 11.8694 20.8427V20.631L11.802 20.5745L11.8835 20.5478L11.7973 20.4615H11.9008C11.8992 20.4396 11.8992 20.4113 11.9102 20.3862C11.918 20.3705 11.9306 20.3533 11.951 20.3376L11.9243 20.3015C11.9243 20.3015 11.9228 20.3031 11.9228 20.3047C11.9259 20.2968 11.9275 20.2749 11.9306 20.2607C11.9337 20.2262 11.9416 20.1619 11.9839 20.1196C11.9839 20.1164 11.9839 20.1133 11.9824 20.1117C11.9761 20.0897 11.9682 20.0599 11.9604 20.049L11.8522 19.9188H11.9149C11.9149 19.8827 11.9275 19.8497 11.9369 19.8262C11.9384 19.8246 11.9384 19.8231 11.94 19.8215L11.8506 19.7242L11.9228 19.6881C11.9228 19.6693 11.9243 19.6489 11.9259 19.6348C11.9275 19.605 11.929 19.5768 11.9259 19.547L11.918 19.4889L11.929 19.4842C11.9259 19.4607 11.9243 19.4403 11.9243 19.4262V19.3226C11.9196 19.2991 11.918 19.2771 11.9149 19.2583C11.9133 19.2379 11.9102 19.2191 11.9055 19.205L11.8992 19.0999H11.9902C11.9933 19.0999 11.9949 19.0999 11.9965 19.0999C12.0012 19.092 12.0075 19.0779 12.0106 19.0669C12.0153 19.045 12.0232 19.0183 12.0388 18.9885L11.9322 18.9304C11.9337 18.9257 11.9369 18.9226 11.9384 18.9195H11.9369C11.951 18.9006 11.9573 18.8755 11.9667 18.8473C11.9682 18.8332 11.9745 18.8159 11.9792 18.8002L11.918 18.7924L11.9259 18.7171C11.9306 18.6638 11.9573 18.6292 11.9808 18.6057C11.9777 18.6026 11.9745 18.601 11.9698 18.5963C11.9588 18.5791 11.9463 18.5461 11.962 18.5006L11.9667 18.4802L11.9463 18.3908L12.0106 18.3579C12.0184 18.3484 12.0263 18.3422 12.0341 18.3359L12.0326 18.3328L12.0028 18.2308H12.042C12.0341 18.2182 12.02 18.2026 11.9996 18.1837C11.9526 18.1367 11.8741 18.0567 11.9055 17.9468C11.8757 17.9327 11.871 17.8951 11.8694 17.8966L11.9039 17.8355C11.8898 17.7962 11.9039 17.7617 11.9165 17.7366L11.8898 17.6849L11.9416 17.6723V17.6488C11.9416 17.608 11.9431 17.5876 11.9447 17.5876L11.9573 17.5829C11.9369 17.5735 11.9212 17.5562 11.9133 17.5296L11.8977 17.4841L11.9165 17.4652C11.9133 17.4605 11.9102 17.4558 11.9102 17.448C11.9086 17.4166 11.9212 17.3947 11.9353 17.3805C11.9306 17.3664 11.9275 17.3554 11.9212 17.3429C11.8961 17.2786 11.8647 17.197 11.8867 17.1107L11.8914 17.0982L11.8992 17.0872C11.9165 17.0605 11.918 17.0307 11.918 16.9836C11.918 16.9554 11.9196 16.9256 11.9259 16.8927H11.8914L11.9102 16.7985C11.9118 16.7891 11.9165 16.7813 11.918 16.7734C11.8961 16.7687 11.8678 16.7609 11.8678 16.7577L11.8898 16.6762C11.8898 16.6683 11.8867 16.6448 11.8835 16.6322C11.8788 16.5899 11.8678 16.5334 11.9071 16.4816C11.9086 16.4801 11.9102 16.4785 11.9133 16.4769C11.8318 16.3389 11.8647 16.1695 11.8914 16.0393L11.8992 16.0032C11.8961 16 11.8961 15.9953 11.8945 15.9922C11.8835 15.9734 11.8726 15.9436 11.8726 15.9122L11.8412 15.8949L11.802 15.84L11.8208 15.7663L11.849 15.7412C11.838 15.7224 11.8333 15.7083 11.8302 15.6941C11.8286 15.691 11.8286 15.6894 11.8271 15.6863H11.8255L11.8004 15.6471L11.7941 15.5843C11.8004 15.5357 11.7988 15.5075 11.8365 15.4808C11.8302 15.4777 11.8271 15.4729 11.8176 15.4667C11.7722 15.4322 11.678 15.3553 11.7471 15.2188L11.7596 15.189C11.7565 15.1796 11.7518 15.1686 11.7471 15.1576C11.7298 15.1231 11.7047 15.0713 11.7078 15.0196L11.6969 15.0102L11.6435 14.9568L11.6623 14.8972C11.6608 14.8878 11.6576 14.8768 11.6545 14.869C11.6467 14.8407 11.6247 14.7764 11.6498 14.7247C11.5666 14.6384 11.5368 14.5082 11.5149 14.4046C11.5149 14.4015 11.5149 14.3999 11.5149 14.3984H11.4553V14.3184C11.4553 14.2336 11.3172 14.0407 11.1823 13.8979C11.1211 13.8964 11.0443 13.8728 11.0082 13.8242L10.9909 13.8038V13.8007C10.9831 13.7944 10.969 13.7834 10.9595 13.7803C10.9329 13.7646 10.9046 13.7473 10.878 13.7254C10.7619 13.7442 10.6819 13.6548 10.6364 13.603C10.627 13.5967 10.6191 13.5858 10.6129 13.5763L10.5752 13.6344L10.5093 13.6014C10.3289 13.5042 10.1313 13.5308 9.90065 13.5591L9.82378 13.5701L9.76417 13.5763L9.7626 13.5716C9.72966 13.5795 9.70299 13.5701 9.6873 13.5607C9.67475 13.5528 9.66534 13.5544 9.62455 13.5685C9.60729 13.5748 9.5869 13.581 9.56494 13.5842C9.54298 13.6234 9.50219 13.6344 9.47866 13.6391C9.47552 13.6422 9.47395 13.6422 9.47238 13.6422L9.44101 13.6736L9.38924 13.6501C9.34061 13.6265 9.31551 13.6407 9.24335 13.7003C9.19785 13.7364 9.14452 13.7756 9.07549 13.7944C9.0551 13.8148 9.02059 13.8305 8.96254 13.8242C8.92019 13.8791 8.86371 13.9168 8.81194 13.9481C8.74292 13.9921 8.70056 14.0187 8.68801 14.0689L8.67703 14.1128L8.63311 14.1254C8.54369 14.1505 8.51075 14.2038 8.46682 14.2823C8.43545 14.3325 8.40093 14.3889 8.34603 14.4391C8.34917 14.4501 8.34917 14.4595 8.35073 14.4721C8.3523 14.5301 8.30838 14.5678 8.28014 14.5913C8.27387 14.596 8.26602 14.6039 8.26132 14.6086L8.26289 14.6117L8.25975 14.6305C8.2472 14.7466 8.19386 14.8298 8.14523 14.9035C8.10287 14.9725 8.06836 15.0259 8.06836 15.0902C8.06836 15.0917 8.06836 15.0933 8.06836 15.0964C8.0966 15.1231 8.10601 15.1529 8.10287 15.1859L8.0966 15.2376C8.08405 15.3867 8.06993 15.542 8.00875 15.6675C8.02914 15.7302 8.01659 15.7914 8.00561 15.8447C7.99463 15.8871 7.98522 15.9263 7.99463 15.9624L7.99934 15.9828L7.9962 16.0016C7.98679 16.0393 7.98679 16.0785 7.98522 16.1208C7.98365 16.1742 7.98051 16.2322 7.96482 16.2934C7.98208 16.3358 7.97267 16.3812 7.93816 16.4252L7.94286 16.4362V16.455C7.93972 16.535 7.94129 16.6103 7.94286 16.6824C7.94443 16.8472 7.94757 16.9993 7.90992 17.1672C7.92404 17.3131 7.9209 17.4731 7.91619 17.6268C7.90992 17.7978 7.90521 17.9751 7.92404 18.1429L7.92561 18.1445V18.1492C7.92718 18.2779 7.93502 18.419 7.93973 18.5665C7.95384 18.9179 7.96953 19.3132 7.94286 19.6505C7.96796 19.7274 7.95855 19.8011 7.95071 19.8686C7.94129 19.9391 7.93345 20.0035 7.96639 20.0678L7.97424 20.0866L7.97267 20.1086C7.9711 20.1541 7.96639 20.1996 7.96169 20.2498C7.94443 20.4317 7.92247 20.6404 7.9711 20.7957L7.97424 20.8129L7.97267 20.8318C7.9711 20.8412 7.9711 20.8522 7.9711 20.8663C7.96796 20.9306 7.96169 21.0451 7.8456 21.0796L7.80168 21.0922L7.76716 21.0608C7.61029 20.9118 7.61029 20.7157 7.61029 20.5415C7.61029 20.4521 7.60872 20.3643 7.58676 20.2953L7.56323 20.2262L7.59617 20.2137C7.58362 20.1901 7.57421 20.1556 7.58676 20.118L7.58362 20.1321L7.59774 20.0333C7.55382 19.9376 7.56637 19.8387 7.57578 19.7587C7.58205 19.7038 7.58833 19.6505 7.57421 19.6207L7.57735 19.6254C7.53813 19.5579 7.5695 19.4968 7.58676 19.4638C7.58833 19.4607 7.59146 19.4575 7.59303 19.4544L7.52244 19.4026L7.57891 19.3477C7.53185 19.263 7.55852 19.1626 7.57735 19.0858C7.59931 18.9963 7.61029 18.9399 7.58048 18.8991L7.54127 18.8426L7.58048 18.8018C7.58205 18.7846 7.58833 18.7689 7.59774 18.7579C7.57107 18.7171 7.56009 18.6638 7.56793 18.6089V18.5994L7.53185 18.5053C7.53185 18.5037 7.53028 18.5006 7.53028 18.4959L7.56166 18.4865C7.54597 18.4802 7.53028 18.4677 7.51773 18.452C7.50205 18.4206 7.50205 18.3955 7.50518 18.372L7.40479 18.27L7.50518 18.2339C7.49734 18.1947 7.4895 18.1351 7.52244 18.0818C7.50362 18.0253 7.4691 17.9233 7.5397 17.8464C7.5397 17.837 7.53499 17.8213 7.53185 17.8088C7.52244 17.7696 7.50832 17.7068 7.53185 17.6441C7.49891 17.5892 7.51303 17.5249 7.52087 17.4951C7.52244 17.4841 7.52558 17.4747 7.52715 17.4652L7.47538 17.357L7.55382 17.3382C7.55225 17.3303 7.55068 17.3209 7.54911 17.3115C7.50518 17.2676 7.50832 17.2033 7.50989 17.1688C7.51146 17.164 7.51146 17.1593 7.51146 17.1562L7.4691 17.106L7.51146 17.0276C7.52715 17.0056 7.52401 16.9852 7.51617 16.9319C7.51146 16.8958 7.50518 16.8519 7.51303 16.8064L7.444 16.7577L7.45028 16.7279L7.48793 16.6495C7.49107 16.6448 7.49577 16.6275 7.49577 16.5742C7.4942 16.546 7.50205 16.524 7.50989 16.513C7.51617 16.5052 7.52244 16.4989 7.52872 16.4926C7.50362 16.422 7.52715 16.3389 7.54754 16.2714C7.56793 16.1993 7.5899 16.1271 7.56323 16.08L7.52558 16.0189L7.57735 15.9796C7.57891 15.9702 7.57578 15.9483 7.57264 15.9342C7.56637 15.8887 7.55852 15.8196 7.59617 15.7585C7.58519 15.6534 7.59774 15.5545 7.61029 15.4573C7.62598 15.36 7.63853 15.2659 7.62441 15.167L7.615 15.1153L7.64951 15.0917C7.65108 15.0855 7.65108 15.0713 7.65108 15.0604C7.65108 15.0368 7.65265 14.996 7.66676 14.9568L7.6448 14.9396L7.695 14.8753C7.70755 14.8596 7.71069 14.8407 7.7154 14.8109C7.72167 14.7717 7.73265 14.7215 7.77501 14.6713C7.77814 14.6635 7.77971 14.6462 7.78285 14.6337C7.78913 14.596 7.79697 14.5395 7.83776 14.4972C7.8456 14.436 7.89423 14.4062 7.91463 14.3937L7.89737 14.3591L7.92247 14.3215C8.00404 14.2007 8.10758 14.0877 8.20955 13.9826C8.2974 13.8885 8.37897 13.8022 8.44172 13.7144C8.46682 13.6799 8.48094 13.6626 8.48408 13.6658L8.54212 13.6893C8.54526 13.6893 8.54996 13.6893 8.5531 13.6909V13.6893V13.6093H8.63468H8.65821C8.6739 13.5952 8.69115 13.581 8.70841 13.5748L8.68644 13.5528L8.79312 13.5042C8.84175 13.4838 8.93274 13.4414 8.96254 13.4053L8.98451 13.3802L9.01745 13.3771C9.03627 13.3771 9.04412 13.3708 9.06451 13.3567C9.09118 13.3348 9.13197 13.3065 9.20099 13.2924C9.2057 13.2893 9.21197 13.2861 9.21982 13.2783C9.2559 13.2485 9.32022 13.1951 9.4065 13.2171L9.40963 13.214L9.38767 13.1402L9.58376 13.1387H9.72495H9.79397C9.83476 13.1151 9.88653 13.1057 9.94457 13.1057L9.95555 13.043L10.0889 13.0822C10.103 13.09 10.114 13.0994 10.125 13.1057L10.1422 13.0885L10.1799 13.09C10.2175 13.0947 10.2505 13.1089 10.2819 13.1183C10.3493 13.1418 10.3509 13.1387 10.3634 13.123L10.3917 13.0869L10.4387 13.0916L10.7556 13.1402L10.8262 13.1496V13.1857C10.8764 13.1873 10.947 13.1951 10.9846 13.2485L10.9878 13.25C11.1196 13.2924 11.2325 13.33 11.3533 13.4289L11.3784 13.4477L11.3972 13.443L11.4286 13.4681C11.449 13.4885 11.4678 13.4995 11.4866 13.512C11.5212 13.5356 11.5619 13.5591 11.5949 13.603L11.6027 13.6124C11.7361 13.7615 11.8898 13.9324 11.9839 14.1081C12.0279 14.1772 12.0483 14.2478 12.0655 14.3184C12.089 14.4046 12.1063 14.4752 12.1643 14.5317L12.1832 14.5505L12.1879 14.5756L12.2365 14.8376C12.3071 15.2235 12.3808 15.6204 12.3871 15.9938C12.4263 16.251 12.4326 16.546 12.4389 16.8315C12.4436 17.0825 12.4483 17.3194 12.4749 17.5358V17.5405V17.5437L12.4906 18.9775L12.4922 19.023L12.4734 19.0356C12.4875 19.0607 12.5126 19.1093 12.4906 19.1626Z" fill="white"/>
<path d="M24.6044 19.2692C24.5668 19.5406 24.5746 19.8167 24.5824 20.1069C24.5903 20.405 24.5966 20.7156 24.5558 21.034L24.5464 21.1203L24.4601 21.1015C24.402 21.0905 24.3456 21.0936 24.2703 21.1156L24.1667 21.147V21.0591C24.1275 21.0686 24.082 21.0686 24.0397 21.0403C24.0397 21.0387 24.0365 21.0387 24.0334 21.0372C24.002 21.0231 23.9832 20.9901 23.9832 20.9525V20.7375L23.9173 20.6826L23.9973 20.656L23.911 20.5681H24.0161C24.0146 20.5477 24.0146 20.5211 24.0255 20.496C24.0318 20.4787 24.0459 20.4614 24.0663 20.4458L24.0381 20.4097V20.4112C24.0412 20.405 24.0428 20.383 24.0444 20.3689C24.0491 20.3344 24.0553 20.2701 24.1008 20.2277C24.0993 20.2246 24.0993 20.223 24.0961 20.2199C24.0914 20.1995 24.0836 20.1681 24.0726 20.1587L23.9659 20.0269H24.0302C24.0302 19.9908 24.0412 19.9595 24.0522 19.9359C24.0522 19.9344 24.0538 19.9312 24.0538 19.9296L23.9644 19.834L24.0381 19.7963C24.0381 19.7759 24.0381 19.7587 24.0397 19.7414C24.0412 19.7132 24.0444 19.6834 24.0397 19.6551L24.0318 19.5986L24.0428 19.5924C24.0397 19.5704 24.0381 19.5469 24.0381 19.5343V19.4308C24.0334 19.4073 24.0302 19.3869 24.0287 19.3665C24.0271 19.3445 24.0255 19.3288 24.0193 19.3116L24.0146 19.208H24.104C24.1071 19.208 24.1103 19.208 24.1118 19.208C24.1165 19.1986 24.1212 19.1861 24.1244 19.1751C24.1291 19.1547 24.1401 19.1265 24.1526 19.0966L24.0491 19.037C24.0491 19.0339 24.0506 19.0323 24.0538 19.0276H24.0522C24.0663 19.0104 24.071 18.9853 24.0789 18.9555C24.0836 18.9398 24.0883 18.9257 24.093 18.9084L24.0318 18.9006L24.0397 18.8253C24.0444 18.7735 24.071 18.7374 24.0961 18.7139C24.0914 18.7107 24.0899 18.7092 24.0867 18.7045C24.0726 18.6856 24.0601 18.6543 24.0742 18.6088L24.082 18.5868L24.0601 18.499L24.1259 18.466C24.1338 18.4582 24.1416 18.4519 24.1479 18.4425L24.1463 18.4409L24.1165 18.3389H24.1573C24.1479 18.3264 24.1338 18.3123 24.115 18.2919C24.0679 18.2433 23.9895 18.1648 24.0208 18.0566C24.0004 18.0456 23.9879 18.0283 23.9832 18.0048L24.0177 17.9436C24.0051 17.9044 24.0177 17.8683 24.0302 17.8464L24.0067 17.7946L24.0553 17.7789V17.7569C24.0553 17.7162 24.0569 17.6958 24.0585 17.6958L24.0726 17.6926C24.0522 17.6816 24.0365 17.666 24.0271 17.6393L24.0146 17.5922L24.0302 17.575C24.0287 17.5671 24.0255 17.5624 24.0255 17.5546C24.0224 17.5248 24.0365 17.5012 24.0506 17.4871C24.0459 17.4761 24.0412 17.4652 24.0365 17.451C24.0114 17.3852 23.9785 17.3036 24.002 17.2189L24.0067 17.2047L24.0146 17.1969C24.0302 17.1702 24.0302 17.1373 24.0318 17.0902C24.0334 17.0651 24.0334 17.0338 24.0397 17.0024H24.0083L24.0255 16.9051C24.0271 16.8988 24.0302 16.8879 24.0334 16.88C24.0083 16.8753 23.9832 16.869 23.9832 16.8659L24.0036 16.7843C24.0067 16.7749 24.0004 16.7529 23.9989 16.7404C23.9942 16.6996 23.9832 16.6416 24.0224 16.5882C24.024 16.5867 24.0271 16.5851 24.0287 16.5851C23.9455 16.447 23.9785 16.2776 24.0067 16.1474L24.0146 16.1113C24.013 16.1082 24.0083 16.1035 24.0083 16.1004C23.9989 16.08 23.9879 16.0517 23.9895 16.0188L23.9565 16.0031L23.9173 15.9466L23.9361 15.8745L23.9628 15.8478C23.9518 15.8321 23.9471 15.8133 23.944 15.8023C23.944 15.7992 23.9424 15.7976 23.9408 15.7944H23.9393L23.9157 15.7537L23.9079 15.694C23.9157 15.647 23.9157 15.6172 23.9502 15.5905C23.9455 15.5842 23.9393 15.5811 23.9314 15.5748C23.8875 15.5403 23.7918 15.465 23.864 15.3254L23.8765 15.2972C23.8718 15.2877 23.8655 15.2752 23.8624 15.2674C23.8436 15.2313 23.8185 15.1795 23.8247 15.1246L23.8106 15.1183L23.7589 15.065L23.7793 15.0054C23.7761 14.996 23.773 14.9865 23.7698 14.9787C23.7604 14.9489 23.7416 14.8846 23.7636 14.8312C23.682 14.7465 23.6522 14.6163 23.6302 14.5112L23.6287 14.5065H23.569V14.4265C23.569 14.3418 23.431 14.1473 23.2976 14.0061C23.238 14.0045 23.158 13.981 23.1219 13.9324L23.1078 13.912V13.9088C23.0984 13.901 23.0827 13.8931 23.0733 13.8869C23.0482 13.8727 23.0184 13.8555 22.9949 13.832C22.8772 13.8523 22.7972 13.7629 22.7502 13.7127C22.7439 13.7049 22.736 13.6955 22.7266 13.6876L22.6874 13.7441L22.6231 13.708C22.4443 13.6123 22.2466 13.6374 22.016 13.6672L21.9391 13.6782L21.8811 13.6861L21.8764 13.6798C21.845 13.6876 21.8183 13.6782 21.8042 13.6704C21.7885 13.661 21.7791 13.6625 21.7383 13.6767C21.7211 13.6829 21.7022 13.6892 21.6803 13.6939C21.6552 13.7316 21.616 13.7425 21.594 13.7472C21.5909 13.7472 21.5893 13.7488 21.5862 13.7488L21.5548 13.7818L21.5046 13.7582C21.4559 13.7363 21.4308 13.7472 21.3571 13.8084C21.3132 13.8445 21.2599 13.8837 21.1893 13.901C21.1704 13.9229 21.1359 13.9386 21.0779 13.9339C21.0355 13.9888 20.9791 14.0233 20.9273 14.0579C20.8583 14.0986 20.8143 14.1269 20.8018 14.1771L20.7908 14.221L20.7469 14.2336C20.659 14.2587 20.6261 14.3136 20.5806 14.3889C20.5492 14.4406 20.5147 14.4971 20.4614 14.5473C20.4645 14.5583 20.4661 14.5677 20.4661 14.5787C20.4661 14.6383 20.4221 14.6759 20.3939 14.701C20.3892 14.7057 20.3798 14.7105 20.3751 14.7183L20.3767 14.7214L20.3751 14.7403C20.361 14.8548 20.3076 14.9379 20.2606 15.0116C20.2166 15.0791 20.1837 15.1324 20.1837 15.1999V15.203C20.2088 15.2313 20.2198 15.2626 20.2166 15.2956L20.2104 15.3458C20.1978 15.4948 20.1853 15.6486 20.1225 15.7756C20.1445 15.8352 20.1319 15.898 20.1194 15.9513C20.1084 15.9937 20.1006 16.036 20.11 16.0705L20.1147 16.0909L20.11 16.1098C20.1037 16.1458 20.1021 16.1866 20.1006 16.229C20.0974 16.2823 20.0959 16.3388 20.0786 16.4016C20.0959 16.4455 20.088 16.4894 20.0519 16.5333L20.0582 16.5443L20.0566 16.5631C20.0551 16.6431 20.0566 16.72 20.0566 16.7937C20.0598 16.9553 20.0613 17.1075 20.0253 17.2753C20.0394 17.4212 20.0362 17.5812 20.03 17.7334C20.0253 17.9075 20.019 18.0848 20.0394 18.248L20.0409 18.2542V18.2574C20.0441 18.386 20.0488 18.5272 20.0551 18.6747C20.0676 19.0261 20.0849 19.4214 20.0582 19.7587C20.0802 19.8355 20.0739 19.9093 20.0645 19.9751C20.0566 20.0473 20.0488 20.1101 20.0786 20.1744L20.0896 20.1948L20.088 20.2167C20.0849 20.2622 20.0802 20.3077 20.0755 20.3563C20.0582 20.5399 20.0394 20.7485 20.0864 20.9054L20.0896 20.9227L20.088 20.9399C20.0864 20.9493 20.0864 20.9619 20.0864 20.9744C20.0817 21.0372 20.0755 21.1533 19.9609 21.1893L19.9154 21.2003L19.8809 21.1674C19.7241 21.0199 19.7241 20.8238 19.7241 20.6513C19.7241 20.5603 19.7241 20.4724 19.7021 20.4034L19.6801 20.3359L19.7115 20.3203C19.699 20.2967 19.6895 20.2669 19.7005 20.2277L19.699 20.2387L19.7115 20.1414C19.6692 20.0457 19.6801 19.9485 19.6895 19.8685C19.6974 19.812 19.7037 19.7587 19.6895 19.7273L19.6927 19.7336C19.6519 19.6692 19.6848 19.6049 19.7021 19.572C19.7037 19.5704 19.7052 19.5657 19.7084 19.561L19.6378 19.5108L19.6943 19.4559C19.6488 19.3696 19.6723 19.2723 19.6927 19.1955C19.7131 19.1045 19.7241 19.0496 19.6958 19.0057L19.6566 18.9508L19.6974 18.9115C19.699 18.8927 19.7037 18.8786 19.7131 18.866C19.6864 18.8253 19.6739 18.7735 19.6817 18.7186L19.6833 18.7092L19.6472 18.615C19.6472 18.6103 19.6456 18.6072 19.6441 18.6041L19.6739 18.5946C19.6597 18.5884 19.6441 18.5743 19.6331 18.557C19.6158 18.5303 19.6158 18.5037 19.6205 18.4801L19.5186 18.375L19.619 18.3421C19.6111 18.3044 19.6048 18.2417 19.6378 18.1899C19.6174 18.1366 19.5813 18.033 19.655 17.9562C19.655 17.9436 19.6519 17.9295 19.6472 17.917C19.6362 17.8762 19.6221 17.815 19.6456 17.7522C19.6127 17.6958 19.6284 17.6314 19.6346 17.6016C19.6378 17.5922 19.6409 17.5828 19.6425 17.575L19.5907 17.4652L19.6692 17.4448C19.666 17.4369 19.6644 17.4291 19.6629 17.4197C19.619 17.3742 19.6221 17.3114 19.6252 17.2769C19.6252 17.2706 19.6252 17.2675 19.6252 17.2644L19.5829 17.2126L19.6268 17.1357C19.6425 17.1138 19.6393 17.0934 19.6315 17.04C19.6252 17.0039 19.619 16.9616 19.6268 16.9145L19.5593 16.8659L19.5656 16.8345L19.6033 16.7577C19.6048 16.7529 19.6095 16.7357 19.6095 16.6808C19.608 16.6541 19.6158 16.6322 19.6252 16.6212C19.6299 16.6133 19.6362 16.6071 19.6425 16.6023C19.619 16.5318 19.6425 16.4455 19.6613 16.3796C19.6833 16.3074 19.7037 16.2353 19.677 16.1882L19.6409 16.127L19.6927 16.0878C19.6943 16.0784 19.6895 16.0564 19.688 16.0423C19.6817 15.9968 19.6723 15.9262 19.7115 15.8682C19.7005 15.7584 19.7131 15.6627 19.7241 15.567C19.7382 15.4666 19.7523 15.374 19.7382 15.2736L19.7319 15.2234L19.7633 15.2015C19.7648 15.1921 19.7664 15.1795 19.7664 15.1685C19.7664 15.1434 19.7664 15.1026 19.7821 15.065L19.7601 15.0477L19.8088 14.9834C19.8229 14.9677 19.826 14.952 19.8307 14.9207C19.837 14.8814 19.8464 14.8297 19.8888 14.7763C19.8919 14.7716 19.8951 14.7544 19.8966 14.7434C19.9029 14.7042 19.9123 14.6477 19.9515 14.6038C19.9609 14.5457 20.0096 14.5144 20.0284 14.5034L20.0127 14.4657L20.0362 14.4312C20.1194 14.3089 20.2245 14.1975 20.3249 14.0877C20.4127 13.9982 20.4927 13.9104 20.5571 13.8225C20.5822 13.788 20.5963 13.7708 20.5994 13.7723L20.6575 13.7974C20.6606 13.799 20.6653 13.8006 20.67 13.8006V13.7974V13.7174H20.7484H20.7735C20.7877 13.7018 20.8065 13.6908 20.8237 13.6829L20.8002 13.661L20.9085 13.6123C20.9571 13.5888 21.0481 13.5512 21.0779 13.5135L21.0998 13.49L21.1328 13.4868C21.1516 13.4853 21.1595 13.4806 21.1798 13.4664C21.2065 13.4429 21.2457 13.4147 21.3148 13.4021C21.3195 13.4006 21.3273 13.3927 21.332 13.388C21.3697 13.3566 21.434 13.3049 21.5218 13.3268C21.5218 13.3253 21.5234 13.3237 21.525 13.3221L21.5014 13.2484L21.6975 13.2468H21.8419H21.9062C21.9485 13.2249 22.0003 13.2123 22.0599 13.2123L22.0693 13.1511L22.2027 13.1919C22.2168 13.1998 22.2293 13.2076 22.2387 13.2139L22.2591 13.195L22.2937 13.1998C22.3297 13.2029 22.3658 13.217 22.3941 13.2249C22.4631 13.25 22.4662 13.2468 22.4772 13.2327L22.507 13.1935L22.5541 13.1998L22.8725 13.2484L22.9384 13.2578V13.2923C22.9902 13.2954 23.0608 13.3033 23.1 13.3566H23.1031C23.2349 13.4006 23.3478 13.4382 23.4686 13.537L23.4922 13.5559L23.5126 13.5512L23.5424 13.5763C23.5628 13.5966 23.5832 13.6076 23.6004 13.6202C23.6349 13.6421 23.6757 13.6672 23.7087 13.7127L23.7165 13.719C23.8498 13.8696 24.002 14.0406 24.1008 14.2163C24.1432 14.2838 24.1636 14.3575 24.1808 14.4265C24.2028 14.5112 24.2216 14.5834 24.2812 14.6399L24.2969 14.6587L24.3016 14.6838L24.3487 14.9458C24.4209 15.3317 24.4946 15.7301 24.5024 16.1019C24.5417 16.3608 24.5479 16.6541 24.5526 16.9381C24.5573 17.1906 24.5636 17.4291 24.5903 17.6456V17.6487V17.6534L24.606 19.0872V19.1312L24.5887 19.1437C24.6028 19.1688 24.6279 19.2174 24.6044 19.2692Z" fill="white"/>
<path fill-rule="evenodd" clip-rule="evenodd" d="M27.0016 5V27H5V5H27.0016ZM25.8376 6.16244H6.16087V25.8391H25.8376V6.16244Z" fill="white"/>
</g>
<defs>
<clipPath id="clip0_32002_793">
<rect width="32" height="32" fill="white"/>
</clipPath>
</defs>
</svg>
