<svg width="16" height="17" viewBox="0 0 16 17" fill="none" xmlns="http://www.w3.org/2000/svg">
<path fill-rule="evenodd" clip-rule="evenodd" d="M1.70709 0.907614C1.31653 0.517123 0.683309 0.517123 0.292751 0.907614C-0.0978073 1.2981 -0.0978073 1.93122 0.292751 2.32171L6.58705 8.61492L0.292764 14.9081C-0.0977933 15.2986 -0.0977937 15.9317 0.292764 16.3222C0.683322 16.7127 1.31654 16.7127 1.7071 16.3222L8.00138 10.029L14.2957 16.3222C14.6862 16.7127 15.3194 16.7127 15.71 16.3222C16.1006 15.9317 16.1006 15.2986 15.71 14.9081L9.41572 8.61492L15.71 2.32171C16.1006 1.93122 16.1006 1.2981 15.71 0.907614C15.3195 0.517123 14.6862 0.517123 14.2957 0.907614L8.00138 7.20083L1.70709 0.907614Z" fill="black"/>
</svg>
