<svg width="24" height="24" viewBox="0 0 24 24" fill="none" xmlns="http://www.w3.org/2000/svg">
<path fill-rule="evenodd" clip-rule="evenodd" d="M4.77445 3.60034H19.225C19.2537 3.60037 19.2822 3.60038 19.3107 3.60039C20.2238 3.60059 21.0387 3.60077 21.8703 4.43268C22.7279 5.29055 22.799 6.22837 22.7997 7.17635V15.5104C22.7987 16.4581 22.6874 17.3212 21.8908 18.1178C21.0942 18.9144 20.1727 19.084 19.225 19.0851H18.1274C17.6339 19.0851 17.2337 18.685 17.2337 18.1914C17.2337 17.6979 17.6339 17.2977 18.1274 17.2977H19.225C19.6988 17.297 20.2281 17.0843 20.5631 16.7493C20.8982 16.4142 21.0116 15.9842 21.0123 15.5104V9.85566H2.98711V15.5104C2.98781 15.9842 3.11147 16.4551 3.44652 16.7901C3.78156 17.1252 4.30062 17.297 4.77445 17.2977H5.87265C6.36585 17.2977 6.76566 17.6976 6.76566 18.1908C6.76566 18.684 6.36585 19.0838 5.87265 19.0838H4.77445C3.82669 19.0827 2.93589 19.0165 2.11886 18.1995C1.28141 17.3621 1.20075 16.4568 1.19971 15.5091V7.17503C1.20075 6.22728 1.28141 5.29055 2.078 4.49396C2.81332 3.75865 3.82669 3.60139 4.77445 3.60034ZM2.98711 7.17503V8.06843H21.0123V7.17503C21.0122 7.11671 21.0131 7.05875 21.0139 7.0011C21.0201 6.5903 21.026 6.19525 20.6857 5.80119C20.3249 5.38348 19.7821 5.38564 19.3268 5.38746C19.2923 5.3876 19.2583 5.38773 19.225 5.38768H4.77445C4.71397 5.38777 4.65229 5.38659 4.58984 5.38539C4.16307 5.3772 3.70076 5.36834 3.34439 5.76034C2.97785 6.16354 2.98209 6.60155 2.98624 7.02993C2.98671 7.07844 2.98718 7.12683 2.98711 7.17503ZM12.6059 13.1052C12.2736 12.7729 11.7348 12.7729 11.4025 13.1052L8.84933 15.6584C8.51702 15.9907 8.51702 16.5295 8.84933 16.8618C9.18164 17.1941 9.72041 17.1941 10.0527 16.8618L11.1533 15.7612V20.9784C11.1533 21.4483 11.5343 21.8293 12.0042 21.8293C12.4742 21.8293 12.8551 21.4483 12.8551 20.9784V15.7612L13.9557 16.8618C14.288 17.1941 14.8268 17.1941 15.1591 16.8618C15.4914 16.5295 15.4914 15.9907 15.1591 15.6584L12.6059 13.1052Z" fill="black"/>
</svg>
