<svg width="20" height="20" viewBox="0 0 20 20" fill="none" xmlns="http://www.w3.org/2000/svg">
<path d="M9.50293 10.9213C9.77985 10.6445 10.228 10.6445 10.5049 10.9213L12.6328 13.0483C12.9097 13.3252 12.9097 13.7743 12.6328 14.0512C12.3559 14.3281 11.9068 14.3281 11.6299 14.0512L10.7129 13.1342V17.4819C10.7129 17.8735 10.3955 18.1908 10.0039 18.1909C9.61228 18.1909 9.29492 17.8735 9.29492 17.4819V13.1342L8.37793 14.0512C8.10101 14.3281 7.65192 14.3281 7.375 14.0512C7.09811 13.7743 7.09809 13.3252 7.375 13.0483L9.50293 10.9213ZM16.0215 3.00043C16.8113 3.00129 17.5111 2.97913 18.2256 3.69379C18.9402 4.40868 18.9994 5.19092 19 5.9809V12.9252C18.9991 13.715 18.906 14.4343 18.2422 15.0981C17.5785 15.7617 16.8111 15.9038 16.0215 15.9047H15.1064C14.6951 15.9047 14.3613 15.5709 14.3613 15.1596C14.3614 14.7483 14.6952 14.4145 15.1064 14.4145H16.0215C16.4162 14.4138 16.8566 14.2366 17.1357 13.9575C17.4149 13.6783 17.5102 13.3201 17.5107 12.9252V8.21332H2.48926V12.9252C2.48984 13.32 2.59307 13.7125 2.87207 13.9916C3.15117 14.2707 3.58378 14.4138 3.97852 14.4145H4.89453C5.30518 14.4147 5.63842 14.748 5.63867 15.1586C5.63867 15.5695 5.30534 15.9035 4.89453 15.9037H3.97852C3.18888 15.9029 2.44636 15.8472 1.76562 15.1664C1.06788 14.4686 1.00087 13.714 1 12.9243V5.97894C1.00089 5.18947 1.06815 4.40916 1.73145 3.74554C2.3441 3.1329 3.18884 3.00135 3.97852 3.00043H16.0215ZM3.97852 4.48969C3.58378 4.49022 3.12741 4.42595 2.78711 4.80023C2.44718 5.17416 2.48981 5.58421 2.48926 5.97894V6.72406H17.5107V5.97894C17.5102 5.58424 17.5616 5.20876 17.2383 4.83441C16.915 4.46012 16.4163 4.49024 16.0215 4.48969H3.97852Z" fill="black"/>
</svg>
