<svg width="24" height="24" viewBox="0 0 24 24" fill="none" xmlns="http://www.w3.org/2000/svg">
<path fill-rule="evenodd" clip-rule="evenodd" d="M17.1179 10.5051C17.3913 10.8163 17.3605 11.2902 17.0493 11.5635L11.9999 15.9982L6.95041 11.5635C6.63918 11.2902 6.60846 10.8163 6.8818 10.5051C7.15513 10.1939 7.62901 10.1631 7.94024 10.4365L11.2499 13.3431L11.2499 4C11.2499 3.58579 11.5856 3.25 11.9999 3.25C12.4141 3.25 12.7499 3.58579 12.7499 4L12.7499 13.3431L16.0595 10.4365C16.3707 10.1631 16.8446 10.1939 17.1179 10.5051Z" fill="black"/>
<path fill-rule="evenodd" clip-rule="evenodd" d="M6.99986 18.25C6.99986 17.8358 7.33565 17.5 7.74986 17.5H16.2499C16.6641 17.5 16.9999 17.8358 16.9999 18.25C16.9999 18.6642 16.6641 19 16.2499 19H7.74986C7.33565 19 6.99986 18.6642 6.99986 18.25Z" fill="black"/>
</svg>
