<svg width="32" height="32" viewBox="0 0 32 32" fill="none" xmlns="http://www.w3.org/2000/svg">
<circle cx="16" cy="16" r="16" fill="black"/>
<path fill-rule="evenodd" clip-rule="evenodd" d="M15.264 11.9976V18.9719C14.0663 18.3523 12.9278 18.0104 11.6812 17.8689V10.4804C13.4263 10.5639 14.5648 11.285 15.264 11.9976ZM10.91 9.01041C13.2825 8.89746 14.9331 9.72012 16.0003 10.6673C17.0674 9.72012 18.718 8.89746 21.0905 9.01041C21.483 9.0291 21.7917 9.3528 21.7917 9.74578V10.7368L23.2223 10.655C23.4245 10.6435 23.6225 10.7158 23.7698 10.8548C23.917 10.9939 24.0005 11.1875 24.0005 11.39V21.4269C24.0005 21.6785 23.872 21.9127 23.6598 22.0478C23.4475 22.183 23.181 22.2004 22.953 22.094C21.733 21.5247 18.9685 20.9153 16.3725 21.8496C16.2517 21.8931 16.1235 21.9036 16.0002 21.8828C15.8601 21.9065 15.7146 21.8894 15.5818 21.8312C14.5246 21.3678 13.2161 21.2738 11.9699 21.3894C10.725 21.505 9.63217 21.8211 9.04752 22.094C8.81952 22.2004 8.55296 22.183 8.34073 22.0478C8.1285 21.9127 8 21.6785 8 21.4269V11.39C8 11.1875 8.08345 10.9939 8.23069 10.8548C8.37794 10.7158 8.57598 10.6435 8.7782 10.655L10.2088 10.7368V9.74578C10.2088 9.3528 10.5175 9.0291 10.91 9.01041ZM10.2088 12.2116V18.546C10.2088 18.937 10.5144 19.2597 10.9047 19.2811C11.9269 19.3371 12.8424 19.5231 13.7859 19.9081C13.1188 19.8514 12.4552 19.8657 11.8338 19.9233C10.9694 20.0036 10.1512 20.1712 9.47239 20.3729V12.1695L10.2088 12.2116ZM16.7365 18.9719V11.9976C17.4357 11.285 18.5742 10.5639 20.3193 10.4804V17.8689C19.0727 18.0104 17.9342 18.3523 16.7365 18.9719ZM21.7917 12.2116V18.546C21.7917 18.937 21.4861 19.2597 21.0958 19.2811C20.0316 19.3394 19.0832 19.5386 18.0983 19.9565C19.782 19.7727 21.3657 20.0162 22.5281 20.3673V12.1695L21.7917 12.2116Z" fill="white"/>
</svg>
