<svg width="32" height="32" viewBox="0 0 32 32" fill="none" xmlns="http://www.w3.org/2000/svg">
<circle cx="16" cy="16" r="16" fill="black"/>
<path d="M8.99971 21L11.333 18.6667M13.9997 20.1756C11.5135 19.576 9.66637 17.337 9.66637 14.6667C9.66637 11.5371 12.2034 9 15.333 9C17.3657 9 19.1485 10.0703 20.1484 11.678" stroke="white" stroke-width="1.5" stroke-linecap="round" stroke-linejoin="round"/>
<path d="M16 23.0686C16.8651 22.0971 18.0396 21.5 19.3333 21.5C20.627 21.5 21.8016 22.0971 22.6667 23.0686" stroke="white" stroke-width="1.5" stroke-linecap="round" stroke-linejoin="round"/>
<path d="M19.3332 19.1964C20.2536 19.1964 20.9998 18.4063 20.9998 17.4317C20.9998 16.4571 20.2536 15.667 19.3332 15.667C18.4127 15.667 17.6665 16.4571 17.6665 17.4317C17.6665 18.4063 18.4127 19.1964 19.3332 19.1964Z" stroke="white" stroke-width="1.5" stroke-linecap="round" stroke-linejoin="round"/>
</svg>
