<svg width="24" height="24" viewBox="0 0 24 24" fill="none" xmlns="http://www.w3.org/2000/svg">
<path d="M15.4254 3.38464C14.5678 4.61549 16.7119 5.84633 15.8542 7.07717M11.5592 3.38464C10.7016 4.61549 12.8457 5.84633 11.988 7.07717M7.70669 3.38464C6.84903 4.61549 8.99317 5.84633 8.1355 7.07717M7 13.3846L7 16.3846M10.3333 13.3846V16.3846M13.6666 13.3846V16.3846M17 13.3846V16.3846M7 20.3846V22.3846M17 20.3846V22.3846M6 19.3846H18C19.1046 19.3846 20 18.4892 20 17.3846V12.3846C20 11.2801 19.1046 10.3846 18 10.3846H6C4.89543 10.3846 4 11.2801 4 12.3846V17.3846C4 18.4892 4.89543 19.3846 6 19.3846Z" stroke="white" stroke-width="1.5" stroke-linecap="round"/>
</svg>
