<svg width="32" height="32" viewBox="0 0 32 32" fill="none" xmlns="http://www.w3.org/2000/svg">
<g clip-path="url(#clip0_32019_7258)">
<path fill-rule="evenodd" clip-rule="evenodd" d="M16 32C7.04054 32 4.62883 31.5462 2.54134 29.4587C0.440812 27.3582 0 24.9595 0 16C0 7.04054 0.453809 4.64182 2.54134 2.54134C4.62883 0.453809 7.04054 0 16 0C24.9595 0 27.3712 0.453809 29.4587 2.54134C31.5591 4.64182 32 7.04054 32 16C32 24.9595 31.5591 27.3582 29.4587 29.4587C27.3712 31.5462 24.9595 32 16 32Z" fill="#F1F6F6"/>
<path d="M5.6001 9.99989C9.04464 8.00761 12.4906 6.01807 15.9378 4.03125C15.8696 4.26307 15.7374 4.4683 15.6262 4.68102C14.3431 7.0833 13.0601 9.48511 11.7774 11.8865C11.659 12.0951 11.5521 12.3099 11.4569 12.5301C9.5001 13.6422 7.55214 14.7726 5.6001 15.8928V9.99989Z" fill="#01609F"/>
<path d="M16.0142 4.07483C16.1364 4.25554 16.2449 4.44516 16.3387 4.6421C17.6301 7.0571 18.9201 9.47278 20.2087 11.8891C20.3165 12.0937 20.4467 12.2894 20.4917 12.5191C18.9917 11.6566 17.4883 10.8016 15.9917 9.92824C16.0183 7.97756 15.9822 6.02551 16.0142 4.07483Z" fill="#01609F"/>
<path d="M16.0054 14.0328C17.3786 14.8233 18.7508 15.6151 20.1222 16.4083C18.7661 20.219 17.4174 24.0324 16.0476 27.8383C16.0144 27.7618 15.9985 27.6789 16.0013 27.5956C16.0061 23.0744 15.9979 18.554 16.0054 14.0328Z" fill="#01609F"/>
<path d="M5.6001 20.0397C7.68782 18.8308 9.78305 17.6363 11.866 16.4178C13.2374 20.2756 14.6101 24.1333 15.9842 27.991C12.5206 26.0049 9.06101 23.999 5.6001 21.9999V20.0397Z" fill="#01609F"/>
<path d="M11.8652 16.4178C13.2336 15.6078 14.6184 14.8251 15.9936 14.0273L16.0046 14.0328C15.9971 18.5539 16.0046 23.0744 16.0005 27.5955C15.9977 27.6789 16.0136 27.7618 16.0468 27.8383C17.4166 24.0323 18.7652 20.2189 20.1214 16.4089C22.2105 17.6212 24.3091 18.8185 26.3941 20.0362C26.3941 20.6948 26.3941 21.3539 26.3941 22.0135C22.9448 24.0119 19.4825 25.9919 16.0373 27.9998H16.0005L15.9834 27.991C14.6166 24.1333 13.2439 20.2755 11.8652 16.4178Z" fill="#09A5DE"/>
<path d="M15.9503 4H16.0294C19.4839 6 22.9385 7.99636 26.393 9.98909C26.393 11.9602 26.3978 13.9314 26.3896 15.9025C24.4171 14.785 22.4589 13.6436 20.4905 12.5193C20.4455 12.2895 20.3153 12.0932 20.2076 11.8893C18.9189 9.47386 17.6292 7.05818 16.3383 4.64227C16.244 4.44529 16.135 4.25567 16.0124 4.075C15.9803 6.02568 16.0164 7.97773 15.9946 9.92909C14.4803 10.7936 12.9755 11.6766 11.4551 12.5302C11.5502 12.3101 11.6572 12.0952 11.7755 11.8866C13.0596 9.48523 14.343 7.08364 15.6258 4.68182C15.7369 4.46909 15.8678 4.26386 15.9374 4.03205C15.9408 4.02318 15.9469 4.0075 15.9503 4Z" fill="#09A5DE"/>
</g>
<defs>
<clipPath id="clip0_32019_7258">
<rect width="32" height="32" fill="white"/>
</clipPath>
</defs>
</svg>
