<svg width="24" height="25" viewBox="0 0 24 25" fill="none" xmlns="http://www.w3.org/2000/svg">
<rect x="2.75" y="2.36534" width="18.5" height="20.5" rx="3.25" stroke="white" stroke-width="1.5"/>
<path d="M6 18.6153C6 18.3392 6.22386 18.1153 6.5 18.1153H14.5C14.7761 18.1153 15 18.3392 15 18.6153V19.1153C15 19.3915 14.7761 19.6153 14.5 19.6153H6.5C6.22386 19.6153 6 19.3915 6 19.1153V18.6153Z" fill="white"/>
<path d="M6 15.1153C6 14.8392 6.22386 14.6153 6.5 14.6153H17.5C17.7761 14.6153 18 14.8392 18 15.1153V15.6153C18 15.8915 17.7761 16.1153 17.5 16.1153H6.5C6.22386 16.1153 6 15.8915 6 15.6153V15.1153Z" fill="white"/>
<mask id="path-4-inside-1_13657_22140" fill="white">
<rect x="6" y="5.61534" width="7" height="7" rx="1"/>
</mask>
<rect x="6" y="5.61534" width="7" height="7" rx="1" stroke="white" stroke-width="3" mask="url(#path-4-inside-1_13657_22140)"/>
</svg>
