<svg width="32" height="33" viewBox="0 0 32 33" fill="none" xmlns="http://www.w3.org/2000/svg">
<circle cx="16" cy="16.4" r="16" fill="black"/>
<path d="M13.0288 14.1364V16.7774" stroke="white" stroke-width="1.5" stroke-linecap="round" stroke-linejoin="round"/>
<path d="M14.3495 15.4569H11.7085" stroke="white" stroke-width="1.5" stroke-linecap="round" stroke-linejoin="round"/>
<path d="M9.43583 14.3565L8.96475 18.5962C8.79303 20.1417 10.0028 21.4934 11.5578 21.4934C12.5461 21.4934 13.4495 20.935 13.8914 20.0511L14.3022 19.2296H17.6978L18.1085 20.0511C18.5505 20.935 19.4539 21.4934 20.4422 21.4934C21.9971 21.4934 23.207 20.1417 23.0352 18.5962L22.5641 14.3565C22.3712 12.6202 20.9035 11.3065 19.1565 11.3065H12.8434C11.0964 11.3065 9.62875 12.6202 9.43583 14.3565Z" stroke="white" stroke-width="1.5" stroke-linejoin="round"/>
<path d="M19.9616 14.7023C19.8053 14.7023 19.6787 14.5756 19.6787 14.4193C19.6787 14.263 19.8053 14.1364 19.9616 14.1364" stroke="white" stroke-width="1.5" stroke-linecap="round" stroke-linejoin="round"/>
<path d="M19.9617 14.7023C20.118 14.7023 20.2446 14.5756 20.2446 14.4193C20.2446 14.263 20.118 14.1364 19.9617 14.1364" stroke="white" stroke-width="1.5" stroke-linecap="round" stroke-linejoin="round"/>
<path d="M17.9807 16.1171C17.9807 15.9609 18.1074 15.8342 18.2637 15.8342C18.42 15.8342 18.5466 15.9609 18.5466 16.1171" stroke="white" stroke-width="1.5" stroke-linecap="round" stroke-linejoin="round"/>
<path d="M17.9807 16.117C17.9807 16.2733 18.1074 16.4 18.2637 16.4C18.42 16.4 18.5466 16.2733 18.5466 16.117" stroke="white" stroke-width="1.5" stroke-linecap="round" stroke-linejoin="round"/>
</svg>
