<svg width="32" height="32" viewBox="0 0 32 32" fill="none" xmlns="http://www.w3.org/2000/svg">
<g clip-path="url(#clip0_31774_251)">
<path fill-rule="evenodd" clip-rule="evenodd" d="M16 32C7.04054 32 4.62882 31.5462 2.54134 29.4587C0.440812 27.3582 0 24.9595 0 16C0 7.04054 0.453809 4.64182 2.54134 2.54134C4.62882 0.453809 7.04054 0 16 0C24.9595 0 27.3712 0.453809 29.4587 2.54134C31.5591 4.64182 32 7.04054 32 16C32 24.9595 31.5591 27.3582 29.4587 29.4587C27.3712 31.5462 24.9595 32 16 32Z" fill="#C92D30"/>
<path fill-rule="evenodd" clip-rule="evenodd" d="M25.7285 18.2633L16 9.89222L6.27149 18.2633C6.0905 17.494 6 16.7701 6 15.9556C6 10.3447 10.4796 5.81982 16 5.81982C21.5204 5.81982 26 10.3447 26 15.9556C26 16.7701 25.9095 17.494 25.7285 18.2633Z" fill="white"/>
<path fill-rule="evenodd" clip-rule="evenodd" d="M8.44336 22.6071L15.9999 12.1999L23.5565 22.6071C21.7013 24.7338 19.0316 26.0913 15.9999 26.0913C12.9682 26.0913 10.2533 24.7338 8.44336 22.6071Z" fill="white"/>
</g>
<defs>
<clipPath id="clip0_31774_251">
<rect width="32" height="32" fill="white"/>
</clipPath>
</defs>
</svg>
