<svg width="32" height="32" viewBox="0 0 32 32" fill="none" xmlns="http://www.w3.org/2000/svg">
<path fill-rule="evenodd" clip-rule="evenodd" d="M16 32C7.04054 32 4.62883 31.5462 2.54134 29.4587C0.440812 27.3582 0 24.9595 0 16C0 7.04054 0.453809 4.64182 2.54134 2.54134C4.62883 0.453809 7.04054 0 16 0C24.9595 0 27.3712 0.453809 29.4587 2.54134C31.5591 4.64182 32 7.04054 32 16C32 24.9595 31.5591 27.3582 29.4587 29.4587C27.3712 31.5462 24.9595 32 16 32Z" fill="#F1F6F6"/>
<path d="M18.4 4H4V18.88C4 23.9166 8.08336 28 13.12 28H28V13.6C28 8.29792 23.7021 4 18.4 4Z" fill="#224096"/>
<path d="M12.0818 21.6703C10.7698 21.6703 9.7602 21.3451 9.053 20.6949C8.3458 20.0447 7.99252 19.0943 7.99316 17.8437V11.4477H10.4479V17.6954C10.4479 18.3904 10.5759 18.9083 10.8319 19.2491C11.0879 19.5899 11.5039 19.7603 12.0799 19.7603C12.6444 19.7603 13.0589 19.5967 13.3236 19.2693C13.5882 18.9419 13.7205 18.4173 13.7205 17.6954V11.4477H16.1776V17.8365C16.1776 19.0695 15.833 20.0167 15.1437 20.6781C14.4544 21.3395 13.4338 21.6703 12.0818 21.6703Z" fill="white"/>
<path d="M25.8783 18.3952C25.8783 18.8928 25.7865 19.3299 25.6028 19.7066C25.4294 20.0703 25.1759 20.39 24.8612 20.6416C24.5043 20.9319 24.0924 21.1469 23.6502 21.2738C23.2105 21.3992 22.6514 21.4619 21.973 21.4619H18.061V11.4477H21.5132C22.2306 11.4477 22.7746 11.4757 23.1452 11.5317C23.5102 11.5863 23.8625 11.706 24.1854 11.885C24.5172 12.0599 24.7901 12.3289 24.9697 12.6583C25.1477 13.003 25.2368 13.3868 25.2289 13.7747C25.2368 14.2348 25.1127 14.6876 24.8713 15.0794C24.638 15.456 24.2925 15.7499 23.8834 15.9199V15.9736C24.4873 16.1035 24.9708 16.3691 25.334 16.7704C25.6972 17.1717 25.8786 17.7133 25.8783 18.3952ZM22.7343 14.2792C22.7316 14.1063 22.6901 13.9362 22.6129 13.7815C22.5369 13.6159 22.4026 13.4841 22.2356 13.4114C22.053 13.3352 21.8574 13.2953 21.6596 13.2938C21.4385 13.2871 21.1092 13.2837 20.6718 13.2837H20.5009V15.4019H20.8095C21.2297 15.4019 21.5239 15.3975 21.6922 15.3885C21.8737 15.3761 22.051 15.3282 22.214 15.2474C22.3936 15.1718 22.5394 15.0332 22.6239 14.8576C22.7012 14.6748 22.7389 14.4777 22.7343 14.2792ZM23.3511 18.3482C23.3511 18.0387 23.2898 17.7967 23.1673 17.6219C23.0447 17.4472 22.8609 17.3149 22.6158 17.225C22.467 17.1667 22.2623 17.1347 22.0018 17.129C21.7414 17.1232 21.3924 17.1199 20.955 17.1189H20.5023V19.6274H20.6334C21.2734 19.6274 21.7153 19.6229 21.9591 19.6139C22.2178 19.6018 22.4719 19.5402 22.7074 19.4325C22.9148 19.3483 23.0874 19.1959 23.1966 19.0005C23.3023 18.7996 23.3555 18.5752 23.3511 18.3482Z" fill="white"/>
</svg>
