<svg width="68" height="28" viewBox="0 0 68 28" fill="none" xmlns="http://www.w3.org/2000/svg">
<rect y="4" width="24" height="24" rx="12" fill="#FFD600"/>
<path d="M16.3252 14.4893C16.2633 14.3911 16.1559 14.3325 16.039 14.3325H12.3366V9.33133C12.3352 9.14726 12.1838 8.99865 11.998 9.00001C11.8728 9.00137 11.7572 9.07091 11.7007 9.18135L7.66116 17.1835C7.5772 17.3485 7.64464 17.5489 7.8098 17.6307C7.8566 17.6539 7.90752 17.6662 7.95982 17.6662H11.6622V22.6673C11.6622 22.8214 11.7695 22.955 11.9209 22.9905C11.9457 22.9973 11.9719 23 11.998 23C12.1246 23 12.2402 22.9291 12.2981 22.8159L16.3376 14.8138C16.3913 14.7129 16.3872 14.5888 16.3252 14.4893Z" fill="black"/>
<path d="M23.4111 23.2164C24.7339 21.1291 25.4997 18.654 25.4997 16C25.4997 13.346 24.7339 10.8709 23.4111 8.78365C25.6012 5.87828 29.0811 4 32.9997 4C39.6271 4 44.9997 9.37259 44.9997 16C44.9997 22.6274 39.6271 28 32.9997 28C29.0811 28 25.6012 26.1217 23.4111 23.2164Z" fill="#2664F1"/>
<path fill-rule="evenodd" clip-rule="evenodd" d="M33.8393 22.7292C34.4063 22.3816 35.4813 21.6557 36.4242 20.6235C37.36 19.599 38.2503 18.1783 38.2503 16.4577V13.7094L38.2505 13.6176C38.2514 13.2539 38.2523 12.8722 38.1265 12.5248C38.0169 12.222 37.8372 11.9475 37.5993 11.7272C37.3228 11.4712 36.9658 11.3318 36.6435 11.2059L36.5606 11.1734L33.6283 10.0179L33.6049 10.0086C33.5213 9.97512 33.3721 9.91546 33.2099 9.89082C33.0709 9.86973 32.9297 9.86973 32.7907 9.89082C32.6285 9.91546 32.4794 9.97512 32.3957 10.0086L32.3723 10.0179L29.44 11.1734L29.3571 11.2059C29.0348 11.3318 28.6778 11.4712 28.4014 11.7272C28.1634 11.9475 27.9837 12.222 27.8741 12.5248C27.7483 12.8722 27.7492 13.2539 27.7502 13.6176L27.7503 13.7094V16.4577C27.7503 18.1783 28.6406 19.599 29.5764 20.6235C30.5193 21.6557 31.5943 22.3816 32.1613 22.7292L32.185 22.7439C32.2832 22.8049 32.4603 22.9149 32.6933 22.9674C32.8862 23.0109 33.1144 23.0109 33.3073 22.9674C33.5403 22.9149 33.7174 22.8049 33.8156 22.7439L33.8393 22.7292Z" fill="white"/>
<path d="M44.4111 23.2164C45.7339 21.1291 46.4997 18.654 46.4997 16C46.4997 13.346 45.7339 10.8709 44.4111 8.78365C46.6012 5.87828 50.0811 4 53.9997 4C60.6271 4 65.9997 9.37259 65.9997 16C65.9997 22.6274 60.6271 28 53.9997 28C50.0811 28 46.6012 26.1217 44.4111 23.2164Z" fill="#2A7F48"/>
<path d="M50.2632 14.5714C49.987 14.5714 49.7632 14.7953 49.7632 15.0714V18.4048C49.7632 18.6809 49.987 18.9048 50.2632 18.9048H51.1579C51.434 18.9048 51.6579 18.6809 51.6579 18.4048V15.0714C51.6579 14.7953 51.434 14.5714 51.1579 14.5714H50.2632ZM54.0526 14.5714C53.7765 14.5714 53.5526 14.7953 53.5526 15.0714V18.4048C53.5526 18.6809 53.7765 18.9048 54.0526 18.9048H54.9474C55.2235 18.9048 55.4474 18.6809 55.4474 18.4048V15.0714C55.4474 14.7953 55.2235 14.5714 54.9474 14.5714H54.0526ZM48.5 21.5C48.5 21.7761 48.7239 22 49 22H60C60.2761 22 60.5 21.7761 60.5 21.5V20.6429C60.5 20.3667 60.2761 20.1429 60 20.1429H49C48.7239 20.1429 48.5 20.3667 48.5 20.6429V21.5ZM57.8421 14.5714C57.566 14.5714 57.3421 14.7953 57.3421 15.0714V18.4048C57.3421 18.6809 57.566 18.9048 57.8421 18.9048H58.7368C59.013 18.9048 59.2368 18.6809 59.2368 18.4048V15.0714C59.2368 14.7953 59.013 14.5714 58.7368 14.5714H57.8421ZM54.7292 9.11825C54.5854 9.04406 54.4146 9.04406 54.2708 9.11825L48.7708 11.9556C48.6045 12.0413 48.5 12.2128 48.5 12.3999V12.8333C48.5 13.1095 48.7239 13.3333 49 13.3333H60C60.2761 13.3333 60.5 13.1095 60.5 12.8333V12.3999C60.5 12.2128 60.3955 12.0413 60.2292 11.9556L54.7292 9.11825Z" fill="white"/>
</svg>
