<svg width="32" height="32" viewBox="0 0 32 32" fill="none" xmlns="http://www.w3.org/2000/svg">
<circle cx="16" cy="16" r="16" fill="black"/>
<path d="M9.87988 21.5871V10.1702C11.5042 10.9783 12.3926 12.4376 12.56 14.2106C12.7274 15.9836 12.3126 18.9848 12.3126 18.9848H14.6608L14.3777 11.7665C14.3573 11.2461 14.4304 10.7229 14.636 10.2444C14.9687 9.47012 15.3186 8.92162 15.9711 8.15C16.664 8.97313 17.0388 9.53047 17.355 10.3117C17.5309 10.7461 17.5863 11.218 17.5684 11.6863L17.2902 18.9929H19.6283C19.3889 17.0978 19.3067 16.1021 19.3821 14.2106C19.5328 12.0359 20.3951 11.174 22.1203 10.1687V21.5871H17.4473C17.0122 22.7177 16.6816 23.1492 15.9711 24.15C15.3102 23.1286 15.0087 22.6889 14.539 21.5871H9.87988Z" fill="white"/>
</svg>
