<svg width="24" height="24" viewBox="0 0 24 24" fill="none" xmlns="http://www.w3.org/2000/svg">
<path fill-rule="evenodd" clip-rule="evenodd" d="M12 24C5.28041 24 3.47162 23.6596 1.90601 22.094C0.330609 20.5186 0 18.7196 0 12C0 5.28041 0.340357 3.48137 1.90601 1.90601C3.47162 0.340357 5.28041 0 12 0C18.7196 0 20.5284 0.340357 22.094 1.90601C23.6694 3.48137 24 5.28041 24 12C24 18.7196 23.6694 20.5186 22.094 22.094C20.5284 23.6596 18.7196 24 12 24Z" fill="black"/>
<path fill-rule="evenodd" clip-rule="evenodd" d="M13.2084 8.77996C13.708 8.77996 13.9137 8.59289 13.9137 8.14981C13.9137 7.68707 13.6982 7.5 13.2084 7.5C12.7186 7.5 12.5031 7.68707 12.5031 8.14981C12.5031 8.59289 12.7088 8.77996 13.2084 8.77996ZM12.5227 13.8997L12.4346 13.8406L13.6003 9.72503H11.2395L10.9848 10.6407L12.3562 10.6309L11.4648 13.7717C11.308 14.3427 11.6901 14.8744 12.317 14.8744C12.5129 14.8744 12.7088 14.8252 12.9243 14.6874L14.5309 13.5945L14.0411 12.8659L12.5227 13.8997ZM9.50562 8.55348H5.50895V11.0839C5.50895 12.3737 5.28367 13.378 4.98002 13.8309H4.5V16.125H5.48939V14.7662H9.23132V16.125H10.2207V13.8309H9.50562V8.55348ZM6.50814 11.0446V9.5283H8.46728V13.8309H6.0086C6.27304 13.3682 6.50814 12.295 6.50814 11.0446ZM19.1251 9.72503H16.7937C15.8043 9.72503 15.1284 10.3748 15.1284 11.3102C15.1284 12.0486 15.5496 12.6099 16.2157 12.8068L14.9423 14.7563H16.0688L17.2149 12.984H18.1161V14.7563H19.1251V9.72503ZM16.9113 12.108C16.4509 12.108 16.1472 11.8027 16.1472 11.3498C16.1472 10.9067 16.4509 10.6015 16.9113 10.6015H18.1161V12.108H16.9113Z" fill="white"/>
</svg>
