<svg width="24" height="24" viewBox="0 0 24 24" fill="none" xmlns="http://www.w3.org/2000/svg">
<path d="M11.9553 22.8001L12.0001 22.8895L12.0448 22.8001C12.1928 22.504 12.4154 22.2806 12.6782 22.0929C13.8254 21.2898 14.5918 19.9958 14.8679 18.55H18.3785H18.4285V18.5V3.14579V3.06489L18.3562 3.10107C16.4285 4.06488 15.1604 6.18214 14.8914 8.37234L14.3567 12.6883L14.3486 12.7531L14.4134 12.7439L14.6772 12.7062C14.9466 12.7073 15.2002 12.8335 15.3875 13.0253C15.5757 13.2181 15.6931 13.4734 15.6931 13.7257C15.6931 14.1953 15.3309 14.598 14.8534 14.7082L14.8532 14.7082L14.2415 14.8522C13.1858 12.8444 12.5848 10.8778 12.5848 8.95135C12.5848 8.07949 12.6508 7.20732 12.7173 6.32823L12.7183 6.31493C12.7851 5.43197 12.8521 4.54208 12.8521 3.64232C12.8521 2.82706 12.5415 2.08998 12.0378 1.50888L12.0001 1.46528L11.9623 1.50888C11.4586 2.08998 11.148 2.82706 11.148 3.64232L11.148 3.64338C11.1655 4.4669 11.2231 5.28232 11.2804 6.09198C11.2856 6.16625 11.2909 6.24048 11.2961 6.31466C11.3582 7.19796 11.4153 8.07484 11.4153 8.95135C11.4153 10.8778 10.8144 12.8444 9.75858 14.8522L9.14692 14.7082L9.14671 14.7082C8.6692 14.598 8.307 14.1953 8.307 13.7257C8.307 13.4734 8.42445 13.2181 8.61266 13.0253C8.79989 12.8335 9.05351 12.7073 9.32294 12.7062L9.58673 12.7439L9.65146 12.7531L9.64342 12.6883L9.10887 8.3736C8.95443 6.17996 7.56963 4.06391 5.64394 3.10107L5.57158 3.06489V3.14579V18.5V18.55H5.62158H9.13218C9.40927 19.9965 10.2135 21.2521 11.3205 22.0919L11.3217 22.0927C11.5846 22.2805 11.8072 22.5039 11.9553 22.8001ZM16.0601 8.26972L16.0602 8.26899C16.1686 7.22089 16.6229 6.27525 17.2591 5.49858V13.1409H16.736C16.5743 12.5793 16.1633 12.0948 15.6438 11.7892L16.0601 8.26972ZM8.77666 15.8358L8.77662 15.836L8.78048 15.8369L9.2284 15.9402C9.12293 16.4076 9.05193 16.8774 9.0475 17.3805H6.74103V14.3104H7.26396C7.46912 15.036 8.04815 15.6058 8.77666 15.8358ZM15.2196 15.8369L15.2197 15.837L15.2234 15.8358C15.952 15.6058 16.531 15.036 16.7362 14.3104H17.2591V17.3805H14.9526C14.9482 16.8774 14.8772 16.4076 14.7717 15.9402L15.2196 15.8369ZM8.35626 11.7892C7.83682 12.0948 7.4258 12.5793 7.26412 13.1409H6.74103V5.49883C7.37337 6.27452 7.79513 7.22027 7.94004 8.2702C7.94006 8.27036 7.94008 8.27052 7.94011 8.27068L8.35626 11.7892ZM12.0001 12.7146C12.2634 13.5587 12.6508 14.3691 13.0717 15.1453C12.6459 15.2689 12.2889 15.5507 12.0001 15.8663C11.7112 15.5507 11.3542 15.2689 10.9284 15.1453C11.3493 14.3691 11.7367 13.5587 12.0001 12.7146ZM10.3563 16.1874C10.9424 16.2777 11.3902 16.791 11.4143 17.3805H10.1788C10.184 16.9624 10.253 16.5751 10.3563 16.1874ZM13.6438 16.1874C13.7471 16.5751 13.8161 16.9624 13.8213 17.3805H12.5858C12.6099 16.791 13.0577 16.2777 13.6438 16.1874ZM10.3444 18.55H11.4153V20.6189C10.9056 20.0136 10.529 19.314 10.3444 18.55ZM12.5848 18.55H13.6557C13.4711 19.314 13.0945 20.0136 12.5848 20.6189V18.55Z" fill="black" stroke="black" stroke-width="0.1"/>
</svg>
