<svg width="32" height="32" viewBox="0 0 32 32" fill="none" xmlns="http://www.w3.org/2000/svg">
<g clip-path="url(#clip0_32002_899)">
<path fill-rule="evenodd" clip-rule="evenodd" d="M16 32C7.04054 32 4.62883 31.5462 2.54134 29.4587C0.440812 27.3582 0 24.9595 0 16C0 7.04054 0.453809 4.64182 2.54134 2.54134C4.62883 0.453809 7.04054 0 16 0C24.9595 0 27.3712 0.453809 29.4587 2.54134C31.5591 4.64182 32 7.04054 32 16C32 24.9595 31.5591 27.3582 29.4587 29.4587C27.3712 31.5462 24.9595 32 16 32Z" fill="#9ADBE8"/>
<path d="M24.2113 6.23999V7.42315H24.067C23.8615 7.17367 22.5384 5.82243 19.2863 6.57527C16.7625 7.15915 13.9905 8.60807 11.4816 10.651C8.97273 12.6939 6.99096 15.1139 5.90416 17.4657C4.67128 20.1361 4.69988 22.476 5.986 24.0561C6.90164 25.1807 8.32461 25.7602 10.1018 25.7602C10.8834 25.7535 11.6617 25.6573 12.4215 25.4737C14.9462 24.8881 17.716 23.4405 20.2271 21.398C21.0947 20.6936 21.9117 19.929 22.6722 19.11C22.6722 19.11 23.4822 18.1205 23.6784 17.834C23.8104 17.6435 23.946 17.4539 24.0775 17.2211H24.2095V24.8701H27V6.23999H24.2113ZM23.524 13.3447C22.5815 15.3823 20.8206 17.5159 18.5643 19.3516C16.308 21.1873 13.8598 22.48 11.6739 22.9886C9.89145 23.4031 8.56749 23.1316 7.98404 22.4166C6.7054 20.8449 8.59081 16.4062 13.1475 12.6988C15.4042 10.8618 17.8511 9.57036 20.0379 9.06216C20.6051 8.92352 21.1863 8.84971 21.7701 8.84216C22.2432 8.84216 22.6603 8.90244 23.0066 9.01816C23.3528 9.13388 23.6278 9.31208 23.8162 9.54352C24.4005 10.2616 24.2914 11.6815 23.524 13.3434V13.3447Z" fill="#001A72"/>
</g>
<defs>
<clipPath id="clip0_32002_899">
<rect width="32" height="32" fill="white"/>
</clipPath>
</defs>
</svg>
