<svg width="28" height="28" viewBox="0 0 28 28" fill="none" xmlns="http://www.w3.org/2000/svg">
<path fill-rule="evenodd" clip-rule="evenodd" d="M4 5.5C4 4.67157 4.67157 4 5.5 4H9V6H6V9H4V5.5ZM19 4H22.5C23.3284 4 24 4.67157 24 5.5V9H22V6H19V4ZM4 22.5V19H6V22H9V24H5.5C4.67157 24 4 23.3284 4 22.5ZM24 19V22.5C24 23.3284 23.3284 24 22.5 24H19V22H22V19H24Z" fill="black"/>
<path d="M14.0227 14.2033C14.0227 12.2649 12.8277 11 11.0113 11C9.21091 11 8 12.2813 8 14.2033C8 15.9446 8.95598 17.1437 10.4696 17.3737V17.5051C10.4696 18.5729 10.9635 19 12.0151 19C12.3656 19 12.6046 18.9836 12.8436 18.9671V17.9322C12.6046 17.9322 12.4134 17.9487 12.1107 17.9487C11.8239 17.9487 11.6805 17.8172 11.6805 17.5544V17.3409C13.0986 17.0616 14.0227 15.8788 14.0227 14.2033ZM9.4021 14.2033C9.4021 13.0041 10.0394 12.2156 11.0113 12.2156C11.9832 12.2156 12.6206 13.0041 12.6206 14.2033C12.6206 15.4025 11.9832 16.191 11.0113 16.191C10.0394 16.191 9.4021 15.4025 9.4021 14.2033Z" fill="black"/>
<path d="M18.4704 17.3244H20L18.5342 14.8275C19.2671 14.5318 19.6813 13.9076 19.6813 13.037C19.6813 11.8049 18.8369 11.0821 17.4029 11.0821H14.7262V17.3244H16.0805V15.0246H17.1799L18.4704 17.3244ZM16.0805 12.2649H17.3073C17.9606 12.2649 18.2952 12.5441 18.2952 13.0862C18.2952 13.6283 17.9606 13.924 17.3073 13.924H16.0805V12.2649Z" fill="black"/>
</svg>
