<svg width="32" height="32" viewBox="0 0 32 32" fill="none" xmlns="http://www.w3.org/2000/svg">
<g clip-path="url(#clip0_32002_289)">
<path fill-rule="evenodd" clip-rule="evenodd" d="M16 32C7.04054 32 4.62882 31.5462 2.54134 29.4587C0.440812 27.3582 0 24.9595 0 16C0 7.04054 0.453809 4.64182 2.54134 2.54134C4.62882 0.453809 7.04054 0 16 0C24.9595 0 27.3712 0.453809 29.4587 2.54134C31.5591 4.64182 32 7.04054 32 16C32 24.9595 31.5591 27.3582 29.4587 29.4587C27.3712 31.5462 24.9595 32 16 32Z" fill="#373F5F"/>
<path d="M26.5288 17.2034C26.5156 17.2013 26.5021 17.2021 26.4892 17.2055C26.4762 17.209 26.4642 17.2151 26.4537 17.2235C26.4433 17.2319 26.4348 17.2424 26.4286 17.2543C26.4225 17.2662 26.419 17.2793 26.4182 17.2927C26.4182 17.2927 26.2777 17.6222 26.0293 17.7494C25.9162 17.8073 25.8684 17.8379 25.6109 17.8305H24.3152C23.6147 17.7806 23.5423 17.0478 23.5423 17.0478C23.5423 16.9586 23.5328 16.8398 23.5328 16.7889V15.957C23.5518 15.2076 24.1332 15.0355 24.1332 15.0355C24.2234 15.0149 24.3159 15.006 24.4083 15.0088H25.7043C26.2921 15.0281 26.447 15.6692 26.447 15.6692C26.4555 15.6918 26.4704 15.7114 26.4897 15.7257C26.5091 15.7401 26.5322 15.7485 26.5562 15.75H28.91C28.9341 15.7499 28.9571 15.7401 28.9741 15.723C28.991 15.7059 29.0004 15.6828 29.0003 15.6587V15.4068C28.9652 13.665 27.3825 13.2431 27.0541 13.2512C26.9655 13.2512 26.8433 13.2445 26.7923 13.2445H23.1323C22.018 13.2494 21.386 14.0711 21.1615 14.6346C21.0899 14.81 21.0456 14.9953 21.0301 15.1841C21.0255 15.286 21.0171 15.4493 21.0171 15.5003V17.4325C21.1183 19.2758 22.7174 19.585 22.9577 19.5931C23.0385 19.5959 23.1738 19.6008 23.224 19.6008H26.8833C28.5549 19.5116 28.9863 18.0466 28.9933 17.5779C28.9933 17.442 28.9979 17.3893 28.9979 17.339V17.2976C28.9981 17.2855 28.9959 17.2736 28.9914 17.2624C28.987 17.2512 28.9804 17.241 28.972 17.2323C28.9636 17.2237 28.9536 17.2168 28.9426 17.212C28.9315 17.2072 28.9196 17.2047 28.9076 17.2045L26.5288 17.2034Z" fill="white"/>
<path d="M12.2445 13.4092C12.2701 13.365 12.2497 13.3305 12.1998 13.3305H3.09099C3.06701 13.3304 3.04397 13.3399 3.02692 13.3567C3.00987 13.3736 3.00019 13.3965 3 13.4205V15.1728C2.99995 15.1848 3.00227 15.1967 3.00683 15.2078C3.01138 15.2188 3.01807 15.2289 3.02653 15.2374C3.03498 15.2459 3.04503 15.2526 3.05609 15.2572C3.06715 15.2618 3.07901 15.2642 3.09099 15.2642H5.32464C5.33659 15.2642 5.34841 15.2666 5.35944 15.2712C5.37046 15.2758 5.38046 15.2826 5.38888 15.2911C5.3973 15.2995 5.40396 15.3096 5.40849 15.3207C5.41302 15.3317 5.41533 15.3436 5.41528 15.3555V19.4149C5.41537 19.4391 5.42503 19.4623 5.44214 19.4794C5.45925 19.4965 5.48243 19.5062 5.50662 19.5063H9.02257C9.04676 19.5062 9.06994 19.4965 9.08705 19.4794C9.10416 19.4623 9.11382 19.4391 9.11391 19.4149V15.3569C9.11382 15.345 9.11608 15.3331 9.12057 15.3221C9.12506 15.311 9.13169 15.301 9.14008 15.2925C9.14847 15.284 9.15845 15.2773 9.16946 15.2726C9.18046 15.268 9.19226 15.2656 9.2042 15.2656H11.0482C11.0756 15.2638 11.1022 15.2558 11.126 15.2421C11.1499 15.2285 11.1702 15.2096 11.1856 15.1869L12.2445 13.4092Z" fill="white"/>
<path d="M13.7146 13.3319C13.6572 13.3347 13.603 13.3587 13.5624 13.3994C13.5624 13.3994 11.9464 15.0052 11.9517 17.2375C11.9534 18.6164 12.5173 19.4343 12.5173 19.4343C12.5549 19.4769 12.6078 19.5029 12.6645 19.5066H14.9681C15.0179 19.5066 15.0327 19.475 15.0011 19.4364C15.0011 19.4364 14.258 18.4896 14.2714 17.2024C14.2823 16.0479 14.9638 15.3228 14.9638 15.3228C14.9818 15.3015 15.0039 15.284 15.0289 15.2715C15.0538 15.259 15.0811 15.2517 15.1089 15.2501H16.5567C16.5686 15.2501 16.5804 15.2525 16.5915 15.257C16.6025 15.2616 16.6125 15.2683 16.6209 15.2768C16.6293 15.2852 16.636 15.2953 16.6405 15.3063C16.6451 15.3173 16.6474 15.3292 16.6473 15.3411V19.4163C16.6473 19.4283 16.6497 19.4402 16.6543 19.4513C16.6589 19.4624 16.6656 19.4724 16.6741 19.4809C16.6826 19.4894 16.6926 19.4961 16.7037 19.5007C16.7148 19.5053 16.7267 19.5077 16.7387 19.5077H20.014C20.026 19.5077 20.0379 19.5054 20.0491 19.5008C20.0602 19.4963 20.0704 19.4896 20.0789 19.4811C20.0875 19.4726 20.0942 19.4625 20.0989 19.4514C20.1035 19.4403 20.106 19.4284 20.106 19.4163V13.4219C20.1056 13.3978 20.0958 13.3748 20.0785 13.3579C20.0613 13.3411 20.0381 13.3318 20.014 13.3319H13.7146Z" fill="white"/>
<path d="M14.271 17.2034C14.2708 17.446 14.2949 17.688 14.343 17.9257H19.046L19.664 16.9533H14.2819C14.2752 17.0341 14.271 17.1177 14.271 17.2031" fill="#C64D4F"/>
<path d="M14.4371 16.2359C14.3693 16.4289 14.3215 16.6283 14.2944 16.8311H19.7426L20.121 16.2359H14.4371Z" fill="#C64D4F"/>
</g>
<defs>
<clipPath id="clip0_32002_289">
<rect width="32" height="32" fill="white"/>
</clipPath>
</defs>
</svg>
