<svg width="20" height="20" viewBox="0 0 20 20" fill="none" xmlns="http://www.w3.org/2000/svg">
<path fill-rule="evenodd" clip-rule="evenodd" d="M3.30762 4.16667V16.25C3.30762 16.9404 3.86726 17.5 4.55762 17.5H10.391C11.0813 17.5 11.641 16.9404 11.641 16.25V11.875C11.641 11.5298 11.9208 11.25 12.266 11.25C12.6111 11.25 12.891 11.5298 12.891 11.875V15.4167C12.891 16 13.0923 16.4931 13.4951 16.8958C13.8979 17.2986 14.391 17.5 14.9743 17.5C15.5576 17.5 16.0507 17.2986 16.4535 16.8958C16.8562 16.4931 17.0576 16 17.0576 15.4167V7.5C17.0576 7.20833 17.0055 6.92361 16.9014 6.64583C16.7972 6.36806 16.641 6.125 16.4326 5.91667L13.7897 3.34518C13.5455 3.10757 13.1557 3.11024 12.9148 3.35117C12.6715 3.59445 12.6715 3.98888 12.9148 4.23216L14.2243 5.54167C13.8215 5.69444 13.4986 5.94792 13.2555 6.30208C13.0125 6.65625 12.891 7.05556 12.891 7.5C12.891 8.08333 13.0923 8.57639 13.4951 8.97917C13.8979 9.38194 14.391 9.58333 14.9743 9.58333C15.1271 9.58333 15.2729 9.57292 15.4118 9.55208C15.5507 9.53125 15.6826 9.48611 15.8076 9.41667V15.4167C15.8076 15.6528 15.7278 15.8507 15.568 16.0104C15.4083 16.1701 15.2104 16.25 14.9743 16.25C14.7382 16.25 14.5403 16.1701 14.3805 16.0104C14.2208 15.8507 14.141 15.6528 14.141 15.4167V11.6667C14.141 11.2083 13.9778 10.816 13.6514 10.4896C13.325 10.1632 12.9326 10 12.4743 10H11.641V4.16667C11.641 3.70833 11.4778 3.31597 11.1514 2.98958C10.825 2.66319 10.4326 2.5 9.97428 2.5H4.97428C4.51595 2.5 4.12359 2.66319 3.7972 2.98958C3.47081 3.31597 3.30762 3.70833 3.30762 4.16667ZM10.1338 7.91041C10.1338 8.25559 9.85397 8.53541 9.50879 8.53541H5.43266C5.08748 8.53541 4.80766 8.25559 4.80766 7.91041V6.30208V4.60001C4.80766 4.25206 5.09182 3.9711 5.43975 3.97505L9.51588 4.02129C9.85827 4.02517 10.1338 4.30384 10.1338 4.64625V6.30208V7.91041ZM15.568 8.09375C15.4083 8.25347 15.2104 8.33333 14.9743 8.33333C14.7382 8.33333 14.5403 8.25347 14.3805 8.09375C14.2208 7.93403 14.141 7.73611 14.141 7.5C14.141 7.26389 14.2208 7.06597 14.3805 6.90625C14.5403 6.74653 14.7382 6.66667 14.9743 6.66667C15.2104 6.66667 15.4083 6.74653 15.568 6.90625C15.7278 7.06597 15.8076 7.26389 15.8076 7.5C15.8076 7.73611 15.7278 7.93403 15.568 8.09375ZM4.80766 10.625C4.80766 10.2798 5.08748 10 5.43266 10H9.50879C9.85397 10 10.1338 10.2798 10.1338 10.625V13.3333V15.3782C10.1338 15.7234 9.85397 16.0032 9.50879 16.0032H7.15107H5.43266C5.08748 16.0032 4.80766 15.7234 4.80766 15.3782V12.9167V10.625Z" fill="black"/>
</svg>
