<svg width="24" height="24" viewBox="0 0 24 24" fill="none" xmlns="http://www.w3.org/2000/svg">
<path d="M3 13.5C3 13.0341 3 12.8011 3.07612 12.6173C3.17761 12.3723 3.37229 12.1776 3.61732 12.0761C3.80109 12 4.03406 12 4.5 12C4.96594 12 5.19891 12 5.38268 12.0761C5.62771 12.1776 5.82239 12.3723 5.92388 12.6173C6 12.8011 6 13.0341 6 13.5V15.5C6 15.9659 6 16.1989 5.92388 16.3827C5.82239 16.6277 5.62771 16.8224 5.38268 16.9239C5.19891 17 4.96594 17 4.5 17C4.03406 17 3.80109 17 3.61732 16.9239C3.37229 16.8224 3.17761 16.6277 3.07612 16.3827C3 16.1989 3 15.9659 3 15.5V13.5Z" fill="white"/>
<path d="M8 11.5C8 11.0341 8 10.8011 8.07612 10.6173C8.17761 10.3723 8.37229 10.1776 8.61732 10.0761C8.80109 10 9.03406 10 9.5 10C9.96594 10 10.1989 10 10.3827 10.0761C10.6277 10.1776 10.8224 10.3723 10.9239 10.6173C11 10.8011 11 11.0341 11 11.5V15.5C11 15.9659 11 16.1989 10.9239 16.3827C10.8224 16.6277 10.6277 16.8224 10.3827 16.9239C10.1989 17 9.96594 17 9.5 17C9.03406 17 8.80109 17 8.61732 16.9239C8.37229 16.8224 8.17761 16.6277 8.07612 16.3827C8 16.1989 8 15.9659 8 15.5V11.5Z" fill="white"/>
<path d="M13 9.5C13 9.03406 13 8.80109 13.0761 8.61732C13.1776 8.37229 13.3723 8.17761 13.6173 8.07612C13.8011 8 14.0341 8 14.5 8C14.9659 8 15.1989 8 15.3827 8.07612C15.6277 8.17761 15.8224 8.37229 15.9239 8.61732C16 8.80109 16 9.03406 16 9.5V15.5C16 15.9659 16 16.1989 15.9239 16.3827C15.8224 16.6277 15.6277 16.8224 15.3827 16.9239C15.1989 17 14.9659 17 14.5 17C14.0341 17 13.8011 17 13.6173 16.9239C13.3723 16.8224 13.1776 16.6277 13.0761 16.3827C13 16.1989 13 15.9659 13 15.5V9.5Z" fill="white"/>
<path d="M18 7.5C18 7.03406 18 6.80109 18.0761 6.61732C18.1776 6.37229 18.3723 6.17761 18.6173 6.07612C18.8011 6 19.0341 6 19.5 6C19.9659 6 20.1989 6 20.3827 6.07612C20.6277 6.17761 20.8224 6.37229 20.9239 6.61732C21 6.80109 21 7.03406 21 7.5V15.5C21 15.9659 21 16.1989 20.9239 16.3827C20.8224 16.6277 20.6277 16.8224 20.3827 16.9239C20.1989 17 19.9659 17 19.5 17C19.0341 17 18.8011 17 18.6173 16.9239C18.3723 16.8224 18.1776 16.6277 18.0761 16.3827C18 16.1989 18 15.9659 18 15.5V7.5Z" fill="white"/>
</svg>
