<svg width="32" height="32" viewBox="0 0 32 32" fill="none" xmlns="http://www.w3.org/2000/svg">
<circle cx="16" cy="16" r="16" fill="black"/>
<path d="M17.9057 7.25C19.058 7.25 19.8077 8.46257 19.2925 9.49316L18.397 11.2822L20.6772 20.0225C20.7781 20.4093 20.655 20.8204 20.3579 21.0879L16.7163 24.3652C16.3094 24.7312 15.6915 24.7312 15.2846 24.3652L11.643 21.0879C11.346 20.8204 11.2229 20.4093 11.3237 20.0225L13.603 11.2822L12.7085 9.49316C12.1932 8.46258 12.943 7.25 14.0952 7.25H17.9057ZM12.8403 20.1465L16.0005 22.9902L19.1596 20.1465L17.021 11.9502H14.98L12.8403 20.1465ZM14.0708 8.75488C14.0654 8.75799 14.058 8.7641 14.0522 8.77344C14.0465 8.78266 14.0449 8.79166 14.0444 8.79785C14.0442 8.80208 14.0439 8.80947 14.0503 8.82227L14.8647 10.4502H17.1362L17.9507 8.82227C17.9571 8.80947 17.9568 8.80208 17.9565 8.79785C17.9561 8.79166 17.9544 8.78266 17.9487 8.77344C17.9429 8.7641 17.9355 8.75799 17.9302 8.75488C17.9264 8.75277 17.9196 8.75 17.9057 8.75H14.0952C14.0813 8.75 14.0745 8.75277 14.0708 8.75488Z" fill="white"/>
</svg>
