<svg width="32" height="32" viewBox="0 0 32 32" fill="none" xmlns="http://www.w3.org/2000/svg">
<circle cx="16" cy="16" r="16" fill="black"/>
<path d="M10.6913 9.24411C11.3858 9.02654 12.1185 8.95288 12.8426 9.02927C13.5669 9.10578 14.2682 9.33044 14.9012 9.68845C15.3072 9.91808 15.6787 10.2009 16.0086 10.5263C16.3391 10.2038 16.7126 9.92531 17.118 9.69821C17.7505 9.3441 18.4497 9.12297 19.1717 9.0488C19.8939 8.97469 20.6242 9.04853 21.3163 9.26657C22.0084 9.48473 22.6482 9.84272 23.1952 10.3174C23.7422 10.792 24.1848 11.3737 24.495 12.0263C24.805 12.6789 24.9762 13.388 24.9969 14.1093C25.0176 14.8307 24.8873 15.5487 24.6151 16.2177C24.3429 16.8867 23.9348 17.4933 23.4159 17.998C23.4064 18.0071 23.3945 18.014 23.3846 18.0224L16.4579 24.8164C16.2077 25.0614 15.8065 25.0616 15.5565 24.8164L8.59752 17.9902V17.9892C8.07664 17.4861 7.66507 16.8822 7.39049 16.2138C7.11523 15.5438 6.98267 14.8241 7.00181 14.1006C7.02106 13.377 7.19142 12.6645 7.50181 12.0097C7.81232 11.3549 8.2567 10.7708 8.80552 10.2949C9.35429 9.81916 9.99678 9.46178 10.6913 9.24411ZM12.7079 10.3095C12.1584 10.2515 11.6026 10.3067 11.076 10.4717C10.5495 10.6367 10.0631 10.9079 9.6483 11.2675C9.2337 11.6271 8.89876 12.0675 8.6649 12.5605C8.43104 13.0538 8.30242 13.5905 8.28795 14.1347C8.27357 14.6789 8.37266 15.221 8.57994 15.7256C8.76139 16.1671 9.02249 16.5724 9.34947 16.9218L9.494 17.0683L9.49791 17.0722L16.0067 23.455L17.4208 22.0674L16.0194 20.6787C15.7671 20.4288 15.7649 20.0219 16.0145 19.7695C16.2644 19.5172 16.6712 19.5149 16.9237 19.7646L18.3397 21.166L19.7528 19.7802L18.3397 18.3808C18.0874 18.1309 18.0851 17.7241 18.3348 17.4717C18.5847 17.2197 18.9917 17.2172 19.244 17.4668L20.6708 18.8799L22.0848 17.4941L20.4276 15.8535C19.995 15.4252 19.4063 15.1837 18.7919 15.1836C18.1777 15.1836 17.5896 15.4255 17.1571 15.8535L16.2284 16.7724C15.3374 17.6547 13.8947 17.6547 13.0038 16.7724L12.4999 16.2734C12.2046 15.981 12.037 15.5832 12.037 15.167C12.0371 14.7508 12.2047 14.3529 12.4999 14.0605L15.1239 11.4599C14.8703 11.2065 14.5831 10.9866 14.2684 10.8086C13.7891 10.5375 13.2574 10.3676 12.7079 10.3095ZM20.9295 10.4941C20.405 10.3288 19.8513 10.2719 19.3036 10.3281C18.7557 10.3844 18.2249 10.5521 17.746 10.8203C17.2671 11.0885 16.8494 11.4521 16.5194 11.8867C16.4875 11.9285 16.4501 11.9647 16.41 11.997L13.4051 14.9746C13.3526 15.0267 13.3242 15.0961 13.3241 15.167C13.3241 15.238 13.3525 15.3072 13.4051 15.3593L13.909 15.8584C14.2986 16.2441 14.9335 16.244 15.3231 15.8584L16.2518 14.9394C16.9266 14.2716 17.8405 13.8975 18.7919 13.8974C19.7434 13.8975 20.6581 14.2713 21.3329 14.9394L22.9647 16.5556C23.1497 16.3009 23.3047 16.0257 23.4237 15.7334C23.6286 15.2296 23.7263 14.689 23.7108 14.1465C23.6952 13.6039 23.5665 13.0697 23.3329 12.5781C23.0993 12.0867 22.7657 11.6477 22.3524 11.289C21.9389 10.9302 21.4543 10.6595 20.9295 10.4941Z" fill="white"/>
</svg>
