<svg width="32" height="32" viewBox="0 0 32 32" fill="none" xmlns="http://www.w3.org/2000/svg">
<circle cx="16" cy="16" r="16" fill="black"/>
<g clip-path="url(#clip0_16888_262)">
<mask id="path-2-inside-1_16888_262" fill="white">
<path d="M22.5 16.5C22.5 15.5807 22.3189 14.6705 21.9672 13.8212C21.6154 12.9719 21.0998 12.2003 20.4497 11.5503C19.7997 10.9002 19.0281 10.3846 18.1788 10.0328C17.3295 9.68106 16.4193 9.5 15.5 9.5L15.5 16.5H22.5Z"/>
</mask>
<path d="M22.5 16.5C22.5 15.5807 22.3189 14.6705 21.9672 13.8212C21.6154 12.9719 21.0998 12.2003 20.4497 11.5503C19.7997 10.9002 19.0281 10.3846 18.1788 10.0328C17.3295 9.68106 16.4193 9.5 15.5 9.5L15.5 16.5H22.5Z" stroke="white" stroke-width="3" mask="url(#path-2-inside-1_16888_262)"/>
<mask id="path-3-inside-2_16888_262" fill="white">
<path d="M9.5 15.5C9.5 16.4193 9.68106 17.3295 10.0328 18.1788C10.3846 19.0281 10.9002 19.7997 11.5503 20.4497C12.2003 21.0998 12.9719 21.6154 13.8212 21.9672C14.6705 22.3189 15.5807 22.5 16.5 22.5L16.5 15.5H9.5Z"/>
</mask>
<path d="M9.5 15.5C9.5 16.4193 9.68106 17.3295 10.0328 18.1788C10.3846 19.0281 10.9002 19.7997 11.5503 20.4497C12.2003 21.0998 12.9719 21.6154 13.8212 21.9672C14.6705 22.3189 15.5807 22.5 16.5 22.5L16.5 15.5H9.5Z" stroke="white" stroke-width="3" mask="url(#path-3-inside-2_16888_262)"/>
</g>
<defs>
<clipPath id="clip0_16888_262">
<rect width="16" height="16" fill="white" transform="translate(8 8)"/>
</clipPath>
</defs>
</svg>
