<svg width="24" height="24" viewBox="0 0 24 24" fill="none" xmlns="http://www.w3.org/2000/svg">
<path fill-rule="evenodd" clip-rule="evenodd" d="M5.84373 18.1563C6.11802 18.4306 6.37413 18.6165 7.1361 18.7603C8.04143 18.9311 9.45981 19 12 19C14.5402 19 15.9586 18.9311 16.8639 18.7603C17.6259 18.6165 17.882 18.4306 18.1563 18.1563C18.4352 17.8774 18.6201 17.6211 18.7628 16.8624C18.9329 15.9579 19 14.5419 19 12C19 9.45806 18.9329 8.04206 18.7628 7.13758C18.6201 6.37895 18.4352 6.12263 18.1563 5.84372C17.882 5.56943 17.6259 5.38352 16.8639 5.23972C15.9586 5.06886 14.5402 5 12 5C9.45981 5 8.04143 5.06886 7.1361 5.23972C6.37614 5.38314 6.11937 5.56843 5.8459 5.84154C5.5682 6.12134 5.38285 6.38105 5.23966 7.13913C5.06887 8.04338 5 9.45977 5 12C5 14.5419 5.06712 15.9579 5.23722 16.8624C5.37989 17.6211 5.56482 17.8774 5.84373 18.1563ZM19.5705 19.5705C20.752 18.389 21 17.0397 21 12C21 6.9603 20.752 5.61102 19.5705 4.4295C18.3963 3.25527 17.0397 3 12 3C6.9603 3 5.60371 3.25527 4.4295 4.4295C3.25527 5.61102 3 6.9603 3 12C3 17.0397 3.24796 18.389 4.4295 19.5705C5.60371 20.7447 6.9603 21 12 21C17.0397 21 18.3963 20.7447 19.5705 19.5705Z" fill="black"/>
<path fill-rule="evenodd" clip-rule="evenodd" d="M12.6154 8.73568C13.2929 8.73568 13.5718 8.482 13.5718 7.88117C13.5718 7.25368 13.2796 7 12.6154 7C11.9513 7 11.659 7.25368 11.659 7.88117C11.659 8.482 11.938 8.73568 12.6154 8.73568ZM11.6856 15.6782L11.566 15.5981L13.1467 10.0172H9.94543L9.6001 11.2588L11.4598 11.2455L10.251 15.5046C10.0384 16.279 10.5565 17 11.4066 17C11.6723 17 11.938 16.9332 12.2302 16.7463L14.4087 15.2643L13.7445 14.2763L11.6856 15.6782Z" fill="black"/>
<path fill-rule="evenodd" clip-rule="evenodd" d="M9.94543 10.0172H13.1467L11.566 15.5981L11.6856 15.6782L13.7445 14.2763L14.4087 15.2643L12.2302 16.7463C11.938 16.9332 11.6723 17 11.4066 17C10.5565 17 10.0384 16.279 10.251 15.5046L11.4598 11.2455L9.6001 11.2588L9.94543 10.0172ZM11.2609 11.3969L9.40229 11.4102L9.83146 9.86716H13.3451L11.7662 15.4418L13.7848 14.0673L14.6164 15.3044L12.311 16.8727C11.995 17.0748 11.7013 17.1499 11.4066 17.1499C10.456 17.1499 9.86799 16.3332 10.1063 15.4649L10.1067 15.4636L11.2609 11.3969ZM13.4478 8.64538C13.2522 8.82089 12.9672 8.88567 12.6154 8.88567C12.2636 8.88567 11.9786 8.82089 11.783 8.64539C11.5833 8.46628 11.509 8.20181 11.509 7.88117C11.509 7.54715 11.5867 7.27658 11.7873 7.09427C11.9845 6.91504 12.2696 6.85 12.6154 6.85C12.9613 6.85 13.2464 6.91504 13.4436 7.09427C13.6442 7.27658 13.7218 7.54716 13.7218 7.88117C13.7218 8.2018 13.6475 8.46628 13.4478 8.64538ZM13.5718 7.88117C13.5718 8.482 13.2929 8.73568 12.6154 8.73568C11.938 8.73568 11.659 8.482 11.659 7.88117C11.659 7.25368 11.9513 7 12.6154 7C13.2796 7 13.5718 7.25368 13.5718 7.88117Z" fill="black"/>
</svg>
