<svg width="68" height="28" viewBox="0 0 68 28" fill="none" xmlns="http://www.w3.org/2000/svg">
<path d="M41.3442 4.56274H51.8409V23.4293H41.3442V4.56274Z" fill="#FF5F00"/>
<path d="M42.0088 14C42.0088 10.1666 43.8082 6.76665 46.574 4.56666C44.5413 2.96667 41.9755 2 39.1763 2C32.5451 2 27.1802 7.36665 27.1802 14C27.1802 20.6333 32.5451 25.9999 39.1763 25.9999C41.9755 25.9999 44.5413 25.0333 46.574 23.4333C43.8082 21.2666 42.0088 17.8333 42.0088 14Z" fill="#EB001B"/>
<path d="M66.0003 14C66.0003 20.6333 60.6353 25.9999 54.0041 25.9999C51.205 25.9999 48.6391 25.0333 46.6064 23.4333C49.4056 21.2333 51.1717 17.8333 51.1717 14C51.1717 10.1666 49.3722 6.76665 46.6064 4.56666C48.6391 2.96667 51.205 2 54.0041 2C60.6353 2 66.0003 7.39998 66.0003 14Z" fill="#F79E1B"/>
</svg>
