<svg width="30" height="20" viewBox="0 0 30 20" fill="none" xmlns="http://www.w3.org/2000/svg">
<path d="M22.3685 8.18525V12.5786H21.3374V8.17799H20.1941V7.24121H23.5118V8.17799L22.3685 8.18525Z" fill="#124483"/>
<path d="M4.1314 7.24121V12.5786H3.1003V8.17799H1.03811V12.5786H0V7.24121H4.1314Z" fill="#124483"/>
<path d="M6.65632 7.23871C7.23851 7.23871 7.63832 7.30406 8.01709 7.64537C8.43795 8.03025 8.54316 8.5531 8.54316 8.93071C8.54316 9.1413 8.5151 9.71499 8.11529 10.1216C7.8277 10.4194 7.40685 10.5937 6.81064 10.5937H6.18637V12.5689H5.15527V7.23145L6.65632 7.23871ZM6.18637 9.70772H6.57215C6.76855 9.70772 7.01405 9.70772 7.23149 9.5407C7.41386 9.38821 7.51206 9.14856 7.51206 8.91619C7.51206 8.61845 7.37178 8.42238 7.22448 8.30619C7.01405 8.1537 6.75452 8.13917 6.51604 8.13917H6.19338L6.18637 9.70772Z" fill="#124483"/>
<path d="M19.163 12.3893C18.8544 12.5563 18.4475 12.7015 17.8864 12.7015C16.9816 12.7015 16.4344 12.382 15.9996 11.9536C15.4033 11.3581 15.1719 10.6973 15.1719 9.91299C15.1719 8.94717 15.5577 8.25003 15.9996 7.82158C16.5186 7.32052 17.1569 7.11719 17.8934 7.11719C18.2581 7.11719 18.693 7.18254 19.163 7.44397V8.66395C18.693 8.10479 18.1038 8.06122 17.9215 8.06122C16.8834 8.06122 16.21 8.9399 16.21 9.92751C16.21 11.1112 17.0938 11.7502 17.9565 11.7502C18.4335 11.7502 18.8614 11.5324 19.163 11.1693V12.3893Z" fill="#124483"/>
<path d="M25.5809 7.24121V12.5786H24.5498V7.24121H25.5809Z" fill="#124483"/>
<path d="M28.1134 7.23871C28.6955 7.23871 29.0954 7.30406 29.4741 7.64537C29.895 8.03025 30.0002 8.5531 30.0002 8.93071C30.0002 9.1413 29.9721 9.71499 29.5723 10.1216C29.2847 10.4194 28.8639 10.5937 28.2677 10.5937H27.6434V12.5689H26.6123V7.23145L28.1134 7.23871ZM27.6434 9.70772H28.0292C28.2256 9.70772 28.4711 9.70772 28.6885 9.5407C28.8709 9.38821 28.9691 9.14856 28.9691 8.91619C28.9691 8.61845 28.8288 8.42238 28.6815 8.30619C28.4711 8.1537 28.2116 8.13917 27.9731 8.13917H27.6504L27.6434 9.70772Z" fill="#124483"/>
<path d="M11.3427 9.91913C11.3427 9.91187 11.3427 9.91913 11.3427 9.91913C11.3427 9.61413 11.5741 9.37449 11.8617 9.37449C12.1493 9.37449 12.3808 9.61413 12.3808 9.91187C12.3808 10.2096 12.1493 10.4492 11.8617 10.4492V11.1754C12.5351 11.1754 13.0822 10.609 13.0822 9.90461C13.0822 9.20747 12.5351 8.63379 11.8547 8.63379C11.1813 8.63379 10.6272 9.20021 10.6272 9.90461V9.91187L11.3427 9.91913Z" fill="#FFCB05"/>
<path d="M13.6708 8.997C13.8041 9.27295 13.8742 9.58521 13.8742 9.91199C13.8742 11.0666 12.9694 11.9961 11.8611 11.9961C10.7459 11.9961 9.84803 11.0594 9.84803 9.91199C9.84803 8.80093 10.6827 7.8932 11.7419 7.82785L12.2469 7.02905C12.1206 7.01452 11.9944 7 11.8611 7C10.311 7 9.05542 8.29987 9.05542 9.90473C9.05542 11.5096 10.311 12.8095 11.8611 12.8095C13.4113 12.8095 14.6668 11.5096 14.6668 9.90473C14.6668 9.28021 14.4774 8.69927 14.1478 8.22725L13.6708 8.997Z" fill="#124483"/>
</svg>
