<svg width="24" height="24" viewBox="0 0 24 24" fill="none" xmlns="http://www.w3.org/2000/svg">
<circle cx="12" cy="12" r="10" fill="black"/>
<path fill-rule="evenodd" clip-rule="evenodd" d="M12.6355 8.40953C13.3399 8.40953 13.63 8.13044 13.63 7.46943C13.63 6.77908 13.3261 6.5 12.6355 6.5C11.9449 6.5 11.641 6.77908 11.641 7.46943C11.641 8.13044 11.9311 8.40953 12.6355 8.40953ZM11.6685 16.0458L11.5442 15.9577L13.1878 9.81779H9.85908L9.5 11.1838L11.4337 11.1691L10.1768 15.8548C9.95579 16.7068 10.4945 17.5 11.3784 17.5C11.6547 17.5 11.9309 17.4265 12.2348 17.2209L14.5 15.5905L13.8094 14.5035L11.6685 16.0458Z" fill="white"/>
</svg>
