<svg width="32" height="33" viewBox="0 0 32 33" fill="none" xmlns="http://www.w3.org/2000/svg">
<circle cx="16" cy="16.4" r="16" fill="black"/>
<g clip-path="url(#clip0_13866_9614)">
<path d="M12.5 22.4635L9.35 23.05L9.93648 19.9C9.34088 18.8704 9 17.675 9 16.4C9 12.534 12.134 9.40002 16 9.40002C18.2067 9.40002 20.1749 10.4211 21.4579 12.0166" stroke="white" stroke-width="1.4" stroke-linecap="round" stroke-linejoin="round"/>
<path d="M16 23.4687C16.8651 22.4971 18.0396 21.9 19.3333 21.9C20.627 21.9 21.8016 22.4971 22.6667 23.4687" stroke="white" stroke-width="1.5" stroke-linecap="round" stroke-linejoin="round"/>
<path d="M19.3332 19.5964C20.2536 19.5964 20.9998 18.8063 20.9998 17.8317C20.9998 16.8571 20.2536 16.067 19.3332 16.067C18.4127 16.067 17.6665 16.8571 17.6665 17.8317C17.6665 18.8063 18.4127 19.5964 19.3332 19.5964Z" stroke="white" stroke-width="1.5" stroke-linecap="round" stroke-linejoin="round"/>
</g>
<defs>
<clipPath id="clip0_13866_9614">
<rect width="16" height="16" fill="white" transform="translate(8 8.40002)"/>
</clipPath>
</defs>
</svg>
