<svg width="24" height="24" viewBox="0 0 24 24" fill="none" xmlns="http://www.w3.org/2000/svg">
<path fill-rule="evenodd" clip-rule="evenodd" d="M12.8359 15.6397C13.0628 15.5667 13.3116 15.6477 13.4512 15.8409L15.4932 18.671V16.1632C15.4932 15.8594 15.7402 15.6134 16.0439 15.6134C16.3473 15.6138 16.5938 15.8597 16.5938 16.1632V20.3741C16.5934 20.6123 16.4395 20.8242 16.2129 20.8975C15.986 20.9709 15.7373 20.8885 15.5977 20.6954L13.5547 17.8643V20.3741C13.5543 20.6774 13.3082 20.9237 13.0049 20.9239C12.7014 20.9239 12.4555 20.6775 12.4551 20.3741V16.1632C12.4551 15.9246 12.6089 15.7131 12.8359 15.6397ZM19.9502 19.8233C20.2537 19.8236 20.501 20.0705 20.501 20.3741C20.5006 20.6774 20.2535 20.9237 19.9502 20.9239H17.7803C17.4768 20.9239 17.2309 20.6775 17.2305 20.3741C17.2305 20.0703 17.4765 19.8233 17.7803 19.8233H19.9502ZM15.1055 3.00008C15.8568 3.00008 16.3884 2.99258 16.8428 3.12118C18.0083 3.45128 18.894 4.40464 19.1953 5.59188C19.3124 6.05321 19.3066 6.59414 19.3066 7.39559V12.4776C19.3066 12.8917 18.9706 13.2274 18.5566 13.2276C18.1425 13.2276 17.8066 12.8918 17.8066 12.4776V7.39559C17.8066 6.50241 17.8006 6.19496 17.7412 5.96102C17.5638 5.26185 17.0541 4.74028 16.4336 4.56454C16.2299 4.50696 15.9576 4.50009 15.1055 4.50008H8.20215C7.35027 4.50008 7.07775 4.50706 6.87403 4.56454C6.25345 4.74016 5.74391 5.26182 5.56641 5.96102C5.50708 6.19496 5.50098 6.50243 5.50098 7.39559V15.7794C5.50098 16.5566 5.50168 17.0974 5.53418 17.5177C5.56611 17.93 5.62567 18.1623 5.70899 18.335C5.89079 18.7118 6.17666 19.0108 6.51953 19.1954C6.66948 19.276 6.87528 19.3363 7.25684 19.3692C7.64869 19.403 8.15499 19.4034 8.89258 19.4034H9.53321C9.94689 19.4038 10.2829 19.7397 10.2832 20.1534C10.2832 20.5674 9.94707 20.903 9.53321 20.9034H8.89258C8.18105 20.9034 7.59919 20.904 7.12793 20.8634C6.6467 20.8218 6.21221 20.7338 5.8086 20.5167C5.17747 20.177 4.67193 19.6383 4.35742 18.9864C4.15879 18.5745 4.07669 18.1319 4.03809 17.6329C4.00008 17.1414 4.00098 16.5331 4.00098 15.7794V6.8409C4.00485 6.32891 4.02451 5.93795 4.11231 5.59188C4.4137 4.40451 5.30003 3.45109 6.46582 3.12118C6.92007 2.99286 7.45115 3.00008 8.20215 3.00008H15.1055ZM18.8652 15.6134C19.328 15.6135 19.7519 15.8282 20.0498 16.1749C20.3451 16.5189 20.5009 16.9701 20.501 17.4259C20.5009 17.8819 20.3454 18.3337 20.0498 18.6778C19.7519 19.0245 19.328 19.2392 18.8652 19.2393C18.4025 19.2393 17.9786 19.0243 17.6807 18.6778C17.3851 18.3337 17.2306 17.8819 17.2305 17.4259C17.2306 16.9699 17.3851 16.519 17.6807 16.1749C17.9786 15.8281 18.4023 15.6134 18.8652 15.6134ZM18.8652 16.713C18.7526 16.713 18.6237 16.7647 18.5147 16.8917C18.4035 17.0212 18.3302 17.2124 18.3301 17.4259C18.3302 17.6394 18.4035 17.8315 18.5147 17.961C18.6236 18.0877 18.7527 18.1397 18.8652 18.1397C18.9778 18.1396 19.1069 18.0878 19.2158 17.961C19.327 17.8315 19.4003 17.6394 19.4004 17.4259C19.4003 17.2126 19.3267 17.0211 19.2158 16.8917C19.1069 16.7649 18.9778 16.7131 18.8652 16.713ZM10.791 10.7462C11.2049 10.7464 11.5409 11.0823 11.541 11.4962C11.541 11.9102 11.205 12.2459 10.791 12.2462H8.20215C7.78806 12.246 7.45215 11.9103 7.45215 11.4962C7.4523 11.0822 7.78815 10.7463 8.20215 10.7462H10.791ZM13.8105 7.10067C14.2244 7.10092 14.5603 7.43685 14.5605 7.85067C14.5605 8.26473 14.2245 8.60042 13.8105 8.60067H8.20215C7.78806 8.60052 7.45215 8.26479 7.45215 7.85067C7.45244 7.43679 7.78824 7.10081 8.20215 7.10067H13.8105Z" fill="black"/>
</svg>
