<svg width="32" height="32" viewBox="0 0 32 32" fill="none" xmlns="http://www.w3.org/2000/svg">
<g clip-path="url(#clip0_32002_672)">
<path fill-rule="evenodd" clip-rule="evenodd" d="M16 32C7.04054 32 4.62882 31.5462 2.54134 29.4587C0.440812 27.3582 0 24.9595 0 16C0 7.04054 0.453809 4.64182 2.54134 2.54134C4.62882 0.453809 7.04054 0 16 0C24.9595 0 27.3712 0.453809 29.4587 2.54134C31.5591 4.64182 32 7.04054 32 16C32 24.9595 31.5591 27.3582 29.4587 29.4587C27.3712 31.5462 24.9595 32 16 32Z" fill="#D40012"/>
<path d="M12.5941 28.1511H6.14135C6.10131 28.1511 6.06885 28.1836 6.06885 28.2236V28.5861C6.06885 28.6262 6.10131 28.6586 6.14135 28.6586H12.5941C12.6342 28.6586 12.6666 28.6262 12.6666 28.5861V28.2236C12.6666 28.1836 12.6342 28.1511 12.5941 28.1511Z" fill="white"/>
<path d="M13.1014 28.84H5.63354C5.5935 28.84 5.56104 28.8724 5.56104 28.9125V29.9275C5.56104 29.9676 5.5935 30 5.63354 30H13.1014C13.1414 30 13.1739 29.9676 13.1739 29.9275V28.9125C13.1739 28.8724 13.1414 28.84 13.1014 28.84Z" fill="white"/>
<path d="M25.934 28.1511H19.4812C19.4412 28.1511 19.4087 28.1836 19.4087 28.2236V28.5861C19.4087 28.6262 19.4412 28.6586 19.4812 28.6586H25.934C25.974 28.6586 26.0065 28.6262 26.0065 28.5861V28.2236C26.0065 28.1836 25.974 28.1511 25.934 28.1511Z" fill="white"/>
<path d="M26.4422 28.84H18.9744C18.9343 28.84 18.9019 28.8724 18.9019 28.9125V29.9275C18.9019 29.9676 18.9343 30 18.9744 30H26.4422C26.4822 30 26.5147 29.9676 26.5147 29.9275V28.9125C26.5147 28.8724 26.4822 28.84 26.4422 28.84Z" fill="white"/>
<path d="M10.4185 18.8345H8.38842C8.34838 18.8345 8.31592 18.8669 8.31592 18.907V26.3748C8.31592 26.4149 8.34838 26.4473 8.38842 26.4473H10.4185C10.4586 26.4473 10.491 26.4149 10.491 26.3748V18.907C10.491 18.8669 10.4586 18.8345 10.4185 18.8345Z" fill="white"/>
<path d="M23.5416 18.8345H21.5115C21.4714 18.8345 21.439 18.8669 21.439 18.907V26.3748C21.439 26.4149 21.4714 26.4473 21.5115 26.4473H23.5416C23.5816 26.4473 23.6141 26.4149 23.6141 26.3748V18.907C23.6141 18.8669 23.5816 18.8345 23.5416 18.8345Z" fill="white"/>
<path d="M25.4273 16.0431H6.72143C6.7022 16.0431 6.68376 16.0507 6.67016 16.0643C6.65656 16.0779 6.64893 16.0964 6.64893 16.1156V27.8611C6.64893 27.8804 6.65656 27.8988 6.67016 27.9124C6.68376 27.926 6.7022 27.9336 6.72143 27.9336H12.3042C12.3234 27.9336 12.3419 27.926 12.3555 27.9124C12.369 27.8988 12.3767 27.8804 12.3767 27.8611V20.2483C12.3767 19.2868 12.7586 18.3648 13.4385 17.6849C14.1183 17.0051 15.0404 16.6231 16.0019 16.6231C16.9633 16.6231 17.8854 17.0051 18.5652 17.6849C19.2451 18.3648 19.627 19.2868 19.627 20.2483V27.8611C19.627 27.8804 19.6347 27.8988 19.6483 27.9124C19.6618 27.926 19.6803 27.9336 19.6995 27.9336H25.4273C25.4465 27.9336 25.465 27.926 25.4785 27.9124C25.4921 27.8988 25.4998 27.8804 25.4998 27.8611V16.1156C25.4998 16.0964 25.4921 16.0779 25.4785 16.0643C25.465 16.0507 25.4465 16.0431 25.4273 16.0431ZM10.9266 26.9186C10.9266 26.9378 10.919 26.9563 10.9054 26.9699C10.8918 26.9834 10.8733 26.9911 10.8541 26.9911H7.95399C7.93476 26.9911 7.91631 26.9834 7.90272 26.9699C7.88912 26.9563 7.88148 26.9378 7.88148 26.9186V18.3632C7.88148 18.344 7.88912 18.3255 7.90272 18.3119C7.91631 18.2983 7.93476 18.2907 7.95399 18.2907H10.8541C10.8733 18.2907 10.8918 18.2983 10.9054 18.3119C10.919 18.3255 10.9266 18.344 10.9266 18.3632V26.9186ZM11.7242 17.7107C11.7242 17.7299 11.7165 17.7483 11.7029 17.7619C11.6893 17.7755 11.6709 17.7832 11.6517 17.7832H7.15645C7.13722 17.7832 7.11878 17.7755 7.10518 17.7619C7.09158 17.7483 7.08395 17.7299 7.08395 17.7107V16.6956C7.08395 16.6764 7.09158 16.6579 7.10518 16.6444C7.11878 16.6308 7.13722 16.6231 7.15645 16.6231H11.6517C11.6709 16.6231 11.6893 16.6308 11.7029 16.6444C11.7165 16.6579 11.7242 16.6764 11.7242 16.6956V17.7107ZM24.0497 26.9186C24.0497 26.9378 24.0421 26.9563 24.0285 26.9699C24.0149 26.9834 23.9964 26.9911 23.9772 26.9911H21.0771C21.0579 26.9911 21.0394 26.9834 21.0258 26.9699C21.0122 26.9563 21.0046 26.9378 21.0046 26.9186V18.3632C21.0046 18.344 21.0122 18.3255 21.0258 18.3119C21.0394 18.2983 21.0579 18.2907 21.0771 18.2907H23.9772C23.9964 18.2907 24.0149 18.2983 24.0285 18.3119C24.0421 18.3255 24.0497 18.344 24.0497 18.3632V26.9186ZM24.8473 17.7107C24.8473 17.7299 24.8396 17.7483 24.826 17.7619C24.8124 17.7755 24.794 17.7832 24.7747 17.7832H20.2795C20.2603 17.7832 20.2419 17.7755 20.2283 17.7619C20.2147 17.7483 20.207 17.7299 20.207 17.7107V16.6956C20.207 16.6764 20.2147 16.6579 20.2283 16.6444C20.2419 16.6308 20.2603 16.6231 20.2795 16.6231H24.7747C24.794 16.6231 24.8124 16.6308 24.826 16.6444C24.8396 16.6579 24.8473 16.6764 24.8473 16.6956V17.7107Z" fill="white"/>
<path d="M24.2665 16.8769H20.7864C20.7463 16.8769 20.7139 16.9094 20.7139 16.9494V17.4569C20.7139 17.497 20.7463 17.5294 20.7864 17.5294H24.2665C24.3066 17.5294 24.339 17.497 24.339 17.4569V16.9494C24.339 16.9094 24.3066 16.8769 24.2665 16.8769Z" fill="white"/>
<path d="M11.1435 16.8769H7.66332C7.62328 16.8769 7.59082 16.9094 7.59082 16.9494V17.4569C7.59082 17.497 7.62328 17.5294 7.66332 17.5294H11.1435C11.1835 17.5294 11.216 17.497 11.216 17.4569V16.9494C11.216 16.9094 11.1835 16.8769 11.1435 16.8769Z" fill="white"/>
<path d="M12.0196 11.9104H6.24975C6.23052 11.9104 6.21208 11.918 6.19848 11.9316C6.18488 11.9452 6.17725 11.9637 6.17725 11.9829V15.6806C6.17725 15.6998 6.18488 15.7182 6.19848 15.7318C6.21208 15.7454 6.23052 15.7531 6.24975 15.7531H16.0739C15.0348 15.7531 14.0351 15.3546 13.2809 14.6398C12.5267 13.9249 12.0752 12.9481 12.0196 11.9104Z" fill="white"/>
<path d="M25.8979 11.9104H20.1281C20.0724 12.9481 19.621 13.9249 18.8668 14.6398C18.1125 15.3546 17.1129 15.7531 16.0737 15.7531H25.8979C25.9172 15.7531 25.9356 15.7454 25.9492 15.7318C25.9628 15.7182 25.9704 15.6998 25.9704 15.6806V11.9829C25.9704 11.9637 25.9628 11.9452 25.9492 11.9316C25.9356 11.918 25.9172 11.9104 25.8979 11.9104Z" fill="white"/>
<path d="M12.4054 9.95288H5.77856C5.75933 9.95288 5.74089 9.96052 5.72729 9.97412C5.71369 9.98771 5.70605 10.0062 5.70605 10.0254V11.4755C5.70605 11.4947 5.71369 11.5131 5.72729 11.5267C5.74089 11.5403 5.75933 11.548 5.77856 11.548H12.0175C12.0362 10.9953 12.1682 10.4524 12.4054 9.95288Z" fill="white"/>
<path d="M26.2245 9.95288H19.7427C19.9798 10.4524 20.1118 10.9953 20.1306 11.548H26.2245C26.2437 11.548 26.2621 11.5403 26.2757 11.5267C26.2893 11.5131 26.297 11.4947 26.297 11.4755V10.0254C26.297 10.0062 26.2893 9.98771 26.2757 9.97412C26.2621 9.96052 26.2437 9.95288 26.2245 9.95288Z" fill="white"/>
<path d="M26.551 9.15533H19.2427C19.3886 9.33717 19.5186 9.53123 19.6313 9.73536H26.551C26.5702 9.73536 26.5887 9.72772 26.6023 9.71413C26.6159 9.70053 26.6235 9.68209 26.6235 9.66286V9.22784C26.6235 9.20861 26.6159 9.19017 26.6023 9.17657C26.5887 9.16297 26.5702 9.15533 26.551 9.15533Z" fill="white"/>
<path d="M12.9057 9.15533H5.45239C5.43316 9.15533 5.41472 9.16297 5.40112 9.17657C5.38752 9.19017 5.37988 9.20861 5.37988 9.22784V9.66286C5.37988 9.68209 5.38752 9.70053 5.40112 9.71413C5.41472 9.72772 5.43316 9.73536 5.45239 9.73536H12.5171C12.6298 9.53123 12.7598 9.33717 12.9057 9.15533Z" fill="white"/>
<path d="M16.0743 7.95898C15.3358 7.95898 14.6138 8.17798 13.9998 8.58826C13.3858 8.99855 12.9072 9.58171 12.6246 10.264C12.3419 10.9463 12.268 11.697 12.4121 12.4214C12.5562 13.1457 12.9118 13.811 13.434 14.3332C13.9562 14.8554 14.6215 15.211 15.3458 15.3551C16.0701 15.4992 16.8209 15.4252 17.5032 15.1426C18.1854 14.86 18.7686 14.3814 19.1789 13.7674C19.5892 13.1533 19.8082 12.4314 19.8082 11.6929C19.8082 10.7026 19.4148 9.75287 18.7145 9.05262C18.0143 8.35238 17.0646 7.95898 16.0743 7.95898ZM16.0743 15.1368C15.3931 15.1368 14.7273 14.9348 14.1609 14.5564C13.5946 14.178 13.1532 13.6401 12.8925 13.0108C12.6318 12.3815 12.5636 11.6891 12.6965 11.021C12.8294 10.353 13.1574 9.73933 13.639 9.25769C14.1207 8.77606 14.7343 8.44806 15.4024 8.31517C16.0704 8.18229 16.7629 8.25049 17.3922 8.51115C18.0215 8.77181 18.5593 9.21322 18.9378 9.77957C19.3162 10.3459 19.5182 11.0118 19.5182 11.6929C19.5182 12.1452 19.4291 12.593 19.256 13.0108C19.0829 13.4287 18.8293 13.8083 18.5095 14.1281C18.1897 14.4479 17.81 14.7016 17.3922 14.8747C16.9743 15.0477 16.5265 15.1368 16.0743 15.1368Z" fill="white"/>
<path d="M27.1308 8.35776H19.1555C18.3344 7.54494 17.2258 7.08899 16.0704 7.08899C14.9151 7.08899 13.8065 7.54494 12.9854 8.35776H4.87231C4.85308 8.35776 4.83464 8.3654 4.82104 8.37899C4.80744 8.39259 4.7998 8.41103 4.7998 8.43026V8.86528C4.7998 8.88451 4.80744 8.90295 4.82104 8.91655C4.83464 8.93014 4.85308 8.93778 4.87231 8.93778H13.0935C13.2763 8.72305 13.4817 8.5286 13.7061 8.35776C14.3871 7.84069 15.2187 7.56077 16.0737 7.56077C16.9288 7.56077 17.7603 7.84069 18.4413 8.35776C18.6657 8.5286 18.8711 8.72305 19.054 8.93778H27.1308C27.15 8.93778 27.1685 8.93014 27.1821 8.91655C27.1957 8.90295 27.2033 8.88451 27.2033 8.86528V8.43026C27.2033 8.41103 27.1957 8.39259 27.1821 8.37899C27.1685 8.3654 27.15 8.35776 27.1308 8.35776Z" fill="white"/>
<path d="M19.5811 6.7627C19.0294 5.99852 17.6692 5.45764 16.0741 5.45764C14.4791 5.45764 13.1189 5.99852 12.5671 6.7627H10.8901V8.14026H12.739C13.2813 7.41958 14.2847 6.89611 15.4752 6.7627C15.874 6.71803 16.2764 6.71803 16.6752 6.7627C17.865 6.89611 18.8691 7.41958 19.4115 8.14026H21.2581V6.7627H19.5811Z" fill="white"/>
<path d="M19.6862 5.53016C19.2215 4.81746 17.7808 4.29761 16.0741 4.29761C14.3674 4.29761 12.9267 4.81746 12.462 5.53016H10.4551V6.54521H12.4779C12.7404 6.12542 13.2827 5.7687 13.9954 5.53016C15.3494 5.10897 16.7995 5.10897 18.1535 5.53016C18.8655 5.7687 19.4085 6.12542 19.671 6.54521H21.6938V5.53016H19.6862Z" fill="white"/>
<path d="M20.2293 4.66011C20.2124 4.66015 20.196 4.65425 20.1829 4.64344C19.3803 3.96118 17.8577 3.50006 16.1104 3.50006C14.3631 3.50006 12.8405 3.96118 12.0372 4.64344C12.0241 4.65425 12.0077 4.66015 11.9908 4.66011H10.0564C10.0372 4.66011 10.0187 4.66775 10.0051 4.68135C9.99153 4.69495 9.98389 4.71339 9.98389 4.73262V5.16764C9.98389 5.18687 9.99153 5.20531 10.0051 5.2189C10.0187 5.2325 10.0372 5.24014 10.0564 5.24014H12.2786C12.2904 5.24004 12.3019 5.23708 12.3123 5.23153C12.3226 5.22597 12.3315 5.21798 12.3381 5.20824C12.5009 4.98449 12.7092 4.79769 12.9493 4.66011C13.67 4.22002 14.8177 3.93508 16.1104 3.93508C17.4031 3.93508 18.5509 4.22002 19.2716 4.66011C19.5117 4.79769 19.7199 4.98449 19.8828 5.20824C19.8893 5.21798 19.8982 5.22597 19.9086 5.23153C19.9189 5.23708 19.9305 5.24004 19.9422 5.24014H22.0919C22.1112 5.24014 22.1296 5.2325 22.1432 5.2189C22.1568 5.20531 22.1644 5.18687 22.1644 5.16764V4.73262C22.1644 4.71339 22.1568 4.69495 22.1432 4.68135C22.1296 4.66775 22.1112 4.66011 22.0919 4.66011H20.2293Z" fill="white"/>
<path d="M17.3276 12.3121C17.2754 12.2541 17.2117 12.2078 17.1405 12.1761C17.0693 12.1444 16.9922 12.1279 16.9143 12.1279H16.8041C16.7123 12.128 16.6217 12.1486 16.539 12.1884C16.4563 12.2282 16.3836 12.2861 16.3263 12.3578L15.9942 12.7725C15.9525 12.8246 15.9298 12.8892 15.9297 12.9559V13.3561C15.9297 13.4342 15.9607 13.5091 16.0159 13.5643C16.0711 13.6195 16.146 13.6505 16.2241 13.6505H17.4566C17.5183 13.6505 17.5785 13.6311 17.6286 13.5951C17.6786 13.559 17.7161 13.5082 17.7357 13.4497L17.7988 13.2612C17.8088 13.2312 17.814 13.1999 17.814 13.1684V12.9661C17.8148 12.8939 17.789 12.824 17.7415 12.7696L17.3276 12.3121Z" fill="white"/>
<path d="M16.0743 8.53906C15.4505 8.53906 14.8408 8.72403 14.3221 9.07059C13.8034 9.41714 13.3992 9.90971 13.1605 10.486C12.9218 11.0623 12.8593 11.6965 12.981 12.3083C13.1027 12.92 13.4031 13.482 13.8442 13.9231C14.2852 14.3642 14.8472 14.6646 15.459 14.7862C16.0708 14.9079 16.7049 14.8455 17.2812 14.6068C17.8575 14.3681 18.3501 13.9638 18.6967 13.4452C19.0432 12.9265 19.2282 12.3167 19.2282 11.693C19.2282 10.8565 18.8959 10.0543 18.3044 9.46282C17.713 8.87135 16.9108 8.53906 16.0743 8.53906ZM18.4669 13.259C18.4669 13.3357 18.4494 13.4113 18.4156 13.48C18.3817 13.5488 18.3326 13.6089 18.2719 13.6556L17.6513 14.1327C17.5681 14.1966 17.4661 14.231 17.3612 14.2306L14.2958 14.2429C14.2818 14.2432 14.268 14.2402 14.2554 14.2341C14.2428 14.2281 14.2318 14.2192 14.2233 14.2081L14.2059 14.1856C14.1917 14.1671 14.1841 14.1444 14.1841 14.1211V9.59036C14.1841 9.57113 14.1918 9.55269 14.2054 9.53909C14.219 9.5255 14.2374 9.51786 14.2566 9.51786H15.7792C15.7877 9.5181 15.796 9.51982 15.8039 9.52293H17.8144L17.76 10.0645C17.7511 10.1687 17.7013 10.2652 17.6215 10.3328C17.5715 10.3739 17.5133 10.4037 17.4507 10.4202C17.3881 10.4367 17.3228 10.4395 17.259 10.4285C17.1829 10.4158 17.1107 10.3858 17.0478 10.341C16.985 10.2961 16.9333 10.2375 16.8965 10.1697L16.6601 9.73464C16.636 9.69012 16.6006 9.6527 16.5574 9.62611C16.5143 9.59953 16.465 9.5847 16.4143 9.58311L15.851 9.56571C15.8536 9.57292 15.8551 9.58051 15.8553 9.58819V12.2367L16.4629 11.5356C16.4983 11.4943 16.5421 11.4609 16.5913 11.4376C16.6406 11.4144 16.6941 11.4018 16.7486 11.4008C16.9198 11.3989 17.0883 11.4446 17.2351 11.5327L18.1044 12.0555C18.2151 12.122 18.3066 12.2161 18.3701 12.3286C18.4337 12.441 18.467 12.568 18.4669 12.6971V13.2598V13.259Z" fill="white"/>
</g>
<defs>
<clipPath id="clip0_32002_672">
<rect width="32" height="32" fill="white"/>
</clipPath>
</defs>
</svg>
