<svg width="24" height="24" viewBox="0 0 24 24" fill="none" xmlns="http://www.w3.org/2000/svg">
<path d="M11.7685 6.05198C11.7685 5.59229 11.3958 5.21964 10.9361 5.21964H7.32934C5.4906 5.21964 4 6.71024 4 8.54898V17.4272C4 19.266 5.4906 20.7566 7.32934 20.7566H16.2076C18.0463 20.7566 19.5369 19.266 19.5369 17.4272V13.8204C19.5369 13.3608 19.1643 12.9881 18.7046 12.9881C18.2449 12.9881 17.8723 13.3608 17.8723 13.8204V17.4272C17.8723 18.3466 17.127 19.0919 16.2076 19.0919H7.32934C6.40997 19.0919 5.66467 18.3466 5.66467 17.4272V8.54898C5.66467 7.62961 6.40997 6.88431 7.32934 6.88431H10.9361C11.3958 6.88431 11.7685 6.51166 11.7685 6.05198Z" fill="black"/>
<path fill-rule="evenodd" clip-rule="evenodd" d="M13.4932 5.54495C13.4946 5.08527 13.8684 4.71378 14.3281 4.71521L20.2663 4.73371L20.2848 10.6719C20.2862 11.1316 19.9147 11.5054 19.4551 11.5068C18.9954 11.5082 18.6216 11.1367 18.6201 10.6771L18.6104 7.56667L11.5911 14.586C11.2661 14.911 10.7391 14.911 10.414 14.586C10.089 14.2609 10.089 13.7339 10.414 13.4089L17.4333 6.38957L14.3229 6.37988C13.8633 6.37844 13.4918 6.00464 13.4932 5.54495Z" fill="black"/>
</svg>
