<svg width="28" height="28" viewBox="0 0 28 28" fill="none" xmlns="http://www.w3.org/2000/svg">
<rect width="28" height="28" rx="14" fill="black"/>
<path d="M19.9205 9.06089C19.5784 8.72455 19.1722 8.45775 18.7252 8.27572C18.2782 8.09369 17.799 8 17.3151 8C16.8312 8 16.3521 8.09369 15.905 8.27572C15.458 8.45775 15.0518 8.72455 14.7098 9.06089L13.9998 9.75857L13.2899 9.06089C12.5989 8.38184 11.6617 8.00035 10.6845 8.00035C9.70733 8.00035 8.77016 8.38184 8.07917 9.06089C7.38819 9.73994 7 10.6609 7 11.6212C7 12.5816 7.38819 13.5026 8.07917 14.1816L8.78911 14.8793L13.9998 20L19.2105 14.8793L19.9205 14.1816C20.2627 13.8454 20.5342 13.4463 20.7194 13.007C20.9047 12.5677 21 12.0968 21 11.6212C21 11.1457 20.9047 10.6748 20.7194 10.2355C20.5342 9.79621 20.2627 9.39706 19.9205 9.06089Z" stroke="white" stroke-width="1.5" stroke-linecap="round" stroke-linejoin="round"/>
</svg>
