<svg width="25" height="24" viewBox="0 0 25 24" fill="none" xmlns="http://www.w3.org/2000/svg">
<path d="M4.5 10C4.5 9.44772 4.94772 9 5.5 9H19.5C20.0523 9 20.5 9.44772 20.5 10C20.5 10.5523 20.0523 11 19.5 11H5.5C4.94772 11 4.5 10.5523 4.5 10Z" fill="black" fill-opacity="0.6"/>
<path d="M4.5 14C4.5 13.4477 4.94772 13 5.5 13H19.5C20.0523 13 20.5 13.4477 20.5 14C20.5 14.5523 20.0523 15 19.5 15H5.5C4.94772 15 4.5 14.5523 4.5 14Z" fill="black" fill-opacity="0.6"/>
<path d="M4.5 18C4.5 17.4477 4.94772 17 5.5 17H19.5C20.0523 17 20.5 17.4477 20.5 18C20.5 18.5523 20.0523 19 19.5 19H5.5C4.94772 19 4.5 18.5523 4.5 18Z" fill="black" fill-opacity="0.6"/>
<path d="M4.5 6C4.5 5.44772 4.94772 5 5.5 5H19.5C20.0523 5 20.5 5.44772 20.5 6C20.5 6.55228 20.0523 7 19.5 7H5.5C4.94772 7 4.5 6.55228 4.5 6Z" fill="black" fill-opacity="0.6"/>
</svg>
