<svg width="32" height="32" viewBox="0 0 32 32" fill="none" xmlns="http://www.w3.org/2000/svg">
<rect width="32" height="32" rx="16" fill="black"/>
<path d="M16 16.5L18.7782 16.2222C19.9637 16.1036 20.9893 17.0414 20.9771 18.2328L20.9355 22.2902M13 15.6611V12.095C13 11.507 13.5049 11.0459 14.0905 11.0991L18.5 11.5" stroke="white" stroke-width="1.5" stroke-linecap="round" stroke-linejoin="round"/>
<path d="M13.7366 8.47315C13.5412 8.47315 13.3539 8.39554 13.2157 8.25741C13.0776 8.11927 13 7.93192 13 7.73657C13 7.54122 13.0776 7.35387 13.2157 7.21574C13.3539 7.0776 13.5412 7 13.7366 7C13.9319 7 14.1193 7.0776 14.2574 7.21574C14.3955 7.35387 14.4731 7.54122 14.4731 7.73657C14.4731 7.93192 14.3955 8.11927 14.2574 8.25741C14.1193 8.39554 13.9319 8.47315 13.7366 8.47315Z" fill="white" stroke="white" stroke-width="1.88235" stroke-linecap="round" stroke-linejoin="round"/>
<path d="M12.8335 24.5C11.6614 24.5 10.5373 24.0344 9.70849 23.2056C8.87968 22.3768 8.41406 21.2527 8.41406 20.0806C8.41406 18.9085 8.87968 17.7844 9.70849 16.9556C10.5373 16.1268 11.6614 15.6611 12.8335 15.6611C14.0056 15.6611 15.1297 16.1268 15.9585 16.9556C16.7873 17.7844 17.2529 18.9085 17.2529 20.0806C17.2529 21.2527 16.7873 22.3768 15.9585 23.2056C15.1297 24.0344 14.0056 24.5 12.8335 24.5Z" stroke="white" stroke-width="1.5" stroke-linecap="round" stroke-linejoin="round"/>
<path d="M18.5 14H22.2108L23.2826 10" stroke="white" stroke-width="1.5" stroke-linecap="round" stroke-linejoin="round"/>
</svg>
