<svg width="32" height="32" viewBox="0 0 32 32" fill="none" xmlns="http://www.w3.org/2000/svg">
<circle cx="16" cy="16" r="14.6667" fill="black" stroke="black" stroke-width="2.66667"/>
<path d="M16.0012 6.99959L17.1726 11.685C17.4011 12.5993 17.5154 13.0564 17.7534 13.4284C17.964 13.7574 18.2434 14.0368 18.5724 14.2474C18.9444 14.4854 19.4016 14.5997 20.3158 14.8282L25.0012 15.9996L20.3158 17.1709C19.4016 17.3995 18.9444 17.5138 18.5724 17.7518C18.2434 17.9624 17.964 18.2418 17.7534 18.5708C17.5154 18.9428 17.4011 19.3999 17.1726 20.3142L16.0012 24.9996L14.8299 20.3142C14.6013 19.3999 14.487 18.9428 14.249 18.5708C14.0385 18.2418 13.759 17.9624 13.43 17.7518C13.058 17.5138 12.6009 17.3995 11.6866 17.1709L7.00122 15.9996L11.6866 14.8282C12.6009 14.5997 13.058 14.4854 13.43 14.2474C13.759 14.0368 14.0385 13.7574 14.249 13.4284C14.487 13.0564 14.6013 12.5993 14.8299 11.685L16.0012 6.99959Z" fill="white"/>
<path d="M16.0012 6.99959L17.1726 11.685C17.4011 12.5993 17.5154 13.0564 17.7534 13.4284C17.964 13.7574 18.2434 14.0368 18.5724 14.2474C18.9444 14.4854 19.4016 14.5997 20.3158 14.8282L25.0012 15.9996L20.3158 17.1709C19.4016 17.3995 18.9444 17.5138 18.5724 17.7518C18.2434 17.9624 17.964 18.2418 17.7534 18.5708C17.5154 18.9428 17.4011 19.3999 17.1726 20.3142L16.0012 24.9996L14.8299 20.3142C14.6013 19.3999 14.487 18.9428 14.249 18.5708C14.0385 18.2418 13.759 17.9624 13.43 17.7518C13.058 17.5138 12.6009 17.3995 11.6866 17.1709L7.00122 15.9996L11.6866 14.8282C12.6009 14.5997 13.058 14.4854 13.43 14.2474C13.759 14.0368 14.0385 13.7574 14.249 13.4284C14.487 13.0564 14.6013 12.5993 14.8299 11.685L16.0012 6.99959Z" fill="white"/>
</svg>
