<svg width="32" height="32" viewBox="0 0 32 32" fill="none" xmlns="http://www.w3.org/2000/svg">
<g clip-path="url(#clip0_32019_7207)">
<path fill-rule="evenodd" clip-rule="evenodd" d="M16 32C7.04054 32 4.62883 31.5462 2.54134 29.4587C0.440812 27.3582 0 24.9595 0 16C0 7.04054 0.453809 4.64182 2.54134 2.54134C4.62883 0.453809 7.04054 0 16 0C24.9595 0 27.3712 0.453809 29.4587 2.54134C31.5591 4.64182 32 7.04054 32 16C32 24.9595 31.5591 27.3582 29.4587 29.4587C27.3712 31.5462 24.9595 32 16 32Z" fill="#F1F6F6"/>
<path d="M14.1227 7.61295C11.3545 7.8781 8.72423 8.7584 6.71969 10.0948C5.25605 11.0705 3.79241 12.7887 3.44241 13.9342C3.36817 14.1463 3.39999 14.1781 3.68635 14.1781C3.91969 14.1781 4.01514 14.1145 4.06817 13.9342C4.22726 13.4251 4.91666 12.4387 5.58484 11.7705C10.0182 7.33719 19.7864 6.8281 25.2803 10.7311C26.4788 11.5796 27.6985 12.9796 27.9954 13.8599C28.0909 14.1145 28.1757 14.1781 28.4197 14.1781C28.5894 14.1781 28.7273 14.1569 28.7273 14.1357C28.7273 13.9766 28.303 13.1599 27.9212 12.5766C25.6303 9.1084 19.903 7.05083 14.1227 7.61295Z" fill="#0A003F"/>
<path d="M14.4616 9.72356C10.951 10.0736 8.00251 11.4099 6.53888 13.3084C6.26312 13.6796 6.02979 14.019 6.02979 14.0827C6.02979 14.263 6.65554 14.1887 6.7616 13.9872C7.03736 13.5205 7.02675 13.5205 7.73736 13.8599C8.34191 14.1357 8.52221 14.1781 9.31766 14.1675C10.1343 14.1569 10.1768 14.1463 9.79494 14.0508C9.5616 13.9978 8.90403 13.8069 8.32069 13.6372L7.2813 13.319L7.57827 13.0008C7.74797 12.8205 8.17221 12.4917 8.5116 12.2584L9.13736 11.8342L9.46615 12.1523C9.82675 12.4811 10.5904 12.9054 10.8555 12.9054C11.0677 12.9054 11.0571 13.0433 10.8025 13.5417C10.5268 14.0933 10.5374 14.1781 10.8874 14.1781C11.1313 14.1781 11.2055 14.1039 11.3752 13.6796C11.4919 13.4145 11.8843 12.8736 12.2449 12.4811C13.9631 10.6675 16.3601 10.2751 18.5768 11.4523C19.3192 11.8448 20.3374 12.8948 20.6768 13.6372C20.8889 14.0933 20.9737 14.1675 21.2283 14.1781C21.4934 14.1781 21.5146 14.1463 21.451 13.9342C21.4192 13.8069 21.3131 13.563 21.2283 13.3933C21.048 13.0433 21.101 12.9796 21.6525 12.7993C21.8752 12.7357 22.2783 12.5023 22.5434 12.3008L23.0419 11.919L23.3813 12.1099C23.5722 12.216 23.9858 12.5236 24.2934 12.7993L24.8449 13.2978L24.0071 13.5736C23.5404 13.7327 22.8722 13.9236 22.5222 14.0084L21.8858 14.1569L22.7874 14.1675C23.5404 14.1781 23.7949 14.1357 24.3677 13.8917L25.0465 13.6054L25.2692 13.8917C25.4813 14.1569 26.0752 14.3054 26.0752 14.0933C26.0752 13.913 25.0783 12.7039 24.5798 12.2902C23.1374 11.0917 20.9419 10.1902 18.598 9.84023C17.5268 9.68113 15.448 9.6175 14.4616 9.72356ZM14.5783 10.3705C13.804 10.5508 12.7752 11.1448 12.0646 11.813C11.2586 12.5766 11.0571 12.619 10.2192 12.2266C9.29645 11.8023 9.29645 11.7069 10.198 11.3357C11.5025 10.7842 13.6449 10.2751 14.6207 10.2751H14.9919L14.5783 10.3705ZM19.4995 10.5933C20.5495 10.816 22.6813 11.5796 22.6813 11.7387C22.6813 11.8978 21.9919 12.2584 21.398 12.4069L20.8252 12.5554L20.0722 11.8554C19.3192 11.1448 18.4707 10.6463 17.5904 10.3917L17.1131 10.2539L17.8025 10.3175C18.1843 10.3493 18.948 10.466 19.4995 10.5933Z" fill="#0A003F"/>
<path d="M12.4155 13.7008L12.6488 14.1781L16.0427 14.1569L19.4473 14.1251L19.6912 13.669L19.9352 13.2236H16.0639H12.1821L12.4155 13.7008Z" fill="#0A003F"/>
<path d="M2.32879 14.6661L2 14.9418V16.4797V18.0176L2.32879 17.7418L2.65758 17.4661H16.0424C29.4379 17.4661 29.4379 17.4661 29.7242 17.6888L30 17.9009V16.363C30 14.8358 30 14.8252 29.7242 14.613C29.4379 14.3903 29.4379 14.3903 16.0424 14.3903H2.65758L2.32879 14.6661ZM23.8485 15.0797C23.997 15.26 23.9015 15.6206 23.6788 15.7055C23.3076 15.8433 22.9045 15.2706 23.1803 14.9949C23.3076 14.8676 23.7106 14.9206 23.8485 15.0797ZM12.3833 15.5145C12.6591 15.8645 12.6591 16.0979 12.4152 16.4055C12.2773 16.5752 12.1076 16.6494 11.8636 16.6388C11.4606 16.6282 11.2697 16.4691 11.1742 16.0661C11.1212 15.8433 11.1636 15.7161 11.3758 15.5145C11.7258 15.1539 12.1076 15.1645 12.3833 15.5145ZM13.6136 15.3449C13.6455 15.3979 13.603 15.4509 13.5182 15.4509C13.3803 15.4509 13.3485 15.5782 13.3485 16.0342C13.3485 16.3524 13.3061 16.6176 13.2424 16.6176C13.1894 16.6176 13.1364 16.3524 13.1364 16.0342C13.1364 15.5782 13.1045 15.4509 12.9667 15.4509C12.8818 15.4509 12.8394 15.3979 12.8712 15.3449C12.903 15.2812 13.0727 15.2388 13.2424 15.2388C13.4121 15.2388 13.5818 15.2812 13.6136 15.3449ZM15.0455 15.4509C15.4803 15.8858 15.1833 16.6388 14.5682 16.6388C13.953 16.6388 13.6561 15.8858 14.0909 15.4509C14.2076 15.3342 14.4197 15.2388 14.5682 15.2388C14.7167 15.2388 14.9288 15.3342 15.0455 15.4509ZM16.3288 15.3449C16.647 15.5145 16.5833 15.8645 16.2121 15.9918C15.9788 16.0767 15.8939 16.1721 15.8939 16.363C15.8939 16.5009 15.8515 16.6176 15.7879 16.6176C15.7242 16.6176 15.6818 16.3206 15.6818 15.9282C15.6818 15.3024 15.703 15.2388 15.9045 15.2388C16.0212 15.2388 16.2121 15.2918 16.3288 15.3449ZM18.3864 15.3449C18.4288 15.4085 18.3333 15.4509 18.1848 15.4509C17.8242 15.4509 17.8242 15.7373 18.1742 15.8327C18.7258 15.9706 18.5879 16.6176 18.0045 16.6176C17.697 16.6176 17.697 16.6176 17.697 15.9282V15.2388H18.0045C18.1848 15.2388 18.3545 15.2812 18.3864 15.3449ZM19.8076 15.9494C20.0515 16.4479 20.1045 16.6176 19.9879 16.6176C19.903 16.6176 19.797 16.5221 19.7652 16.4055C19.7227 16.2676 19.6061 16.1933 19.4258 16.1933C19.2561 16.1933 19.1394 16.2676 19.1076 16.4055C19.0758 16.5221 18.9803 16.6176 18.9061 16.6176C18.8 16.6176 18.853 16.4161 19.097 15.9282C19.2879 15.557 19.447 15.26 19.4576 15.2706C19.4682 15.2812 19.6273 15.5888 19.8076 15.9494ZM20.6667 15.5676C20.6667 15.7161 20.7409 15.7691 20.9318 15.7691C21.1439 15.7691 21.197 15.7161 21.197 15.4933C21.197 15.3449 21.2394 15.2494 21.303 15.2918C21.3667 15.3236 21.4091 15.6418 21.4091 15.9918C21.4091 16.3418 21.3667 16.6176 21.303 16.6176C21.25 16.6176 21.197 16.4691 21.197 16.2994C21.197 16.0342 21.1545 15.9812 20.9318 15.9812C20.7091 15.9812 20.6667 16.0342 20.6667 16.2994C20.6667 16.4691 20.6242 16.6176 20.5606 16.6176C20.497 16.6176 20.4545 16.31 20.4545 15.9176C20.4545 15.4827 20.497 15.2494 20.5606 15.2918C20.6242 15.3236 20.6667 15.4509 20.6667 15.5676ZM22.0455 15.5252C22.0455 15.663 22.0985 15.6524 22.3106 15.4509C22.4591 15.313 22.6076 15.2388 22.65 15.2812C22.6924 15.3236 22.5864 15.4721 22.4167 15.61L22.0985 15.8539L22.4591 16.2358C22.8621 16.6494 22.703 16.7767 22.2894 16.3842L22.0455 16.1615V16.3842C22.0455 16.5115 22.003 16.6176 21.9394 16.6176C21.8758 16.6176 21.8333 16.31 21.8333 15.9176C21.8333 15.4827 21.8758 15.2494 21.9394 15.2918C22.003 15.3236 22.0455 15.4297 22.0455 15.5252ZM9.85909 15.7903L10.0924 16.2464L10.3045 15.7903C10.4318 15.5464 10.5591 15.3449 10.6015 15.3449C10.6758 15.3449 10.803 15.9812 10.803 16.3736C10.803 16.7767 10.6015 16.6494 10.5697 16.2145L10.5379 15.8221L10.3258 16.2145C10.2197 16.4373 10.0924 16.6176 10.0606 16.6176C10.0182 16.6176 9.91212 16.4373 9.82727 16.2145L9.66818 15.8221L9.58333 16.2145C9.46667 16.7979 9.29697 16.713 9.37121 16.1085C9.49848 15.1858 9.54091 15.1645 9.85909 15.7903ZM17.3258 16.0873C17.3682 16.1509 17.2727 16.1933 17.1242 16.1933C16.9758 16.1933 16.8485 16.1403 16.8485 16.0873C16.8485 16.0236 16.9439 15.9812 17.05 15.9812C17.1667 15.9812 17.2939 16.0236 17.3258 16.0873Z" fill="#0A003F"/>
<path d="M23.2441 15.1963C23.2123 15.2811 23.2653 15.4402 23.3608 15.5357C23.5093 15.6948 23.5517 15.6948 23.6896 15.5463C23.785 15.4508 23.8274 15.3024 23.785 15.2069C23.7002 14.9842 23.329 14.9736 23.2441 15.1963ZM23.6365 15.2705C23.6365 15.3554 23.5623 15.419 23.4774 15.419C23.3926 15.419 23.3184 15.3554 23.3184 15.2705C23.3184 15.1963 23.3926 15.1327 23.4774 15.1327C23.5623 15.1327 23.6365 15.1963 23.6365 15.2705Z" fill="#0A003F"/>
<path d="M11.5031 15.6523C11.1106 16.0871 11.6516 16.6811 12.1394 16.3523C12.4364 16.1614 12.4682 15.8644 12.2243 15.6205C12.0016 15.3978 11.7258 15.4084 11.5031 15.6523Z" fill="#0A003F"/>
<path d="M14.2185 15.5782C13.9109 15.8857 14.1336 16.4266 14.5685 16.4266C14.8867 16.4266 15.0457 16.2675 15.0457 15.9175C15.0457 15.6418 14.8548 15.4509 14.5685 15.4509C14.4412 15.4509 14.2927 15.5039 14.2185 15.5782Z" fill="#0A003F"/>
<path d="M15.894 15.663C15.894 15.8221 15.9471 15.8752 16.085 15.8539C16.1804 15.8327 16.2653 15.7479 16.2653 15.663C16.2653 15.5782 16.1804 15.4933 16.085 15.4721C15.9471 15.4509 15.894 15.5039 15.894 15.663Z" fill="#0A003F"/>
<path d="M17.9092 16.1933C17.9092 16.3099 17.9728 16.4054 18.0577 16.4054C18.2804 16.4054 18.3865 16.1827 18.2168 16.0766C17.9834 15.9281 17.9092 15.9599 17.9092 16.1933Z" fill="#0A003F"/>
<path d="M19.3405 15.8751C19.3087 15.9282 19.3511 15.9812 19.4466 15.9812C19.542 15.9812 19.5845 15.9282 19.5526 15.8751C19.5208 15.8115 19.4678 15.7691 19.4466 15.7691C19.4254 15.7691 19.3723 15.8115 19.3405 15.8751Z" fill="#0A003F"/>
<path d="M3.38944 17.9644C4.11065 19.8629 5.72277 21.5174 8.00308 22.6841C10.6546 24.0523 13.7728 24.6356 17.347 24.4447C22.7667 24.1477 27.3591 21.5386 28.7167 17.9644C28.8228 17.6992 28.8122 17.678 28.5258 17.678C28.2607 17.678 28.1864 17.7629 27.8364 18.4629C26.8925 20.3826 24.6334 22.0901 21.8016 23.0341C19.6697 23.7447 18.7788 23.872 16.0531 23.872C13.9213 23.872 13.4758 23.8401 12.5 23.6386C8.46974 22.7689 5.52126 20.9235 4.26974 18.4947C3.90914 17.7841 3.82429 17.678 3.56974 17.678C3.29399 17.678 3.28338 17.6992 3.38944 17.9644Z" fill="#0A003F"/>
<path d="M5.92432 17.7524C5.92432 17.9645 6.66674 18.919 7.2925 19.5024C8.78795 20.9024 11.047 21.8569 13.7092 22.2281C14.7698 22.3766 17.3364 22.3766 18.397 22.2281C20.2319 21.9736 22.141 21.3372 23.4986 20.5205C24.3364 20.0221 25.5561 18.8554 25.8955 18.219L26.1925 17.6781H25.8849C25.6304 17.6781 25.5243 17.763 25.344 18.0493C25.2273 18.2508 25.0895 18.4205 25.047 18.4205C24.994 18.4205 24.5804 18.2508 24.1137 18.0493C23.3183 17.7099 23.191 17.6781 22.1516 17.6781H21.0273L20.7198 18.3357C19.9349 20.0221 17.9304 21.2842 16.0531 21.2842C14.1758 21.2842 12.1501 20.0114 11.3758 18.3463L11.0683 17.6781H9.98644C8.98947 17.6781 8.85159 17.7099 8.04553 18.0493C7.56826 18.2508 7.13341 18.4205 7.08038 18.4205C7.02735 18.4205 6.87886 18.2508 6.75159 18.0493C6.57129 17.7736 6.43341 17.6781 6.22129 17.6781C6.05159 17.6781 5.92432 17.7099 5.92432 17.7524ZM10.7819 18.4417C10.9092 18.7493 10.9834 19.0251 10.9304 19.0569C10.888 19.0993 10.6334 19.2054 10.3683 19.3114C10.0925 19.4069 9.71068 19.6508 9.49856 19.8524L9.12735 20.213L8.72432 19.9372C8.49098 19.7781 8.07735 19.4599 7.79098 19.2266L7.27129 18.8024L7.63189 18.6433C8.08795 18.4524 10.0395 17.9114 10.3364 17.9008C10.4955 17.8902 10.6016 18.0281 10.7819 18.4417ZM23.3713 18.2614C23.838 18.3993 24.3683 18.569 24.538 18.6327L24.8561 18.7599L24.4319 19.1311C23.9122 19.5872 23.1592 20.1175 23.0213 20.1175C22.9683 20.1175 22.841 20.0114 22.7243 19.8948C22.5228 19.6721 21.3667 19.0569 21.1334 19.0569C21.0804 19.0569 21.144 18.7917 21.2925 18.463L21.5683 17.8796L22.0455 17.9433C22.3001 17.9857 22.894 18.1236 23.3713 18.2614ZM11.938 20.0963C12.6592 20.8175 13.338 21.2418 14.3031 21.5705C15.1304 21.8569 15.1092 21.8569 13.6986 21.6448C12.394 21.4539 11.0683 21.0827 10.0925 20.6478L9.3925 20.3296L9.67886 20.1069C9.9122 19.916 10.9516 19.513 11.2486 19.4918C11.2804 19.4811 11.5986 19.7569 11.938 20.0963ZM21.9607 19.8205C22.8092 20.1811 22.8092 20.2872 22.0137 20.6478C21.038 21.0827 19.7122 21.4539 18.4077 21.6448C16.997 21.8569 16.9758 21.8569 17.8031 21.5705C18.7789 21.2418 19.4577 20.8069 20.1364 20.1069C20.6667 19.5554 20.7516 19.513 21.091 19.5554C21.2925 19.5872 21.6849 19.7039 21.9607 19.8205Z" fill="#0A003F"/>
<path d="M15.2679 19.1631C15.6921 19.9691 16.0527 20.6267 16.0633 20.6161C16.0633 20.6055 16.424 19.9373 16.8376 19.1312L17.6118 17.6782H16.0527H14.4937L15.2679 19.1631Z" fill="#0A003F"/>
</g>
<defs>
<clipPath id="clip0_32019_7207">
<rect width="32" height="32" fill="white"/>
</clipPath>
</defs>
</svg>
