<svg width="32" height="33" viewBox="0 0 32 33" fill="none" xmlns="http://www.w3.org/2000/svg">
<circle cx="16" cy="16.4" r="16" fill="black"/>
<path d="M18.6666 12.4V11.7333C18.6666 11.3797 18.5261 11.0406 18.2761 10.7905C18.026 10.5405 17.6869 10.4 17.3333 10.4H14.6666C14.313 10.4 13.9738 10.5405 13.7238 10.7905C13.4737 11.0406 13.3333 11.3797 13.3333 11.7333V12.4M10.6666 13.0667H21.3333C22.0696 13.0667 22.6666 13.6636 22.6666 14.4V21.0667C22.6666 21.803 22.0696 22.4 21.3333 22.4H10.6666C9.93021 22.4 9.33325 21.803 9.33325 21.0667V14.4C9.33325 13.6636 9.93021 13.0667 10.6666 13.0667Z" stroke="white" stroke-width="1.6" stroke-linecap="round" stroke-linejoin="round"/>
</svg>
