<svg width="32" height="32" viewBox="0 0 32 32" fill="none" xmlns="http://www.w3.org/2000/svg">
<g clip-path="url(#clip0_30620_12253)">
<path fill-rule="evenodd" clip-rule="evenodd" d="M16 32C7.04054 32 4.62883 31.5462 2.54134 29.4587C0.440812 27.3582 0 24.9595 0 16C0 7.04054 0.453809 4.64182 2.54134 2.54134C4.62883 0.453809 7.04054 0 16 0C24.9595 0 27.3712 0.453809 29.4587 2.54134C31.5591 4.64182 32 7.04054 32 16C32 24.9595 31.5591 27.3582 29.4587 29.4587C27.3712 31.5462 24.9595 32 16 32Z" fill="#005BAA"/>
<path fill-rule="evenodd" clip-rule="evenodd" d="M18.1208 5.60999C18.5942 5.60999 18.978 5.24959 18.978 4.805C18.978 4.36041 18.5942 4 18.1208 4C17.6474 4 17.2637 4.36041 17.2637 4.805C17.2637 5.24959 17.6474 5.60999 18.1208 5.60999ZM16.6932 5.10476C16.6932 5.65195 16.2263 6.09553 15.6503 6.09553C15.0743 6.09553 14.6074 5.65195 14.6074 5.10476C14.6074 4.55758 15.0743 4.114 15.6503 4.114C16.2263 4.114 16.6932 4.55758 16.6932 5.10476ZM13.2289 6.72787C13.8049 6.72787 14.2719 6.28429 14.2719 5.7371C14.2719 5.18992 13.8049 4.74634 13.2289 4.74634C12.653 4.74634 12.186 5.18992 12.186 5.7371C12.186 6.28429 12.653 6.72787 13.2289 6.72787ZM12.0624 6.87131C12.0624 7.51749 11.5619 8.04133 10.9445 8.04133C10.3271 8.04133 9.82666 7.51749 9.82666 6.87131C9.82666 6.22513 10.3271 5.70129 10.9445 5.70129C11.5619 5.70129 12.0624 6.22513 12.0624 6.87131ZM9.14844 10.2412C9.90082 10.2412 10.5107 9.65459 10.5107 8.93101C10.5107 8.20743 9.90082 7.62085 9.14844 7.62085C8.39606 7.62085 7.78613 8.20743 7.78613 8.93101C7.78613 9.65459 8.39606 10.2412 9.14844 10.2412ZM23.6546 9.69689C23.6546 9.91828 23.4679 10.0978 23.2375 10.0978C23.0071 10.0978 22.8203 9.91828 22.8203 9.69689C22.8203 9.4755 23.0071 9.29602 23.2375 9.29602C23.4679 9.29602 23.6546 9.4755 23.6546 9.69689ZM21.755 10.8832C22.0196 10.8832 22.2341 10.6774 22.2341 10.4236C22.2341 10.1699 22.0196 9.96411 21.755 9.96411C21.4904 9.96411 21.2759 10.1699 21.2759 10.4236C21.2759 10.6774 21.4904 10.8832 21.755 10.8832ZM8.7704 11.4797C8.7704 12.2356 8.14881 12.8485 7.38203 12.8485C6.61525 12.8485 5.99365 12.2356 5.99365 11.4797C5.99365 10.7237 6.61525 10.1108 7.38203 10.1108C8.14881 10.1108 8.7704 10.7237 8.7704 11.4797ZM8.05052 14.654C8.05052 15.4874 7.36763 16.1629 6.52526 16.1629C5.68288 16.1629 5 15.4874 5 14.654C5 13.8206 5.68288 13.145 6.52526 13.145C7.36763 13.145 8.05052 13.8206 8.05052 14.654ZM13.757 25.7316C13.757 26.4462 13.1705 27.0255 12.4469 27.0255C11.7233 27.0255 11.1367 26.4462 11.1367 25.7316C11.1367 25.017 11.7233 24.4378 12.4469 24.4378C13.1705 24.4378 13.757 25.017 13.757 25.7316ZM15.1422 27.7393C15.783 27.7393 16.3024 27.2257 16.3024 26.5921C16.3024 25.9586 15.783 25.4449 15.1422 25.4449C14.5014 25.4449 13.9819 25.9586 13.9819 26.5921C13.9819 27.2257 14.5014 27.7393 15.1422 27.7393ZM18.5705 27.0287C18.5705 27.5669 18.1299 28.0031 17.5863 28.0031C17.0427 28.0031 16.6021 27.5669 16.6021 27.0287C16.6021 26.4905 17.0427 26.0542 17.5863 26.0542C18.1299 26.0542 18.5705 26.4905 18.5705 27.0287ZM20.1545 27.5796C20.6279 27.5796 21.0117 27.2002 21.0117 26.7323C21.0117 26.2643 20.6279 25.8849 20.1545 25.8849C19.6811 25.8849 19.2974 26.2643 19.2974 26.7323C19.2974 27.2002 19.6811 27.5796 20.1545 27.5796ZM23.2382 26.1129C23.2382 26.5809 22.8545 26.9602 22.3811 26.9602C21.9077 26.9602 21.5239 26.5809 21.5239 26.1129C21.5239 25.6449 21.9077 25.2655 22.3811 25.2655C22.8545 25.2655 23.2382 25.6449 23.2382 26.1129ZM24.1794 25.7056C24.5754 25.7056 24.8964 25.389 24.8964 24.9984C24.8964 24.6078 24.5754 24.2911 24.1794 24.2911C23.7834 24.2911 23.4624 24.6078 23.4624 24.9984C23.4624 25.389 23.7834 25.7056 24.1794 25.7056ZM26.2555 23.5774C26.2555 23.8636 26.0206 24.0956 25.7308 24.0956C25.441 24.0956 25.2061 23.8636 25.2061 23.5774C25.2061 23.2912 25.441 23.0592 25.7308 23.0592C26.0206 23.0592 26.2555 23.2912 26.2555 23.5774ZM7.86803 22.8017C8.71041 22.8017 9.39329 22.1261 9.39329 21.2928C9.39329 20.4594 8.71041 19.7838 7.86803 19.7838C7.02565 19.7838 6.34277 20.4594 6.34277 21.2928C6.34277 22.1261 7.02565 22.8017 7.86803 22.8017ZM11.4266 23.8088C11.4266 24.5558 10.8138 25.1614 10.0578 25.1614C9.30181 25.1614 8.68896 24.5558 8.68896 23.8088C8.68896 23.0618 9.30181 22.4563 10.0578 22.4563C10.8138 22.4563 11.4266 23.0618 11.4266 23.8088ZM12.186 23.2483C12.7728 23.2483 13.2485 22.7784 13.2485 22.1988C13.2485 21.6193 12.7728 21.1494 12.186 21.1494C11.5992 21.1494 11.1235 21.6193 11.1235 22.1988C11.1235 22.7784 11.5992 23.2483 12.186 23.2483ZM15.0603 20.931C15.0603 21.3612 14.7072 21.7099 14.2716 21.7099C13.836 21.7099 13.4829 21.3612 13.4829 20.931C13.4829 20.5008 13.836 20.1521 14.2716 20.1521C14.7072 20.1521 15.0603 20.5008 15.0603 20.931ZM16.5989 20.83C16.9661 20.83 17.2638 20.5352 17.2638 20.1717C17.2638 19.8081 16.9661 19.5133 16.5989 19.5133C16.2317 19.5133 15.9341 19.8081 15.9341 20.1717C15.9341 20.5352 16.2317 20.83 16.5989 20.83ZM18.9617 19.4775C18.9617 19.7547 18.734 19.9794 18.4532 19.9794C18.1725 19.9794 17.9448 19.7547 17.9448 19.4775C17.9448 19.2003 18.1725 18.9756 18.4532 18.9756C18.734 18.9756 18.9617 19.2003 18.9617 19.4775ZM20.1905 19.9175C20.4713 19.9175 20.699 19.6928 20.699 19.4156C20.699 19.1384 20.4713 18.9137 20.1905 18.9137C19.9098 18.9137 19.6821 19.1384 19.6821 19.4156C19.6821 19.6928 19.9098 19.9175 20.1905 19.9175ZM22.2634 19.5784C22.2634 19.8556 22.0358 20.0803 21.755 20.0803C21.4742 20.0803 21.2466 19.8556 21.2466 19.5784C21.2466 19.3012 21.4742 19.0765 21.755 19.0765C22.0358 19.0765 22.2634 19.3012 22.2634 19.5784ZM23.2893 20.0381C23.5467 20.0381 23.7553 19.8323 23.7553 19.5786C23.7553 19.3248 23.5467 19.119 23.2893 19.119C23.0319 19.119 22.8232 19.3248 22.8232 19.5786C22.8232 19.8323 23.0319 20.0381 23.2893 20.0381ZM10.4133 13.2265C10.9749 13.2265 11.4302 12.7713 11.4302 12.2097C11.4302 11.6481 10.9749 11.1929 10.4133 11.1929C9.85174 11.1929 9.39648 11.6481 9.39648 12.2097C9.39648 12.7713 9.85174 13.2265 10.4133 13.2265ZM13.7962 12.2326C13.7962 12.7635 13.4051 13.194 12.9228 13.194C12.4404 13.194 12.0493 12.7635 12.0493 12.2326C12.0493 11.7016 12.4404 11.2711 12.9228 11.2711C13.4051 11.2711 13.7962 11.7016 13.7962 12.2326ZM15.0609 13.0635C15.5433 13.0635 15.9344 12.6725 15.9344 12.1901C15.9344 11.7077 15.5433 11.3166 15.0609 11.3166C14.5786 11.3166 14.1875 11.7077 14.1875 12.1901C14.1875 12.6725 14.5786 13.0635 15.0609 13.0635ZM17.7037 12.2618C17.7037 12.6452 17.4148 12.956 17.0584 12.956C16.702 12.956 16.4131 12.6452 16.4131 12.2618C16.4131 11.8784 16.702 11.5676 17.0584 11.5676C17.4148 11.5676 17.7037 11.8784 17.7037 12.2618ZM18.7366 12.516C19.093 12.516 19.3819 12.2169 19.3819 11.8479C19.3819 11.4789 19.093 11.1798 18.7366 11.1798C18.3802 11.1798 18.0913 11.4789 18.0913 11.8479C18.0913 12.2169 18.3802 12.516 18.7366 12.516ZM21.0151 11.1798C21.0151 11.4786 20.7729 11.7208 20.4741 11.7208C20.1753 11.7208 19.9331 11.4786 19.9331 11.1798C19.9331 10.881 20.1753 10.6388 20.4741 10.6388C20.7729 10.6388 21.0151 10.881 21.0151 11.1798ZM21.0444 5.10492C21.0444 5.54951 20.6606 5.90992 20.1872 5.90992C19.7138 5.90992 19.3301 5.54951 19.3301 5.10492C19.3301 4.66034 19.7138 4.29993 20.1872 4.29993C20.6606 4.29993 21.0444 4.66034 21.0444 5.10492ZM22.3768 6.39546C22.7385 6.39546 23.0318 6.10655 23.0318 5.75016C23.0318 5.39377 22.7385 5.10486 22.3768 5.10486C22.015 5.10486 21.7217 5.39377 21.7217 5.75016C21.7217 6.10655 22.015 6.39546 22.3768 6.39546ZM24.4666 6.7572C24.4666 7.05599 24.2302 7.29821 23.9386 7.29821C23.647 7.29821 23.4106 7.05599 23.4106 6.7572C23.4106 6.45841 23.647 6.21619 23.9386 6.21619C24.2302 6.21619 24.4666 6.45841 24.4666 6.7572ZM25.3333 8.41599C25.596 8.41599 25.8091 8.20733 25.8091 7.94994C25.8091 7.69254 25.596 7.48389 25.3333 7.48389C25.0705 7.48389 24.8574 7.69254 24.8574 7.94994C24.8574 8.20733 25.0705 8.41599 25.3333 8.41599ZM26.6465 9.38732C26.6465 9.64471 26.4334 9.85337 26.1707 9.85337C25.9079 9.85337 25.6948 9.64471 25.6948 9.38732C25.6948 9.12992 25.9079 8.92126 26.1707 8.92126C26.4334 8.92126 26.6465 9.12992 26.6465 9.38732ZM6.90671 19.761C7.79769 19.761 8.51996 19.0562 8.51996 18.1868C8.51996 17.3174 7.79769 16.6127 6.90671 16.6127C6.01574 16.6127 5.29346 17.3174 5.29346 18.1868C5.29346 19.0562 6.01574 19.761 6.90671 19.761ZM11.3457 17.5025C11.3457 18.2333 10.7693 18.8257 10.0583 18.8257C9.34736 18.8257 8.771 18.2333 8.771 17.5025C8.771 16.7717 9.34736 16.1793 10.0583 16.1793C10.7693 16.1793 11.3457 16.7717 11.3457 17.5025ZM12.9223 17.8935C13.4929 17.8935 13.9554 17.447 13.9554 16.8962C13.9554 16.3454 13.4929 15.8989 12.9223 15.8989C12.3517 15.8989 11.8892 16.3454 11.8892 16.8962C11.8892 17.447 12.3517 17.8935 12.9223 17.8935ZM16.2501 16.5084C16.2501 16.9638 15.8984 17.333 15.4646 17.333C15.0309 17.333 14.6792 16.9638 14.6792 16.5084C14.6792 16.053 15.0309 15.6839 15.4646 15.6839C15.8984 15.6839 16.2501 16.053 16.2501 16.5084ZM18.0916 16.6779C18.5254 16.6779 18.877 16.3423 18.877 15.9283C18.877 15.5143 18.5254 15.1787 18.0916 15.1787C17.6578 15.1787 17.3062 15.5143 17.3062 15.9283C17.3062 16.3423 17.6578 16.6779 18.0916 16.6779ZM20.9431 15.3579C20.9431 15.7269 20.6615 16.0261 20.3141 16.0261C19.9667 16.0261 19.6851 15.7269 19.6851 15.3579C19.6851 14.9889 19.9667 14.6898 20.3141 14.6898C20.6615 14.6898 20.9431 14.9889 20.9431 15.3579ZM22.2634 15.4036C22.5712 15.4036 22.8207 15.1395 22.8207 14.8137C22.8207 14.4879 22.5712 14.2238 22.2634 14.2238C21.9556 14.2238 21.7061 14.4879 21.7061 14.8137C21.7061 15.1395 21.9556 15.4036 22.2634 15.4036ZM24.5445 14.3052C24.5445 14.5176 24.3811 14.6898 24.1795 14.6898C23.9779 14.6898 23.8145 14.5176 23.8145 14.3052C23.8145 14.0928 23.9779 13.9207 24.1795 13.9207C24.3811 13.9207 24.5445 14.0928 24.5445 14.3052Z" fill="white"/>
</g>
<defs>
<clipPath id="clip0_30620_12253">
<rect width="32" height="32" fill="white"/>
</clipPath>
</defs>
</svg>
