<svg width="32" height="33" viewBox="0 0 32 33" fill="none" xmlns="http://www.w3.org/2000/svg">
<circle cx="16" cy="16.4" r="16" fill="black"/>
<g clip-path="url(#clip0_13866_8140)">
<path d="M16 22.4C18.7614 22.4 21 20.1614 21 17.4C21 14.6386 18.7614 12.4 16 12.4C13.2386 12.4 11 14.6386 11 17.4C11 20.1614 13.2386 22.4 16 22.4Z" stroke="white" stroke-width="1.5" stroke-linecap="round" stroke-linejoin="round"/>
<path d="M14.7929 8.98611L17.2071 8.98611C17.3397 8.98611 17.4669 9.03879 17.5607 9.13256L18.4749 10.0468C18.6701 10.242 18.6701 10.5586 18.4749 10.7539L16.3536 12.8752C16.1583 13.0705 15.8417 13.0705 15.6464 12.8752L13.5251 10.7539C13.3299 10.5586 13.3299 10.242 13.5251 10.0468L14.4393 9.13256C14.5331 9.03879 14.6603 8.98611 14.7929 8.98611Z" fill="white"/>
</g>
<defs>
<clipPath id="clip0_13866_8140">
<rect width="16" height="16" fill="white" transform="translate(8 8.40002)"/>
</clipPath>
</defs>
</svg>
