<svg width="32" height="32" viewBox="0 0 32 32" fill="none" xmlns="http://www.w3.org/2000/svg">
<g clip-path="url(#clip0_32353_3455)">
<path fill-rule="evenodd" clip-rule="evenodd" d="M16 32C7.04054 32 4.62883 31.5462 2.54134 29.4587C0.440812 27.3582 0 24.9595 0 16C0 7.04054 0.453809 4.64182 2.54134 2.54134C4.62883 0.453809 7.04054 0 16 0C24.9595 0 27.3712 0.453809 29.4587 2.54134C31.5591 4.64182 32 7.04054 32 16C32 24.9595 31.5591 27.3582 29.4587 29.4587C27.3712 31.5462 24.9595 32 16 32Z" fill="#3FA8E1"/>
<path d="M22.4205 11.5227L29 6.56527L22.4205 6.67175H21.9428L17.6447 11.5745L9.79174 3.42004L11.7019 9.76374L4.37993 6.61851L12.2329 17.9196L3 28.5812L15.151 21.2778L15.841 20.8512L16.2655 20.585L22.4205 16.747V11.5227ZM25.1797 7.89761L22.4205 9.97668V7.95084L25.1797 7.89761ZM21.1996 9.4436V15.3074L18.4936 12.4824L21.1996 9.4436ZM7.82977 9.4436L12.1278 11.2558L13.6136 16.2139L13.0301 16.9067L7.82977 9.4436ZM9.05288 23.4633L13.9344 17.8663L14.0934 17.7059L14.7834 20.0519L9.05288 23.4633ZM15.8971 19.3584L12.4451 8.00408L20.5103 16.4268L15.8971 19.3584Z" fill="white"/>
</g>
<defs>
<clipPath id="clip0_32353_3455">
<rect width="32" height="32" fill="white"/>
</clipPath>
</defs>
</svg>
