<svg width="32" height="32" viewBox="0 0 32 32" fill="none" xmlns="http://www.w3.org/2000/svg">
<g clip-path="url(#clip0_32002_375)">
<path fill-rule="evenodd" clip-rule="evenodd" d="M16 32C7.04054 32 4.62883 31.5462 2.54134 29.4587C0.440812 27.3582 0 24.9595 0 16C0 7.04054 0.453809 4.64182 2.54134 2.54134C4.62883 0.453809 7.04054 0 16 0C24.9595 0 27.3712 0.453809 29.4587 2.54134C31.5591 4.64182 32 7.04054 32 16C32 24.9595 31.5591 27.3582 29.4587 29.4587C27.3712 31.5462 24.9595 32 16 32Z" fill="#F1F6F6"/>
<path d="M14.1116 14.1118L15.2804 6.7272L11.5525 2.99988L10.3843 10.3845L14.1116 14.1118Z" fill="#33657F"/>
<path d="M6.72733 15.2807L14.1119 14.1119L10.3846 10.3846L3 11.5534L6.72733 15.2807Z" fill="#00A599"/>
<path d="M17.8881 17.8877L16.7192 25.2723L20.4466 28.9996L21.6154 21.6151L17.8881 17.8877Z" fill="#33657F"/>
<path d="M25.2728 16.719L17.8882 17.8878L21.6155 21.6151L29.0001 20.4463L25.2728 16.719Z" fill="#00A599"/>
<path d="M16.7192 6.7272L17.8881 14.1118L21.6154 10.3845L20.4466 2.99988L16.7192 6.7272Z" fill="#FFB701"/>
<path d="M17.8882 14.1119L25.2728 15.2807L29.0001 11.5534L21.6155 10.3846L17.8882 14.1119Z" fill="#EE7800"/>
<path d="M15.2804 25.2723L14.1116 17.8877L10.3843 21.6151L11.5525 28.9996L15.2804 25.2723Z" fill="#FFB701"/>
<path d="M14.1119 17.8878L6.72733 16.719L3 20.4463L10.3846 21.6151L14.1119 17.8878Z" fill="#EE7800"/>
</g>
<defs>
<clipPath id="clip0_32002_375">
<rect width="32" height="32" fill="white"/>
</clipPath>
</defs>
</svg>
