<svg width="32" height="32" viewBox="0 0 32 32" fill="none" xmlns="http://www.w3.org/2000/svg">
<circle cx="16" cy="16" r="16" fill="black"/>
<path d="M24.7267 11.6399V12.3671C24.7267 12.7685 24.4016 13.0943 23.9995 13.0943C23.5973 13.0943 23.2722 12.7685 23.2722 12.3671V11.6399C23.2722 10.437 22.2934 9.45814 21.0905 9.45814H10.9091C9.70629 9.45814 8.72743 10.437 8.72743 11.6399V18.9123C8.72743 20.1151 9.70629 21.094 10.9091 21.094H14.0909C14.493 21.094 14.8181 21.4198 14.8181 21.8212C14.8181 22.2227 14.493 22.5485 14.0909 22.5485H10.9091C8.90415 22.5485 7.27295 20.9173 7.27295 18.9123V11.6399C7.27295 9.63486 8.90415 8.00366 10.9091 8.00366H21.0905C23.0955 8.00366 24.7267 9.63486 24.7267 11.6399ZM25.0875 15.1881C25.4991 15.5997 25.7267 16.148 25.7267 16.7305C25.7267 17.3131 25.4991 17.8614 25.0875 18.2737L20.2099 23.1513C19.6608 23.7004 18.9299 24.0037 18.1532 24.0037H16.9998C16.5977 24.0037 16.2726 23.6779 16.2726 23.2764V22.123C16.2726 21.3463 16.5751 20.6155 17.1249 20.0664L22.0025 15.1888C22.8534 14.3379 24.2366 14.3372 25.0875 15.1881ZM24.2722 16.7305C24.2722 16.5364 24.1966 16.3538 24.0591 16.2164C23.7748 15.932 23.3152 15.9328 23.0308 16.2164L18.1532 21.094C17.8827 21.3652 17.7271 21.7398 17.7271 22.1223V22.5485H18.1532C18.5416 22.5485 18.9066 22.3972 19.1815 22.1223L24.0591 17.2447C24.1966 17.1072 24.2722 16.9247 24.2722 16.7305Z" fill="white"/>
<path d="M17.8828 13.4941C17.8828 13.8164 17.707 14.1631 17.4824 14.3584V14.4121H18.1318C18.3076 14.4121 18.4395 14.5342 18.4395 14.71C18.4395 14.8809 18.3076 15.0029 18.1318 15.0029H13.3223C13.1416 15.0029 13 14.8662 13 14.6807C13 14.4951 13.1416 14.3584 13.3223 14.3584H16.0713C16.4229 14.2119 16.6035 13.9922 16.6035 13.6455C16.6035 13.1914 16.2031 12.8789 15.6221 12.8789C15.1875 12.8789 14.8213 13.0791 14.5576 13.4111C14.4111 13.5625 14.2305 13.6602 14.0449 13.6602C13.7373 13.6602 13.5078 13.4453 13.5078 13.1572C13.5078 13.0156 13.5664 12.8789 13.6836 12.752C14.0352 12.21 14.7676 11.8779 15.6514 11.8779C16.9941 11.8779 17.8828 12.5176 17.8828 13.4941ZM13 15.8916C13 15.7207 13.1318 15.5986 13.3027 15.5986H18.1221C18.3027 15.5986 18.4395 15.7354 18.4395 15.9209C18.4395 16.1016 18.3027 16.2383 18.1221 16.2383H15.3145C14.9238 16.3359 14.665 16.6191 14.665 16.9609C14.665 17.4297 15.1143 17.7568 15.7588 17.7568C16.3008 17.7568 16.6426 17.5518 16.9209 17.1709C17.0869 16.9951 17.2676 16.9023 17.4678 16.9023C17.7754 16.9023 18.0244 17.1465 18.0244 17.459C18.0244 17.5957 17.9756 17.7275 17.8584 17.8496C17.4873 18.4014 16.6768 18.7578 15.7539 18.7578C14.3086 18.7578 13.3809 18.1182 13.3809 17.1611C13.3809 16.7949 13.5811 16.4287 13.8594 16.2383V16.1797H13.3027C13.1318 16.1797 13 16.0576 13 15.8916Z" fill="white"/>
</svg>
