<svg width="32" height="32" viewBox="0 0 32 32" fill="none" xmlns="http://www.w3.org/2000/svg">
<g clip-path="url(#clip0_30595_15697)">
<path fill-rule="evenodd" clip-rule="evenodd" d="M16 32C7.04054 32 4.62882 31.5462 2.54134 29.4587C0.440812 27.3582 0 24.9595 0 16C0 7.04054 0.453809 4.64182 2.54134 2.54134C4.62882 0.453809 7.04054 0 16 0C24.9595 0 27.3712 0.453809 29.4587 2.54134C31.5591 4.64182 32 7.04054 32 16C32 24.9595 31.5591 27.3582 29.4587 29.4587C27.3712 31.5462 24.9595 32 16 32Z" fill="#F91F2B"/>
<path fill-rule="evenodd" clip-rule="evenodd" d="M28.6165 10H28.8083C28.7124 10.4811 28.5205 10.7697 28.2327 11.0584C27.8489 11.2508 27.4652 11.347 26.7936 11.347H26.2179C24.1072 11.2508 23.6275 13.4638 23.8194 15.1958C24.0113 16.2541 24.395 17.3125 24.9707 18.0823C25.5463 18.6596 26.3139 19.0445 27.0814 18.4672C27.657 17.9861 27.8489 16.8315 27.8489 16.2541C27.8489 15.0995 27.4652 13.3676 26.026 13.3676C25.6423 13.3676 25.2585 13.5601 24.8747 13.9449C24.6829 14.2336 24.5869 14.8109 24.5869 15.4844H24.2991C24.1072 14.1374 24.7788 12.9827 26.2179 12.8865C27.9449 12.8865 29.0002 14.2336 29.0002 15.9655C29.0002 17.6974 27.9449 19.3331 26.2179 19.3331C25.2585 19.3331 24.5869 19.0445 24.0113 18.2747C23.4356 17.6012 23.2437 16.5428 23.2437 15.1958C23.2437 13.4638 23.5316 12.4054 24.0113 11.6357C24.5869 10.866 25.2585 10.4811 26.3139 10.4811H27.1773C27.753 10.5773 28.1368 10.4811 28.3286 10.3849C28.3513 10.3622 28.3793 10.3394 28.4088 10.3155C28.5045 10.2379 28.6165 10.147 28.6165 10ZM16.5276 12.8862L18.6384 17.6009L20.5572 13.2711L20.7491 12.8862H22.3801V13.0786H22.1882C21.9963 13.0786 21.7085 13.2711 21.7085 13.5597V17.1198V18.563C21.7085 18.8517 21.9004 19.0441 22.1882 19.0441H22.3801V19.1404H21.3247H20.1734V18.9479H20.3653C20.5572 18.9479 20.845 18.7555 20.845 18.4668V17.0236V13.8484L18.4465 19.1404H18.3505L16.0479 13.7522V18.4668C16.0479 18.7555 16.2398 18.9479 16.4317 18.9479H16.5276V19.1404H15.4723H14.8966V18.9479H15.0885C15.2804 18.9479 15.5682 18.7555 15.5682 18.4668V13.5597C15.5682 13.2711 15.4723 13.0786 15.0885 13.0786H16.5276V12.8862ZM13.8413 13.0786H15.0885C14.8007 13.0786 14.5129 13.3673 14.321 13.7522L12.1143 18.6593C11.9224 19.0441 11.6346 19.2366 11.2509 19.2366L10.7712 19.1404L10.6752 18.4668C10.8671 18.6593 11.059 18.7555 11.1549 18.7555C11.4427 18.8517 11.6346 18.7555 11.7306 18.563L12.0184 17.9857L10.0036 13.8484C9.81174 13.4635 9.61985 13.1749 9.33203 13.1749V12.9824H10.4833H11.3468V13.1749H11.1549C10.963 13.1749 10.963 13.4635 11.059 13.6559L12.594 16.9273L14.0332 13.8484C14.225 13.5597 14.0332 13.2711 13.8413 13.2711V13.0786ZM7.41331 13.5599V17.1199V18.467C7.41331 18.7556 7.22143 18.948 7.02954 18.948H6.83766V19.1405H7.98896H9.04431V18.948H8.85243C8.66055 18.948 8.46866 18.7556 8.46866 18.467V17.0237V13.4636C8.46866 13.175 8.66055 12.9825 8.85243 12.9825H8.94837V12.7901H7.89301H7.60519H6.83766H5.20665H4.24724H4.05536H3V12.9825H3.09594C3.28782 12.9825 3.47971 13.175 3.47971 13.4636V17.0237V18.467C3.47971 18.7556 3.28782 18.948 3.09594 18.948H3V19.1405H4.05536H4.91883C4.72695 19.1405 4.53506 18.948 4.53506 18.6594V17.2161V13.6561V13.3674H7.41331V13.5599Z" fill="white"/>
</g>
<defs>
<clipPath id="clip0_30595_15697">
<rect width="32" height="32" fill="white"/>
</clipPath>
</defs>
</svg>
