<svg width="24" height="25" viewBox="0 0 24 25" fill="none" xmlns="http://www.w3.org/2000/svg">
<rect y="0.800049" width="24" height="24" rx="12" fill="#2664F1"/>
<g clip-path="url(#clip0_10705_4387)">
<path fill-rule="evenodd" clip-rule="evenodd" d="M12.8391 19.5292C13.4061 19.1816 14.4811 18.4558 15.424 17.4235C16.3598 16.399 17.2501 14.9784 17.2501 13.2578V10.5094L17.2502 10.4177C17.2511 10.054 17.2521 9.67227 17.1263 9.32483C17.0166 9.02206 16.837 8.7476 16.599 8.52724C16.3226 8.27126 15.9656 8.13183 15.6433 8.00596L15.5603 7.97346L12.6281 6.81797L12.6046 6.80863C12.521 6.77517 12.3719 6.71551 12.2096 6.69087C12.0707 6.66977 11.9294 6.66977 11.7905 6.69087C11.6283 6.71551 11.4791 6.77517 11.3955 6.80863L11.372 6.81797L8.4398 7.97346L8.35685 8.00596C8.03455 8.13183 7.67753 8.27126 7.40112 8.52724C7.16318 8.7476 6.98349 9.02206 6.87385 9.32483C6.74804 9.67227 6.749 10.054 6.74991 10.4177L6.75007 10.5094V13.2578C6.75007 14.9784 7.64035 16.399 8.57616 17.4235C9.51905 18.4558 10.594 19.1816 11.161 19.5292L11.1847 19.5439C11.283 19.6049 11.4601 19.7149 11.693 19.7674C11.886 19.8109 12.1141 19.8109 12.3071 19.7674C12.5401 19.7149 12.7171 19.6049 12.8154 19.5439L12.8391 19.5292Z" fill="white"/>
</g>
<defs>
<clipPath id="clip0_10705_4387">
<rect width="14" height="14" fill="white" transform="translate(5 5.80005)"/>
</clipPath>
</defs>
</svg>
