<svg width="32" height="32" viewBox="0 0 32 32" fill="none" xmlns="http://www.w3.org/2000/svg">
<g clip-path="url(#clip0_32018_6168)">
<path fill-rule="evenodd" clip-rule="evenodd" d="M16 32C7.04054 32 4.62883 31.5462 2.54134 29.4587C0.440812 27.3582 0 24.9595 0 16C0 7.04054 0.453809 4.64182 2.54134 2.54134C4.62883 0.453809 7.04054 0 16 0C24.9595 0 27.3712 0.453809 29.4587 2.54134C31.5591 4.64182 32 7.04054 32 16C32 24.9595 31.5591 27.3582 29.4587 29.4587C27.3712 31.5462 24.9595 32 16 32Z" fill="#FFF100"/>
<path d="M4.36171 5.44098C4.92301 4.88377 5.59433 4.44972 6.33281 4.16655C7.07129 3.88338 7.8607 3.7573 8.65065 3.79637C12.3385 3.86929 15.7492 7.00781 15.9047 10.7377C14.9439 10.809 14.0997 11.3259 13.4322 11.9951C13.2555 10.6762 12.9768 9.34104 12.272 8.19225C11.5494 6.97054 10.2953 5.92383 8.8224 5.89304C7.39329 5.79745 5.85401 6.33701 4.9677 7.49552C4.1851 8.47904 4.26125 10.2176 5.46514 10.8317C6.49565 11.5058 7.8324 10.8317 8.86777 11.4701C9.41381 11.8201 9.29553 12.5654 9.17886 13.105C8.61014 14.9538 7.07247 16.3116 6.52319 18.1717C5.89938 19.954 6.12946 21.9178 6.83267 23.6402C7.46135 25.3204 8.56963 26.7512 9.62445 28.177C7.70439 26.9067 6.26719 24.9624 5.42301 22.8268C4.56101 20.5892 4.57883 17.9286 5.86859 15.8595C6.63661 14.6281 7.5537 13.3027 7.30742 11.7699C6.41949 11.8314 5.4781 11.872 4.66147 11.4604C4.17721 11.2328 3.7661 10.8746 3.4744 10.426C3.1827 9.97742 3.022 9.45633 3.01038 8.92138C2.91478 7.63487 3.48837 6.36779 4.36171 5.44098Z" fill="#231F20"/>
<path d="M22.8074 7.19258C22.9888 7.01272 23.3421 6.96574 23.5154 7.17962C24.0015 7.71269 23.974 8.48558 23.9626 9.15962C23.3298 9.3058 22.6801 9.36521 22.0312 9.33624C22.0475 8.57307 22.1949 7.71431 22.8074 7.19258Z" fill="#231F20"/>
<path d="M24.0435 7.32054C25.0804 7.23629 25.2004 8.58438 25.0788 9.33296C24.7985 9.35564 24.5166 9.3605 24.2363 9.3605C24.3644 8.67588 24.2976 7.96903 24.0435 7.32054Z" fill="#231F20"/>
<path d="M20.803 10.7038C21.6439 9.61005 23.2026 9.50311 24.4616 9.73157C25.9571 9.99892 27.1416 11.1121 27.8772 12.3905C28.4994 13.4842 28.9482 14.7075 29.0001 15.973C28.151 16.728 26.9293 16.8463 25.8389 16.8512C25.0951 16.8512 24.332 16.7572 23.6855 16.3651C24.8586 16.3294 26.0787 16.4121 27.1967 15.9843C27.5612 15.845 27.976 15.5339 27.882 15.0883C27.72 13.6673 27.0476 12.1717 25.7416 11.4766C24.8278 11.0084 23.7308 10.7588 22.7198 11.0213C21.8464 11.2935 21.5208 12.209 21.0298 12.8847C20.6247 13.4583 19.8146 13.5441 19.2021 13.2914C18.716 13.0807 18.2542 12.7858 17.7195 12.7129C16.5853 12.4537 15.4219 12.7664 14.3169 13.0613C15.0379 12.1345 16.2515 11.7521 17.3955 11.7926C18.1862 11.7683 18.9429 12.0259 19.6898 12.256C20.3703 12 20.3801 11.1785 20.803 10.7038Z" fill="#231F20"/>
<path d="M24.9541 12.5817C25.5617 12.2042 26.2341 12.7438 26.4901 13.2898C26.5809 13.5069 26.7802 13.7905 26.6019 14.0141C26.4529 14.2993 26.0672 14.1875 25.8177 14.1534C25.3366 13.9002 24.9645 13.4803 24.771 12.9722L24.9541 12.5817Z" fill="#231F20"/>
<path d="M25.6914 18.0195C26.4772 17.6306 27.5223 17.6322 28.2401 18.1685C28.6371 18.4683 28.4443 18.9641 28.2725 19.3303C27.6244 19.7581 26.8434 19.0694 26.2034 19.5361C25.0611 20.1323 24.6528 21.5971 23.4051 22.0378C22.4638 22.3408 21.4786 21.9957 20.5972 21.657C21.558 21.5777 22.6161 21.5598 23.4068 20.9279C24.4292 20.1696 24.575 18.6822 25.6914 18.0195Z" fill="#231F20"/>
<path d="M16.9433 19.9249H17.0794C17.8199 20.0772 18.5912 20.249 19.2004 20.7254C20.3346 21.5679 20.798 23.1347 20.4594 24.4893C20.2206 25.5742 19.5789 26.5279 18.6641 27.1579C19.7983 27.017 20.96 26.8225 22.0975 27.0429C22.7699 27.2049 23.1102 27.8369 23.2187 28.4672C20.6263 28.5255 18.0338 28.485 15.4526 28.4882C15.4899 27.6295 16.0813 26.8922 16.8429 26.5358C17.9916 25.9832 18.9104 24.9155 19.1599 23.6468C19.2594 23.1965 19.2526 22.7293 19.1401 22.2821C19.0276 21.8349 18.8125 21.4201 18.5118 21.0705C18.0953 20.5585 17.5007 20.2522 16.9433 19.9249Z" fill="#231F20"/>
</g>
<defs>
<clipPath id="clip0_32018_6168">
<rect width="32" height="32" fill="white"/>
</clipPath>
</defs>
</svg>
