<svg width="32" height="32" viewBox="0 0 32 32" fill="none" xmlns="http://www.w3.org/2000/svg">
<circle cx="16" cy="16" r="16" fill="black"/>
<path fill-rule="evenodd" clip-rule="evenodd" d="M7.10899 11.546C7 11.7599 7 12.0399 7 12.6V19.4C7 19.9601 7 20.2401 7.10899 20.454C7.20487 20.6422 7.35785 20.7951 7.54601 20.891C7.75992 21 8.03995 21 8.6 21H9.93628V11H8.6C8.03995 11 7.75992 11 7.54601 11.109C7.35785 11.2049 7.20487 11.3578 7.10899 11.546ZM11.7743 11H10.7956V21H11.7743V11ZM12.6336 11H15.5699V21H12.6336V11ZM19.3654 11H16.4292V21H19.3654V11ZM20.2247 11H21.2035V21H20.2247V11ZM23.4 11H22.0637V21H23.4C23.9601 21 24.2401 21 24.454 20.891C24.6422 20.7951 24.7951 20.6422 24.891 20.454C25 20.2401 25 19.9601 25 19.4V12.6C25 12.0399 25 11.7599 24.891 11.546C24.7951 11.3578 24.6422 11.2049 24.454 11.109C24.2401 11 23.9601 11 23.4 11Z" fill="white"/>
</svg>
