<svg width="56" height="56" viewBox="0 0 56 56" fill="none" xmlns="http://www.w3.org/2000/svg">
<path d="M28 56C40.2697 56 47.0905 56 51.5452 51.5452C56 47.0905 56 40.2737 56 28C56 15.7263 56 8.90955 51.5452 4.45478C47.0905 0 40.2697 0 28 0C15.7303 0 8.90955 0 4.45478 4.45478C0 8.90955 0 15.7303 0 28C0 40.2697 0 47.0905 4.45478 51.5452C8.90955 56 15.7303 56 28 56Z" fill="black"/>
<path fill-rule="evenodd" clip-rule="evenodd" d="M29.3449 19H26.6102C26.4958 19 26.4047 19.0958 26.4104 19.21L27.0215 31.431C27.0268 31.5375 27.1146 31.621 27.2212 31.621H28.7339C28.8404 31.621 28.9283 31.5375 28.9336 31.431L29.5447 19.21C29.5504 19.0958 29.4593 19 29.3449 19ZM29.5555 35.5169C29.5555 36.5597 29.0954 37 27.9777 37C26.8601 37 26.3999 36.5597 26.3999 35.5169C26.3999 34.4278 26.8821 33.9875 27.9777 33.9875C29.0734 33.9875 29.5555 34.4278 29.5555 35.5169Z" fill="white"/>
</svg>
