<svg width="32" height="32" viewBox="0 0 32 32" fill="none" xmlns="http://www.w3.org/2000/svg">
<g clip-path="url(#clip0_30622_12280)">
<path fill-rule="evenodd" clip-rule="evenodd" d="M16 32C7.04054 32 4.62882 31.5462 2.54134 29.4587C0.440812 27.3582 0 24.9595 0 16C0 7.04054 0.453809 4.64182 2.54134 2.54134C4.62882 0.453809 7.04054 0 16 0C24.9595 0 27.3712 0.453809 29.4587 2.54134C31.5591 4.64182 32 7.04054 32 16C32 24.9595 31.5591 27.3582 29.4587 29.4587C27.3712 31.5462 24.9595 32 16 32Z" fill="#F1F6F6"/>
<path fill-rule="evenodd" clip-rule="evenodd" d="M4 23.2129C4 24.4786 5.04462 25.545 6.31946 25.5293H11.5294L14.3706 14.9183C14.6262 13.9168 15.5339 13.1764 16.6151 13.1764H27.9994V9.31591C27.9994 8.04158 26.9695 7.00761 25.6972 7H10.038C8.95687 7 8.04917 7.74087 7.79309 8.74188L4.08418 22.5927C4.0289 22.7986 4 22.9994 4 23.2129Z" fill="#00B1EB"/>
<path fill-rule="evenodd" clip-rule="evenodd" d="M27.9998 19.3529V13.1765H16.6155C15.5343 13.1765 14.6266 13.9168 14.371 14.9183L11.5298 25.5293H15.6469H19.7681L20.9542 21.0948C21.2098 20.0933 22.118 19.3529 23.1986 19.3529H27.9998Z" fill="#06639B"/>
<path fill-rule="evenodd" clip-rule="evenodd" d="M27.9993 19.3529H23.2118H23.1981C22.1175 19.3529 21.2093 20.0933 20.9537 21.0948L19.7676 25.5293H21.8228C23.1088 25.5293 24.3979 25.5293 25.6829 25.5293C26.9623 25.5293 27.9993 24.4923 27.9993 23.2134V19.3529Z" fill="#292B5B"/>
</g>
<defs>
<clipPath id="clip0_30622_12280">
<rect width="32" height="32" fill="white"/>
</clipPath>
</defs>
</svg>
