<svg width="24" height="24" viewBox="0 0 24 24" fill="none" xmlns="http://www.w3.org/2000/svg">
<path d="M4.99997 11C4.59101 11 4.23877 10.8522 3.94327 10.5567C3.64776 10.2612 3.5 9.90897 3.5 9.5V4.99998C3.5 4.59101 3.64776 4.23878 3.94327 3.94328C4.23877 3.64776 4.59101 3.5 4.99997 3.5H9.5C9.90897 3.5 10.2612 3.64776 10.5567 3.94328C10.8522 4.23878 11 4.59101 11 4.99998V9.5C11 9.90897 10.8522 10.2612 10.5567 10.5567C10.2612 10.8522 9.90897 11 9.5 11H4.99997ZM4.99997 9.5H9.5V4.99998H4.99997V9.5ZM4.99997 20.5C4.59101 20.5 4.23877 20.3522 3.94327 20.0567C3.64776 19.7612 3.5 19.4089 3.5 19V14.5C3.5 14.091 3.64776 13.7387 3.94327 13.4432C4.23877 13.1477 4.59101 13 4.99997 13H9.5C9.90897 13 10.2612 13.1477 10.5567 13.4432C10.8522 13.7387 11 14.091 11 14.5V19C11 19.4089 10.8522 19.7612 10.5567 20.0567C10.2612 20.3522 9.90897 20.5 9.5 20.5H4.99997ZM4.99997 19H9.5V14.5H4.99997V19ZM14.5 11C14.091 11 13.7387 10.8522 13.4432 10.5567C13.1477 10.2612 13 9.90897 13 9.5V4.99998C13 4.59101 13.1477 4.23878 13.4432 3.94328C13.7387 3.64776 14.091 3.5 14.5 3.5H19C19.4089 3.5 19.7612 3.64776 20.0567 3.94328C20.3522 4.23878 20.5 4.59101 20.5 4.99998V9.5C20.5 9.90897 20.3522 10.2612 20.0567 10.5567C19.7612 10.8522 19.4089 11 19 11H14.5ZM14.5 9.5H19V4.99998H14.5V9.5ZM19.0865 20.5C18.9596 20.5 18.8509 20.4548 18.7605 20.3644C18.6701 20.274 18.625 20.1653 18.625 20.0384V19.0865C18.625 18.9596 18.6701 18.8509 18.7605 18.7605C18.8509 18.6701 18.9596 18.625 19.0865 18.625H20.0384C20.1653 18.625 20.274 18.6701 20.3644 18.7605C20.4548 18.8509 20.5 18.9596 20.5 19.0865V20.0384C20.5 20.1653 20.4548 20.274 20.3644 20.3644C20.274 20.4548 20.1653 20.5 20.0384 20.5H19.0865ZM13.4615 14.875C13.3346 14.875 13.2259 14.8298 13.1356 14.7394C13.0452 14.649 13 14.5404 13 14.4134V13.4615C13 13.3346 13.0452 13.2259 13.1356 13.1356C13.2259 13.0452 13.3346 13 13.4615 13H14.4134C14.5404 13 14.649 13.0452 14.7394 13.1356C14.8298 13.2259 14.875 13.3346 14.875 13.4615V14.4134C14.875 14.5404 14.8298 14.649 14.7394 14.7394C14.649 14.8298 14.5404 14.875 14.4134 14.875H13.4615ZM15.3365 16.75C15.2096 16.75 15.1009 16.7048 15.0106 16.6144C14.9202 16.524 14.875 16.4153 14.875 16.2884V15.3365C14.875 15.2096 14.9202 15.1009 15.0106 15.0106C15.1009 14.9202 15.2096 14.875 15.3365 14.875H16.2884C16.4153 14.875 16.524 14.9202 16.6144 15.0106C16.7048 15.1009 16.75 15.2096 16.75 15.3365V16.2884C16.75 16.4153 16.7048 16.524 16.6144 16.6144C16.524 16.7048 16.4153 16.75 16.2884 16.75H15.3365ZM13.4615 18.625C13.3346 18.625 13.2259 18.5798 13.1356 18.4894C13.0452 18.399 13 18.2903 13 18.1634V17.2115C13 17.0846 13.0452 16.9759 13.1356 16.8855C13.2259 16.7951 13.3346 16.75 13.4615 16.75H14.4134C14.5404 16.75 14.649 16.7951 14.7394 16.8855C14.8298 16.9759 14.875 17.0846 14.875 17.2115V18.1634C14.875 18.2903 14.8298 18.399 14.7394 18.4894C14.649 18.5798 14.5404 18.625 14.4134 18.625H13.4615ZM15.3365 20.5C15.2096 20.5 15.1009 20.4548 15.0106 20.3644C14.9202 20.274 14.875 20.1653 14.875 20.0384V19.0865C14.875 18.9596 14.9202 18.8509 15.0106 18.7605C15.1009 18.6701 15.2096 18.625 15.3365 18.625H16.2884C16.4153 18.625 16.524 18.6701 16.6144 18.7605C16.7048 18.8509 16.75 18.9596 16.75 19.0865V20.0384C16.75 20.1653 16.7048 20.274 16.6144 20.3644C16.524 20.4548 16.4153 20.5 16.2884 20.5H15.3365ZM17.2115 18.625C17.0846 18.625 16.9759 18.5798 16.8855 18.4894C16.7951 18.399 16.75 18.2903 16.75 18.1634V17.2115C16.75 17.0846 16.7951 16.9759 16.8855 16.8855C16.9759 16.7951 17.0846 16.75 17.2115 16.75H18.1634C18.2903 16.75 18.399 16.7951 18.4894 16.8855C18.5798 16.9759 18.625 17.0846 18.625 17.2115V18.1634C18.625 18.2903 18.5798 18.399 18.4894 18.4894C18.399 18.5798 18.2903 18.625 18.1634 18.625H17.2115ZM17.2115 14.875C17.0846 14.875 16.9759 14.8298 16.8855 14.7394C16.7951 14.649 16.75 14.5404 16.75 14.4134V13.4615C16.75 13.3346 16.7951 13.2259 16.8855 13.1356C16.9759 13.0452 17.0846 13 17.2115 13H18.1634C18.2903 13 18.399 13.0452 18.4894 13.1356C18.5798 13.2259 18.625 13.3346 18.625 13.4615V14.4134C18.625 14.5404 18.5798 14.649 18.4894 14.7394C18.399 14.8298 18.2903 14.875 18.1634 14.875H17.2115ZM19.0865 16.75C18.9596 16.75 18.8509 16.7048 18.7605 16.6144C18.6701 16.524 18.625 16.4153 18.625 16.2884V15.3365C18.625 15.2096 18.6701 15.1009 18.7605 15.0106C18.8509 14.9202 18.9596 14.875 19.0865 14.875H20.0384C20.1653 14.875 20.274 14.9202 20.3644 15.0106C20.4548 15.1009 20.5 15.2096 20.5 15.3365V16.2884C20.5 16.4153 20.4548 16.524 20.3644 16.6144C20.274 16.7048 20.1653 16.75 20.0384 16.75H19.0865Z" fill="white"/>
</svg>
