<svg width="33" height="32" viewBox="0 0 33 32" fill="none" xmlns="http://www.w3.org/2000/svg">
<circle cx="16.5" cy="16" r="16" fill="black"/>
<g clip-path="url(#clip0_8619_39282)">
<mask id="path-2-inside-1_8619_39282" fill="white">
<path d="M23 16.5C23 15.5807 22.8189 14.6705 22.4672 13.8212C22.1154 12.9719 21.5998 12.2003 20.9497 11.5503C20.2997 10.9002 19.5281 10.3846 18.6788 10.0328C17.8295 9.68106 16.9193 9.5 16 9.5L16 16.5H23Z"/>
</mask>
<path d="M23 16.5C23 15.5807 22.8189 14.6705 22.4672 13.8212C22.1154 12.9719 21.5998 12.2003 20.9497 11.5503C20.2997 10.9002 19.5281 10.3846 18.6788 10.0328C17.8295 9.68106 16.9193 9.5 16 9.5L16 16.5H23Z" stroke="white" stroke-width="3" mask="url(#path-2-inside-1_8619_39282)"/>
<mask id="path-3-inside-2_8619_39282" fill="white">
<path d="M10 15.5C10 16.4193 10.1811 17.3295 10.5328 18.1788C10.8846 19.0281 11.4002 19.7997 12.0503 20.4497C12.7003 21.0998 13.4719 21.6154 14.3212 21.9672C15.1705 22.3189 16.0807 22.5 17 22.5L17 15.5H10Z"/>
</mask>
<path d="M10 15.5C10 16.4193 10.1811 17.3295 10.5328 18.1788C10.8846 19.0281 11.4002 19.7997 12.0503 20.4497C12.7003 21.0998 13.4719 21.6154 14.3212 21.9672C15.1705 22.3189 16.0807 22.5 17 22.5L17 15.5H10Z" stroke="white" stroke-width="3" mask="url(#path-3-inside-2_8619_39282)"/>
</g>
<defs>
<clipPath id="clip0_8619_39282">
<rect width="16" height="16" fill="white" transform="translate(8.5 8)"/>
</clipPath>
</defs>
</svg>
