<svg width="32" height="32" viewBox="0 0 32 32" fill="none" xmlns="http://www.w3.org/2000/svg">
<circle cx="16" cy="16" r="16" fill="black"/>
<path d="M16.0002 13.3333V16M16.0002 18.6667H16.0068M9.3335 13.6818V18.3182C9.3335 18.4812 9.3335 18.5628 9.35192 18.6395C9.36825 18.7075 9.39518 18.7726 9.43174 18.8322C9.47296 18.8995 9.53061 18.9571 9.64592 19.0724L12.9277 22.3543C13.043 22.4696 13.1007 22.5272 13.168 22.5684C13.2276 22.605 13.2927 22.6319 13.3607 22.6483C13.4374 22.6667 13.5189 22.6667 13.682 22.6667H18.3183C18.4814 22.6667 18.5629 22.6667 18.6396 22.6483C18.7077 22.6319 18.7727 22.605 18.8324 22.5684C18.8996 22.5272 18.9573 22.4696 19.0726 22.3543L22.3544 19.0724C22.4697 18.9571 22.5274 18.8995 22.5686 18.8322C22.6051 18.7726 22.6321 18.7075 22.6484 18.6395C22.6668 18.5628 22.6668 18.4812 22.6668 18.3182V13.6818C22.6668 13.5188 22.6668 13.4372 22.6484 13.3605C22.6321 13.2925 22.6051 13.2275 22.5686 13.1678C22.5274 13.1005 22.4697 13.0429 22.3544 12.9276L19.0726 9.64576C18.9573 9.53046 18.8996 9.47281 18.8324 9.43158C18.7727 9.39503 18.7077 9.36809 18.6396 9.35176C18.5629 9.33334 18.4814 9.33334 18.3183 9.33334H13.682C13.5189 9.33334 13.4374 9.33334 13.3607 9.35176C13.2927 9.36809 13.2276 9.39503 13.168 9.43158C13.1007 9.47281 13.043 9.53046 12.9277 9.64576L9.64592 12.9276C9.53061 13.0429 9.47296 13.1005 9.43174 13.1678C9.39518 13.2275 9.36825 13.2925 9.35192 13.3605C9.3335 13.4372 9.3335 13.5188 9.3335 13.6818Z" stroke="white" stroke-width="1.5" stroke-linecap="round" stroke-linejoin="round"/>
</svg>
