<svg width="30" height="20" viewBox="0 0 30 20" fill="none" xmlns="http://www.w3.org/2000/svg">
<path d="M18.958 3.48438H11.0442V16.5131H18.958V3.48438Z" fill="#7375CF"/>
<path d="M11.8593 10.0001C11.8584 8.7455 12.1405 7.50716 12.6844 6.37875C13.2283 5.25033 14.0198 4.26141 14.9988 3.48683C13.7862 2.52623 12.3299 1.92889 10.7965 1.76309C9.26297 1.59728 7.71414 1.86969 6.32698 2.54918C4.93982 3.22867 3.7703 4.28783 2.95208 5.60561C2.13386 6.92339 1.69995 8.44662 1.69995 10.0012C1.69995 11.5558 2.13386 13.079 2.95208 14.3968C3.7703 15.7146 4.93982 16.7737 6.32698 17.4532C7.71414 18.1327 9.26297 18.4051 10.7965 18.2393C12.3299 18.0735 13.7862 17.4762 14.9988 16.5156C14.0195 15.7408 13.2278 14.7515 12.6839 13.6226C12.14 12.4938 11.858 11.255 11.8593 10.0001Z" fill="#EB001B"/>
<path d="M27.5135 15.1347V14.8677H27.6277V14.8125H27.356V14.8677H27.4633V15.1347H27.5135ZM28.0409 15.1347V14.8125H27.9587L27.8628 15.0427L27.7669 14.8125H27.6847V15.1347H27.7441V14.8908L27.8332 15.1002H27.8948L27.9839 14.8908V15.1347H28.0409Z" fill="#F79E1B"/>
<path d="M28.2989 9.9999C28.2988 11.5546 27.8648 13.0779 27.0465 14.3958C26.2281 15.7136 25.0584 16.7727 23.6711 17.4521C22.2837 18.1315 20.7348 18.4037 19.2012 18.2377C17.6676 18.0717 16.2113 17.474 14.9988 16.5131C15.9775 15.7379 16.7687 14.7487 17.3127 13.6202C17.8568 12.4917 18.1395 11.2534 18.1395 9.99875C18.1395 8.74407 17.8568 7.50579 17.3127 6.37731C16.7687 5.24883 15.9775 4.25964 14.9988 3.48437C16.2113 2.52347 17.6676 1.92584 19.2012 1.7598C20.7348 1.59375 22.2837 1.86598 23.6711 2.54538C25.0584 3.22478 26.2281 4.28392 27.0465 5.60174C27.8648 6.91957 28.2988 8.44289 28.2989 9.9976V9.9999Z" fill="#00A2E5"/>
</svg>
