<svg width="24" height="24" viewBox="0 0 24 24" fill="none" xmlns="http://www.w3.org/2000/svg">
<path d="M4.7473 15.3789H9.78024C10.1254 15.3789 10.4052 15.6588 10.4052 16.0039V16.375C10.4052 16.7202 10.1254 17 9.78024 17H3.625C3.27982 17 3 16.7202 3 16.375V6.625C3 6.27982 3.27982 6 3.625 6H9.64157C9.98674 6 10.2666 6.27982 10.2666 6.625V6.99605C10.2666 7.34123 9.98674 7.62105 9.64156 7.62105H4.7473V10.5737H8.39349C8.73867 10.5737 9.01849 10.8535 9.01849 11.1987V11.5118C9.01849 11.857 8.73867 12.1368 8.39349 12.1368H4.7473V15.3789Z" fill="black"/>
<path d="M19.3359 6.625C19.3359 6.27982 19.6157 6 19.9609 6H20.375C20.7202 6 21 6.27982 21 6.625V16.375C21 16.7202 20.7202 17 20.375 17H19.3082L13.8444 8.86579V16.375C13.8444 16.7202 13.5646 17 13.2194 17H12.8053C12.4601 17 12.1803 16.7202 12.1803 16.375V6.625C12.1803 6.27982 12.4601 6 12.8053 6H13.8998L19.3359 14.0763V6.625Z" fill="black"/>
</svg>
